<?xml version="1.0" encoding="UTF-8"?>
<svg width="151px" height="40px" viewBox="0 0 151 40" version="1.1" xmlns="http://www.w3.org/2000/svg" xmlns:xlink="http://www.w3.org/1999/xlink">
    <title>base-58-logo</title>
    <g id="Page-1" stroke="none" stroke-width="1" fill="none" fill-rule="evenodd">
        <g id="base-58-logo" fill="#082437" fill-rule="nonzero">
            <path d="M0,0.68 L13.2553846,0.68 C16.0451282,0.68 18.334359,0.939487179 20.1230769,1.45846154 C21.9117949,1.9774359 23.3333333,2.69538462 24.3876923,3.61230769 C25.3989403,4.4604985 26.151626,5.57566731 26.56,6.83076923 C26.9598717,8.10714545 27.159168,9.43786336 27.1507692,10.7753846 C27.1627434,12.333856 26.7941267,13.8716955 26.0769231,15.2553846 C25.3610256,16.6338462 24.0553846,17.7692308 22.16,18.6615385 C23.2462142,19.1188232 24.2591391,19.7336282 25.1661538,20.4861538 C25.9019017,21.1072875 26.5352939,21.8403611 27.0430769,22.6584615 C27.498067,23.4038294 27.8246596,24.2203108 28.0092308,25.0738462 C28.1874407,25.9113581 28.2772411,26.7652762 28.2769231,27.6215385 C28.2873166,29.1366967 28.0428837,30.642819 27.5538462,32.0769231 C27.0748665,33.4655394 26.2536865,34.7110662 25.1661538,35.6984615 C23.9052042,36.803643 22.4229853,37.627098 20.8184615,38.1138462 C19.0317949,38.7046154 16.8328205,39 14.2215385,39 L0,39 L0,0.68 Z M13.9938462,16.4061538 C16.5333333,16.4061538 18.3046154,15.9415385 19.3076923,15.0123077 C20.3107692,14.0830769 20.8153846,12.745641 20.8215385,11 C20.8215385,9.17435897 20.24,7.85948718 19.0769231,7.05538462 C17.9138462,6.25128205 15.9015385,5.84410256 13.04,5.83384615 L6.27076923,5.83384615 L6.27076923,16.4061538 L13.9938462,16.4061538 Z M13.9938462,33.7938462 C15.2863456,33.8228498 16.576878,33.6779625 17.8307692,33.3630769 C18.720453,33.1456958 19.5473728,32.7243354 20.2461538,32.1323077 C20.8278592,31.6091365 21.2627402,30.943026 21.5076923,30.2 C21.7676925,29.3846345 21.8944492,28.5326635 21.8830769,27.6769231 C21.8830769,25.7446154 21.3374359,24.2687179 20.2461538,23.2492308 C19.1548718,22.2297436 17.2676923,21.7169231 14.5846154,21.7107692 L6.27692308,21.7107692 L6.27692308,33.7846154 L13.9938462,33.7938462 Z" id="Shape"></path>
            <path d="M51.1938462,35.3476923 C50.1342,36.6189671 48.8412393,37.6758945 47.3846154,38.4615385 C45.8810256,39.2820513 44.0564103,39.6923077 41.9107692,39.6923077 C40.6618179,39.7008582 39.418189,39.5288229 38.2184615,39.1815385 C37.1336749,38.8707211 36.121318,38.3478095 35.24,37.6430769 C34.3835437,36.9429645 33.7037102,36.051276 33.2553846,35.04 C32.7437149,33.8635667 32.492839,32.5902926 32.52,31.3076923 C32.52,29.3753846 32.9497436,27.8102564 33.8092308,26.6123077 C34.6746415,25.4078291 35.8275775,24.4389398 37.1630769,23.7938462 C38.6293187,23.0914901 40.1938886,22.6163091 41.8030769,22.3846154 C43.5089889,22.1173213 45.2286619,21.9467922 46.9538462,21.8738462 L51.0861538,21.6584615 L51.0861538,20.4769231 C51.0861538,18.3661538 50.5733333,16.9087179 49.5476923,16.1046154 C48.5220513,15.3005128 47.1887179,14.8984615 45.5476923,14.8984615 C43.6502564,14.8984615 42.2461538,15.2205128 41.3353846,15.8646154 C40.4059692,16.53504 39.7641474,17.5318419 39.5384615,18.6553846 L33.9753846,18.6553846 C34.4892308,15.4030769 35.7046154,13.36 37.6676923,12.1076923 C39.6307692,10.8553846 42.3353846,10.2307692 45.7723077,10.2307692 C47.9897436,10.2307692 49.8235897,10.5169231 51.2738462,11.0892308 C53.9304689,12.0286638 55.9170244,14.2686242 56.5323077,17.0184615 C56.8846853,18.5041537 57.0561855,20.0269934 57.0430769,21.5538462 L57.0430769,39 L51.1969231,39 L51.1969231,35.3476923 L51.1938462,35.3476923 Z M47.1692308,25.9569231 C45.6783985,26.0183262 44.196317,26.2160744 42.7415385,26.5476923 C41.8159626,26.7488096 40.9362024,27.1213771 40.1476923,27.6461538 C39.5918181,28.025269 39.1697312,28.5701057 38.9415385,29.2030769 C38.7364823,29.8170903 38.632564,30.4603448 38.6338344,31.1076923 C38.6338344,32.3241026 39.0184615,33.2717949 39.7876923,33.9507692 C40.5569231,34.6297436 41.6923077,34.9692308 43.1938462,34.9692308 C45.8769231,34.9692308 47.8625641,34.2892308 49.1507692,32.9292308 C50.4389744,31.5692308 51.0830769,29.7230769 51.0830769,27.3907692 L51.0830769,25.7815385 L47.1692308,25.9569231 Z" id="Shape"></path>
            <path d="M115.938462,30.7323077 C115.437949,33.6307692 114.207179,35.8758974 112.246154,37.4676923 C110.285128,39.0594872 107.458462,39.8553846 103.766154,39.8553846 C99.3292308,39.8553846 95.9579487,38.5764103 93.6523077,36.0184615 C91.3466667,33.4605128 90.1928205,29.8564103 90.1907692,25.2061538 C90.1550272,23.0368102 90.4911706,20.8773749 91.1846154,18.8215385 C91.7763344,17.0784942 92.7270565,15.4789331 93.9753846,14.1261538 C95.1794826,12.8535815 96.6506563,11.8636917 98.2830769,11.2276923 C100.036928,10.5491839 101.904221,10.2118597 103.784615,10.2338462 C105.692718,10.1905089 107.590285,10.5283888 109.366154,11.2276923 C110.860523,11.8439726 112.191754,12.7981617 113.255385,14.0153846 C114.322643,15.2705323 115.109433,16.7392073 115.563077,18.3230769 C116.083151,20.1277742 116.336092,21.9989149 116.313846,23.8769231 L116.313846,26.56 L96.2984615,26.56 C96.3702564,29.1015385 97.014359,31.1589744 98.2307692,32.7323077 C99.4471795,34.305641 101.293333,35.0923077 103.769231,35.0923077 C105.701538,35.0923077 107.150769,34.7169231 108.116923,33.9661538 C109.120261,33.1546396 109.804635,32.0147423 110.049231,30.7476923 L115.938462,30.7323077 Z M110.356923,22.3076923 C110.356923,20.0184615 109.820513,18.2123077 108.747692,16.8892308 C107.674872,15.5661538 105.957949,14.9046154 103.596923,14.9046154 C101.340513,14.9046154 99.6235897,15.5753846 98.4461538,16.9169231 C97.2687179,18.2584615 96.5887179,20.0564103 96.4061538,22.3107692 L110.356923,22.3076923 Z" id="Shape"></path>
            <path d="M67.5323077,30.4646154 C67.5984704,31.2733472 67.8557897,32.0547964 68.2830769,32.7446154 C68.66365,33.3223106 69.1681876,33.807928 69.76,34.1661538 C70.3944857,34.5394703 71.0958526,34.7851055 71.8246154,34.8892308 C72.6593682,35.0182959 73.5030308,35.0810562 74.3476923,35.0769231 C76.3866667,35.0769231 77.8533333,34.7692308 78.7476923,34.1538462 C79.636199,33.5581709 80.1457945,32.5389797 80.0892308,31.4707692 C80.1129803,30.6085446 79.8170862,29.767986 79.2584615,29.1107692 C78.7025641,28.4666667 77.5661538,28.0010256 75.8492308,27.7138462 C73.6297436,27.32 71.6810256,26.9446154 70.0030769,26.5876923 C68.5258646,26.3026204 67.0977139,25.8051514 65.7630769,25.1107692 C64.6970218,24.5603507 63.8052642,23.7239949 63.1876923,22.6953846 C62.6153846,21.7128205 62.3292308,20.3794872 62.3292308,18.6953846 C62.313738,17.4703651 62.6090941,16.2614167 63.1876923,15.1815385 C63.7683403,14.1166394 64.5851078,13.1988285 65.5753846,12.4984615 C66.6827411,11.7247304 67.9181615,11.1528537 69.2246154,10.8092308 C70.7383225,10.4024927 72.3003607,10.2037443 73.8676923,10.2184615 C75.6755819,10.1816664 77.4794538,10.4033944 79.2246154,10.8769231 C80.4961035,11.2242914 81.6833792,11.827352 82.7138462,12.6492308 C83.5701377,13.3519841 84.2657762,14.2301884 84.7538462,15.2246154 C85.2718629,16.3157821 85.6442802,17.4702759 85.8615385,18.6584615 L80.2307692,18.6584615 C79.8908437,17.5882937 79.2499199,16.6386582 78.3846154,15.9230769 C77.5066667,15.2441026 76.0492308,14.9046154 74.0123077,14.9046154 C73.0366874,14.8756966 72.0616509,14.9792037 71.1138462,15.2123077 C70.4735338,15.3757871 69.8658299,15.6473808 69.3169231,16.0153846 C68.9134865,16.2783988 68.5933045,16.6508772 68.3938462,17.0892308 C68.2361203,17.4633251 68.1535266,17.8647933 68.1507692,18.2707692 C68.136023,18.7799245 68.208878,19.2878277 68.3661538,19.7723077 C68.512782,20.1709488 68.7862852,20.5103955 69.1446154,20.7384615 C69.6207721,21.0317187 70.1398653,21.2486996 70.6830769,21.3815385 C71.3271795,21.56 72.1323077,21.7384615 73.0984615,21.9169231 L76.5876923,22.5076923 C78.1741835,22.7543686 79.7304014,23.166885 81.2307692,23.7384615 C82.3273919,24.1513949 83.3305744,24.7790377 84.1815385,25.5846154 C84.9014482,26.2901649 85.4307541,27.1666955 85.72,28.1323077 C86.0175976,29.1788345 86.1626812,30.2628167 86.1507692,31.3507692 C86.2231153,33.7472844 85.146019,36.0341132 83.2523077,37.5046154 C81.32,39.0615385 78.3866667,39.8401219 74.4523077,39.8401219 C72.8932239,39.8450621 71.3376222,39.6924915 69.8092308,39.3846154 C68.3970582,39.1066371 67.0437155,38.5861206 65.8092308,37.8461538 C64.6286229,37.1459765 63.6359996,36.1691929 62.9169231,35 C62.1825641,33.8020513 61.7620513,32.2902564 61.6553846,30.4646154 L67.5323077,30.4646154 Z" id="Path"></path>
            <path d="M143.138462,26.4092308 C143.138462,26.4553846 143.138462,26.5015385 143.138462,26.5446154 L144.28,26.5446154 C144.28,26.4984615 144.28,26.4553846 144.28,26.4092308 C144.28,23.6769231 146.741538,21.8430769 150.406154,21.8430769 L150.430769,21.8430769 L150.430769,20.7015385 L150.406154,20.7015385 C146.098462,20.7015385 143.138462,22.9938462 143.138462,26.4092308" id="Path"></path>
            <path d="M143.969231,10.9476923 C143.969231,14.1661538 146.553846,16.3138462 150.409231,16.3138462 L150.433846,16.3138462 L150.433846,15.1692308 L150.409231,15.1692308 C147.190769,15.1692308 145.110769,13.5107692 145.110769,10.9446154 C145.110769,8.32 147.190769,6.63692308 150.409231,6.63692308 L150.433846,6.63692308 L150.433846,5.48307692 L150.409231,5.48307692 C146.553846,5.48307692 143.969231,7.67692308 143.969231,10.9476923" id="Path"></path>
            <path d="M150.356923,0 C146.781538,0 143.523077,1.08615385 141.178462,3.06153846 C138.902186,4.90672772 137.574032,7.67597354 137.56,10.6061538 C137.557388,13.5662685 138.919633,16.3622775 141.252308,18.1846154 C138.433846,20.0307692 136.483077,23.3015385 136.483077,26.4615385 C136.483077,26.4892308 136.483077,26.52 136.483077,26.5476923 L137.624615,26.5476923 C137.624615,26.5169231 137.624615,26.4892308 137.624615,26.4615385 C137.624615,22.9969231 140.356923,19.4861538 143.575385,18.2646154 C140.591948,16.8856509 138.687316,13.8928289 138.701538,10.6061538 C138.701538,5.43692308 143.384615,1.14153846 150.36,1.14153846 L150.433846,1.14153846 L150.433846,0.00307692308 L150.36,0.00307692308" id="Path"></path>
            <polygon id="Path" points="131.48 7.97846154 131.48 6.83692308 131.48 1.82769231 131.48 0.686153846 130.341538 0.686153846 121.381538 0.686153846 121.381538 1.82769231 130.341538 1.82769231 130.341538 6.83692308 121.381538 6.83692308 121.381538 7.97846154 130.341538 7.97846154"></polygon>
            <path d="M121.378462,12.3261538 L121.378462,13.4615385 C127.812308,13.7384615 132.24,18.3846154 132.24,25.2738462 C132.24,25.7015385 132.218462,26.1261538 132.178462,26.5415385 L133.323077,26.5415385 C133.36,26.1230769 133.378462,25.7015385 133.378462,25.2738462 C133.378462,21.4953846 132.147692,18.2523077 129.852308,15.8953846 C127.726154,13.7169231 124.732308,12.4615385 121.378462,12.3261538" id="Path"></path>
            <path d="M121.378462,18.3138462 L121.378462,19.4892308 C123.886154,20.1046154 125.436923,22.2769231 125.436923,25.3815385 C125.437122,25.7732333 125.405221,26.1642858 125.341538,26.5507692 L126.498462,26.5507692 C126.552307,26.1633625 126.579039,25.7726689 126.578471,25.3815385 C126.578471,21.64 124.538462,18.96 121.378462,18.3046154" id="Path"></path>
        </g>
    </g>
</svg>