<?xml version="1.0" encoding="UTF-8"?>
<svg width="344px" height="70px" viewBox="0 0 344 70" version="1.1" xmlns="http://www.w3.org/2000/svg" xmlns:xlink="http://www.w3.org/1999/xlink">
    <title>bitcoin-ira-logo</title>
    <defs>
        <linearGradient x1="50.0393907%" y1="99.9804781%" x2="50.0393907%" y2="-0.00166504384%" id="linearGradient-1">
            <stop stop-color="#FFFFFF" offset="0%"></stop>
            <stop stop-color="#F26322" offset="0%"></stop>
            <stop stop-color="#F37224" offset="100%"></stop>
        </linearGradient>
        <linearGradient x1="50.1784183%" y1="99.855645%" x2="50.1784183%" y2="-0.0460065578%" id="linearGradient-2">
            <stop stop-color="#FFFFFF" offset="0%"></stop>
            <stop stop-color="#F26322" offset="0%"></stop>
            <stop stop-color="#F37224" offset="100%"></stop>
        </linearGradient>
        <linearGradient x1="49.874823%" y1="99.7276395%" x2="49.874823%" y2="0.0739744452%" id="linearGradient-3">
            <stop stop-color="#FFFFFF" offset="0%"></stop>
            <stop stop-color="#F26322" offset="0%"></stop>
            <stop stop-color="#F37224" offset="100%"></stop>
        </linearGradient>
    </defs>
    <g id="Page-1" stroke="none" stroke-width="1" fill="none" fill-rule="evenodd">
        <g id="bitcoin-ira-logo" fill-rule="nonzero">
            <g id="Group">
                <path d="M25.2045455,0.159090909 C28.3636364,-0.181818182 31.4772727,1.06818182 34.0909091,2.72727273 C37.8181818,5.13636364 40.7272727,8.59090909 43.2272727,12.2045455 C46.5681818,17.0909091 48.8863636,22.5909091 50.4545455,28.2727273 C52.3409091,35.0681818 52.8863636,42.3409091 51.1818182,49.2272727 C49.6818182,55.2954545 46.4772727,61.0681818 41.4772727,64.9318182 C37.5227273,68 32.5681818,69.6818182 27.5909091,69.9545455 C26.5454545,69.9545455 25.5,69.9318182 24.4318182,69.9545455 C18.2045455,69.6590909 12.0681818,67 7.81818182,62.4090909 C3.27272727,57.5681818 1.04545455,50.9545455 0.409090909,44.4318182 C-2.21489493e-14,40.7727273 0.272727273,37.0909091 0.863636364,33.4545455 C2.54545455,23.8409091 6.31818182,14.3636364 12.9545455,7.06818182 C16.1818182,3.56818182 20.3409091,0.568181818 25.2045455,0.159090909 Z M21.9545455,20.1818182 C21.9318182,21.4772727 21.9318182,22.75 21.9318182,24.0454545 C19.5,24.0909091 17.0909091,24.1136364 14.6818182,24.1590909 C15.0681818,25.5227273 15.4090909,26.8863636 15.7954545,28.25 C16.75,28.25 17.6818182,28.25 18.6363636,28.25 C18.6363636,33.7954545 18.6590909,39.3409091 18.6363636,44.8863636 C17.7727273,44.8863636 16.8863636,44.8181818 16.0227273,44.9318182 C15.1818182,46.3409091 14.5227273,47.8409091 13.75,49.2727273 C16.5227273,49.2954545 19.2727273,49.2954545 22.0227273,49.2727273 C22.0681818,50.75 22.0454545,52.2045455 22.0454545,53.6818182 C22.9545455,53.6818182 23.8636364,53.6818182 24.7954545,53.6818182 C24.7954545,52.2045455 24.7727273,50.75 24.8181818,49.2727273 C25.9090909,49.2954545 27,49.2954545 28.0681818,49.2727273 C28.0909091,50.75 28.0681818,52.2272727 28.0909091,53.7045455 C28.9772727,53.6818182 29.8863636,53.6818182 30.7954545,53.7045455 C30.8409091,52.2272727 30.8181818,50.7727273 30.8181818,49.2954545 C33.25,48.9318182 35.7272727,47.8863636 37.2045455,45.8409091 C38.5227273,43.9772727 38.6363636,41.4090909 37.6818182,39.3636364 C36.9090909,37.6818182 35.3181818,36.5454545 33.6136364,35.9545455 C35,34.9090909 36.0909091,33.4545455 36.4318182,31.75 C36.8181818,29.7954545 36.5454545,27.5454545 35.0454545,26.1136364 C33.8863636,24.9545455 32.25,24.5909091 30.7272727,24.25 C30.6363636,22.9090909 30.7045455,21.5681818 30.6818182,20.2272727 C29.7727273,20.2272727 28.8409091,20.2272727 27.9318182,20.2272727 C27.9318182,21.5454545 27.9318182,22.8409091 27.9545455,24.1590909 C26.8636364,24.2045455 25.7727273,24.2045455 24.6818182,24.1590909 C24.6363636,22.8409091 24.6818182,21.5227273 24.6363636,20.2045455 C23.75,20.2045455 22.8409091,20.2045455 21.9545455,20.1818182 Z" id="Shape" fill="url(#linearGradient-1)"></path>
                <path d="M24.9090909,28.1363636 C26.2954545,28.2045455 27.7045455,28.0227273 29.0909091,28.25 C30.7272727,28.6136364 31.5681818,30.5454545 31.0909091,32.0681818 C30.8181818,33.1818182 29.8863636,34.1363636 28.7272727,34.25 C27.4545455,34.3636364 26.1590909,34.2727273 24.8863636,34.2954545 C24.9090909,32.2272727 24.8863636,30.1818182 24.9090909,28.1363636 Z" id="Path" fill="url(#linearGradient-2)"></path>
                <path d="M24.7954545,37.3863636 C26.1818182,37.3863636 27.5909091,37.3636364 28.9772727,37.3863636 C29.9772727,37.3863636 31,37.8181818 31.6363636,38.6136364 C32.7272727,40 32.7954545,42.1136364 31.75,43.5454545 C31.1136364,44.4090909 30.0454545,44.8409091 29,44.8636364 C27.5909091,44.9090909 26.2045455,44.8636364 24.7954545,44.8863636 C24.7727273,42.3636364 24.7954545,39.8863636 24.7954545,37.3863636 Z" id="Path" fill="url(#linearGradient-3)"></path>
            </g>
            <g id="Group" transform="translate(69.545455, 20.227273)" fill="#262626">
                <path d="M86.2272727,0.522727273 C88.8409091,2.77555756e-17 91.6136364,2.77555756e-17 94.1590909,0.840909091 C96.2045455,1.52272727 98.0909091,2.70454545 99.6136364,4.22727273 C98.4772727,5.29545455 97.3636364,6.38636364 96.25,7.47727273 C92.8636364,4.20454545 86.8863636,4.09090909 83.4545455,7.34090909 C80.2727273,10.4772727 79.9545455,15.9318182 82.4318182,19.5909091 C83.7727273,21.5909091 86.1363636,22.7272727 88.4772727,22.9545455 C91.3636364,23.3409091 94.3863636,22.3636364 96.4772727,20.3409091 C97.6136364,21.5 98.7727273,22.5909091 99.8863636,23.7727273 C97.75,26.1363636 94.5909091,27.3863636 91.4545455,27.6818182 C87.9772727,27.9545455 84.2954545,27.4318182 81.3636364,25.4545455 C78.75,23.7272727 76.9772727,20.8863636 76.25,17.8636364 C75.3409091,13.9772727 75.7954545,9.65909091 77.9545455,6.22727273 C79.7727273,3.25 82.8636364,1.20454545 86.2272727,0.522727273 Z" id="Path"></path>
                <path d="M114.045455,2.90909091 C117.181818,0.409090909 121.454545,-0.25 125.340909,0.386363636 C128.295455,0.863636364 131.113636,2.38636364 133.022727,4.70454545 C135.659091,7.86363636 136.636364,12.2272727 136.022727,16.25 C135.545455,19.75 133.818182,23.1818182 130.931818,25.2727273 C128.5,27.0681818 125.409091,27.8181818 122.409091,27.75 C119.022727,27.75 115.522727,26.6818182 113.045455,24.2727273 C110.795455,22.1590909 109.522727,19.1590909 109.136364,16.1136364 C107.840909,16.1136364 106.522727,16.1136364 105.227273,16.1136364 C105.227273,14.5454545 105.227273,12.9545455 105.227273,11.3863636 C106.545455,11.3863636 107.886364,11.3863636 109.227273,11.3863636 C109.818182,8.13636364 111.386364,4.95454545 114.045455,2.90909091 Z M119.204545,5.34090909 C116.613636,6.31818182 114.863636,8.75 114.25,11.3863636 C115.954545,11.3863636 117.636364,11.3863636 119.340909,11.3863636 C119.363636,12.9545455 119.363636,14.5454545 119.340909,16.1136364 C117.613636,16.1136364 115.886364,16.1136364 114.181818,16.1136364 C114.568182,18.0454545 115.431818,19.9318182 116.954545,21.2272727 C118.863636,22.8863636 121.568182,23.3636364 124.022727,23.0454545 C125.840909,22.8409091 127.613636,22.0454545 128.863636,20.6818182 C130.431818,19 131.136364,16.7045455 131.25,14.4545455 C131.340909,11.7954545 130.568182,8.97727273 128.636364,7.04545455 C126.227273,4.61363636 122.318182,4.18181818 119.204545,5.34090909 Z" id="Shape"></path>
                <path d="M0.0454545455,0.681818182 C4.38636364,0.659090909 8.72727273,0.681818182 13.0681818,0.681818182 C15.3863636,0.75 17.8409091,1.29545455 19.5909091,2.90909091 C21.4090909,4.56818182 22,7.27272727 21.5909091,9.63636364 C21.25,11.3181818 19.9772727,12.6818182 18.4545455,13.4090909 C19.7954545,14 21,14.9772727 21.6590909,16.2954545 C22.75,18.2045455 22.7045455,20.5909091 21.9318182,22.5909091 C21.3409091,24.1590909 20.0454545,25.3863636 18.5227273,26.0681818 C16.5227273,26.9772727 14.2954545,27.1363636 12.1363636,27.1590909 C8.09090909,27.1590909 4.06818182,27.1590909 0.0227272727,27.1590909 C0.0454545455,18.3409091 0.0681818182,9.52272727 0.0454545455,0.681818182 Z M5,5.29545455 C5,7.29545455 5,9.27272727 5,11.2727273 C7.61363636,11.2727273 10.2272727,11.2727273 12.8409091,11.2727273 C13.8863636,11.25 15.0227273,11.0909091 15.8636364,10.4318182 C16.75,9.72727273 16.9545455,8.38636364 16.4772727,7.38636364 C15.9090909,6.06818182 14.4545455,5.36363636 13.0909091,5.31818182 C10.3863636,5.27272727 7.68181818,5.29545455 5,5.29545455 Z M5,15.6818182 C5,17.9318182 5,20.1818182 5,22.4545455 C7.61363636,22.4545455 10.2272727,22.4545455 12.8409091,22.4545455 C14.2272727,22.3863636 15.75,22.1363636 16.7954545,21.1136364 C17.7272727,20.2045455 17.7272727,18.6136364 16.9318182,17.6363636 C15.8636364,16.2954545 14.0681818,15.75 12.4090909,15.7272727 C9.93181818,15.6590909 7.45454545,15.6818182 5,15.6818182 Z" id="Shape"></path>
                <path d="M33.5454545,0.681818182 C35.2045455,0.704545455 36.8636364,0.704545455 38.5227273,0.681818182 C38.5454545,9.5 38.5227273,18.3409091 38.5227273,27.1590909 C36.8636364,27.1590909 35.1818182,27.1590909 33.5227273,27.1590909 C33.5227273,18.3181818 33.5,9.5 33.5454545,0.681818182 Z" id="Path"></path>
                <path d="M47.3181818,0.681818182 C54.5681818,0.681818182 61.8409091,0.681818182 69.0909091,0.681818182 C69.0909091,2.22727273 69.0909091,3.75 69.0909091,5.29545455 C66.3181818,5.29545455 63.5227273,5.29545455 60.75,5.29545455 C60.75,12.5909091 60.75,19.8636364 60.75,27.1590909 C59.0681818,27.1590909 57.3636364,27.1818182 55.6818182,27.1363636 C55.7045455,19.8409091 55.6818182,12.5681818 55.6818182,5.27272727 C52.9090909,5.27272727 50.1136364,5.27272727 47.3409091,5.27272727 C47.3181818,3.75 47.3409091,2.22727273 47.3181818,0.681818182 Z" id="Path"></path>
                <path d="M180.340909,0.613636364 C182.022727,0.613636364 183.704545,0.613636364 185.386364,0.613636364 C185.386364,9.45454545 185.386364,18.2954545 185.386364,27.1590909 C184.318182,27.1590909 183.25,27.1590909 182.181818,27.1590909 C177.590909,21.2272727 173,15.3181818 168.386364,9.43181818 C168.409091,15.3409091 168.386364,21.2727273 168.386364,27.1818182 C166.727273,27.1818182 165.045455,27.1818182 163.386364,27.1818182 C163.386364,18.3636364 163.386364,9.52272727 163.386364,0.704545455 C164.727273,0.704545455 166.068182,0.727272727 167.431818,0.704545455 C171.75,6.11363636 176,11.5681818 180.318182,16.9772727 C180.340909,11.5 180.340909,6.06818182 180.340909,0.613636364 Z" id="Path"></path>
                <path d="M145.840909,27.1590909 C145.863636,18.3409091 145.818182,9.5 145.863636,0.681818182 C147.522727,0.704545455 149.181818,0.681818182 150.840909,0.681818182 C150.840909,9.5 150.840909,18.3409091 150.840909,27.1590909 C149.181818,27.1590909 147.522727,27.1590909 145.840909,27.1590909 Z" id="Path"></path>
            </g>
            <g id="Group" transform="translate(266.818182, 20.681818)" fill="#3378FF">
                <path d="M17.3863636,0.159090909 C20.7272727,0.136363636 24.0454545,0.25 27.3863636,0.227272727 C29.2045455,0.25 31.0681818,0.0909090909 32.8636364,0.568181818 C35.1818182,1.11363636 37.3181818,2.61363636 38.4545455,4.75 C39.4772727,6.59090909 39.6818182,8.79545455 39.3636364,10.8409091 C39.0454545,12.8181818 38.0227273,14.7272727 36.3636364,15.8636364 C35.3636364,16.6136364 34.1363636,17 32.9545455,17.3409091 C35.0227273,19.7727273 37.2045455,22.1363636 39.3181818,24.5454545 C39.9090909,25.2272727 40.6136364,25.8409091 40.9772727,26.6818182 C38.9545455,26.6818182 36.9318182,26.7727273 34.9090909,26.6590909 C32.2727273,23.7727273 29.75,20.7727273 27.1818182,17.8409091 C25.6136364,17.8409091 24.0454545,17.8409091 22.4772727,17.8409091 C22.5,20.7954545 22.4772727,23.75 22.4772727,26.7045455 C20.7954545,26.7045455 19.1136364,26.7045455 17.4318182,26.7045455 C17.3863636,17.8636364 17.3636364,9 17.3863636,0.159090909 Z M22.4545455,4.95454545 C22.4545455,7.72727273 22.4545455,10.5227273 22.4545455,13.2954545 C24.9318182,13.3181818 27.4318182,13.2954545 29.9090909,13.3181818 C31.1590909,13.3409091 32.5,12.9772727 33.3863636,12.0227273 C34.8409091,10.5 34.8636364,7.88636364 33.4772727,6.34090909 C32.6590909,5.38636364 31.3636364,4.93181818 30.1363636,4.95454545 C27.5454545,4.95454545 25,4.95454545 22.4545455,4.95454545 Z" id="Shape"></path>
                <path d="M0.159090909,0.25 C1.84090909,0.204545455 3.5,0.227272727 5.18181818,0.227272727 C5.18181818,9.04545455 5.18181818,17.8863636 5.18181818,26.7045455 C3.52272727,26.7045455 1.84090909,26.7045455 0.181818182,26.7045455 C0.159090909,17.8863636 0.181818182,9.06818182 0.159090909,0.25 Z" id="Path"></path>
                <path d="M59.4545455,0.227272727 C61.2727273,0.204545455 63.1136364,0.227272727 64.9318182,0.204545455 C68.6818182,8.45454545 72.3636364,16.75 76.0909091,25.0227273 C76.3409091,25.5681818 76.5681818,26.1136364 76.7727273,26.6818182 C74.9545455,26.6818182 73.1136364,26.7045455 71.2954545,26.6818182 C70.5909091,25.0227273 69.8181818,23.3863636 69.1136364,21.7272727 C64.5227273,21.6590909 59.9318182,21.7045455 55.3409091,21.7045455 C54.5909091,23.3636364 53.8181818,25.0454545 53.0681818,26.7045455 C51.25,26.7045455 49.4090909,26.7045455 47.5909091,26.7045455 C51.5454545,17.8863636 55.5227273,9.06818182 59.4545455,0.227272727 Z M57.3863636,16.9772727 C60.6136364,17 63.8181818,17 67.0454545,16.9772727 C65.4772727,13.2954545 63.8409091,9.63636364 62.25,5.95454545 C60.5227273,9.59090909 59.0227273,13.3181818 57.3863636,16.9772727 Z" id="Shape"></path>
            </g>
        </g>
    </g>
</svg>