<svg width="348" height="50" viewBox="0 0 348 50" fill="none" xmlns="http://www.w3.org/2000/svg">
<path d="M97.7306 17.118H88.5842V40.8554H82.9947V17.118H73.8485V12.2358H97.8998L97.7306 17.118Z" fill="black"/>
<path d="M109.079 24.5245C107.385 24.5245 106.03 24.8612 104.675 25.5346C103.32 26.208 102.473 27.0498 101.795 28.2282V41.0228H96.3754V19.8107H101.287V24.3562C101.626 23.6828 102.134 23.0094 102.642 22.336C103.15 21.8309 103.659 21.3259 104.336 20.8208C104.844 20.3157 105.522 19.979 106.199 19.8107C106.877 19.6423 107.385 19.474 107.893 19.474H108.571C108.74 19.474 108.909 19.474 109.079 19.474V24.5245ZM119.072 37.3191C119.919 37.3191 120.935 37.1508 121.613 36.8141C122.459 36.4774 123.137 36.1407 123.476 35.4673C124.153 34.9622 124.323 34.4572 124.323 33.9521V31.5952C123.645 31.2585 122.968 31.0902 122.29 31.0902C121.613 30.9218 120.766 30.9218 120.088 30.9218C118.733 30.9218 117.548 31.2585 116.701 31.9319C115.854 32.6053 115.346 33.4471 115.346 34.2888C115.346 35.1306 115.684 35.9723 116.362 36.6457C117.209 37.1508 118.056 37.3191 119.072 37.3191ZM117.548 41.3595C116.531 41.3595 115.515 41.1912 114.668 40.8545C113.821 40.5178 112.974 40.0127 112.297 39.5077C111.619 38.8343 111.111 38.1609 110.773 37.3191C110.434 36.4774 110.264 35.6356 110.264 34.6255C110.264 33.6154 110.434 32.7737 110.942 31.9319C111.45 31.0902 111.958 30.4168 112.805 29.7434C113.652 29.07 114.499 28.7333 115.684 28.3966C116.87 28.0599 118.056 27.8915 119.411 27.8915C120.427 27.8915 121.274 27.8915 122.121 28.0599C122.968 28.2282 123.814 28.3966 124.492 28.7333V27.5548C124.492 26.208 124.153 25.0296 123.306 24.3562C122.459 23.6828 121.274 23.1777 119.749 23.1777C118.564 23.1777 117.548 23.3461 116.362 23.8511C115.176 24.3562 113.991 24.8612 112.974 25.703L111.281 22.336C113.991 20.4841 117.039 19.6423 120.088 19.6423C123.137 19.6423 125.508 20.3157 127.202 21.8309C128.896 23.3461 129.743 25.5346 129.743 28.3966V34.9622C129.743 35.4673 129.912 35.9723 130.081 36.1407C130.251 36.309 130.589 36.4774 131.098 36.4774V41.0228C130.251 41.1912 129.573 41.3595 128.726 41.3595C127.71 41.3595 126.863 41.1912 126.355 40.6861C125.847 40.1811 125.508 39.5077 125.339 38.8343V37.4875C124.492 38.6659 123.306 39.676 121.951 40.3494C120.596 41.0228 119.072 41.3595 117.548 41.3595ZM145.325 36.6457C145.833 36.6457 146.342 36.4774 146.85 36.309C147.358 36.1407 147.866 35.804 148.374 35.6356C148.882 35.2989 149.221 34.9622 149.56 34.4572C149.899 34.1205 150.237 33.6154 150.407 33.1104V28.0599C150.237 27.3865 149.899 26.8814 149.56 26.3764C148.713 25.3663 147.866 24.6929 146.68 24.1878C146.172 24.0195 145.664 23.8511 144.987 23.8511C144.14 23.8511 143.462 24.0195 142.785 24.3562C142.107 24.6929 141.43 25.1979 141.091 25.8713C140.583 26.5447 140.244 27.2181 139.905 27.8915C139.567 28.7333 139.567 29.4067 139.567 30.2484C139.567 31.0902 139.736 31.9319 140.075 32.7737C140.413 33.4471 140.752 34.1205 141.26 34.7939C141.768 35.2989 142.446 35.804 143.123 36.1407C143.632 36.6457 144.478 36.6457 145.325 36.6457ZM143.97 41.3595C142.615 41.3595 141.26 41.0228 139.905 40.5178C138.72 40.0127 137.534 39.171 136.687 38.1609C135.84 37.1508 134.993 35.9723 134.654 34.6255C134.146 33.2787 133.808 31.7636 133.977 30.2484C133.977 28.7333 134.146 27.2181 134.654 26.0397C135.163 24.6929 135.84 23.5144 136.687 22.5043C137.534 21.4942 138.55 20.6525 139.736 20.1474C140.922 19.6423 142.277 19.3056 143.632 19.3056C145.156 19.3056 146.68 19.6423 147.866 20.4841C149.052 21.1575 150.068 22.1676 150.745 23.5144V11.3932H155.827V34.7939C155.827 35.2989 155.996 35.804 156.165 35.9723C156.335 36.1407 156.674 36.309 157.182 36.309V40.8545C156.165 41.0228 155.488 41.1912 154.81 41.1912C153.794 41.1912 153.117 41.0228 152.439 40.5178C151.762 40.0127 151.423 39.3393 151.423 38.6659L151.254 37.3191C150.576 38.6659 149.39 39.676 148.035 40.3494C146.85 41.0228 145.325 41.3595 143.97 41.3595ZM176.66 28.5649C176.491 27.0498 175.983 25.703 174.966 24.6929C173.95 23.6828 172.595 23.1777 171.24 23.1777C169.885 23.1777 168.53 23.6828 167.514 24.6929C167.005 25.1979 166.667 25.703 166.328 26.3764C165.989 27.0498 165.82 27.7232 165.82 28.5649H176.66ZM171.071 41.3595C169.377 41.3595 167.853 41.0228 166.497 40.5178C165.142 40.0127 163.957 39.171 162.94 38.1609C161.924 37.1508 161.247 35.9723 160.739 34.6255C160.23 33.2787 159.892 31.9319 159.892 30.4168C159.892 28.9016 160.23 27.5548 160.739 26.208C161.247 24.8612 161.924 23.6828 162.94 22.6727C163.957 21.6626 165.142 20.8208 166.497 20.3157C167.853 19.6423 169.377 19.474 171.24 19.474C172.934 19.474 174.458 19.8107 175.813 20.3157C177.168 20.8208 178.354 21.6626 179.37 22.6727C180.386 23.6828 181.064 24.8612 181.572 26.208C182.08 27.5548 182.249 28.9016 182.249 30.2484C182.249 30.5851 182.249 30.9218 182.249 31.2585C182.249 31.5952 182.249 31.7636 182.08 32.1003H165.65C165.65 32.942 165.989 33.6154 166.328 34.2888C167.005 35.4673 168.022 36.4774 169.377 36.9824C170.054 37.1508 170.732 37.3191 171.409 37.3191C172.426 37.3191 173.611 36.9824 174.458 36.4774C175.474 35.9723 176.152 35.2989 176.491 34.4572L181.233 35.804C180.386 37.4875 179.201 38.6659 177.507 39.8444C175.474 40.8545 173.442 41.3595 171.071 41.3595ZM184.282 26.3764C184.282 24.6929 184.621 22.841 185.298 21.1575C185.976 19.474 186.823 17.9588 188.008 16.612C189.194 15.2652 190.718 14.0868 192.412 13.4134C194.106 12.5716 196.138 12.2349 198.34 12.2349C201.05 12.2349 203.252 12.74 205.285 13.9184C207.148 15.0969 208.672 16.612 209.688 18.4639L205.454 21.4942C205.115 20.8208 204.607 19.979 204.099 19.474C203.591 18.9689 203.083 18.4639 202.405 18.1272C201.728 17.7905 201.22 17.6221 200.373 17.4538C199.695 17.2854 199.018 17.2854 198.34 17.2854C196.985 17.2854 195.63 17.6221 194.614 18.1272C193.598 18.6322 192.751 19.474 192.073 20.3157C191.396 21.1575 190.888 22.336 190.549 23.3461C190.21 24.5245 190.041 25.5346 190.041 26.7131C190.041 28.0599 190.21 29.2383 190.718 30.4168C191.057 31.5952 191.734 32.6053 192.412 33.4471C193.089 34.2888 194.106 35.1306 195.122 35.6356C196.138 36.1407 197.324 36.4774 198.509 36.4774C199.187 36.4774 199.865 36.4774 200.542 36.309C201.897 35.9723 203.252 35.2989 204.268 34.1205C204.777 33.6154 205.285 32.942 205.623 32.1003L210.197 34.7939C209.688 35.804 209.011 36.8141 208.164 37.6558C207.317 38.4976 206.301 39.171 205.285 39.676C204.268 40.1811 203.083 40.6861 201.897 41.0228C200.711 41.3595 199.526 41.5279 198.34 41.5279C196.308 41.5279 194.444 41.0228 192.751 40.1811C191.057 39.3393 189.533 38.1609 188.347 36.8141C187.161 35.4673 186.145 33.7838 185.468 32.1003C184.79 30.0801 184.282 28.2282 184.282 26.3764ZM217.649 30.4168C217.649 31.4269 217.818 32.2686 218.157 32.942C218.495 33.7838 218.834 34.4572 219.343 34.9622C220.36 36.1407 221.715 36.8141 223.239 36.8141C224.762 36.8141 226.288 36.1407 227.134 34.9622C227.643 34.4572 227.982 33.7838 228.321 32.942C228.66 32.1003 228.828 31.2585 228.828 30.4168C228.828 29.575 228.66 28.7333 228.321 27.8915C227.982 27.2181 227.643 26.5447 227.134 25.8713C226.117 24.6929 224.762 24.0195 223.239 24.0195C222.393 24.0195 221.715 24.1878 221.037 24.5245C220.36 24.8612 219.851 25.3663 219.343 25.8713C218.834 26.5447 218.495 27.2181 218.157 27.8915C217.818 28.7333 217.649 29.575 217.649 30.4168ZM223.239 41.3595C221.545 41.3595 220.021 41.0228 218.495 40.5178C217.14 40.0127 215.955 39.171 214.939 38.1609C213.923 37.1508 213.245 35.9723 212.738 34.6255C212.229 33.2787 211.89 31.9319 211.89 30.4168C211.89 28.9016 212.229 27.5548 212.738 26.208C213.245 24.8612 213.923 23.6828 214.939 22.6727C215.955 21.6626 217.14 20.8208 218.495 20.3157C219.851 19.6423 221.376 19.474 223.239 19.474C224.933 19.474 226.456 19.8107 227.811 20.3157C229.167 20.8208 230.351 21.6626 231.368 22.6727C232.384 23.6828 233.062 24.8612 233.571 26.208C234.078 27.5548 234.417 28.9016 234.417 30.4168C234.417 31.7636 234.078 33.2787 233.571 34.6255C233.062 35.9723 232.384 37.1508 231.368 38.1609C230.351 39.171 229.167 40.0127 227.811 40.5178C226.456 41.0228 224.933 41.3595 223.239 41.3595ZM257.79 40.8545H252.372V28.9016C252.372 27.2181 252.033 26.0397 251.524 25.1979C250.846 24.3562 250.17 24.0195 248.984 24.0195C248.476 24.0195 247.967 24.1878 247.29 24.3562C246.782 24.5245 246.105 24.8612 245.766 25.1979C245.257 25.5346 244.75 26.0397 244.411 26.5447C244.072 27.0498 243.733 27.7232 243.565 28.3966V40.6861H238.144V19.8107H243.056V23.6828C243.902 22.336 244.918 21.3259 246.444 20.4841C247.967 19.6423 249.661 19.3056 251.524 19.3056C252.879 19.3056 253.895 19.474 254.743 19.979C255.589 20.4841 256.267 21.1575 256.606 21.8309C257.115 22.6727 257.452 23.5144 257.622 24.5245C257.79 25.5346 257.961 26.5447 257.961 27.5548L257.79 40.8545ZM282.351 40.8545H276.932V28.9016C276.932 27.2181 276.593 26.0397 276.084 25.1979C275.406 24.3562 274.729 24.0195 273.544 24.0195C273.035 24.0195 272.527 24.1878 271.85 24.3562C271.34 24.5245 270.665 24.8612 270.326 25.1979C269.817 25.5346 269.31 26.0397 268.971 26.5447C268.632 27.0498 268.293 27.7232 268.123 28.3966V40.6861H262.534V19.8107H267.445V23.6828C268.293 22.336 269.31 21.3259 270.833 20.4841C272.357 19.6423 274.051 19.3056 275.915 19.3056C277.271 19.3056 278.287 19.474 279.133 19.979C279.979 20.4841 280.657 21.1575 280.995 21.8309C281.505 22.6727 281.843 23.5144 282.012 24.5245C282.182 25.5346 282.351 26.5447 282.351 27.5548V40.8545ZM302.506 28.5649C302.338 27.0498 301.829 25.703 300.812 24.6929C299.796 23.6828 298.443 23.1777 297.088 23.1777C295.732 23.1777 294.377 23.6828 293.361 24.6929C292.851 25.1979 292.513 25.703 292.174 26.3764C291.837 27.0498 291.667 27.7232 291.667 28.5649H302.506ZM296.917 41.3595C295.223 41.3595 293.699 41.0228 292.344 40.5178C290.989 40.0127 289.804 39.171 288.788 38.1609C287.771 37.1508 287.094 35.9723 286.585 34.6255C286.077 33.2787 285.739 31.9319 285.739 30.4168C285.739 28.9016 286.077 27.5548 286.585 26.208C287.094 24.8612 287.771 23.6828 288.788 22.6727C289.804 21.6626 290.989 20.8208 292.344 20.3157C293.699 19.6423 295.223 19.474 297.088 19.474C298.782 19.474 300.305 19.8107 301.66 20.3157C303.016 20.8208 304.2 21.6626 305.217 22.6727C306.233 23.6828 306.911 24.8612 307.418 26.208C307.927 27.5548 308.096 28.9016 308.096 30.2484C308.096 30.5851 308.096 30.9218 308.096 31.2585C308.096 31.5952 308.096 31.7636 307.927 32.1003H291.498C291.498 32.942 291.837 33.6154 292.174 34.2888C292.851 35.4673 293.868 36.4774 295.223 36.9824C295.901 37.1508 296.578 37.3191 297.256 37.3191C298.272 37.3191 299.457 36.9824 300.305 36.4774C301.322 35.9723 301.999 35.2989 302.338 34.4572L307.079 35.804C306.233 37.4875 305.048 38.6659 303.354 39.8444C301.322 40.8545 299.289 41.3595 296.917 41.3595ZM309.96 30.4168C309.96 28.9016 310.299 27.5548 310.806 26.208C311.315 24.8612 311.993 23.6828 313.007 22.6727C314.024 21.6626 315.21 20.8208 316.566 20.3157C317.921 19.6423 319.444 19.474 321.307 19.474C323.678 19.474 325.543 19.979 327.235 20.9892C328.929 21.9993 330.116 23.3461 330.962 24.8612L325.711 26.5447C325.204 25.8713 324.695 25.1979 323.849 24.6929C323.001 24.3562 322.155 24.0195 321.307 24.0195C320.461 24.0195 319.783 24.1878 319.106 24.5245C318.428 24.8612 317.921 25.1979 317.412 25.8713C316.904 26.3764 316.566 27.2181 316.227 27.8915C315.888 28.7333 315.718 29.575 315.718 30.4168C315.718 31.2585 315.888 32.1003 316.227 32.942C316.566 33.7838 316.904 34.4572 317.412 34.9622C317.921 35.4673 318.428 35.9723 319.106 36.309C319.783 36.6457 320.461 36.8141 321.307 36.8141C322.323 36.8141 323.171 36.6457 324.017 36.1407C324.865 35.6356 325.372 35.1306 325.711 34.2888L330.962 35.9723C330.284 37.6558 329.099 38.8343 327.405 40.0127C325.711 41.0228 323.678 41.5279 321.307 41.5279C319.615 41.5279 318.089 41.1912 316.566 40.6861C315.21 40.1811 314.024 39.3393 313.007 38.3292C311.993 37.3191 311.315 36.1407 310.806 34.7939C310.299 33.2787 309.96 31.7636 309.96 30.4168ZM347.054 39.8444C346.376 40.1811 345.36 40.5178 344.343 40.8545C343.327 41.1912 342.14 41.3595 340.955 41.3595C340.278 41.3595 339.432 41.1912 338.754 41.0228C338.077 40.8545 337.567 40.5178 337.06 40.1811C336.551 39.676 336.212 39.171 335.873 38.4976C335.535 37.8242 335.366 36.9824 335.366 36.1407V24.0195H332.487V19.8107H335.366V12.9083H340.785V19.8107H345.189V24.0195H340.785V34.2888C340.785 34.9622 340.955 35.6356 341.294 35.804C341.633 36.1407 342.14 36.309 342.818 36.309C343.327 36.309 344.005 36.1407 344.512 35.9723C345.021 35.804 345.528 35.6356 345.867 35.4673L347.054 39.8444Z" fill="black"/>
<path d="M47.2561 11.3943L32.0122 20.6535C29.1328 22.5054 27.2696 25.704 27.2696 29.071V46.7478C27.2696 48.9364 29.641 50.2832 31.504 49.1047L35.3996 46.7478C37.9404 45.2327 39.4649 42.5391 39.4649 39.6771V35.6367C39.4649 32.2697 41.1585 29.071 44.2073 27.3875L47.9335 25.199C50.3049 23.6838 51.8293 21.1586 51.8293 18.2967V13.7512C51.4905 11.5627 49.1193 10.2159 47.2561 11.3943ZM4.91193 11.8994L19.3089 20.6535C22.3577 22.5054 24.221 25.8724 24.221 29.4077V46.0744C24.221 48.5997 21.5109 50.1148 19.3089 48.768L16.4295 47.0845C13.8889 45.5694 12.1951 42.7074 12.1951 39.6771V36.1417C12.1951 32.6064 10.332 29.2394 7.28321 27.3875L4.06505 25.3673C1.52439 23.8522 0 20.9902 0 18.1283V14.593C0 12.0677 2.71002 10.5526 4.91193 11.8994Z" fill="black"/>
<path d="M46.0909 3.70371C47.2767 4.37712 47.7847 6.06062 47.1073 7.23907C46.9379 7.57577 46.5991 7.91247 46.0909 8.24917L28.6452 18.3502C26.4434 19.5286 23.7332 19.5286 21.7008 18.3502L4.42432 8.08082C2.73055 7.07072 2.73055 4.54547 4.42432 3.53536L8.65873 1.17845C11.3688 -0.16835 14.4175 -0.16835 16.9582 1.17845L20.6845 3.19864C23.564 4.88214 27.1208 4.88214 30.1696 3.19864L34.0652 1.0101C36.4364 -0.3367 39.3159 -0.3367 41.8565 1.0101C41.6873 1.17845 46.0909 3.70371 46.0909 3.70371Z" fill="black"/>
</svg>
