<?xml version="1.0" encoding="UTF-8"?>
<svg width="203px" height="50px" viewBox="0 0 203 50" version="1.1" xmlns="http://www.w3.org/2000/svg" xmlns:xlink="http://www.w3.org/1999/xlink">
    <title>coinloan-logo</title>
    <g id="Page-1" stroke="none" stroke-width="1" fill="none" fill-rule="evenodd">
        <g id="coinloan-logo" fill="#3482FA" fill-rule="nonzero">
            <g id="Group-8">
                <path d="M24.911622,7.77068965 C15.5250228,7.77068965 7.88638735,15.4603448 7.88638735,24.9103448 C7.88638735,34.362069 15.5250228,42.0505747 24.911622,42.0505747 C34.2993628,42.0505747 41.9379983,34.362069 41.9379983,24.9103448 C41.9379983,15.4603448 34.2993628,7.77068965 24.911622,7.77068965 Z M24.911622,39.6488505 C16.8391353,39.6488505 10.2731398,33.0373563 10.2731398,24.9103448 C10.2731398,16.783908 16.8391353,10.1718391 24.911622,10.1718391 C32.9841087,10.1718391 39.550104,16.783908 39.550104,24.9103448 C39.5495332,33.0373563 32.9835378,39.6488505 24.911622,39.6488505 Z" id="Shape"></path>
                <path d="M32.7026762,23.8477012 C32.5165768,22.4586207 31.9725503,21.183908 31.1653587,20.1189655 C31.1864803,20.1005747 31.2076022,20.0867817 31.2264403,20.0666667 L33.1890462,18.0913793 C33.6052008,17.6735632 33.6052008,16.9971265 33.1890462,16.5781609 C32.7728917,16.1597701 32.1009932,16.1597701 31.6848385,16.5781609 L29.724516,18.5528735 C29.7056778,18.5724138 29.6908355,18.5942528 29.6708555,18.6149425 C28.6147703,17.8022988 27.3486098,17.2545977 25.968278,17.0666667 C25.968278,17.0408047 25.97627,17.016092 25.97627,16.9896552 L25.97627,14.1971264 C25.97627,13.6051724 25.5001753,13.1264368 24.911622,13.1264368 C24.325352,13.1264368 23.8492573,13.6051724 23.8492573,14.1971264 L23.8492573,16.9896552 C23.8492573,17.016092 23.8561077,17.0408047 23.858391,17.0666667 C22.4757758,17.2545977 21.2113278,17.8022988 20.1535302,18.6149425 C20.1358335,18.5942528 20.1209913,18.5724138 20.102153,18.5528735 L18.1406888,16.5781609 C17.7245342,16.1597701 17.0526357,16.1597701 16.6353394,16.5781609 C16.2191847,16.9971265 16.2203265,17.6735632 16.6353394,18.0913793 L18.5979452,20.0666667 C18.619067,20.0867817 18.6401887,20.1005747 18.6601687,20.1189655 C17.852977,21.1844828 17.3078087,22.4586207 17.1228512,23.8477012 C17.0971625,23.8454023 17.071474,23.8396552 17.0469272,23.8396552 L14.2714212,23.8390805 C13.6840095,23.8390805 13.2079149,24.3189655 13.2079149,24.9109195 C13.2079149,25.5022988 13.6840095,25.9810345 14.2714212,25.9810345 L17.0452147,25.9804598 C17.0697615,25.9804598 17.0943083,25.9747127 17.1222803,25.9724138 C17.3072378,27.362069 17.8524062,28.6367817 18.6595978,29.7017242 C18.6396178,29.7195402 18.618496,29.7333333 18.5973743,29.7534483 L16.6347685,31.7275862 C16.2186139,32.1465517 16.2186139,32.8235632 16.6347685,33.2431035 C17.051494,33.662069 17.7239633,33.662069 18.1389763,33.2431035 L20.1015822,31.2672413 C20.1204205,31.2482758 20.1352627,31.225862 20.1529593,31.2057472 C21.2101862,32.0183908 22.475205,32.5666667 23.8578202,32.754023 C23.8555368,32.779885 23.8486865,32.8051723 23.8486865,32.829885 L23.8486865,35.624138 C23.8486865,36.216092 24.3247812,36.6942528 24.9110512,36.6942528 C25.4996045,36.6942528 25.9756992,36.216092 25.9756992,35.624138 L25.9756992,32.829885 C25.9756992,32.8051723 25.9677072,32.779885 25.9677072,32.754023 C27.348039,32.5666667 28.6147703,32.0183908 29.6702847,31.2057472 C29.6902647,31.2264368 29.7051068,31.2488505 29.7239452,31.2683908 L31.6842677,33.2436782 C32.1004222,33.6626437 32.7723207,33.6626437 33.1884753,33.2436782 C33.60463,32.8247127 33.6034883,32.1471265 33.1884753,31.728161 L31.2270113,29.754023 C31.208173,29.733908 31.1870513,29.720115 31.1647878,29.7017242 C31.9719795,28.6362068 32.516006,27.3626437 32.7021053,25.9729885 C32.7277938,25.9752873 32.7534825,25.9816092 32.7803127,25.9816092 L35.5541062,25.9816092 C36.1426595,25.9816092 36.6164707,25.5028735 36.6164707,24.9109195 C36.6164707,24.3195402 36.1415178,23.8396552 35.5541062,23.8396552 L32.7803127,23.8396552 C32.7540533,23.8390805 32.7283648,23.8454023 32.7026762,23.8477012 Z M24.911622,30.4316092 C21.888935,30.4316092 19.4291128,27.9551723 19.4291128,24.9109195 C19.4291128,21.8666667 21.888935,19.3896552 24.911622,19.3896552 C27.9365923,19.3896552 30.3969853,21.8666667 30.3969853,24.9109195 C30.3969853,27.9551723 27.9365923,30.4316092 24.911622,30.4316092 Z" id="Shape"></path>
                <path d="M43.6111797,0.127586207 L6.23033163,0.127586207 C2.97016818,0.127586207 0.319108978,2.79827587 0.319108978,6.07988505 L0.319108978,23.0787357 L0.319108978,23.2275862 L0.319108978,43.7022988 C0.319108978,46.9856322 2.97073903,49.6557472 6.23033163,49.6557472 L43.6111797,49.6557472 C46.8702015,49.6557472 49.5246859,46.9856322 49.5246859,43.7022988 L49.5246859,6.07988505 C49.5252567,2.79827587 46.8702015,0.127586207 43.6111797,0.127586207 Z M46.8256747,43.7022988 C46.8256747,45.4873563 45.3819777,46.9402298 43.6111797,46.9402298 L6.23033163,46.9402298 C4.45782112,46.9402298 3.01697843,45.487931 3.01697843,43.7022988 L3.01697843,23.2275862 L3.01697843,23.0787357 L3.01697843,6.07988505 C3.01697843,4.2954023 4.45725027,2.84425287 6.23033163,2.84425287 L43.6111797,2.84425287 C45.3819777,2.84425287 46.8256747,4.29482758 46.8256747,6.07988505 L46.8256747,43.7022988 Z" id="Shape"></path>
            </g>
            <g id="Group" transform="translate(65.000000, 13.000000)">
                <path d="M21.5804934,5.28505747 L18.6619018,8.09252873 C16.6778291,5.97528735 14.4443234,4.91666667 11.9625239,4.91666667 C9.86797177,4.91666667 8.10428821,5.63965517 6.66919537,7.08448277 C5.23524149,8.52931035 4.51826455,10.3103448 4.51826455,12.4281609 C4.51826455,13.9028736 4.83660458,15.2132184 5.47157622,16.3568965 C6.10654785,17.5011495 7.00405037,18.3994253 8.16522271,19.0511495 C9.32753402,19.7034483 10.6179786,20.029885 12.037126,20.029885 C13.2472737,20.029885 14.3537759,19.8017242 15.3572019,19.3448277 C16.359489,18.8885057 17.4602964,18.058046 18.6619018,16.854023 L21.4905154,19.8327587 C19.8709106,21.4275862 18.3418533,22.5333333 16.9010657,23.15 C15.4608475,23.766092 13.816755,24.0747127 11.9693577,24.0747127 C8.56158168,24.0747127 5.77283183,22.9850575 3.60196914,20.804023 C1.43167596,18.6235632 0.346244624,15.8293103 0.346244624,12.4206896 C0.346244624,10.2149425 0.839984901,8.25517242 1.82917391,6.5408046 C2.81779342,4.8270115 4.23295442,3.44827587 6.07579586,2.40574713 C7.91863732,1.36321839 9.9032796,0.84137931 12.0285838,0.84137931 C13.8372563,0.84137931 15.5775912,1.22701149 17.2518662,1.99770115 C18.9261412,2.7683908 20.3680678,3.86436782 21.5804934,5.28505747 Z" id="Shape"></path>
                <path d="M32.3983599,6.73678162 C33.9279867,6.73678162 35.3659271,7.1224138 36.7116113,7.89482758 C38.0584346,8.66666667 39.1085581,9.71436782 39.8636902,11.037931 C40.6176835,12.3614942 40.9958189,13.7896552 40.9958189,15.3235632 C40.9958189,16.8678162 40.6154055,18.3109195 39.8557175,19.6545977 C39.0960295,20.9982758 38.0607124,22.0482758 36.749197,22.8045977 C35.4376816,23.5614943 33.9917686,23.9402298 32.412597,23.9402298 C30.0879744,23.9402298 28.1039015,23.1057472 26.4598091,21.4367817 C24.8157167,19.7678162 23.9939551,17.7396552 23.9939551,15.354023 C23.9939551,12.7977011 24.9227791,10.6672414 26.7804271,8.96264368 C28.409713,7.47873563 30.282737,6.73678162 32.3983599,6.73678162 Z M32.4649893,10.6011494 C31.2013103,10.6011494 30.1494783,11.0442529 29.3083545,11.9316092 C28.4672306,12.8189655 28.0469534,13.9545977 28.0469534,15.337931 C28.0469534,16.7614943 28.4621053,17.9143678 29.293548,18.7965517 C30.1232823,19.6787357 31.1768227,20.120115 32.4501827,20.120115 C33.723543,20.120115 34.783917,19.6747127 35.6290274,18.7821838 C36.4741376,17.8896552 36.8984011,16.741954 36.8984011,15.3385057 C36.8984011,13.9350575 36.4826798,12.7942529 35.6518065,11.9172414 C34.8209335,11.0402299 33.7582813,10.6011494 32.4649893,10.6011494 Z" id="Shape"></path>
                <path d="M45.9053173,0.420114943 C46.6194466,0.420114943 47.2299307,0.681034483 47.7407553,1.20172414 C48.2510107,1.7229885 48.5061382,2.35517242 48.5061382,3.09655172 C48.5061382,3.82816092 48.253858,4.45229885 47.7487281,4.96896552 C47.2435982,5.48563218 46.638809,5.74367817 45.9354997,5.74367817 C45.2122585,5.74367817 44.5949408,5.48045977 44.0858245,4.95402298 C43.5755692,4.42816092 43.3204416,3.78908047 43.3204416,3.03678162 C43.3204416,2.31494253 43.5727219,1.69885057 44.0778518,1.18735632 C44.5829816,0.675862068 45.1923266,0.420114943 45.9053173,0.420114943 Z M43.872269,7.15747127 L47.9400739,7.15747127 L47.9400739,23.5189655 L43.872269,23.5189655 L43.872269,7.15747127 Z" id="Shape"></path>
                <path d="M51.6360073,7.15747127 L55.7038122,7.15747127 L55.7038122,8.83390805 C56.6258024,8.04942528 57.4623705,7.50344828 58.2106689,7.19655172 C58.9589672,6.88965517 59.725489,6.7362069 60.5096649,6.7362069 C62.1167411,6.7362069 63.4806488,7.30229885 64.6019573,8.43505747 C65.5438795,9.39770115 66.01541,10.8212644 66.01541,12.7063218 L66.01541,23.5183908 L61.9914552,23.5183908 L61.9914552,16.3534483 C61.9914552,14.4011494 61.9048939,13.104023 61.7312021,12.4626437 C61.5586493,11.8218391 61.2562549,11.333908 60.824588,10.9982759 C60.3929212,10.6626437 59.8615951,10.4948276 59.227193,10.4948276 C58.4042925,10.4948276 57.6975662,10.7724138 57.1081531,11.3281609 C56.51874,11.8844828 56.1092828,12.6528736 55.8814904,13.6344828 C55.7624689,14.1454023 55.7032428,15.2511494 55.7032428,16.9534483 L55.7032428,23.5178162 L51.6354379,23.5178162 L51.6354379,7.15747127 L51.6360073,7.15747127 Z" id="Shape"></path>
                <polygon id="Shape" points="70.3952906 1.39827586 74.5684495 1.39827586 74.5684495 19.504023 80.6482317 19.504023 80.6482317 23.5189655 70.3952906 23.5189655"></polygon>
                <path d="M90.9888728,6.73678162 C92.5196386,6.73678162 93.9575788,7.1224138 95.303263,7.89482758 C96.6489474,8.66666667 97.7002098,9.71436782 98.4542031,11.037931 C99.2093353,12.3614942 99.5874709,13.7896552 99.5874709,15.3235632 C99.5874709,16.8678162 99.2070573,18.3109195 98.4473693,19.6545977 C97.6865423,20.9982758 96.6512253,22.0482758 95.3397098,22.8045977 C94.0281944,23.5614943 92.5834205,23.9402298 91.0042488,23.9402298 C88.6796262,23.9402298 86.6955535,23.1057472 85.051461,21.4367817 C83.4062295,19.7678162 82.5844679,17.7396552 82.5844679,15.354023 C82.5844679,12.7977011 83.514431,10.6672414 85.3720789,8.96264368 C87.0002259,7.47873563 88.8738194,6.73678162 90.9888728,6.73678162 Z M91.0572105,10.6011494 C89.7923927,10.6011494 88.7405607,11.0442529 87.8994369,11.9316092 C87.0583131,12.8189655 86.6380359,13.9545977 86.6380359,15.337931 C86.6380359,16.7614943 87.0537572,17.9143678 87.8846303,18.7965517 C88.7155035,19.6787357 89.767905,20.120115 91.0412651,20.120115 C92.3146253,20.120115 93.3749995,19.6747127 94.2212486,18.7821838 C95.0663589,17.8896552 95.4894834,16.741954 95.4894834,15.3385057 C95.4894834,13.9350575 95.0743317,12.7942529 94.2434585,11.9172414 C93.4125852,11.0402299 92.3505027,10.6011494 91.0572105,10.6011494 Z" id="Shape"></path>
                <path d="M114.876335,7.15747127 L118.94414,7.15747127 L118.94414,23.5189655 L114.876335,23.5189655 L114.876335,21.7890805 C114.081909,22.5511495 113.285774,23.1 112.487361,23.4356322 C111.688948,23.771839 110.823337,23.9396552 109.889957,23.9396552 C107.796544,23.9396552 105.986163,23.120115 104.457675,21.4810345 C102.929187,19.841954 102.165513,17.8045977 102.165513,15.3678161 C102.165513,12.8413793 102.905269,10.7718391 104.383642,9.15689655 C105.862016,7.54310345 107.65816,6.7362069 109.771505,6.7362069 C110.743609,6.7362069 111.657057,6.92126437 112.51014,7.29252873 C113.363223,7.6637931 114.151955,8.21954023 114.876904,8.96149425 L114.876904,7.15747127 L114.876335,7.15747127 Z M110.599531,10.5258621 C109.342685,10.5258621 108.297118,10.9741379 107.466245,11.8718391 C106.634232,12.7695402 106.218511,13.9195402 106.218511,15.3229885 C106.218511,16.7367817 106.642205,17.8994253 107.488454,18.8114943 C108.334703,19.724138 109.376854,20.179885 110.613767,20.179885 C111.891684,20.179885 112.950919,19.7316092 113.792612,18.833908 C114.633736,17.9367817 115.055152,16.7614943 115.055152,15.3074713 C115.055152,13.883908 114.633736,12.7316092 113.792612,11.8488506 C112.950919,10.9672414 111.886558,10.5258621 110.599531,10.5258621 Z" id="Shape"></path>
                <path d="M123.056934,7.15747127 L127.124739,7.15747127 L127.124739,8.83390805 C128.046729,8.04942528 128.883297,7.50344828 129.631595,7.19655172 C130.379894,6.88965517 131.146415,6.7362069 131.930591,6.7362069 C133.537667,6.7362069 134.901575,7.30229885 136.022884,8.43505747 C136.964806,9.39770115 137.436336,10.8212644 137.436336,12.7063218 L137.436336,23.5183908 L133.412381,23.5183908 L133.412381,16.3534483 C133.412381,14.4011494 133.32582,13.104023 133.152129,12.4626437 C132.979576,11.8218391 132.677181,11.333908 132.245514,10.9982759 C131.813847,10.6626437 131.282521,10.4948276 130.648119,10.4948276 C129.825219,10.4948276 129.118493,10.7724138 128.529079,11.3281609 C127.939666,11.8844828 127.530209,12.6528736 127.302417,13.6344828 C127.183395,14.1454023 127.124169,15.2511494 127.124169,16.9534483 L127.124169,23.5178162 L123.056364,23.5178162 L123.056364,7.15747127 L123.056934,7.15747127 Z" id="Shape"></path>
            </g>
        </g>
    </g>
</svg>