<?xml version="1.0" encoding="UTF-8"?>
<svg width="210px" height="57px" viewBox="0 0 210 57" version="1.1" xmlns="http://www.w3.org/2000/svg" xmlns:xlink="http://www.w3.org/1999/xlink">
    <title>sbi-holdings-logo</title>
    <g id="Page-1" stroke="none" stroke-width="1" fill="none" fill-rule="evenodd">
        <g id="sbi-holdings-logo" fill-rule="nonzero">
            <g id="g5879" transform="translate(25.083081, 35.340330) scale(-1, 1) rotate(-180.000000) translate(-25.083081, -35.340330) translate(11.583081, 19.840330)" fill="#0058A1">
                <path d="M7.99999987,10.6666665 C7.38533321,7.29599988 9.10933318,6.21466656 12.1039998,6.21466656 C14.2279998,6.21466656 16.6066664,7.01866655 17.0866664,9.14399985 C17.657333,11.6666665 13.9053331,12.1506665 10.2639998,13.3173331 C6.66666655,14.4759998 3.03066662,16.3213331 4.22399993,21.577333 C5.64399991,27.8319995 12.1413331,30.2826662 17.2159997,30.2826662 C22.597333,30.2826662 27.3853329,27.5133329 25.9599996,21.0519996 L18.9146663,21.0519996 C19.6199997,23.6599996 17.4986664,24.5053329 15.3426664,24.5053329 C13.8253331,24.5053329 11.8053331,23.9439996 11.3773331,22.057333 C10.8786665,19.8506663 14.6879998,19.4479997 18.3639997,18.2826664 C22.0026663,17.1226664 25.4999996,15.1999997 24.3306663,10.0253332 C22.6839996,2.76933329 16.3239997,0.438666659 10.3786665,0.438666659 C4.16533326,0.438666659 -0.670666655,3.32666661 0.953333317,10.6666665 L7.99999987,10.6666665 Z" id="path5881"></path>
            </g>
            <polygon id="path5885" fill="#0058A1" points="68.3238689 21.1621864 75.3678878 21.1621864 68.8758689 49.7981929 61.8292043 49.7981929"></polygon>
            <g id="g5895" transform="translate(49.723090, 35.488746) scale(-1, 1) rotate(-180.000000) translate(-49.723090, -35.488746) translate(35.223090, 20.488746)" fill="#0058A1">
                <path d="M9.33333318,6.66666655 L14.9786664,6.66666655 C17.213333,6.66666655 18.9546663,7.51066654 19.493333,9.8746665 C20.0666663,12.4013331 18.5906664,13.2439998 16.4679997,13.2439998 L10.8226665,13.2439998 L9.33333318,6.66666655 Z M11.9159998,18.0546664 L17.369333,18.0546664 C18.581333,18.0546664 20.4026663,18.7399997 20.8639997,20.7839997 C21.3426663,22.8679996 20.0919997,23.5519996 18.617333,23.5519996 L13.1613331,23.5519996 L11.9159998,18.0546664 Z M7.42799988,29.3266662 L20.0746663,29.3266662 C24.7519996,29.4039995 29.5759995,28.1239995 28.2199995,22.1466663 C27.6386662,19.581333 25.7266662,17.4919997 23.3506663,16.3719997 C26.0333329,15.4906664 27.2106662,12.8386665 26.4733329,9.59333317 C24.9293329,2.77199995 19.7239997,0.690666655 13.9279998,0.690666655 L0.938666651,0.690666655 L7.42799988,29.3266662 Z" id="path5897"></path>
            </g>
            <g id="g5899" transform="translate(43.373724, 16.324613) scale(-1, 1) rotate(-180.000000) translate(-43.373724, -16.324613) translate(0.873724, 0.324613)" fill="#E7242E">
                <path d="M84.3333319,22.6666663 C80.4399986,33.0066661 58.155999,34.1879994 34.5733327,25.3053329 C17.753333,18.9679997 4.8159999,9.22266651 0.185333313,0.399999993 C6.58533321,7.08666655 16.9226664,13.6533331 29.3933328,18.3559997 C52.9799991,27.2426662 75.2613321,26.0586662 79.1559987,15.7146664 C80.2759986,12.7493331 79.7559986,9.35066651 77.8946653,5.7999999 C83.5946652,11.7533331 86.1693319,17.793333 84.3333319,22.6666663" id="path5901"></path>
            </g>
            <polygon id="path5905" fill="#7D7D7D" points="90.6869556 49.7600574 94.981595 27.6667156 97.8922848 27.6667156 96.1322722 36.7200826 107.628272 36.7200826 109.386962 27.6667156 112.294931 27.6667156 108.002937 49.7600574 105.092285 49.7600574 107.11626 39.3427346 95.6216202 39.3427346 93.5949241 49.7600574"></polygon>
            <g id="g5915" transform="translate(119.778414, 42.074858) scale(-1, 1) rotate(-180.000000) translate(-119.778414, -42.074858) translate(111.278414, 33.074858)" fill="#7D7D7D">
                <path d="M3.99999993,9.33333318 C3.59866661,7.27866654 3.74533327,5.73866657 4.43599993,4.71599992 C5.12799991,3.69333327 6.1479999,3.18399995 7.49866654,3.18399995 C8.83866652,3.18399995 10.0546665,3.69599994 11.1439998,4.72399992 C12.2346665,5.7519999 12.9839998,7.31733321 13.3919998,9.42399984 C13.7799998,11.4079998 13.6213331,12.9106665 12.9266665,13.9346664 C12.2306665,14.9573331 11.2159998,15.4693331 9.88799983,15.4693331 C8.53733319,15.4693331 7.31866654,14.9599997 6.22933323,13.9426664 C5.14399991,12.9266665 4.39999993,11.3879998 3.99999993,9.33333318 M1.19599998,9.32666651 C1.7733333,12.2919998 3.02133328,14.4893331 4.94666658,15.9159997 C6.55199989,17.1026664 8.34266653,17.6959997 10.3199998,17.6959997 C12.5173331,17.6959997 14.1746664,16.9759997 15.2893331,15.5319997 C16.4039997,14.0893331 16.7146664,12.0973331 16.2213331,9.55199984 C15.8199997,7.49066654 15.1959997,5.86933324 14.3493331,4.68799992 C13.5026664,3.50666661 12.4266665,2.58933329 11.1186665,1.93599997 C9.81199984,1.28399998 8.46133319,0.955999984 7.06666655,0.955999984 C4.82799992,0.955999984 3.15866661,1.67599997 2.05866663,3.11199995 C0.957333317,4.54933326 0.669333322,6.62133322 1.19599998,9.32666651" id="path5917"></path>
            </g>
            <polygon id="path5921" fill="#7D7D7D" points="129.012537 49.7600574 133.305891 27.6667156 136.035202 27.6667156 131.743208 49.7600574"></polygon>
            <g id="g5931" transform="translate(143.674143, 39.089523) scale(-1, 1) rotate(-180.000000) translate(-143.674143, -39.089523) translate(134.674143, 27.089523)" fill="#7D7D7D">
                <path d="M3.99999993,9.33333318 C3.59866661,7.27866654 3.73333327,5.74133324 4.39999993,4.72399992 C5.06799992,3.7066666 5.9879999,3.19866661 7.16399988,3.19866661 C8.34933319,3.19866661 9.45066651,3.68399994 10.4679998,4.65599992 C11.4866665,5.62799991 12.1893331,7.11066655 12.5773331,9.10799985 C13.0039998,11.3026665 12.8946665,12.9146665 12.2519998,13.9426664 C11.6079998,14.9693331 10.6666665,15.4839997 9.43199984,15.4839997 C8.22399986,15.4839997 7.12133321,14.9893331 6.12133323,14.0013331 C5.11999991,13.0146664 4.41333326,11.4586665 3.99999993,9.33333318 M10.9946665,1.32933331 L11.3879998,3.34933328 C10.0639998,1.76266664 8.41999986,0.97066665 6.45333323,0.97066665 C5.17866658,0.97066665 4.0746666,1.32266664 3.14133328,2.02666663 C2.21066663,2.72933329 1.57466664,3.71333327 1.23333331,4.97599992 C0.890666652,6.23733323 0.878666652,7.6853332 1.19733331,9.32533318 C1.50666664,10.9239998 2.05599997,12.3746665 2.83733329,13.6759998 C3.62133327,14.9786664 4.61066659,15.9773331 5.80666657,16.6706664 C7.00133322,17.3639997 8.2533332,17.7106664 9.56533317,17.7106664 C10.5253332,17.7106664 11.3426665,17.5079997 12.0146665,17.105333 C12.6866665,16.7013331 13.1946664,16.1759997 13.5386664,15.5279997 L15.0719997,23.4226663 L17.8026664,23.4226663 L13.5093331,1.32933331 L10.9946665,1.32933331 Z" id="path5933"></path>
            </g>
            <path d="M156.177362,30.7552699 L156.778685,27.6672825 L159.509356,27.6672825 L158.907995,30.7552699 L156.177362,30.7552699 Z M152.485331,49.7605866 L155.598679,33.7379219 L158.32935,33.7379219 L155.214679,49.7605866 L152.485331,49.7605866 Z" id="path5937" fill="#7D7D7D"></path>
            <g id="g5947" transform="translate(167.958553, 41.260057) scale(-1, 1) rotate(-180.000000) translate(-167.958553, -41.260057) translate(159.958553, 32.760057)" fill="#7D7D7D">
                <path d="M0,0 L3.11199995,16.0213331 L5.55599991,16.0213331 L5.11333325,13.7466664 C6.62799989,15.5026664 8.49733319,16.3813331 10.7186665,16.3813331 C11.6826665,16.3813331 12.5333331,16.2079997 13.2759998,15.8599997 C14.0159998,15.5146664 14.5319998,15.0586664 14.8253331,14.4959998 C15.1173331,13.9333331 15.2679997,13.2639998 15.2813761,12.4906665 C15.2839997,11.9866665 15.1626664,11.1066665 14.9186664,9.8506665 L13.0026664,0 L10.2719998,0 L12.1693331,9.75599984 C12.3839998,10.8653332 12.4413331,11.6919998 12.3359998,12.2413331 C12.2346665,12.7906665 11.9453331,13.2293331 11.4733331,13.5559998 C11.0039998,13.8813331 10.4079998,14.0466664 9.68799984,14.0466664 C8.53733319,14.0466664 7.47333321,13.6786664 6.49599989,12.9426664 C5.51733324,12.2079998 4.83066659,10.8146665 4.43066659,8.75999985 L2.72933329,0 L0,0 Z" id="path5949"></path>
            </g>
            <g id="g5951" transform="translate(185.160829, 44.446608) scale(-1, 1) rotate(-180.000000) translate(-185.160829, -44.446608) translate(176.160829, 32.446608)" fill="#7D7D7D">
                <path d="M4.33333324,14.9999997 C3.92533325,12.8986664 4.04399992,11.3639998 4.6919999,10.3999998 C5.33999989,9.43199983 6.29333321,8.94933317 7.55199986,8.94933317 C8.79999984,8.94933317 9.93733315,9.42933316 10.9706665,10.3919998 C12.0039998,11.3519998 12.7186664,12.8586664 13.1159998,14.9106664 C13.4986664,16.8719997 13.3519998,18.3506663 12.6746664,19.3466663 C11.9973331,20.341333 11.0453331,20.841333 9.81733315,20.841333 C8.60799984,20.841333 7.48799986,20.3506663 6.45066654,19.3706663 C5.41466656,18.3879997 4.70933324,16.933333 4.33333324,14.9999997 M0.19599998,5.35733323 L2.74933327,4.99866657 C2.70133327,4.17866658 2.89199993,3.58266659 3.32666659,3.2066666 C3.90666658,2.69999994 4.78266657,2.44933328 5.95733322,2.44933328 C7.21999986,2.44933328 8.24533318,2.69733327 9.0306665,3.1986666 C9.81733315,3.69999992 10.4186665,4.39999991 10.8359998,5.29999989 C11.0866665,5.85199989 11.3759998,7.00666653 11.7093331,8.77199984 C10.2479998,7.38133319 8.63066651,6.68666654 6.8573332,6.68666654 C4.64799991,6.68666654 3.0946666,7.48133319 2.19466661,9.0706665 C1.29199996,10.6586665 1.05866663,12.5639998 1.49066662,14.7879997 C1.78666662,16.3159997 2.33866661,17.725333 3.14399993,19.017333 C3.94933325,20.309333 4.94666657,21.3079996 6.13599988,22.0119996 C7.32666653,22.7159996 8.63066651,23.0679996 10.0533331,23.0679996 C11.9479998,23.0679996 13.3586664,22.2893329 14.2839997,20.733333 L14.6679997,22.7079996 L17.1479997,22.7079996 L14.4559997,8.85999983 C13.9719997,6.36533321 13.3719998,4.59733324 12.6626664,3.55733326 C11.9519998,2.51733327 10.9879998,1.69466662 9.77066649,1.0893333 C8.54933317,0.486666642 7.13466653,0.185333313 5.52666656,0.185333313 C3.61733326,0.185333313 2.15466661,0.61466664 1.14666663,1.47333329 C0.135999981,2.33466661 -0.180000014,3.62799992 0.19599998,5.35733323" id="path5953"></path>
            </g>
            <g id="g5955" transform="translate(201.595359, 41.815388) scale(-1, 1) rotate(-180.000000) translate(-201.595359, -41.815388) translate(194.095359, 33.315388)" fill="#7D7D7D">
                <path d="M2.16840434e-19,5.33333324 L2.77866662,5.7639999 C2.71733329,4.68533325 2.97866662,3.8586666 3.55599994,3.28666661 C4.1306666,2.70933329 5.03866658,2.42399996 6.27866656,2.42399996 C7.52666654,2.42399996 8.49733319,2.67866662 9.20266651,3.18666661 C9.90399983,3.696 10.3199998,4.29199993 10.4533332,4.97599992 C10.5759998,5.59066657 10.4026665,6.07466656 9.94133317,6.42533323 C9.61466651,6.66933322 8.74799985,6.97466655 7.34266654,7.34933321 C5.44933324,7.85066654 4.15199993,8.28399986 3.45599994,8.65199986 C2.75866662,9.01866652 2.27466663,9.52666651 2.00399997,10.1746665 C1.73066664,10.8213332 1.67333331,11.5386665 1.8253333,12.3213331 C1.96266663,13.0359998 2.25466663,13.6986664 2.70133329,14.3066664 C3.14533328,14.9146664 3.6866666,15.4186664 4.33066659,15.8213331 C4.81066659,16.1333331 5.43999991,16.3959997 6.2119999,16.6133331 C6.97999988,16.8293331 7.78666654,16.9359997 8.61999986,16.9359997 C9.87599983,16.9359997 10.9466665,16.7559997 11.8266665,16.3933331 C12.7053331,16.0319997 13.3106664,15.5413331 13.6439998,14.9253331 C13.9786664,14.3066664 14.1279998,13.4813331 14.0986664,12.4479998 L11.3733331,12.0866665 C11.4119998,12.9106665 11.1866665,13.5546664 10.6986665,14.0159998 C10.2106665,14.4773331 9.43866651,14.7106664 8.37999986,14.7106664 C7.13199988,14.7106664 6.20266656,14.5026664 5.59066657,14.0906664 C4.97599992,13.6759998 4.61733326,13.1933331 4.50933326,12.6399998 C4.43866659,12.2866665 4.48933326,11.9706665 4.65733326,11.6879998 C4.81866659,11.3959998 5.11866658,11.1533331 5.55466657,10.9626665 C5.80666657,10.8626665 6.56266656,10.6306665 7.81999987,10.2679998 C9.63999984,9.75599984 10.8986665,9.33733318 11.5986665,9.01066652 C12.2959998,8.68266652 12.7999998,8.20666653 13.1146664,7.58399987 C13.4253331,6.96133322 13.4906664,6.1879999 13.3106664,5.26266658 C13.1359998,4.35733326 12.7053331,3.50533327 12.0226665,2.70666662 C11.3399998,1.90799997 10.4533332,1.28799998 9.37466651,0.851999986 C8.29066653,0.415999993 7.11999988,0.195999997 5.8599999,0.195999997 C3.77599994,0.195999997 2.27066663,0.629333323 1.34666664,1.49199998 C0.41866666,2.35599996 -0.0293333328,3.63599994 2.16840434e-19,5.33333324" id="path5957"></path>
            </g>
        </g>
    </g>
</svg>