<?xml version="1.0" encoding="UTF-8"?>
<svg width="278px" height="50px" viewBox="0 0 278 50" version="1.1" xmlns="http://www.w3.org/2000/svg" xmlns:xlink="http://www.w3.org/1999/xlink">
    <title>swiss-borg-logo</title>
    <g id="Page-1" stroke="none" stroke-width="1" fill="none" fill-rule="evenodd">
        <g id="swiss-borg-logo" fill-rule="nonzero">
            <path d="M30.1005906,0.833333333 L26.1129096,3.04997912 L26.1129096,21.8816812 L28.2905896,23.0938424 L28.2905896,8.75224431 L35.7659274,12.9091117 L35.7731461,12.9057697 L37.2246119,13.7116492 L38.4364126,13.042311 L38.4364126,11.9103558 L28.2905896,6.27636126 L28.2905896,4.31561083 L30.1005906,3.30969382 L40.6078364,9.15327431 L40.6078364,14.3542521 L35.5638001,17.1433206 L35.3934358,17.0607274 C35.086395,16.9127282 34.7682853,16.8372964 34.4487318,16.8372964 C33.2484811,16.8372964 32.2715331,17.8064522 32.2715331,18.9971296 C32.2715331,20.1878068 33.2484811,21.1574401 34.4487318,21.1574401 C35.5623564,21.1574401 36.4882915,20.3233932 36.602349,19.2176961 L36.6215992,19.0315036 L41.7123172,16.2166547 L46.4334311,18.8424467 L46.4334311,30.4599049 L41.7070233,33.0856968 L22.4977203,22.3996783 L22.4977203,3.05141137 L18.5100393,0.833333333 L5.826076,7.88764267 L5.826076,14.3251296 L0,17.56106 L0,31.7107367 L5.826076,34.9509639 L5.826076,41.3999087 L18.5100393,48.4542181 L22.4977203,46.2366175 L22.4977203,27.3643349 L20.3200403,26.1536061 L20.3200403,40.5357844 L11.3864991,35.5759024 L10.1742172,36.2452406 L10.1742172,37.3776729 L20.3200403,43.012145 L20.3200403,44.9709858 L18.5100393,45.9778576 L8.00327474,40.1342771 L8.00327474,34.9323446 L13.047311,32.1447083 L13.2167128,32.226824 C13.5251974,32.3748232 13.8423446,32.4502551 14.1614168,32.4502551 C15.3621488,32.4502551 16.3390968,31.4815765 16.3390968,30.2904218 C16.3390968,29.0987897 15.3621488,28.1305887 14.1614168,28.1305887 C13.0487547,28.1305887 12.1237822,28.9641583 12.0082809,30.0703328 L11.9899932,30.2560479 L6.89831269,33.0713742 L2.17719874,30.4451049 L2.17719874,18.8276465 L6.90408775,16.2023321 L26.1129096,26.8869182 L26.1129096,46.2366175 L30.1005906,48.4542181 L42.7850351,41.3999087 L42.7850351,34.9624218 L48.6111111,31.7269687 L48.6111111,17.5768147 L42.7850351,14.3375425 L42.7850351,7.88764267 L30.1005906,0.833333333 Z M8.00327474,9.15327431 L18.5100393,3.30969382 L20.3200403,4.31608825 L20.3200403,6.27540644 L8.00327474,13.1153557 L8.00327474,9.15327431 Z M9.13278079,14.9653454 L20.3200403,8.75128944 L20.3200403,21.1879949 L9.13278079,14.9653454 Z M28.2905896,28.0986018 L39.4788115,34.3226835 L28.2905896,40.5367393 L28.2905896,28.0986018 Z M28.2905896,44.9709858 L28.2905896,43.0126225 L40.6078364,36.1717185 L40.6078364,40.1342771 L30.1005906,45.9778576 L28.2905896,44.9709858 Z" id="Shape" fill="#01C38D"></path>
            <path d="M195.356111,35.4046271 C196.885154,35.4046271 198.132183,34.9425963 199.096708,34.0166196 C200.060746,33.0911219 200.543988,31.9520844 200.543988,30.5990286 C200.543988,29.2464517 200.060746,28.1078931 199.096708,27.1814375 C198.132183,26.2564186 196.885154,25.7934303 195.356111,25.7934303 L187.711878,25.7934303 L187.711878,35.4046271 L195.356111,35.4046271 Z M187.711878,20.9873532 L194.8102,20.9873532 C196.047436,20.9873532 197.084424,20.587086 197.922632,19.7860732 C198.759369,18.9850604 199.178962,18.0509443 199.178962,16.9822889 C199.178962,15.9145908 198.759369,14.9804749 197.922632,14.1794619 C197.084424,13.3779703 196.047436,12.9777033 194.8102,12.9777033 L187.711878,12.9777033 L187.711878,20.9873532 Z M201.635811,23.1237067 C202.654193,23.5862161 203.565351,24.1909257 204.36586,24.9387931 C205.057185,25.5794119 205.684861,26.434049 206.249867,27.5017469 C206.813894,28.5699237 207.096397,29.869834 207.096397,31.4000415 C207.096397,32.6817578 206.823197,33.9012317 206.277285,35.0575056 C205.730883,36.2147368 204.956815,37.2297681 203.956549,38.1011628 C202.955301,38.9739939 201.771922,39.6768551 200.406897,40.2107042 C199.041874,40.7445532 197.540737,41.0117169 195.902024,41.0117169 L181.158978,41.0117169 L181.158978,7.37109208 L195.356111,7.37109208 C196.848433,7.37109208 198.231574,7.62054079 199.50651,8.11895944 C200.779978,8.61785681 201.881593,9.29342722 202.809889,10.1475856 C203.738183,11.0022226 204.456436,11.9904418 204.966607,13.1108065 C205.476287,14.2326075 205.730883,15.4338874 205.730883,16.7156037 C205.730883,17.8555988 205.512519,18.8342421 205.07579,19.6524914 C204.63906,20.4721768 204.16561,21.1300319 203.655929,21.6284507 C203.037067,22.2341179 202.363857,22.7320578 201.635811,23.1237067 Z M105.090549,26.1870422 L100.475024,40.7881708 L95.0452826,40.7881708 L86.9011599,16.364221 L93.1456075,16.364221 L98.0318853,32.0268233 L103.189895,16.364221 L106.990714,16.364221 L112.148724,32.0268233 L117.035491,16.364221 L123.279449,16.364221 L115.134837,40.7881708 L109.705585,40.7881708 L105.090549,26.1870422 Z M125.722392,40.7883143 L125.722392,16.3643646 L131.966351,16.3643646 L131.966351,40.7883143 L125.722392,40.7883143 Z M234.612751,28.5762917 C234.612751,30.3104629 234.277371,31.9306825 233.608078,33.4340779 C232.937806,34.9389096 232.033501,36.2574926 230.893207,37.3898271 C229.752912,38.5231189 228.431464,39.4170168 226.929349,40.0710417 C225.427235,40.7265028 223.825731,41.0535151 222.124836,41.0535151 C220.422472,41.0535151 218.820968,40.7265028 217.318853,40.0710417 C215.816739,39.4170168 214.495779,38.5231189 213.355974,37.3898271 C212.215679,36.2574926 211.310396,34.9389096 210.641103,33.4340779 C209.970832,31.9306825 209.636431,30.3104629 209.636431,28.5762917 C209.636431,26.8416417 209.970832,25.2223794 210.641103,23.7180265 C211.310396,22.2141525 212.215679,20.8955693 213.355974,19.7622775 C214.495779,18.6299431 215.816739,17.7360453 217.318853,17.080584 C218.820968,16.4260804 220.422472,16.0981104 222.124836,16.0981104 C223.825731,16.0981104 225.427235,16.4260804 226.929349,17.080584 C228.431464,17.7360453 229.752912,18.6299431 230.893207,19.7622775 C232.033501,20.8955693 232.937806,22.2141525 233.608078,23.7180265 C234.277371,25.2223794 234.612751,26.8416417 234.612751,28.5762917 Z M215.880387,28.5762917 C215.880387,30.5934268 216.477708,32.2045494 217.67186,33.4077446 C218.86699,34.6114183 220.3505,35.2127765 222.124836,35.2127765 C223.897703,35.2127765 225.382192,34.6114183 226.576832,33.4077446 C227.770983,32.2045494 228.368793,30.5934268 228.368793,28.5762917 C228.368793,26.5581989 227.770983,24.9485125 226.576832,23.74436 C225.382192,22.5411649 223.897703,21.9393279 222.124836,21.9393279 C220.3505,21.9393279 218.86699,22.5411649 217.67186,23.74436 C216.477708,24.9485125 215.880387,26.5581989 215.880387,28.5762917 Z M249.534161,16.0983499 C249.823029,16.0983499 250.076646,16.1170225 250.294032,16.1514953 C250.510928,16.1874044 250.709218,16.2228349 250.890863,16.2573075 C251.072017,16.2932167 251.252682,16.3286471 251.434326,16.3645563 L251.434326,22.7353135 C251.252682,22.7008408 251.053901,22.6649317 250.837006,22.6295013 C250.655361,22.594071 250.429653,22.5591194 250.157921,22.5232103 C249.887168,22.4882588 249.588018,22.4705436 249.262429,22.4705436 C247.7422,22.4705436 246.502025,22.9569925 245.543375,23.9303692 C244.583746,24.9042246 244.103931,26.1868985 244.103931,27.7788697 L244.103931,40.7880271 L237.859972,40.7880271 L237.859972,16.3645563 L242.475497,16.3645563 L243.561446,19.0189586 C243.995728,18.4875035 244.520096,18.0096728 245.136022,17.5849876 C245.642275,17.1962114 246.266525,16.851005 247.009258,16.5493685 C247.750524,16.2491682 248.592158,16.0983499 249.534161,16.0983499 L249.534161,16.0983499 Z M83.9155362,13.4701371 C84.2964506,14.377441 84.5363581,15.3441146 84.6499468,16.3644125 L78.340871,16.3644125 C78.144049,15.492539 77.7435504,14.7643019 77.128604,14.1868832 C76.2233207,13.3379915 74.9567075,12.9128275 73.327785,12.9128275 C71.6988625,12.9128275 70.43127,13.3025613 69.5269658,14.0805922 C68.6221721,14.8595808 68.1697753,15.7094301 68.1697753,16.6296613 C68.1697753,17.6207531 68.6040567,18.3815478 69.4726194,18.9125239 C70.3411822,19.4439789 71.4276201,19.921331 72.7304644,20.3460161 C74.0333086,20.7711801 75.4536586,21.2140593 76.9924933,21.6732174 C78.5308385,22.1342904 79.9516781,22.7538426 81.2545222,23.5318736 C82.5583457,24.3108622 83.6438044,25.3287662 84.5128568,26.5851068 C85.3814197,27.841926 85.8157011,29.4789033 85.8157011,31.4965174 C85.8157011,32.6997124 85.5170408,33.8684347 84.9202099,35.0002903 C84.3223997,36.1340611 83.4812549,37.1505286 82.3953065,38.0540022 C81.3093582,38.9555606 79.9967219,39.6818824 78.4583767,40.2310526 C76.9195419,40.779744 75.2098343,41.0531322 73.327785,41.0531322 C71.4085256,41.0531322 69.6988179,40.7883622 68.1971932,40.2569072 C66.6945893,39.725931 65.4186735,38.9747121 64.3689561,38.0003778 C63.318749,37.02748 62.5133456,35.8764729 61.9532351,34.5487928 C61.3911662,33.2220704 61.1111111,31.7617661 61.1111111,30.1688374 L67.6263114,30.1688374 C67.6263114,31.655475 68.1330547,32.8687246 69.1470308,33.8061922 C70.1595381,34.7441385 71.5539388,35.2128724 73.327785,35.2128724 C75.2460651,35.2128724 76.6752281,34.8149992 77.6172319,34.0182954 C78.5582565,33.2220704 79.0292585,32.2927424 79.0292585,31.2307899 C79.0292585,30.2042676 78.5944875,29.4080426 77.725435,28.8411574 C76.8568722,28.2757083 75.7709239,27.7715442 74.46759,27.3281863 C73.1647458,26.8862646 71.7439062,26.4520036 70.2060507,26.0277971 C68.6662367,25.6026331 67.2463764,25.0185114 65.9435322,24.2754318 C64.6406879,23.5318736 63.55425,22.5680728 62.6856872,21.3811565 C61.8166349,20.1956767 61.3828431,18.62956 61.3828431,16.6823279 C61.3828431,15.4082722 61.6628982,14.1868832 62.2244774,13.0191185 C62.7850775,11.8503963 63.5816681,10.8334499 64.61327,9.96588542 C65.6453615,9.09879972 66.8933697,8.39929 68.3602324,7.86831375 C69.8256261,7.33781629 71.4814769,7.07208878 73.327785,7.07208878 C75.0291693,7.07208878 76.5763274,7.33781629 77.9697489,7.86831375 C79.3631704,8.39929 80.567114,9.14332708 81.5806006,10.0985097 C82.5940871,11.0541713 83.3725621,12.178845 83.9155362,13.4701371 L83.9155362,13.4701371 Z M176.35275,30.0893106 C176.985322,30.9918267 177.302587,32.1696458 177.302587,33.6198956 C177.302587,34.6114663 177.085692,35.5580308 176.650921,36.4605467 C176.216639,37.3630628 175.600714,38.1516271 174.805103,38.8233671 C174.008512,39.4965436 173.040069,40.0361379 171.900264,40.4431079 C170.759969,40.8495993 169.484054,41.0530843 168.072517,41.0530843 C164.814672,41.0530843 162.344604,40.3286775 160.660846,38.8769914 C159.711008,38.0573058 158.996672,37.0800989 158.501679,35.9559039 L163.729212,33.0898769 C163.873647,33.904296 164.271697,34.5937511 164.923364,35.1601576 C165.574542,35.7260854 166.443594,36.0090494 167.529543,36.0090494 C168.615001,36.0090494 169.474751,35.7356612 170.108303,35.186491 C170.741364,34.6377996 171.058629,34.0278233 171.058629,33.3546469 C171.058629,32.7887192 170.741364,32.34584 170.108303,32.0269669 C169.474751,31.7085726 168.687462,31.4165118 167.746928,31.1517419 C166.804924,30.8855356 165.782625,30.6121475 164.67905,30.328226 C163.574007,30.0452621 162.552197,29.6296738 161.611662,29.0805036 C160.669658,28.5318122 159.881881,27.8246418 159.249308,26.9565986 C158.615268,26.0895131 158.299471,24.9485604 158.299471,23.5318257 C158.299471,22.5407339 158.507065,21.5941693 158.923231,20.6911747 C159.339397,19.7886586 159.945531,19.0015307 160.74261,18.3288331 C161.538222,17.6561356 162.480225,17.1160624 163.566174,16.709571 C164.652122,16.3026008 165.881525,16.0981583 167.2583,16.0981583 C170.262039,16.0981583 172.569557,16.8072439 174.180364,18.2225419 C175.021999,18.96227 175.678561,19.8011071 176.159356,20.7342656 L171.058629,23.5313469 C170.913217,23.0008494 170.523979,22.4698732 169.891896,21.9393757 C169.257856,21.4079208 168.470078,21.1421933 167.529543,21.1421933 C166.588028,21.1421933 165.855086,21.3729693 165.330718,21.8330849 C164.805369,22.2932004 164.543429,22.8596069 164.543429,23.5318257 C164.543429,24.0982324 164.859715,24.5406326 165.493267,24.8595058 C166.125839,25.1774212 166.913617,25.469961 167.855621,25.7356885 C168.795667,26.0009371 169.817965,26.2848586 170.923008,26.5850589 C172.026583,26.8862168 173.049372,27.319999 173.990886,27.8859268 C174.931911,28.4523332 175.71871,29.1863158 176.35275,30.0893106 L176.35275,30.0893106 Z M154.362982,30.0893106 C154.995554,30.9918267 155.312819,32.1696458 155.312819,33.6198956 C155.312819,34.6114663 155.095924,35.5580308 154.661643,36.4605467 C154.227361,37.3630628 153.611435,38.1516271 152.815335,38.8233671 C152.018744,39.4965436 151.05079,40.0361379 149.910496,40.4431079 C148.770201,40.8495993 147.494286,41.0530843 146.082749,41.0530843 C142.825393,41.0530843 140.354836,40.3286775 138.671078,38.8769914 C137.72124,38.0573058 137.006904,37.0800989 136.511911,35.9559039 L141.739444,33.0898769 C141.883879,33.904296 142.281929,34.5937511 142.933596,35.1601576 C143.585264,35.7260854 144.453826,36.0090494 145.539775,36.0090494 C146.625233,36.0090494 147.484983,35.7356612 148.118535,35.186491 C148.751596,34.6377996 149.068861,34.0278233 149.068861,33.3546469 C149.068861,32.7887192 148.751596,32.34584 148.118535,32.0269669 C147.484983,31.7085726 146.697694,31.4165118 145.75716,31.1517419 C144.815156,30.8855356 143.792857,30.6121475 142.689282,30.328226 C141.584729,30.0452621 140.562429,29.6296738 139.621894,29.0805036 C138.679891,28.5318122 137.892113,27.8246418 137.259541,26.9565986 C136.6255,26.0895131 136.309703,24.9485604 136.309703,23.5318257 C136.309703,22.5407339 136.517297,21.5941693 136.933462,20.6911747 C137.349628,19.7886586 137.956252,19.0015307 138.752842,18.3288331 C139.548454,17.6561356 140.490457,17.1160624 141.576406,16.709571 C142.662354,16.3026008 143.891757,16.0981583 145.268532,16.0981583 C148.272271,16.0981583 150.579789,16.8072439 152.191086,18.2225419 C153.032231,18.96227 153.688793,19.8011071 154.169587,20.7342656 L149.068861,23.5313469 C148.923449,23.0008494 148.534211,22.4698732 147.902128,21.9393757 C147.268087,21.4079208 146.48031,21.1421933 145.539775,21.1421933 C144.59826,21.1421933 143.865318,21.3729693 143.34095,21.8330849 C142.815601,22.2932004 142.553661,22.8596069 142.553661,23.5318257 C142.553661,24.0982324 142.869947,24.5406326 143.503499,24.8595058 C144.136071,25.1774212 144.923849,25.469961 145.865853,25.7356885 C146.805899,26.0009371 147.828688,26.2848586 148.93324,26.5850589 C150.036815,26.8862168 151.059604,27.319999 152.001118,27.8859268 C152.942143,28.4523332 153.728942,29.1863158 154.362982,30.0893106 L154.362982,30.0893106 Z M273.162742,16.3642689 L277.777778,16.3642689 L277.777778,39.1952899 C277.777778,42.3811474 276.736383,44.946974 274.655064,46.8942061 C272.573744,48.8404807 269.633165,49.8148149 265.832346,49.8148149 C263.515526,49.8148149 261.642289,49.4068871 260.212637,48.5934258 C258.782494,47.7785281 257.651993,46.8582969 256.819661,45.8317747 C256.500926,45.4372532 256.220382,45.0178346 255.955994,44.5869251 L260.946068,41.8506499 C261.198706,42.3098079 261.542899,42.7167781 261.977181,43.0715601 C262.375231,43.3535665 262.881485,43.6197726 263.497411,43.8677851 C264.112846,44.1148399 264.890832,44.2393249 265.832346,44.2393249 C267.605703,44.2393249 269.000104,43.7701122 270.0131,42.8326447 C271.026097,41.8946983 271.533331,40.6819276 271.533331,39.1952899 L271.533331,37.3366336 C271.026097,37.8331371 270.447871,38.2755375 269.796204,38.6638349 C269.21651,39.0186169 268.528612,39.3279142 267.733,39.5936417 C266.93641,39.8593693 266.030637,39.9919938 265.018129,39.9919938 C263.461179,39.9919938 261.985504,39.6913146 260.593061,39.0889989 C259.19915,38.4876407 257.986394,37.6555067 256.954792,36.5935542 C255.923679,35.5316017 255.108974,34.2752611 254.511653,32.823575 C253.914332,31.3723675 253.616162,29.7803964 253.616162,28.0452675 C253.616162,26.311575 253.914332,24.7186463 254.511653,23.2664813 C255.108974,21.8152738 255.923679,20.5579758 256.954792,19.4965021 C257.986394,18.4350283 259.19915,17.6033731 260.593061,17.0010574 C261.985504,16.3996992 263.461179,16.0985413 265.018129,16.0985413 C266.104078,16.0985413 267.081333,16.2402626 267.949896,16.5232265 C268.81846,16.8071481 269.560214,17.1073483 270.176139,17.4257425 C270.863058,17.8164339 271.497099,18.2573979 272.076304,18.7529439 L273.162742,16.3642689 Z M128.844127,13.1779326 C127.902612,13.1779326 127.079583,12.8327263 126.37357,12.1427922 C125.668046,11.4523794 125.315039,10.6480151 125.315039,9.72730514 C125.315039,8.80707403 125.668046,8.00079449 126.37357,7.31086051 C127.079583,6.62092654 127.902612,6.27572017 128.844127,6.27572017 C129.785151,6.27572017 130.60867,6.62092654 131.314684,7.31086051 C132.020697,8.00079449 132.373704,8.80707403 132.373704,9.72730514 C132.373704,10.6480151 132.020697,11.4523794 131.314684,12.1427922 C130.60867,12.8327263 129.785151,13.1779326 128.844127,13.1779326 Z M271.316435,30.4344211 C271.642022,29.6913418 271.805062,28.8941592 271.805062,28.0452675 C271.805062,27.1949394 271.642022,26.3987144 271.316435,25.6561139 C270.990356,24.9125554 270.556075,24.2671488 270.0131,23.7174999 C269.470126,23.1692872 268.836575,22.735505 268.112446,22.4171108 C267.388807,22.0982378 266.628447,21.9392801 265.832346,21.9392801 C264.999525,21.9392801 264.221539,22.0982378 263.497411,22.4171108 C262.773282,22.735505 262.14071,23.1692872 261.597246,23.7174999 C261.054271,24.2671488 260.628803,24.9125554 260.321329,25.6561139 C260.013367,26.3987144 259.860119,27.1949394 259.860119,28.0452675 C259.860119,28.8941592 260.013367,29.6913418 260.321329,30.4344211 C260.628803,31.1779794 261.054271,31.8233861 261.597246,32.3725564 C262.14071,32.9212476 262.773282,33.35503 263.497411,33.6734242 C264.221539,33.9922972 264.999525,34.1512549 265.832346,34.1512549 C266.628447,34.1512549 267.388807,33.9922972 268.112446,33.6734242 C268.836575,33.35503 269.470126,32.9212476 270.0131,32.3725564 C270.556075,31.8233861 270.990356,31.1779794 271.316435,30.4344211 Z" id="Shape" fill="#232936"></path>
        </g>
    </g>
</svg>