<?xml version="1.0" encoding="UTF-8"?>
<svg width="414px" height="48px" viewBox="0 0 414 48" version="1.1" xmlns="http://www.w3.org/2000/svg" xmlns:xlink="http://www.w3.org/1999/xlink">
    <title>unocoin-logo</title>
    <g id="Page-1" stroke="none" stroke-width="1" fill="none" fill-rule="evenodd">
        <g id="unocoin-logo" fill-rule="nonzero">
            <path d="M191.647375,7.41720125 C194.248447,7.41720125 196.832738,7.45075569 199.43381,7.41720125 C200.138616,7.40042401 200.373552,7.56819619 200.356771,8.32317087 C200.323209,13.6079938 200.339989,18.8760395 200.339989,24.1608624 C200.339989,24.4796295 200.356771,24.7983966 200.373552,25.1171637 C200.356771,27.6505232 200.339989,30.1838828 200.339989,32.7172423 C200.339989,37.4316399 200.356771,42.1460375 200.373552,46.8604349 C197.101236,46.8604349 193.82892,46.8604349 190.556603,46.8604349 C190.220981,46.6758859 189.969264,46.3906731 189.734329,46.0886831 C184.783902,39.931445 179.799913,33.7909841 174.832705,27.633746 C173.020345,25.3855991 171.258329,23.1038978 169.345282,20.9060826 C169.143909,21.2416269 169.244595,21.5771712 169.244595,21.879161 C169.244595,29.7644524 169.244595,37.6329665 169.227815,45.5182578 C169.227815,45.9712426 169.328501,46.4577818 168.992879,46.8604349 C166.005842,46.8604349 163.035585,46.8604349 160.048548,46.8604349 C160.065329,45.7531388 160.08211,44.6458426 160.08211,43.5385464 C160.08211,31.8280499 160.08211,20.1175534 160.065329,8.40705698 C160.065329,7.66885949 160.199578,7.41720125 161.005071,7.43397844 C163.656487,7.50108731 166.324683,7.45075569 168.976098,7.45075569 C169.362064,7.45075569 169.630561,7.50108731 169.91584,7.87018606 C174.76558,13.9435381 179.648883,19.9833357 184.532185,26.0231333 C186.747292,28.7745967 188.99596,31.4925056 191.227848,34.2271917 C191.731281,34.1097512 191.496345,33.7070981 191.496345,33.4554398 C191.513127,29.2611359 191.513127,25.0500548 191.513127,20.8557509 C191.513127,16.6782243 191.513127,12.5174748 191.513127,8.33994811 C191.513127,8.03795823 191.395659,7.70241388 191.647375,7.41720125 Z" id="Path" fill="#127E6E"></path>
            <path d="M405.177715,7.36974201 C408.036743,7.36974201 410.895771,7.36974201 413.754798,7.36974201 C413.754798,20.313417 413.754798,33.240282 413.771616,46.183957 C413.771616,46.7891157 413.653891,46.9067854 413.04845,46.9067854 C410.05488,46.8731655 407.078128,46.8899755 404.084558,46.8899755 C403.176396,46.3184368 402.621409,45.3770786 401.965514,44.5702001 C395.658836,36.7703752 389.335339,28.9705503 383.028661,21.1707254 C382.910936,21.0194356 382.826847,20.817716 382.591398,20.7336662 C382.456856,21.0362456 382.524126,21.355635 382.524126,21.6750244 C382.524126,29.626139 382.524126,37.5940636 382.524126,45.5451782 C382.524126,45.9990474 382.625033,46.4865363 382.288677,46.8899755 C379.362379,46.8899755 376.43608,46.8899755 373.509781,46.8899755 C373.509781,34.0471605 373.509781,21.2043453 373.492963,8.36153009 C373.492963,7.62189152 373.627506,7.36974201 374.434761,7.38655198 C377.007885,7.45379183 379.58101,7.45379183 382.154135,7.38655198 C382.843665,7.36974201 383.230474,7.63870149 383.600467,8.10938058 C385.56815,10.5468259 387.535834,12.9842712 389.503517,15.4385264 C391.841193,18.3298408 394.16205,21.2379652 396.482908,24.1292796 C399.15694,27.4576532 401.847789,30.7860268 404.538639,34.0975904 C404.589092,34.1648302 404.673181,34.1984502 404.740452,34.2488801 C405.278623,34.1648302 405.009537,33.7445811 405.026355,33.4924316 C405.043173,31.0886062 405.043173,28.7015908 405.043173,26.2977655 C405.043173,20.296607 405.043173,14.3122586 405.043173,8.3111002 C405.059991,7.99171079 404.942266,7.65551145 405.177715,7.36974201 Z" id="Path" fill="#127E6E"></path>
            <path d="M329.16537,7.71821947 C331.597502,8.1714098 333.996087,8.65816977 336.260487,9.69882902 C340.923471,11.830502 344.060082,15.3217459 345.620001,20.2061305 C346.123201,21.800689 346.341254,23.4623868 346.559308,25.1240846 C346.626401,26.5172253 346.626401,27.9103658 346.559308,29.3202913 C346.190294,32.6436869 345.435495,35.8495888 343.523336,38.6694397 C340.923471,42.5299498 337.233339,44.829471 332.771635,45.9708392 C331.463316,46.3065358 330.12145,46.5750928 328.796357,46.8604349 C325.877799,46.8604349 322.95924,46.8604349 320.040682,46.8604349 C318.967189,46.4575992 317.80983,46.4072449 316.686017,46.1386875 C313.113299,45.2490917 309.909594,43.7048877 307.309729,41.0528851 C305.028557,38.7197942 303.636371,35.8999433 302.881571,32.7276111 C302.663518,31.8380153 302.562878,30.9316346 302.479011,30.025254 C302.328052,29.6224182 302.546105,29.1860126 302.344825,28.7999616 C302.344825,27.7593024 302.344825,26.7186431 302.344825,25.6611991 C302.546105,25.2751481 302.328052,24.8219578 302.479011,24.4359068 C302.680291,21.5824862 303.535731,18.9304836 304.961463,16.4631141 C305.934316,14.7846314 307.209089,13.3579212 308.735461,12.1326288 C312.140446,9.39670213 316.082177,8.22176428 320.325828,7.76857396 C320.812255,7.71821947 321.298681,7.63429536 321.785108,7.55037119 C322.472814,7.39930775 323.194067,7.63429536 323.898546,7.41609259 C324.351426,7.41609259 324.804306,7.41609259 325.257186,7.41609259 C325.961665,7.61751051 326.682918,7.38252295 327.387398,7.55037119 C327.672544,7.56715603 327.974464,7.56715603 328.259611,7.58394087 C328.561531,7.78535875 328.880224,7.58394087 329.16537,7.71821947 Z" id="Path" fill="#127E6E"></path>
            <path d="M208.404268,24.2416486 C208.488223,21.9579404 209.210231,19.8253599 210.133729,17.7767394 C210.805365,16.2822539 211.812818,14.9556881 212.937808,13.7130821 C216.329567,9.98526433 220.745571,8.54115472 225.497392,7.78551597 C226.236191,7.66797216 226.991781,7.61759626 227.747371,7.53363641 C228.402215,7.39930061 229.073851,7.60080428 229.728696,7.41609259 C230.232422,7.41609259 230.719358,7.41609259 231.223085,7.41609259 C231.861138,7.61759626 232.532774,7.39930061 233.170828,7.53363641 C233.523437,7.55042839 233.859254,7.56722032 234.211863,7.5840123 C234.480517,7.76872399 234.816335,7.5840123 235.10178,7.7183481 C237.18385,8.15493935 239.26592,8.50757076 241.264036,9.31358544 C247.040101,11.6644615 250.666933,15.8120786 251.959831,21.9411485 C252.077367,22.4784915 252.211695,22.9990427 252.329231,23.5363858 C252.463558,23.8218493 252.278858,24.1408968 252.463558,24.4263603 C252.480349,24.7789917 252.49714,25.1316231 252.513931,25.4674626 C252.581094,26.6261087 252.581094,27.8015467 252.513931,28.9601928 C252.49714,29.3128242 252.480349,29.6654556 252.463558,30.0012951 C252.278858,30.2699666 252.463558,30.605806 252.329231,30.8912696 C251.875877,33.1246019 251.321777,35.3075582 250.213579,37.3393869 C248.685608,40.1772302 246.519584,42.3433946 243.749087,43.9218399 C240.9618,45.5170773 237.93944,46.3734679 234.765962,46.7093074 C234.430144,46.8940191 234.027163,46.6421394 233.691345,46.8604349 C231.122339,46.8604349 228.553334,46.8604349 225.967537,46.8604349 C224.876129,46.6085556 223.784722,46.3566759 222.693314,46.1215883 C219.670954,45.4834934 216.883666,44.2576794 214.516151,42.2762267 C212.534827,40.6138214 210.939692,38.5987848 209.898657,36.1471568 C209.075904,34.2160801 208.572177,32.2514193 208.370686,30.1692148 C208.269941,29.8669593 208.404268,29.5479118 208.25315,29.2456563 C208.25315,27.8855066 208.25315,26.5085649 208.25315,25.1484151 C208.43785,24.8629516 208.303523,24.5439041 208.404268,24.2416486 Z" id="Path" fill="#127E6E"></path>
            <path d="M128.820008,38.5521333 C130.16143,38.6696244 131.51962,38.65284 132.861042,38.5689177 C133.146094,38.4346421 133.481449,38.6192711 133.749734,38.4346421 C137.991981,38.0318153 141.328768,35.6148548 141.630587,31.0998383 C141.815033,30.7641494 141.630587,30.378107 141.76473,30.0256336 C141.781497,26.668744 141.798265,23.3118544 141.798265,19.9549648 C141.798265,16.0609728 141.815033,12.1837653 141.781497,8.28977337 C141.781497,7.61839544 141.91564,7.40019759 142.636654,7.41698206 C145.386569,7.45055095 148.119716,7.41698206 150.869631,7.41698206 C151.087612,7.60161097 150.987006,7.85337772 150.987006,8.07157552 C150.987006,16.5812907 150.987006,25.1077903 150.987006,33.6175055 C150.987006,33.7685656 150.987006,33.9028411 150.936702,34.0539011 C150.400134,38.6360555 147.952038,41.8922384 143.961308,44.0910011 C141.328768,45.5344637 138.528549,46.3569016 135.560653,46.6925906 C135.443279,46.7093751 135.342673,46.7261596 135.309137,46.8604349 C132.27417,46.8604349 129.239202,46.8604349 126.204236,46.8604349 C125.11433,46.4576085 123.957354,46.4072551 122.85068,46.1387038 C119.513893,45.2994814 116.428623,43.9567256 114.030831,41.4054894 C112.001931,39.2402956 110.794651,36.6722751 110.794651,33.63429 C110.794651,25.1581437 110.794651,16.6987818 110.777883,8.22263558 C110.777883,7.61839544 110.912025,7.43376648 111.549201,7.43376648 C114.064367,7.46733538 116.562765,7.48411985 119.077931,7.43376648 C119.798946,7.41698206 119.91632,7.66874876 119.91632,8.32334227 C119.899552,15.0706904 119.899552,21.8180385 119.899552,28.5653866 C119.899552,28.8842911 119.91632,29.2031957 119.933088,29.5221002 C120.083998,29.9920647 119.866017,30.4788137 120.06723,30.9319938 C120.184604,34.9938303 122.582396,37.3268686 126.405448,38.2667976 C126.908482,38.3842888 127.411515,38.5185644 127.948084,38.4514266 C128.199601,38.6192711 128.534956,38.4514266 128.820008,38.5521333 Z" id="Path" fill="#127E6E"></path>
            <path d="M258.446196,24.7716033 C258.580617,22.1196007 259.336734,19.6354463 260.596929,17.3359251 C261.756309,15.221037 263.268544,13.4082757 265.251251,11.9312109 C268.72939,9.34634765 272.6612,8.22176428 276.861851,7.75178911 C277.349127,7.70143463 277.836402,7.61751051 278.323678,7.55037119 C279.012585,7.39930775 279.735097,7.63429536 280.440806,7.41609259 C280.894476,7.41609259 281.364949,7.41609259 281.818619,7.41609259 C282.507526,7.63429536 283.230039,7.39930775 283.935748,7.55037119 C288.069189,7.9196374 292.034604,8.97708145 295.764782,10.7730579 C295.94961,10.856982 296.117637,10.957691 296.33607,10.9409061 C296.554504,11.0416151 296.487294,11.243033 296.487294,11.3940965 C296.487294,14.1635929 296.487294,16.9498741 296.487294,19.7193705 C296.487294,19.8872187 296.537702,20.0718518 296.369675,20.2061305 C295.243901,19.568307 294.134929,18.896914 292.992352,18.2926602 C290.606382,17.0505831 288.052386,16.2281265 285.397574,15.8252907 C284.826286,15.7413666 284.221392,15.5231638 283.616498,15.6406576 C282.188277,15.506379 280.776858,15.506379 279.348637,15.6406576 C275.870497,15.7749362 272.678003,16.6981017 270.140809,19.1990408 C268.376535,20.9446628 267.519603,23.1434751 267.435589,25.6276294 C267.284366,26.6850735 267.301169,27.7593024 267.435589,28.8167465 C267.553208,32.6772566 269.989586,36.2524246 274.123026,37.7294894 C276.206549,38.4848066 278.357283,38.8876424 280.575227,38.8037183 C281.180121,38.9379969 281.785014,38.9379969 282.406711,38.8037183 C282.927591,38.7869335 283.448472,38.7701486 283.952551,38.7533638 C284.238195,38.63587 284.574247,38.8037183 284.859891,38.6190852 C287.229059,38.4848066 289.447002,37.7294894 291.614538,36.8231088 C293.294799,36.1349308 294.739823,35.0271323 296.369675,34.2382455 C296.571307,34.4228785 296.487294,34.674651 296.487294,34.8928537 C296.487294,37.477717 296.487294,40.0625803 296.487294,42.6474436 C296.487294,42.9495704 296.588109,43.3020518 296.235255,43.5202546 C293.714864,44.5944835 291.194473,45.6687124 288.472451,46.2226116 C287.481098,46.4240293 286.489744,46.6422321 285.515193,46.8604349 C282.524329,46.8604349 279.550268,46.8604349 276.559404,46.8604349 C275.43363,46.6086627 274.307855,46.3904599 273.198883,46.1219027 C270.20802,45.3833703 267.368379,44.2755717 264.932001,42.3285319 C261.739507,39.794023 259.82401,36.4538426 258.866261,32.542978 C258.631025,31.6030277 258.496604,30.6462926 258.446196,29.6727727 C258.294973,29.1356582 258.513406,28.5817589 258.311775,28.0446445 C258.311775,27.4907452 258.311775,26.9536307 258.311775,26.3997315 C258.513406,25.862617 258.294973,25.3087177 258.446196,24.7716033 Z" id="Path" fill="#127E6E"></path>
            <path d="M354.598738,46.8436578 C354.598738,34.0257742 354.598738,21.2078907 354.581927,8.39000715 C354.581927,7.63502714 354.733224,7.40014442 355.523329,7.41692176 C358.128994,7.46725376 360.734659,7.43369909 363.340324,7.41692176 C363.558863,7.63502714 363.457999,7.92024181 363.457999,8.17190181 C363.457999,20.8387893 363.457999,33.5056768 363.457999,46.1725643 C363.457999,46.407447 363.508431,46.6423299 363.373945,46.8604349 C360.448876,46.8436578 357.523807,46.8436578 354.598738,46.8436578 Z" id="Path" fill="#127E6E"></path>
            <path d="M168.985468,46.8604349 C168.951884,46.6255765 168.901509,46.4074938 168.901509,46.1726354 C168.901509,37.7345082 168.901509,29.296381 168.901509,20.8582538 C168.901509,20.6569466 168.918301,20.472415 168.951884,20.0698006 C169.388471,20.5898442 169.724308,20.975683 170.043352,21.3615218 C176.793662,29.6822198 183.52718,38.0196934 190.260698,46.3403914 C190.378241,46.4913716 190.562951,46.6255765 190.546159,46.8604349 C183.376054,46.8604349 176.189157,46.8604349 168.985468,46.8604349 Z" id="Path" fill="#FEFEFE"></path>
            <path d="M363.380207,46.8604349 C363.399217,46.5750928 363.418227,46.2729661 363.418227,45.9876241 C363.418227,33.4829283 363.418227,20.9782325 363.418227,8.45675184 C363.418227,8.10427048 363.361197,7.76857396 363.342186,7.41609259 C363.779422,7.70143463 363.570309,8.12105532 363.570309,8.47353664 C363.589319,21.2635745 363.589319,34.0703972 363.589319,46.8604349 C363.494268,46.8604349 363.437238,46.8604349 363.380207,46.8604349 Z" id="Path" fill="#FDFDFD"></path>
            <path d="M83.5886337,32.436135 L83.5700935,32.44077 L83.5515533,32.44077 C83.4171366,32.1626666 83.4171366,31.8891981 83.5515533,31.6110947 C83.5654585,31.6110947 83.5793636,31.6110947 83.5932688,31.6157297 C83.5886337,31.8845631 83.5886337,32.1626666 83.5886337,32.436135 Z" id="Path" fill="#C3E3DF"></path>
            <path d="M83.5469182,13.937619 C83.5608234,13.937619 83.5747286,13.937619 83.5886337,13.937619 C83.5886337,14.2110874 83.5886337,14.4845558 83.5886337,14.7626593 L83.5700935,14.7672944 L83.5515533,14.7672944 C83.4125015,14.4891909 83.4125015,14.2110874 83.5469182,13.937619 Z" id="Path" fill="#C4E4E0"></path>
            <path d="M233.745968,46.8604349 C234.079113,46.5980887 234.445573,46.6855374 234.812032,46.7030274 C234.795374,46.7554967 234.795374,46.807966 234.795374,46.8604349 C234.445573,46.8604349 234.09577,46.8604349 233.745968,46.8604349 Z" id="Path" fill="#87BEB5"></path>
            <path d="M36.0792905,46.8975153 C36.0004945,46.9021504 35.9216985,46.9114205 35.8429025,46.9160556 C34.9529714,46.4571848 34.0213248,46.0910154 33.1128534,45.6738602 C31.7037958,45.0342223 30.2854681,44.4084894 28.8717755,43.7827566 C27.2958558,43.0828629 25.7199361,42.373699 24.1440164,41.6738053 C22.6190824,40.9970869 21.0941484,40.3203684 19.5692143,39.6390149 C18.0071998,38.9391212 16.4451853,38.2484975 14.8831708,37.5532389 C13.3257914,36.8626152 11.777682,36.1627215 10.2203026,35.4720979 C8.69536856,34.7953794 7.16579947,34.123296 5.64550048,33.4373075 C4.24571303,32.8115747 2.84592555,32.1904769 1.44613808,31.5647441 C1.05679322,31.3886119 0.667448356,31.2124797 0.273468437,31.0456176 C0.18076728,31.0039021 0.0648908329,30.9899969 0.023175312,30.8741205 C0.0185402541,30.7860544 0.0139051962,30.6979883 0.0139051962,30.6099222 C0.0139051962,27.3653817 0.0139051962,24.1208411 0.0139051962,20.8716656 C0.0139051962,20.7835995 0.0185402541,20.6955334 0.023175312,20.6074673 C0.139051759,20.5240362 0.241023032,20.5889271 0.342994305,20.6352776 C1.83548294,21.302726 3.33724169,21.9655392 4.8297303,22.6329876 C6.54006665,23.3977721 8.24576795,24.1625567 9.96073936,24.9180711 C10.2481129,25.0432177 10.5308515,25.1822694 10.8274952,25.2981458 C10.892386,25.3213211 10.9433716,25.3537665 10.9387366,25.4371976 C10.9387366,27.9679392 10.9387366,30.4940457 10.9387366,33.0201523 C10.9387366,33.0989482 10.9201963,33.1823793 10.9619119,33.2565402 C10.9850871,33.9286236 11.2539205,34.5033708 11.6525355,35.0271323 C12.1484867,35.6806755 12.8066649,36.0885606 13.6038948,36.2739629 C13.7058661,36.2971382 13.8078374,36.3017732 13.9098087,36.3017732 C14.0025098,36.3527589 14.1091162,36.3017732 14.2064524,36.3388537 C14.2806133,36.3434887 14.3501392,36.3481238 14.4243001,36.3481238 C20.5611167,36.3481238 26.6932983,36.3481238 32.8301149,36.3481238 C32.9042758,36.3481238 32.9738017,36.3388537 33.0479626,36.3388537 C33.1267586,36.3064083 33.2194597,36.3527589 33.2982557,36.3064083 C33.7849368,36.2785979 34.1881868,36.046845 34.5960719,35.8150922 C35.1661841,36.1673566 35.801187,36.3898393 36.4083796,36.6679428 C37.8313423,37.3122158 39.2682103,37.9379487 40.6958081,38.5822217 C41.9333685,39.1384286 43.170929,39.6853655 44.4084894,40.2323023 C44.5568113,40.2971931 44.7607538,40.3157333 44.8163745,40.5196759 C44.4177596,41.1778541 43.9588888,41.7943168 43.4490325,42.373699 C42.5822766,43.3609664 41.5950093,44.2184521 40.5011357,44.9415211 C39.1523338,45.8314522 37.7015607,46.4849952 36.1302761,46.8604349 C36.1024657,46.87434 36.0931956,46.8882452 36.0792905,46.8975153 Z" id="Path" fill="#138979"></path>
            <path d="M83.5469182,13.937619 C83.5469182,14.2157225 83.5469182,14.4891909 83.5469182,14.7672944 C83.4542171,15.5181737 83.1992889,16.1948922 82.6662572,16.7510991 C82.3603434,16.7001135 82.0961451,16.5378865 81.8134066,16.4127399 C79.9408432,15.5830646 78.0636448,14.7580243 76.1957164,13.9190788 C74.0635898,12.9596218 71.9221931,12.0187051 69.7854314,11.0638831 C67.6486697,10.1090612 65.5119081,9.16350941 63.3751464,8.20868749 C61.5257583,7.38364719 59.6763702,6.55860688 57.8269821,5.73820164 C55.6902204,4.78801478 53.5534588,3.8285578 51.4166971,2.88300599 C49.7851567,2.16457202 48.1628865,1.42759782 46.5313461,0.709163849 C46.5174409,0.704528791 46.5081708,0.690623618 46.4942656,0.676718444 C47.1802542,0.435695437 47.8940531,0.310548874 48.607852,0.194672428 C48.7422687,0.171497138 48.8766854,0.152956907 49.011102,0.134416675 C49.089898,0.0973362125 49.1825992,0.148321849 49.2567601,0.0973362125 C52.7562288,-0.0139051765 56.2603326,0.0741609231 59.7598012,0.0463505758 C59.8571375,0.0463505758 59.9544737,0.0509856336 60.0518099,0.0556206915 C62.1283158,0.982632264 64.2094568,1.90037372 66.2859627,2.8273853 C68.2836727,3.71731641 70.2813826,4.60724752 72.2744575,5.49254357 C74.1238456,6.31294882 75.9685986,7.14725923 77.8226218,7.96766448 C79.3846363,8.6582881 80.9466508,9.3628169 82.5086653,10.0534405 C82.6291768,10.1090612 82.7774986,10.1322365 82.8516595,10.2666532 C83.1529383,11.0685182 83.3244354,11.9028286 83.4356768,12.7464091 C83.4912975,13.135754 83.5098378,13.534369 83.5469182,13.937619 Z" id="Path" fill="#159687"></path>
            <path d="M69.349736,47.2034292 C69.27094,47.2080642 69.1875089,47.2126993 69.108713,47.2126993 C68.9974716,47.2544148 68.8769601,47.194159 68.7703537,47.2497797 C68.5942215,47.2544148 68.4180893,47.2590498 68.2373221,47.2590498 C68.149256,47.2822251 68.0611899,47.272955 67.9731238,47.272955 C65.4145718,47.272955 62.8513848,47.272955 60.2928329,47.272955 C59.9591087,47.1014579 59.6253846,46.9345958 59.2823903,46.7816389 C57.734281,46.1002856 56.1861716,45.414297 54.6426974,44.7190383 C53.089953,44.0237796 51.5372086,43.3377911 49.9844642,42.6425324 C49.6368349,42.4895755 49.2938406,42.3366186 48.9462112,42.1790266 C48.8581451,42.1419461 48.7561739,42.1187709 48.7237285,42.0121645 C48.9832917,41.5208484 49.2521251,41.0388024 49.4931481,40.5428512 C50.0354498,39.4211672 50.4247947,38.2392274 50.7075332,37.0248423 C50.7446137,36.8579802 50.8095045,36.6911181 50.8141396,36.5196209 C50.8187746,36.3759342 50.8743953,36.3434887 51.0041769,36.3434887 C52.0841454,36.3481238 53.168749,36.3527589 54.2487174,36.3527589 C55.1896342,36.7328336 56.1120107,37.1685291 57.0390223,37.5764141 C58.4202695,38.1882418 59.7968817,38.7954344 61.1734939,39.4165321 C62.5871865,40.051535 64.0008792,40.6772679 65.4192069,41.3076357 C67.0043967,42.0121645 68.5849514,42.7213284 70.1701412,43.4258572 C71.6162793,44.0654952 73.0624173,44.7097682 74.5039203,45.3540412 C74.5966215,45.3957568 74.7403083,45.4189321 74.6800525,45.5857941 C73.5351932,46.1883517 72.3254431,46.6194119 71.0600723,46.8975153 C70.5780263,47.0041217 70.0820751,47.0736475 69.595394,47.1570786 C69.511963,47.2034292 69.4238969,47.1478085 69.349736,47.2034292 Z" id="Path" fill="#148C7C"></path>
            <path d="M36.3156784,13.7475816 C36.3481238,12.9225413 36.44546,12.1021361 36.6354974,11.3002711 C36.7838192,10.6745383 36.9367762,10.0488055 37.1731641,9.44161288 C37.3539314,8.97347203 37.5578739,8.51460131 37.7525463,8.05109552 C37.8637877,7.79153228 38.0306498,7.55977938 38.1697016,7.31412132 C38.6193022,7.448538 39.0318223,7.67102077 39.4582476,7.86105815 C41.1871242,8.63047775 42.9160008,9.39989736 44.6448774,10.169317 C45.8221821,10.6930785 47.004122,11.2075699 48.1767916,11.7452366 C48.2555876,11.7823171 48.3760991,11.7915872 48.3343836,11.935274 C47.7550014,12.5239264 47.3471163,13.1960098 47.2590502,14.0349552 C47.2312398,14.1369265 47.2497801,14.2388978 47.245145,14.340869 C47.245145,17.0152974 47.245145,19.6850908 47.245145,22.3595192 C47.166349,22.5310163 47.0412025,22.4383151 46.9438662,22.3919646 C46.3552137,22.1324013 45.7619263,21.8728381 45.173274,21.6086398 C42.8928255,20.584292 40.607742,19.5738494 38.3272935,18.5587717 C37.7803567,18.3177487 37.2380549,18.0720906 36.6957531,17.8264326 C36.4176497,17.701286 36.3991094,17.7151912 36.3991094,18.0118349 C36.3991094,20.904111 36.3944744,23.8010222 36.3991094,26.6932983 C36.3991094,26.7350138 36.3991094,26.7720943 36.3991094,26.8138098 C36.4176497,28.0791806 36.4037445,29.3445514 36.4083796,30.6099222 C36.4083796,31.24029 36.4176497,31.8660228 36.4037445,32.4963907 C36.3759342,32.6678879 36.4871755,32.8718304 36.2971382,33.0062471 C36.3017732,26.7813644 36.3017732,20.5611167 36.3064083,14.336234 C36.3064083,14.2713432 36.2971382,14.2064524 36.2925031,14.1461966 C36.3295836,14.0210501 36.283233,13.8819983 36.3156784,13.7475816 Z" id="Path" fill="#149182"></path>
            <path d="M46.4989007,0.672083386 C46.7399237,0.653543155 46.925326,0.811135122 47.1292685,0.899201222 C48.2555876,1.39051736 49.3772716,1.90500878 50.4989556,2.40559503 C51.8709327,3.01742267 53.25218,3.61998019 54.6241571,4.23180783 C55.6021543,4.66750327 56.5755165,5.11246883 57.5535137,5.54816427 C58.7864391,6.0951011 60.0286346,6.63740287 61.26156,7.18897475 C62.2395572,7.62467019 63.2129194,8.06963575 64.1909166,8.50533119 C65.423842,9.05226802 66.6660375,9.59456979 67.8989629,10.1461417 C68.8769601,10.5818371 69.8503222,11.0268027 70.8283194,11.4624981 C72.0612448,12.0094349 73.3034403,12.5517367 74.5363657,13.0986735 C75.5050928,13.5297339 76.4738199,13.9700644 77.442547,14.4057599 C78.6754724,14.9526967 79.9176679,15.4903634 81.1459582,16.0512054 C81.6558146,16.2829583 82.1888463,16.4729957 82.6755273,16.7603693 C82.1239555,17.3907371 81.4147916,17.7244613 80.5897513,17.8310676 C80.5341306,17.8542429 80.4785099,17.8449728 80.4228892,17.8449728 C78.5503258,17.8449728 76.6777625,17.8449728 74.8051991,17.8449728 C74.7495784,17.8449728 74.6939577,17.8496079 74.638337,17.8310676 C73.0299719,17.7151912 71.8294919,16.3988347 71.6719,14.9156162 C71.6301844,14.739484 71.6950753,14.5540817 71.6348195,14.3779495 C71.597739,13.5946247 71.3474459,12.8900959 70.8561298,12.2736332 C70.3787188,11.6710757 69.7807964,11.2724607 69.0391871,11.0824234 C68.9047704,11.0453429 68.7657187,11.0268027 68.6266669,10.9943573 C68.552506,10.9480067 68.469075,10.971182 68.390279,10.971182 C66.2071667,10.971182 64.0240545,10.971182 61.8455773,10.971182 C61.4840428,10.8367653 61.1410485,10.6606331 60.7887841,10.5030411 C59.2174995,9.80778245 57.6462149,9.11715883 56.0842004,8.41263003 C54.531456,7.71737135 52.9787116,7.02674773 51.4259672,6.33612411 C49.724901,5.58060967 48.0284698,4.81582513 46.3227683,4.06494575 C45.2613401,3.5968049 44.1999118,3.124029 43.1431186,2.64661804 C43.0179721,2.59099734 42.8325698,2.57245711 42.8232997,2.36851457 C43.9264434,1.62227025 45.1269234,1.09850871 46.3876593,0.68598856 C46.4154696,0.667448328 46.4571852,0.672083386 46.4989007,0.672083386 Z" id="Path" fill="#159586"></path>
            <path d="M74.6754175,45.5950643 C74.6707824,45.5069982 74.6105267,45.4745528 74.5410008,45.4421073 C73.4795725,44.9739665 72.4227793,44.5104607 71.3613511,44.0423199 C70.4297045,43.6297997 69.4980578,43.2080095 68.5617761,42.7908542 C67.430822,42.2856329 66.2998679,41.7850467 65.1642787,41.2844604 C64.385589,40.9368311 63.6068993,40.5892018 62.8282096,40.2415724 C61.6833503,39.7317161 60.5338559,39.2218597 59.3889966,38.7120033 C58.4480799,38.2948481 57.5117982,37.8684228 56.5708814,37.4512676 C55.9173383,37.1592589 55.2591601,36.8765204 54.6056169,36.5845118 C54.4758353,36.524256 54.3275134,36.4918106 54.2394473,36.366664 C54.3367835,36.362029 54.4341198,36.3573939 54.5268209,36.3573939 C58.9023155,36.3573939 63.2778102,36.3573939 67.6533048,36.3573939 C67.750641,36.3573939 67.8479772,36.3527589 67.9406784,36.3481238 C68.0333795,36.3064083 68.1399859,36.366664 68.232687,36.3110433 C68.5664112,36.3110433 68.8537848,36.1534514 69.1504285,36.0329399 C70.4575148,36.6494026 71.7831414,37.2148796 73.0994978,37.803532 C74.6615123,38.5034257 76.2235268,39.1940493 77.7809062,39.889308 C78.5178804,40.2183971 79.2548546,40.5428512 79.9918288,40.8719403 C80.0891651,40.9182909 80.2096766,40.9553713 80.1911363,41.1083282 C79.9593834,41.4652277 79.6627397,41.7711415 79.3753661,42.0816904 C78.0219292,43.5185583 76.478455,44.695863 74.7124979,45.5811591 C74.7078629,45.5857941 74.6939577,45.5904292 74.6754175,45.5950643 Z" id="Path" fill="#148E7F"></path>
            <path d="M42.8140295,2.35924445 C43.0643227,2.61880769 43.4165871,2.68833356 43.7271359,2.83202035 C44.5290009,3.20746004 45.3447711,3.55045432 46.1512712,3.91198884 C47.2914956,4.41721014 48.4317198,4.92243146 49.567309,5.42765276 C50.4850504,5.83553786 51.4027919,6.24805801 52.3205334,6.6559431 C53.4375823,7.15189429 54.5546313,7.64321043 55.6716802,8.14379668 C56.4874504,8.50533119 57.2985855,8.87613582 58.1143557,9.24230539 C59.2174995,9.73362152 60.3206432,10.2156675 61.423787,10.7116187 C61.5396635,10.7626044 61.6972554,10.7765095 61.743606,10.9341015 C61.6509049,10.9850871 61.5535686,10.9572768 61.4608675,10.9572768 C57.8547925,10.9572768 54.2533525,10.9572768 50.6472775,10.9619119 C50.5545763,10.9619119 50.452605,10.9387366 50.3599039,10.9850871 C49.6692803,11.0407078 49.0759929,11.3234464 48.5475963,11.7591418 C48.4734353,11.8193976 48.3992744,11.8796533 48.3251135,11.9399091 C48.1489813,11.7359665 47.884783,11.6896159 47.6576651,11.5830096 C46.8697053,11.21684 46.0724752,10.8784808 45.2752453,10.5262164 C44.1489262,10.0302652 43.0226071,9.52967898 41.9009231,9.02909273 C40.932196,8.59803235 39.9634689,8.16233691 38.9947419,7.72200641 C38.7120033,7.59222479 38.4060895,7.51342881 38.1557964,7.31412132 C38.4292648,6.74864426 38.7907993,6.24342295 39.166239,5.7428367 C39.6575551,5.08465848 40.1998569,4.46356072 40.8070495,3.90735378 C41.4420524,3.33724166 42.0909605,2.79957495 42.8140295,2.35924445 Z" id="Path" fill="#159485"></path>
            <path d="M83.5469182,31.6110947 C83.5469182,31.8891981 83.5469182,32.1626666 83.5469182,32.44077 C83.5422832,32.598362 83.5376481,32.7513189 83.5330131,32.9089109 C83.4866625,33.0062471 83.5376481,33.1128534 83.4959326,33.2101896 C83.3615159,34.4523851 83.0787774,35.6621352 82.6569871,36.8348049 C82.647717,36.8579802 82.6291768,36.8718853 82.6152716,36.8904256 C82.4020589,36.681848 82.1100503,36.607687 81.850487,36.4918106 C80.1216105,35.722391 78.3973689,34.9437013 76.6638573,34.1789167 C75.1296531,33.5021983 73.6047191,32.8162097 72.07515,32.1348562 C71.8248569,32.0236148 71.8248569,32.0282499 71.6394546,32.2414625 C71.5884689,31.2634653 71.8109517,30.359629 72.4181443,29.5809393 C72.9697162,28.8764105 73.67888,28.3989996 74.5734462,28.2321375 C74.6893226,28.2089622 74.8051991,28.190422 74.9257106,28.1718817 C74.958156,28.1672467 74.9164405,28.1672467 74.9488859,28.1672467 C76.7148429,28.1533415 78.4808,28.1487064 80.246757,28.1672467 C81.1737686,28.3016633 81.9663635,28.6817381 82.5967314,29.3909019 C83.0787774,29.9378388 83.3846912,30.5635716 83.4959326,31.2866406 C83.5098378,31.3886119 83.528378,31.4998533 83.5469182,31.6110947 Z" id="Path" fill="#149182"></path>
            <path d="M36.3388537,32.5334712 C36.3342186,31.0966032 36.3342186,29.6643704 36.3295836,28.2275024 C36.3295836,27.7454564 36.3342186,27.2587685 36.3388537,26.7767293 C36.4593652,26.7257437 36.5613365,26.7952695 36.6586727,26.8369851 C37.6598452,27.2680454 38.6471125,27.7222811 39.6390149,28.1626116 C41.1639489,28.8393301 42.6842479,29.5206836 44.209182,30.192767 C45.173274,30.6191923 46.132731,31.0641578 47.1014582,31.476678 C47.166349,31.5044883 47.2405099,31.5276636 47.2405099,31.6203648 C47.2312398,32.0050746 47.2544151,32.3851493 47.2266048,32.7698591 C47.2219697,32.9459913 47.2173346,33.1221235 47.2126996,33.2936207 C47.161714,33.4048621 47.2173346,33.5300086 47.1756191,33.64125 C47.1709841,33.720046 47.166349,33.798842 47.161714,33.877638 C47.1153634,33.9564339 47.161714,34.0491351 47.1246335,34.1279311 C46.9763116,35.1012932 46.7909093,36.0653853 46.4849955,37.001667 C46.4757254,37.0294773 46.4571852,37.0526526 46.4386449,37.080463 C44.8488199,36.3573939 43.249725,35.6528651 41.65063,34.9437013 C40.2508425,34.3226035 38.8510551,33.7061408 37.4559026,33.0711379 C37.0897331,32.8996408 36.686483,32.7744942 36.3388537,32.5334712 Z" id="Path" fill="#148C7D"></path>
            <path d="M71.6394546,32.2368275 C71.7136155,32.1533964 71.6533597,32.0467901 71.6950753,31.9355487 C71.8619373,31.9309137 72.0056241,32.0282499 72.153946,32.0931407 C73.6325294,32.7466838 75.1064778,33.400227 76.5804262,34.0630403 C77.8504321,34.6285173 79.1158029,35.2032645 80.3858088,35.7687416 C81.0300818,36.0561152 81.683625,36.3295836 82.3232629,36.6262273 C82.4391394,36.681848 82.6291768,36.681848 82.6199067,36.8904256 C82.1471307,38.1604314 81.4935876,39.3331011 80.728803,40.4408799 C80.566576,40.6726328 80.3811737,40.8858455 80.2050415,41.1083282 C80.0520846,40.8719403 79.7739811,40.8394949 79.5468633,40.7375236 C78.5549609,40.2786529 77.5537884,39.8429574 76.557251,39.4026269 C75.4541072,38.9159459 74.3555985,38.4292648 73.2524547,37.9425837 C72.311538,37.5254285 71.3752563,37.1036382 70.4389746,36.681848 C70.072805,36.5196209 69.7066354,36.3481238 69.3451009,36.1812617 C69.275575,36.1488163 69.1828739,36.1349111 69.1689687,36.0375749 C69.8781326,35.6575002 70.4389746,35.1198335 70.8653999,34.443115 C71.2501097,33.8312874 71.514308,33.1731092 71.5884689,32.4454051 C71.5884689,32.3712442 71.6209143,32.3063533 71.6394546,32.2368275 Z" id="Path" fill="#148F80"></path>
            <path d="M36.3388537,32.5334712 C36.7281986,32.6354425 37.080463,32.839385 37.4466325,32.996977 C38.7490838,33.5670891 40.0469,34.1511064 41.3493512,34.7304886 C42.290268,35.1476438 43.2265497,35.5740691 44.1674664,35.9912244 C44.8580901,36.2971382 45.5487137,36.603052 46.2393373,36.9089658 C46.3227683,36.9460463 46.4340099,36.9553164 46.447915,37.080463 C46.2439724,37.808167 45.9334235,38.4941556 45.5950643,39.166239 C45.3586763,39.6343798 45.1315585,40.1071557 44.8071044,40.5196759 C44.4084894,40.2415724 43.9403486,40.1025207 43.5046532,39.8985781 C42.7120583,39.5277735 41.9009231,39.1847792 41.0990581,38.8325148 C39.9495638,38.3226585 38.8047045,37.8174372 37.6598452,37.3029457 C36.7050233,36.8765204 35.7502013,36.44546 34.7953794,36.0190347 C34.7026783,35.9773192 34.5868018,35.9541439 34.5821668,35.8150922 C35.2866956,35.3052358 35.801187,34.6563277 36.0931956,33.8312874 C36.1858968,33.562454 36.199802,33.2797155 36.2925031,33.0108821 C36.3712991,32.8579252 36.3017732,32.6910631 36.3388537,32.5334712 Z" id="Path" fill="#148B7C"></path>
            <path d="M48.7237285,42.0214346 C49.8268722,42.5081157 50.930016,42.9947968 52.0285247,43.4861129 C52.8303897,43.8430124 53.6276197,44.2045469 54.4248496,44.5614464 C55.5465336,45.0620326 56.6728527,45.5579838 57.7945367,46.05857 C58.536146,46.387659 59.2777552,46.7167481 60.0193645,47.0504722 C60.1120656,47.0921878 60.1908616,47.1431734 60.2001317,47.2590498 C60.1352409,47.3054004 60.06108,47.2822251 59.9869191,47.2822251 C56.45964,47.2822251 52.9277259,47.2822251 49.4004469,47.2822251 C49.3355561,47.2822251 49.2706653,47.2914953 49.2104095,47.26832 C49.1269785,47.2636849 49.0481825,47.2544148 48.9647515,47.2497797 C48.8210647,47.2173343 48.6820129,47.2405096 48.5383261,47.2358746 C48.1489813,47.194159 47.7550014,47.1802539 47.3702916,47.1060929 C46.6425875,46.9670412 45.9287884,46.7862739 45.2335297,46.5267107 C45.0017768,46.4386446 44.9925067,46.4293745 45.1918142,46.2764178 C45.571889,45.9890442 45.896343,45.6367798 46.211527,45.2937855 C47.0504726,44.3853142 47.8291623,43.4304922 48.4873405,42.3783341 C48.5661365,42.2531875 48.6449325,42.1373111 48.7237285,42.0214346 Z" id="Path" fill="#138A7A"></path>
            <path d="M49.2104095,47.2660689 C52.7794041,47.2660689 56.3437636,47.2660689 59.9127582,47.2660689 C60.0100944,47.2660689 60.1074306,47.2579243 60.2001317,47.2497797 C60.297468,47.2579243 60.3948042,47.2660689 60.4875053,47.2660689 C63.0692326,47.2660689 65.6509598,47.2660689 68.232687,47.2742135 C68.153891,47.3882376 68.0611899,47.3393701 67.9777588,47.3393701 C61.8084968,47.3393701 55.6345997,47.3393701 49.4653377,47.3393701 C49.3819067,47.3393701 49.2845705,47.3882376 49.2104095,47.2660689 Z" id="Path" fill="#FDFDFD"></path>
            <path d="M47.2358749,32.7698591 C47.2312398,32.3666091 47.2266048,31.9633591 47.2219697,31.560109 C47.1385387,31.4674079 47.1478088,31.3515314 47.1478088,31.24029 C47.1478088,28.4036346 47.1478088,25.5669792 47.1478088,22.7303238 C47.1478088,22.6190824 47.1431737,22.503206 47.2219697,22.4105048 C47.2266048,22.3873295 47.2312398,22.3641542 47.2312398,22.3409789 C47.2312398,19.6572804 47.2312398,16.9735819 47.2266048,14.2852484 C47.2312398,14.2713432 47.245145,14.2620731 47.2636852,14.257438 C47.2683203,14.3640443 47.2729553,14.4660156 47.2729553,14.5726219 C47.2729553,20.5472115 47.2729553,26.5171661 47.2729553,32.4917557 C47.2683203,32.5844568 47.3007657,32.6864281 47.2358749,32.7698591 Z" id="Path" fill="#FDFDFD"></path>
            <path d="M50.369174,11.0296457 C50.4896855,10.9114638 50.6241022,10.9569184 50.7492487,10.9569184 C54.3182433,10.9569184 57.8918729,10.9569184 61.4608675,10.9569184 C61.5582037,10.9569184 61.6555399,10.9478275 61.7482411,10.9387366 C62.2488273,10.9478275 62.7447785,10.9569184 63.2453648,10.9569184 C64.9278908,10.9569184 66.6104168,10.9569184 68.2929428,10.9569184 C68.4041842,10.9569184 68.5200606,10.9114638 68.6220319,11.0387366 C62.5362009,11.0296457 56.4503699,11.0296457 50.369174,11.0296457 Z" id="Path" fill="#FDFDFD"></path>
            <path d="M405.150408,7.41609259 C404.980456,7.76805001 405.057707,8.15352715 405.057707,8.53900433 C405.057707,16.8854229 405.057707,25.2486014 405.057707,33.59502 C405.057707,33.8296583 405.119508,34.0810564 405.042257,34.282175 C404.965006,34.5000534 404.841404,34.3492145 404.779604,34.2151354 C405.104058,33.9134577 404.949556,33.5112206 404.965006,33.1425033 C404.980456,24.896644 404.965006,16.6340248 404.980456,8.38816545 C404.965006,8.0529679 404.825954,7.66749076 405.150408,7.41609259 Z" id="Path" fill="#FDFDFD"></path>
            <path d="M74.6337019,17.823734 C76.6175067,17.823734 78.6013115,17.823734 80.5851162,17.823734 C80.5155904,17.963734 80.4321593,17.903734 80.3533634,17.903734 C78.5225155,17.903734 76.6963027,17.903734 74.8654548,17.903734 C74.7866589,17.903734 74.6985928,17.953734 74.6337019,17.823734 Z" id="Path" fill="#FDFDFD"></path>
            <path d="M80.242122,28.2094049 C78.4668948,28.2094049 76.6963027,28.2194049 74.9210755,28.2194049 C74.9813313,28.0894049 75.0554922,28.1394049 75.1296531,28.1394049 C76.7658286,28.1394049 78.402004,28.1394049 80.0335444,28.1394049 C80.1030702,28.1294049 80.1818662,28.0894049 80.242122,28.2094049 Z" id="Path" fill="#FDFDFD"></path>
            <path d="M296.180198,43.5231934 C296.249964,43.3886596 296.372055,43.2709425 296.372055,43.1364087 C296.354613,40.1598481 296.476704,37.1832876 296.31973,34.2067271 C296.651119,34.4085278 296.529028,34.7280456 296.529028,34.9971132 C296.529028,37.586889 296.529028,40.1598481 296.529028,42.749624 C296.529028,43.0355083 296.668561,43.422293 296.180198,43.5231934 Z" id="Path" fill="#FDFDFD"></path>
            <path d="M296.312057,20.2088523 C296.409952,17.1188137 296.488268,14.0287752 296.272899,10.9387366 C296.605742,11.0562924 296.547005,11.3081977 296.547005,11.5433093 C296.547005,14.2638868 296.547005,16.9676705 296.547005,19.688248 C296.547005,19.8897722 296.566584,20.1080902 296.312057,20.2088523 Z" id="Path" fill="#FDFDFD"></path>
            <path d="M346.565595,29.3399163 C346.565595,27.9395726 346.565595,26.5392289 346.565595,25.1220136 C346.806618,26.5223573 346.806618,27.922701 346.565595,29.3399163 Z" id="Path" fill="#FDFDFD"></path>
            <path d="M279.262237,15.6641781 C280.704761,15.4231551 282.130316,15.4231551 283.572841,15.6641781 C282.147286,15.6641781 280.704761,15.6641781 279.262237,15.6641781 Z" id="Path" fill="#FDFDFD"></path>
            <path d="M252.52027,28.9691117 C252.52027,27.8159182 252.52027,26.6460118 252.52027,25.4928183 C252.761293,26.6460118 252.761293,27.8159182 252.52027,28.9691117 Z" id="Path" fill="#FDFDFD"></path>
            <path d="M267.394171,28.8300599 C267.153148,27.7696075 267.153148,26.6923224 267.394171,25.63187 C267.394171,26.6923224 267.394171,27.7696075 267.394171,28.8300599 Z" id="Path" fill="#FDFDFD"></path>
            <path d="M283.897295,7.54223073 C283.186585,7.5236905 282.475877,7.57931119 281.765168,7.39390888 C282.475877,7.4680698 283.203507,7.24558703 283.897295,7.54223073 Z" id="Path" fill="#FDFDFD"></path>
            <path d="M280.467352,7.40460872 C279.758482,7.59001104 279.015033,7.51585011 278.288875,7.55293058 C278.997744,7.21920641 279.741193,7.46022942 280.467352,7.40460872 Z" id="Path" fill="#FDFDFD"></path>
            <path d="M323.944195,7.40074958 C323.235325,7.58615189 322.491876,7.5305312 321.765717,7.54907143 C322.474587,7.23388749 323.218035,7.45637027 323.944195,7.40074958 Z" id="Path" fill="#FDFDFD"></path>
            <path d="M327.420488,7.55293058 C326.715375,7.49730988 325.993474,7.46022942 325.288361,7.40460872 C325.993474,7.46022942 326.715375,7.21920641 327.420488,7.55293058 Z" id="Path" fill="#FDFDFD"></path>
            <path d="M233.189762,7.5415034 C232.535259,7.50442293 231.880757,7.44880224 231.243037,7.41172178 C231.897539,7.46734247 232.552042,7.24485969 233.189762,7.5415034 Z" id="Path" fill="#FDFDFD"></path>
            <path d="M229.759819,7.41565282 C229.10109,7.45273328 228.442362,7.50835397 227.766744,7.54543444 C228.425472,7.2302505 229.10109,7.47127351 229.759819,7.41565282 Z" id="Path" fill="#FDFDFD"></path>
            <path d="M71.6402737,14.3686794 C71.7402737,14.5448116 71.6902737,14.7255788 71.7202737,14.9063461 C71.5402737,14.7302139 71.6702737,14.5448116 71.6402737,14.3686794 Z" id="Path" fill="#FDFDFD"></path>
            <path d="M282.321375,38.8325148 C281.724345,38.9808367 281.127316,38.9808367 280.513702,38.8325148 C281.127316,38.8325148 281.724345,38.8325148 282.321375,38.8325148 Z" id="Path" fill="#FDFDFD"></path>
            <path d="M48.5383261,47.2685781 C48.6820129,47.1895974 48.8256997,47.1501071 48.9647515,47.2981959 C48.8210647,47.2883233 48.6773779,47.2784507 48.5383261,47.2685781 Z" id="Path" fill="#148C7C"></path>
            <path d="M258.303757,28.0421001 C258.358908,28.5772821 258.395675,29.1291884 258.450827,29.6643704 C258.119919,29.1459129 258.340524,28.5772821 258.303757,28.0421001 Z" id="Path" fill="#FDFDFD"></path>
            <path d="M258.444754,24.751209 C258.389133,25.286391 258.352053,25.8382973 258.296432,26.3734793 C258.352053,25.8215729 258.12957,25.2696665 258.444754,24.751209 Z" id="Path" fill="#FDFDFD"></path>
            <path d="M68.7657187,47.2959977 C68.8769601,47.1959977 68.9928365,47.2159977 69.1040779,47.2159977 C69.0021066,47.3759977 68.8815951,47.2659977 68.7657187,47.2959977 Z" id="Path" fill="#FDFDFD"></path>
            <path d="M47.1889233,33.6458851 C47.1789233,33.5300086 47.1789233,33.4094971 47.2689233,33.2982557 C47.2389233,33.4141322 47.3489233,33.5346437 47.1889233,33.6458851 Z" id="Path" fill="#FDFDFD"></path>
            <path d="M302.429882,24.426755 C302.429882,24.8553391 302.443787,25.2839232 302.318641,25.6782206 C302.360356,25.2667799 302.207399,24.8210523 302.429882,24.426755 Z" id="Path" fill="#FDFDFD"></path>
            <path d="M302.318641,28.7373588 C302.443787,29.1487995 302.429882,29.5773837 302.429882,29.9888244 C302.207399,29.6116704 302.360356,29.1659429 302.318641,28.7373588 Z" id="Path" fill="#FDFDFD"></path>
            <path d="M83.5036853,33.2101896 C83.4936853,33.1082184 83.4936853,33.0062471 83.5836853,32.9089109 C83.5636853,33.0062471 83.6636853,33.1128534 83.5036853,33.2101896 Z" id="Path" fill="#FDFDFD"></path>
            <path d="M68.2419571,36.3177681 C68.149256,36.4267593 68.0472847,36.4069427 67.9499485,36.3970344 C68.0380146,36.2385018 68.1446209,36.3375847 68.2419571,36.3177681 Z" id="Path" fill="#FDFDFD"></path>
            <path d="M69.349736,47.251546 C69.4238969,47.161546 69.5073279,47.161546 69.590759,47.171546 C69.5165981,47.311546 69.428532,47.231546 69.349736,47.251546 Z" id="Path" fill="#FDFDFD"></path>
            <path d="M208.413198,24.2877032 C208.450278,24.5919316 208.413198,24.8801479 208.283416,25.1683642 C208.301956,24.8641359 208.172175,24.5599075 208.413198,24.2877032 Z" id="Path" fill="#FDFDFD"></path>
            <path d="M329.18181,7.72258579 C328.866976,7.74112602 328.552142,7.74112602 328.254798,7.57426394 C328.569632,7.6113444 328.901957,7.46302255 329.18181,7.72258579 Z" id="Path" fill="#FDFDFD"></path>
            <path d="M235.136486,7.72258579 C234.821651,7.74112602 234.506817,7.74112602 234.209474,7.57426394 C234.506817,7.6113444 234.856633,7.46302255 235.136486,7.72258579 Z" id="Path" fill="#FDFDFD"></path>
            <path d="M208.287186,29.2935657 C208.416968,29.5817821 208.435508,29.8699984 208.416968,30.1742267 C208.175944,29.9020224 208.305726,29.5977941 208.287186,29.2935657 Z" id="Path" fill="#FDFDFD"></path>
            <path d="M47.1367739,34.1279311 C47.1267739,34.039865 47.1367739,33.9564339 47.2167739,33.877638 C47.2067739,33.961069 47.2867739,34.0537702 47.1367739,34.1279311 Z" id="Path" fill="#FDFDFD"></path>
            <path d="M252.350511,30.915836 C252.331971,30.6010019 252.331971,30.2861677 252.498833,29.9888244 C252.461753,30.3036585 252.610075,30.6359834 252.350511,30.915836 Z" id="Path" fill="#FDFDFD"></path>
            <path d="M284.777956,38.6361042 C284.500711,38.8029663 284.207157,38.8029663 283.897295,38.7844261 C284.17454,38.5063226 284.484402,38.6546445 284.777956,38.6361042 Z" id="Path" fill="#FDFDFD"></path>
            <path d="M47.3156769,14.257438 C47.2856769,14.2667081 47.2656769,14.2759782 47.2356769,14.2852484 C47.2456769,14.2018173 47.1656769,14.1137512 47.3056769,14.0349552 C47.3056769,14.1137512 47.3156769,14.1832771 47.3156769,14.257438 Z" id="Path" fill="#159485"></path>
            <path d="M252.498833,24.426755 C252.331971,24.1294116 252.331971,23.8145775 252.350511,23.4997434 C252.610075,23.779596 252.461753,24.1294116 252.498833,24.426755 Z" id="Path" fill="#FDFDFD"></path>
            <path d="M0.0185402541,30.8880256 C1.10777885,31.3700717 2.19701745,31.8474826 3.28625605,32.3295286 C4.69994868,32.9552614 6.10900627,33.5763592 7.52269892,34.2067271 C8.61657258,34.6934081 9.71044624,35.1893593 10.8043199,35.6760404 C12.3524292,36.366664 13.9098087,37.0480175 15.457918,37.7386412 C16.5517916,38.2253222 17.6456653,38.7212734 18.739539,39.2079545 C20.1485966,39.8336873 21.5622892,40.4547851 22.9759819,41.0851529 C24.1023009,41.5857392 25.2193499,42.0955956 26.3456689,42.5961818 C27.7176461,43.2080095 29.0988933,43.810567 30.4708704,44.4177596 C31.4488676,44.853455 32.4222298,45.2984206 33.400227,45.734116 C34.1464713,46.0678402 34.8973507,46.4015641 35.6482301,46.7399234 C35.7316611,46.7770038 35.8429025,46.790909 35.8521726,46.9160556 C35.4489226,47.031932 35.0364024,47.1060929 34.6192472,47.1524435 C34.3828593,47.1802539 34.1418363,47.2034292 33.9054483,47.2266044 C33.7803017,47.2312395 33.6505201,47.2080642 33.5300086,47.2405096 C33.4326724,47.2497797 33.3353362,47.2544148 33.2333649,47.2636849 C33.1545689,47.2868602 33.0711379,47.272955 32.9923419,47.272955 C26.7628241,47.272955 20.5333064,47.272955 14.3037886,47.272955 C14.2249926,47.272955 14.1415616,47.2822251 14.0627656,47.2590498 C13.8727282,47.2544148 13.6826908,47.2497797 13.4926535,47.2451447 C13.3953172,47.1987941 13.2887109,47.2451447 13.1913747,47.2126993 C12.4729407,47.1848889 11.7637769,47.0597424 11.0685182,46.8975153 C10.1090612,46.6703975 9.17741458,46.3459436 8.28284841,45.9380585 C7.34193166,45.5069982 6.46127067,44.9786016 5.64086543,44.3528687 C5.23761539,44.0469549 4.8621757,43.7132308 4.48673604,43.3702365 C4.18545728,43.0967681 3.91198886,42.7954893 3.63852045,42.4988456 C3.06840833,41.887018 2.5770922,41.2056645 2.13212664,40.4965006 C1.64544557,39.7131758 1.23292542,38.8881355 0.913106423,38.0260148 C0.639638009,37.2751354 0.403250057,36.5057158 0.273468437,35.7084858 C0.213212685,35.3423163 0.139051759,34.9807817 0.111241412,34.6146122 C0.0741609486,34.5358162 0.120511527,34.443115 0.0741609486,34.364319 C0.0695258907,34.2716179 0.0648908329,34.1742817 0.060255775,34.0815805 C0.0278103698,33.9703391 0.0787960065,33.8451926 0.0278103698,33.7339512 C0.0185402541,32.7837643 0.0185402541,31.8335774 0.0185402541,30.8880256 Z" id="Path" fill="#138676"></path>
            <path d="M15.4022973,8.2735783 C15.3374065,8.67682833 15.2539754,9.07080825 15.0732082,9.44161288 C14.5911622,10.4474204 13.7892972,11.049978 12.7278689,11.3188113 C11.8240326,11.5459292 11.2539205,12.092866 10.9897222,12.9827971 C10.9526417,13.0986735 10.9433716,13.21455 10.9480067,13.3350615 C10.9155613,13.4138575 10.9294665,13.4926535 10.9294665,13.5714494 C10.9294665,14.7116737 10.9294665,15.856533 10.9294665,16.9967572 C10.9016561,17.1914296 10.7765095,17.0940934 10.6977136,17.061648 C10.4242451,16.9596767 10.1646819,16.8345302 9.90048361,16.7140187 C7.47171328,15.6294151 5.0383079,14.5448116 2.6095376,13.4648431 C1.83548294,13.1218488 1.06142828,12.7742195 0.287373611,12.4358603 C0.203942569,12.3987798 0.125146585,12.3663344 0.0741609486,12.2875384 C0.097336238,11.6479004 0.227117858,11.0221676 0.366169594,10.4010699 C0.546936852,9.58529967 0.801865034,8.79733984 1.14022426,8.0418254 C1.56201452,7.10554371 2.07187089,6.22024766 2.68369853,5.38593724 C3.2260003,4.64896304 3.8749084,4.01859517 4.51454639,3.37895718 C5.13564412,3.62461525 5.7428367,3.91198884 6.35466434,4.18545725 C7.93985413,4.88535099 9.52504392,5.59451485 11.1055987,6.3036787 C12.4775758,6.91550634 13.8495529,7.52269892 15.216895,8.1298915 C15.2910559,8.16233691 15.3698519,8.1855122 15.4022973,8.2735783 Z" id="Path" fill="#148F80"></path>
            <path d="M0.0695258907,12.2921735 C0.792594919,12.6073574 1.51566395,12.9179063 2.23409792,13.2377253 C3.36041698,13.7336765 4.48673604,14.2342627 5.60842002,14.734849 C6.40101492,15.0871134 7.19360981,15.4486479 7.98620471,15.8009123 C8.9549318,16.2319727 9.92829396,16.658398 10.897021,17.0894584 C10.9387366,17.1450791 10.9201963,17.2146049 10.9201963,17.2748607 C10.9201963,19.9122086 10.9201963,22.5449215 10.9201963,25.1822694 C10.9201963,25.2471602 10.9387366,25.312051 10.897021,25.3676717 C10.655998,25.3862119 10.4705957,25.22862 10.2712882,25.1405539 C9.17277952,24.6631429 8.08354092,24.1625567 6.98966727,23.6758756 C5.44155794,22.985252 3.88881358,22.3038985 2.34070425,21.6132748 C1.68716109,21.3212662 1.03361793,21.0246225 0.384709826,20.7326138 C0.268833379,20.6816282 0.152956932,20.6213725 0.0185402541,20.6167374 C0.0139051962,19.7221712 0.00927013837,18.8276051 0.00927013837,17.9284038 C0.00927013837,16.2087974 0.00927013837,14.493826 0.00927013837,12.7742195 C0.0695258907,12.6490729 0.0046350805,12.5100212 0.0463506013,12.3848746 C0.060255775,12.3570643 0.0648908329,12.3246189 0.0695258907,12.2921735 Z" id="Path" fill="#148B7B"></path>
            <path d="M82.8562946,10.2573831 C81.8551221,9.81241751 80.8585847,9.36745195 79.8574122,8.92712146 C78.6244868,8.38018463 77.3869263,7.83788286 76.1493659,7.29094603 C75.199179,6.86915576 74.2582623,6.44273044 73.3080754,6.02094017 C72.1910264,5.52498898 71.0739775,5.03367285 69.9569286,4.53308659 C69.1504285,4.17155208 68.3439284,3.80538251 67.5374283,3.44848305 C66.4296495,2.95253186 65.3172356,2.46585078 64.2048217,1.97453465 C63.4307671,1.63154037 62.6613475,1.28854608 61.8919279,0.940916743 C61.3496261,0.695258676 60.8073243,0.444965553 60.2650226,0.208577601 C60.1815915,0.171497138 60.1027955,0.139051733 60.0564449,0.0556206915 C60.7887841,0.0509856336 61.5257583,0.0463505758 62.2580974,0.0463505758 C64.46902,0.0463505758 66.6799426,-0.0139051765 68.8908652,0.0648908072 C72.4923052,0.199307486 75.6719549,1.49712369 78.4251793,3.81465262 C80.4275243,5.49717863 81.9014727,7.55977938 82.7914038,10.0302652 C82.8145791,10.1044262 82.8331193,10.1785871 82.8562946,10.2573831 Z" id="Path" fill="#15988A"></path>
            <path d="M15.4022973,8.2735783 C14.2806133,7.7776271 13.1542942,7.27704085 12.0326102,6.78108966 C10.6235526,6.15535685 9.21449504,5.5342591 7.80543745,4.90852628 C6.7764546,4.45429061 5.75210682,3.99541988 4.72312397,3.53654915 C4.64432798,3.49946869 4.55162685,3.4762934 4.51454639,3.38359224 C5.03367285,2.90154622 5.59914991,2.47048584 6.19707237,2.09041109 C7.20751499,1.44613805 8.29211853,0.950186858 9.44161288,0.607192576 C10.1785871,0.389344858 10.9248314,0.245658064 11.6803458,0.129781618 C11.7637769,0.10197127 11.851843,0.139051733 11.935274,0.0973362125 C12.0557855,0.0973362125 12.1809321,0.0973362125 12.3014436,0.0973362125 C12.3941447,0.152956907 12.5007511,0.0927011546 12.5980873,0.134416675 C13.3582368,0.282738527 14.0210501,0.607192576 14.5401765,1.19120987 C14.9851421,1.69179612 15.2632456,2.27117835 15.3652168,2.93862668 C15.4254726,3.31870143 15.4069324,3.69414112 15.4069324,4.0695808 C15.4115674,5.46473323 15.4022973,6.86915576 15.4022973,8.2735783 Z" id="Path" fill="#149081"></path>
            <path d="M10.9062912,25.3676717 C10.9153821,25.2796056 10.924473,25.1915395 10.924473,25.1034734 C10.924473,22.5217462 10.924473,19.9353839 10.924473,17.3536567 C10.924473,17.2655906 10.9153821,17.1775245 10.9062912,17.0894584 C10.9153821,15.9306939 10.9153821,14.7765645 10.9335639,13.6178 C10.9335639,13.5250989 10.8790184,13.4231276 10.9972003,13.3350615 C10.9972003,13.3814121 11.0062912,13.4323977 11.0062912,13.4787483 C11.0062912,20.0744356 11.0062912,26.670123 11.0062912,33.2658103 C10.8972003,33.1452988 10.9335639,33.0108821 10.9335639,32.8857356 C10.9335639,30.4755055 10.9335639,28.0652754 10.9335639,25.6596804 C10.924473,25.5577091 10.9062912,25.4603729 10.9062912,25.3676717 Z" id="Path" fill="#FDFDFD"></path>
            <path d="M14.0581305,47.2687793 C20.343269,47.2687793 26.6284075,47.2687793 32.9135459,47.2590498 C33.0201523,47.2590498 33.1221235,47.2687793 33.2287299,47.2687793 C33.1499339,47.4049911 33.0572327,47.3466146 32.9738017,47.3466146 C26.753554,47.3466146 20.5333064,47.3466146 14.3176938,47.3466146 C14.2249926,47.3466146 14.1322914,47.4049911 14.0581305,47.2687793 Z" id="Path" fill="#FDFDFD"></path>
            <path d="M191.659643,7.36974201 C191.644193,7.72282051 191.597842,8.0590858 191.597842,8.4121643 C191.597842,16.8019825 191.597842,25.208614 191.597842,33.5984322 C191.597842,33.8338179 191.659643,34.0860169 191.582392,34.287776 C191.45879,34.6240413 191.38154,34.3045893 191.288838,34.220523 C191.582392,33.9346975 191.45879,33.5648057 191.45879,33.2285405 C191.45879,24.9564151 191.45879,16.6842897 191.474241,8.4121643 C191.45879,8.07589906 191.288838,7.65556749 191.659643,7.36974201 Z" id="Path" fill="#FDFDFD"></path>
            <path d="M150.954504,34.0213248 C150.954504,25.5331485 150.937829,17.0281973 150.937829,8.54002107 C150.937829,8.17096993 150.887807,7.78514373 150.871134,7.41609259 C151.18794,7.6173932 151.087895,7.9361192 151.087895,8.20452001 C151.087895,16.5584958 151.087895,24.9292467 151.087895,33.2832225 C151.087895,33.5180732 151.154592,33.8032491 150.954504,34.0213248 Z" id="Path" fill="#FDFDFD"></path>
            <path d="M36.3611654,13.7475816 C36.3513882,13.8819983 36.4296065,14.0210501 36.2927244,14.1554667 C36.312279,14.016415 36.2047288,13.8773633 36.3611654,13.7475816 Z" id="Path" fill="#FDFDFD"></path>
            <path d="M33.5207385,47.2934884 C33.6458851,47.1534884 33.7710316,47.1834884 33.8961782,47.2634884 C33.7710316,47.2734884 33.6458851,47.2834884 33.5207385,47.2934884 Z" id="Path" fill="#138979"></path>
            <path d="M0.101704202,12.3895097 C0.111704203,12.5192913 0.111704203,12.653708 0.0217042024,12.7788545 C0.0517042024,12.6490729 -0.0682957976,12.5146562 0.101704202,12.3895097 Z" id="Path" fill="#FDFDFD"></path>
            <path d="M120.022924,30.9621866 C119.800441,30.5003361 119.874602,30.0042746 119.874602,29.5253186 C120.189786,29.987169 119.967304,30.4832306 120.022924,30.9621866 Z" id="Path" fill="#FDFDFD"></path>
            <path d="M0.0245812963,33.7339512 C0.104581296,33.8451926 0.104581296,33.961069 0.0945812963,34.0815805 C-0.0554187037,33.9703391 0.0445812963,33.8498276 0.0245812963,33.7339512 Z" id="Path" fill="#FDFDFD"></path>
            <path d="M13.1867396,47.2249994 C13.2887109,47.2049994 13.3906822,47.2149994 13.4880184,47.2949994 C13.3860471,47.2749994 13.2794408,47.3649994 13.1867396,47.2249994 Z" id="Path" fill="#FDFDFD"></path>
            <path d="M12.5980873,0.180628571 C12.496116,0.190628571 12.3987798,0.180628571 12.3014436,0.100628571 C12.4034149,0.120628571 12.5100212,0.020628571 12.5980873,0.180628571 Z" id="Path" fill="#FDFDFD"></path>
            <path d="M141.770466,30.035175 C141.789006,30.4175673 141.807546,30.7999595 141.622144,31.1475889 C141.659225,30.7825781 141.492363,30.3828043 141.770466,30.035175 Z" id="Path" fill="#FDFDFD"></path>
            <path d="M14.1971823,36.3965818 C14.095211,36.4065818 13.9932397,36.4265818 13.9005385,36.3165818 C13.9978748,36.3365818 14.1044811,36.2465818 14.1971823,36.3965818 Z" id="Path" fill="#FDFDFD"></path>
            <path d="M11.935274,0.10357476 C11.851843,0.17357476 11.7684119,0.18357476 11.6803458,0.17357476 C11.7591418,0.0335747596 11.851843,0.11357476 11.935274,0.10357476 Z" id="Path" fill="#FDFDFD"></path>
            <path d="M49.2613952,0.100245604 C49.1825992,0.190245604 49.0991681,0.190245604 49.0157371,0.180245604 C49.089898,0.0302456042 49.1779641,0.110245604 49.2613952,0.100245604 Z" id="Path" fill="#FDFDFD"></path>
            <path d="M33.2843506,36.3182735 C33.2055546,36.4182735 33.1221235,36.4082735 33.0340574,36.3882735 C33.1128534,36.2582735 33.2009195,36.3282735 33.2843506,36.3182735 Z" id="Path" fill="#FDFDFD"></path>
            <path d="M0.0727504731,34.364319 C0.152750473,34.443115 0.162750473,34.5265461 0.152750473,34.6146122 C0.00275047292,34.5358162 0.0827504731,34.4477501 0.0727504731,34.364319 Z" id="Path" fill="#FDFDFD"></path>
            <path d="M128.854609,38.5815151 C128.53372,38.6185955 128.212831,38.6185955 127.927597,38.4517335 C128.230659,38.4702737 128.569374,38.3404921 128.854609,38.5815151 Z" id="Path" fill="#FDFDFD"></path>
            <path d="M133.76777,38.4457601 C133.485294,38.6311624 133.186202,38.6126222 132.887109,38.594082 C133.152969,38.3345187 133.468678,38.4643004 133.76777,38.4457601 Z" id="Path" fill="#FDFDFD"></path>
            <path d="M324.869361,38.8881355 C322.296958,38.8881355 320.010377,38.6360708 317.824675,37.7454424 C314.647,36.4683147 312.612616,34.1829284 311.755148,30.8724791 C311.149877,28.5030713 311.133063,26.1168591 311.721522,23.7642556 C312.57899,20.2689589 314.680626,17.8155295 318.076871,16.6224234 C322.280144,15.143644 326.584296,15.0932311 330.804383,16.5215975 C334.839525,17.899551 337.025227,20.8739141 337.596872,25.0749919 C337.933134,27.5620299 337.765003,29.998655 336.840283,32.3176499 C335.276665,36.1826414 332.098991,37.9134855 328.198353,38.6192665 C327.021437,38.8377226 325.827707,38.8545269 324.869361,38.8881355 Z" id="Path" fill="#FEFEFE"></path>
            <path d="M230.305946,15.5274439 C232.341377,15.5442584 234.174948,15.66196 235.958053,16.2000246 C240.870004,17.6628877 243.578306,21.3620819 243.662414,26.6754698 C243.696057,29.046317 243.410088,31.349906 242.232566,33.4517209 C240.819539,35.9738987 238.582246,37.4872054 235.873944,38.2102297 C232.004942,39.2191008 228.119119,39.2191008 224.28376,37.9243829 C220.852123,36.7641811 218.61483,34.4437775 217.689634,30.895914 C217.016764,28.2896636 217.016764,25.6665987 217.807387,23.1107918 C219.18677,18.6717589 222.517476,16.5531295 226.907952,15.7964762 C228.102297,15.5947019 229.296641,15.5610729 230.305946,15.5274439 Z" id="Path" fill="#FEFEFE"></path>
            <path d="M47.2219697,22.4105048 C47.2266048,22.4661255 47.2312398,22.5217462 47.2312398,22.5773669 C47.2312398,25.5159936 47.2312398,28.4546203 47.2312398,31.3932469 C47.2312398,31.4488676 47.2266048,31.5044883 47.2219697,31.560109 C46.9114208,31.5183935 46.6518576,31.3468964 46.3737541,31.2263849 C44.8071044,30.5357612 43.2450899,29.8265974 41.6784404,29.1313387 C40.1952218,28.4685254 38.7120033,27.8057122 37.2241497,27.1475339 C36.9321411,27.0177523 36.6308623,26.8972408 36.3342186,26.7720943 C36.3295836,26.0443902 36.3249485,25.3213211 36.3249485,24.5936171 C36.3249485,22.350249 36.3249485,20.1115161 36.3249485,17.8681481 C36.3249485,17.5993147 36.3388537,17.5900446 36.5937819,17.701286 C38.0121096,18.3362889 39.4258022,18.9712919 40.8441299,19.6062948 C42.4756703,20.3339989 44.1025756,21.061703 45.734116,21.784772 C46.1651764,21.9794444 46.600872,22.1694818 47.0319323,22.3641542 C47.0968231,22.3919646 47.1524438,22.4151399 47.2219697,22.4105048 Z" id="Path" fill="#148E7F"></path>
        </g>
    </g>
</svg>