<svg width="503" height="130" viewBox="0 0 503 130" fill="none" xmlns="http://www.w3.org/2000/svg">
<mask id="mask0" mask-type="alpha" maskUnits="userSpaceOnUse" x="0" y="0" width="146" height="130">
<path d="M0 9.15527e-05H145.445V129.569H0V9.15527e-05Z" fill="white"/>
</mask>
<g mask="url(#mask0)">
<path d="M13.4826 27.6935C14.7046 26.9946 16.2703 27.4087 16.9775 28.6177C17.6824 29.8291 17.2642 31.3755 16.0399 32.0729C14.8164 32.7702 13.2522 32.3562 12.5443 31.1486C11.8401 29.9373 12.2576 28.3908 13.4826 27.6935ZM10.0014 100.666C8.55055 101.495 6.69513 101.004 5.85639 99.5692C5.01841 98.1354 5.51573 96.3027 6.96888 95.4731C8.41976 94.6472 10.2744 95.1372 11.1124 96.5709C11.9496 98.0047 11.4508 99.8397 10.0014 100.666ZM45.8178 122.697L50.8571 122.953C50.9734 122.2 51.2632 121.476 51.7141 120.846L36.6487 107.941C36.5179 108.05 36.375 108.151 36.2221 108.236C35.5225 108.637 34.7294 108.729 34.0002 108.554L31.0863 115.434C31.8725 115.85 32.5508 116.48 33.0291 117.299C34.4017 119.646 33.5873 122.647 31.2125 124.002C28.8362 125.358 25.7991 124.553 24.4288 122.206C23.0593 119.858 23.8714 116.857 26.2477 115.504C27.491 114.793 28.9153 114.678 30.1882 115.062L33.0991 108.184C32.6907 107.934 32.3356 107.58 32.0771 107.14C31.2414 105.705 31.7372 103.871 33.188 103.045C34.6404 102.216 36.4943 102.707 37.3331 104.141C37.911 105.128 37.8547 106.307 37.289 107.214L52.3513 120.118C52.6281 119.86 52.9414 119.628 53.2859 119.431C55.6606 118.077 58.6977 118.881 60.0673 121.228C61.439 123.573 60.6254 126.576 58.2506 127.932C55.8758 129.285 52.8372 128.481 51.4677 126.136C51.0578 125.434 50.8426 124.671 50.8054 123.911L45.7676 123.658C45.5912 124.457 45.0901 125.178 44.3183 125.622C42.8674 126.447 41.012 125.957 40.1748 124.524C39.3368 123.089 39.8341 121.254 41.2842 120.428C42.7351 119.6 44.5913 120.092 45.4308 121.524C45.6475 121.895 45.7737 122.297 45.8178 122.697ZM48.7872 20.7118L43.6423 29.9959C44.0787 30.3077 44.4559 30.7128 44.7426 31.2027C45.8285 33.058 45.1851 35.4326 43.3069 36.5026C41.431 37.5735 39.028 36.937 37.9452 35.0832C36.8624 33.2263 37.5042 30.8548 39.3832 29.7817L39.5223 29.7043L33.6542 14.1998C32.0102 14.5905 30.2338 13.8872 29.3441 12.3655C28.2606 10.5102 28.9031 8.1371 30.7821 7.06554C32.658 5.99398 35.0594 6.6312 36.1438 8.48577C37.2281 10.3411 36.5848 12.7126 34.7058 13.7842L34.5652 13.8624L40.4356 29.3669C41.2287 29.1806 42.0515 29.2459 42.7898 29.5352L47.9318 20.2496C47.6314 20.0189 47.3729 19.7281 47.1714 19.3832C46.3319 17.9495 46.8307 16.1152 48.2808 15.2901C49.7317 14.4613 51.5879 14.9527 52.4258 16.385C53.2631 17.8202 52.7657 19.6537 51.3149 20.4826C50.5172 20.938 49.5933 20.9921 48.7872 20.7118ZM39.0737 94.1813C38.0448 94.2069 37.054 94.2069 36.1096 94.1806C30.0011 94.0115 26.0531 92.9287 25.3345 90.8968L25.2896 90.772C24.6569 88.3974 27.6188 84.8544 33.1097 80.8289C33.5181 83.3297 34.2412 85.7381 35.2647 88.0089C36.2563 90.2114 37.5323 92.2809 39.0737 94.1813ZM49.8359 97.8138C54.2349 97.2051 59.005 96.3042 64.0176 95.1094C68.8714 93.9529 73.9236 92.5364 79.0549 90.8689C82.8128 89.6463 91.8458 86.5 101.072 82.195C100.05 85.025 98.6569 87.5596 96.9368 89.7906C95.3415 89.1316 93.4648 89.1917 91.8572 90.1092C89.5228 91.4416 88.4924 94.152 89.214 96.6002C85.1678 99.0326 80.3476 100.663 74.9114 101.467C74.849 101.338 74.779 101.21 74.7068 101.084C72.9632 98.1001 69.1018 97.0774 66.0822 98.8005C64.8199 99.5196 63.9066 100.604 63.3956 101.842C58.1662 101.357 53.6151 99.9396 49.8359 97.8138ZM89.671 41.3765C89.4634 42.7269 89.7007 44.1546 90.4436 45.4306C92.1873 48.4138 96.0487 49.4373 99.0698 47.7142C102.087 45.9911 103.124 42.1761 101.381 39.1898C99.6371 36.2088 95.7757 35.1876 92.7545 36.9092C92.3599 37.1346 91.9941 37.3991 91.6671 37.6914C85.2454 34.8382 78.5712 33.8343 72.005 34.5707C70.7504 34.712 69.4995 34.9156 68.2562 35.1831C66.4715 32.3224 62.6945 31.3688 59.7281 33.061C57.3465 34.4181 56.1998 37.0835 56.6796 39.6121C53.6068 41.3367 50.6358 43.4753 47.8169 46.0114C45.0224 48.5213 42.64 51.1438 40.647 53.825C39.206 53.5086 37.6433 53.7032 36.2624 54.49C34.0853 55.7329 32.9729 58.1037 33.2489 60.4272L24.4896 62.8866L24.3482 62.6154C23.9368 61.912 23.2935 61.4221 22.5719 61.1824L25.0166 47.1942C25.7413 47.228 26.4857 47.065 27.161 46.6795C29.04 45.6094 29.6818 43.2348 28.5989 41.3795C27.5146 39.5257 25.1132 38.8885 23.2372 39.9585C21.3582 41.0316 20.7157 43.4032 21.8001 45.26C22.3164 46.1452 23.1391 46.7539 24.0554 47.0296L21.6122 61.0185C21.0419 61.005 20.4617 61.1433 19.9325 61.4469C19.4055 61.7444 18.9972 62.172 18.7211 62.662L9.23188 59.188C9.52769 58.0533 9.38929 56.815 8.75206 55.7231C7.45707 53.5071 4.58802 52.7466 2.34555 54.0263C0.102321 55.3061 -0.666461 58.142 0.63005 60.358C1.92352 62.574 4.79257 63.3345 7.03504 62.0533C7.86846 61.5776 8.4996 60.8878 8.89654 60.0935L18.3805 63.5674C18.2261 64.3091 18.3364 65.1041 18.7477 65.809C19.6405 67.3382 21.6183 67.8605 23.1642 66.9798C24.3262 66.3162 24.914 65.05 24.7565 63.8124L33.4405 61.3732C33.5743 61.8414 33.769 62.2998 34.0275 62.7416C34.3021 63.2143 34.6328 63.6351 35.0047 64.0018C34.2116 66.0923 33.6321 68.1821 33.255 70.25C32.9356 72.0084 32.763 73.7533 32.7333 75.4688C24.2083 81.2813 19.6177 87.144 20.8655 91.8308C20.9202 92.0299 20.9682 92.193 21.0123 92.3177C22.4548 96.3936 27.9526 98.5014 36.0944 98.7268C38.3224 98.7869 40.7785 98.7185 43.4225 98.5142C44.6209 99.4798 45.9106 100.372 47.293 101.18C51.7141 103.761 57.0568 105.471 63.1933 106.014C63.3332 106.463 63.5249 106.902 63.7712 107.323C65.5149 110.306 69.3748 111.329 72.3959 109.605C73.97 108.709 75.0049 107.238 75.3866 105.616C81.6213 104.711 87.167 102.797 91.8215 99.9088C93.5416 100.905 95.7399 100.983 97.59 99.9276C98.7785 99.2513 99.6249 98.2196 100.077 97.0481L111.813 100.499C111.667 101.357 111.81 102.265 112.282 103.077C113.369 104.931 115.769 105.566 117.646 104.496L117.67 104.482L124.205 112.896C123.97 113.157 123.798 113.463 123.691 113.788L103.466 111.309C103.466 110.65 103.296 109.984 102.937 109.373C101.853 107.519 99.453 106.883 97.5756 107.955C95.8411 108.942 95.1605 111.041 95.9209 112.818L77.7219 123.184C76.801 122.061 75.1623 121.735 73.8544 122.481C72.4027 123.31 71.907 125.144 72.7434 126.576C73.5821 128.011 75.4376 128.501 76.89 127.677C78.1941 126.929 78.7286 125.366 78.2085 124.017L96.4053 113.652C96.6456 113.966 96.9277 114.234 97.2395 114.458L92.0952 123.743C91.2869 123.461 90.3661 123.518 89.5676 123.972C88.1175 124.8 87.6187 126.635 88.4567 128.07C89.2939 129.502 91.1478 129.996 92.6002 129.165C94.0526 128.34 94.5484 126.505 93.7111 125.07C93.5119 124.727 93.2503 124.436 92.9507 124.207L98.0949 114.921C99.1709 115.341 100.421 115.288 101.502 114.673C102.456 114.127 103.092 113.245 103.341 112.266L123.569 114.745C123.596 115.118 123.706 115.491 123.905 115.837C124.612 117.045 126.177 117.46 127.401 116.761C128.625 116.065 129.044 114.518 128.337 113.307C127.656 112.145 126.18 111.713 124.98 112.309L118.442 103.898C119.684 102.685 119.993 100.758 119.084 99.1965C118.641 98.439 117.982 97.8874 117.228 97.5688L120.536 86.1784C121.217 86.2633 121.929 86.1416 122.568 85.7779C123.227 85.4007 123.703 84.8266 123.961 84.1766L131.533 85.8688C131.42 86.8284 131.604 87.8324 132.13 88.7326C133.425 90.9486 136.294 91.7083 138.537 90.4286C140.779 89.1489 141.549 86.3152 140.254 84.0977C138.959 81.8809 136.089 81.1212 133.847 82.4024C132.819 82.9878 132.1 83.8993 131.749 84.9295L124.175 83.2373C124.22 82.6226 124.086 81.9869 123.751 81.4113C122.859 79.8836 120.881 79.3598 119.333 80.2435C117.789 81.125 117.257 83.0802 118.151 84.6064C118.499 85.2023 119.012 85.6457 119.598 85.9117L116.289 97.3036C115.433 97.1698 114.528 97.3148 113.719 97.7762C112.968 98.2061 112.416 98.8463 112.089 99.5767L100.35 96.1208C100.572 95.0064 100.46 93.8221 99.9694 92.7273C102.895 89.076 105.025 84.7124 106.219 79.6694C118.178 73.4903 128.827 65.561 126.706 57.5897C126.652 57.3906 126.602 57.2275 126.56 57.1028C125.426 53.8941 121.775 51.9058 116.301 51.0942C116.17 50.7636 116.004 50.4405 115.802 50.1309C114.201 47.6774 110.161 47.4031 108.486 48.4536C103.308 51.6969 106.701 60.5309 114.29 57.3387C116.016 56.6121 115.585 56.2792 115.986 55.5863C119.494 56.0755 121.716 57.0494 122.238 58.523L122.283 58.6492C123.525 63.3165 116.229 68.8794 107.128 73.8224C107.285 70.5333 106.523 68.1791 105.066 66.5792C105.159 65.4874 104.927 64.3572 104.33 63.3375C102.78 60.6789 99.3397 59.7681 96.6486 61.3033C95.5764 61.9135 94.7864 62.822 94.3202 63.8628C91.6998 64.0987 88.8247 64.6833 85.8454 65.4994C77.5964 67.759 68.5178 71.8672 62.512 74.791C60.7501 73.2686 58.1381 72.9417 55.9975 74.1628C53.3079 75.695 52.3871 79.0968 53.9391 81.7547C55.4926 84.4118 58.9327 85.321 61.6208 83.7873C63.569 82.6767 64.591 80.5869 64.4146 78.5084C70.2766 75.6552 79.0792 71.6733 86.9655 69.5114C89.5433 68.8073 92.0177 68.3008 94.216 68.125C94.3202 68.3872 94.4449 68.6427 94.5902 68.8952C96.1437 71.5515 99.5838 72.4615 102.275 70.9278L102.308 70.9106C102.816 71.9273 103.003 73.2528 102.788 74.9361C102.738 75.3486 102.679 75.7581 102.613 76.1602C92.077 81.3737 80.6593 85.5254 77.5135 86.5481C72.4301 88.2021 67.5019 89.5877 62.8382 90.6976C56.1344 92.2944 49.9051 93.354 44.4696 93.8574C42.1731 91.6587 40.3732 89.1083 39.1109 86.3137C37.9657 83.7746 37.2593 81.0258 37.0259 78.1515C50.1431 69.7052 64.7248 63.6689 79.8449 59.5374C81.568 61.404 84.9131 61.5498 86.5967 60.4955C88.284 59.439 88.5601 58.5981 88.8483 57.3289C89.1783 55.8914 88.8604 54.4374 88.0407 53.1825L88.0346 53.1765V53.1735L88.0316 53.1689L88.0255 53.1637L88.0225 53.1577L88.0171 53.1517L88.0141 53.1441L88.011 53.1381L87.9784 53.0946L87.9723 53.0885L87.9692 53.081L87.9631 53.075L87.9601 53.0698L87.9548 53.0622L87.9487 53.0562L87.9457 53.0487L87.8894 52.9766L87.8863 52.9698L87.8833 52.9638L87.8772 52.9563L87.8742 52.9533V52.9503L87.8209 52.8826C86.1336 50.7561 83.095 50.1692 80.7955 51.6089C79.4799 52.4325 78.6777 53.7476 78.4701 55.1723C63.9461 59.1339 49.9203 64.8284 37.1475 72.6404C37.216 72.0903 37.2989 71.5418 37.3985 70.9865C37.7133 69.2551 38.1931 67.5013 38.8425 65.7444C40.0333 65.8368 41.2629 65.5873 42.3754 64.9516C45.3 63.2841 46.3007 59.59 44.6133 56.7007C44.4871 56.4843 44.3494 56.2762 44.2004 56.0838C45.9995 53.695 48.1454 51.352 50.6586 49.0961C53.2562 46.7584 55.9861 44.7978 58.8004 43.2198C60.7752 44.8768 63.6716 45.2187 66.0419 43.8646C67.8151 42.8531 68.9041 41.121 69.1489 39.2605C70.2492 39.0237 71.3587 38.8419 72.4697 38.7172C78.1994 38.0739 84.0333 38.9298 89.671 41.3765ZM109.154 33.0633L109.192 33.04L105.224 23.2599C103.965 23.5372 102.616 22.9924 101.933 21.8314C101.758 21.5263 101.639 21.2062 101.58 20.8809L90.0695 21.1431C89.9478 22.7031 89.0711 24.1812 87.5981 25.0236C85.2249 26.3784 82.1863 25.5744 80.8137 23.2276C80.3856 22.4935 80.1689 21.6954 80.1514 20.9042L68.4615 20.07C68.276 20.8455 67.7809 21.5451 67.0296 21.9727C65.5772 22.8015 63.7218 22.3101 62.8831 20.8763C62.0466 19.4426 62.5432 17.6091 63.994 16.7802C64.7408 16.3526 65.5993 16.2768 66.3688 16.5007L70.9116 7.14294C70.4013 6.82057 69.9588 6.37421 69.6333 5.81964C68.552 3.96432 69.1968 1.59276 71.072 0.5197C72.9495 -0.550358 75.3509 0.0853645 76.4352 1.93918C77.5196 3.79525 76.8747 6.16831 74.9973 7.23837C73.9844 7.81849 72.8172 7.89588 71.7883 7.55698L67.2464 16.9162C67.6015 17.1612 67.9072 17.4843 68.1376 17.8773C68.3664 18.2681 68.4942 18.6866 68.5337 19.1089L80.2229 19.9431C80.4632 18.5574 81.3034 17.2822 82.6319 16.5232C84.2744 15.5884 86.2317 15.6824 87.7373 16.6066L95.3179 6.85288C95.1635 6.68681 95.0213 6.50195 94.8989 6.29606C94.0647 4.8638 94.5605 3.02953 96.0099 2.20143C97.4623 1.37259 99.3192 1.86554 100.156 3.3008C100.994 4.73305 100.499 6.56808 99.0455 7.39542C98.101 7.93271 96.987 7.91392 96.0905 7.43976L88.5129 17.1935C88.8604 17.5151 89.1661 17.8924 89.4155 18.3192C89.7608 18.9121 89.9684 19.5433 90.0459 20.1805L101.556 19.9205C101.68 19.0346 102.203 18.2155 103.044 17.7353C104.496 16.9072 106.353 17.3994 107.188 18.8332C108.016 20.2511 107.541 22.0591 106.127 22.9L110.096 32.6823C110.791 32.5072 111.506 32.5335 112.169 32.7424L117.451 21.5985C117.088 21.3543 116.77 21.0259 116.535 20.6224C115.701 19.1871 116.194 17.3521 117.646 16.5277C119.099 15.6981 120.952 16.1911 121.79 17.6226C122.627 19.0578 122.132 20.8906 120.682 21.7202C119.939 22.141 119.096 22.2192 118.333 22.0065L113.051 33.1489C113.544 33.4585 113.972 33.8884 114.284 34.4226C114.373 34.5722 114.447 34.7292 114.512 34.8863L134.64 29.7088C134.536 28.5787 135.085 27.438 136.146 26.8323C137.599 26.0057 139.452 26.4972 140.293 27.9294C141.127 29.3639 140.631 31.1967 139.179 32.0263C138.976 32.142 138.763 32.2329 138.546 32.2991L141.481 53.7476C142.847 53.7355 144.184 54.4329 144.918 55.6878C146.004 57.5431 145.36 59.9147 143.483 60.9877C141.605 62.057 139.202 61.4221 138.121 59.5668C137.215 58.021 137.512 56.1146 138.724 54.9025L128.957 42.6592L128.892 42.6976C127.015 43.7706 124.612 43.1349 123.528 41.2781C122.443 39.4243 123.088 37.0497 124.965 35.9796C126.842 34.9073 129.245 35.5438 130.33 37.3991C131.233 38.9463 130.936 40.8543 129.724 42.0633L139.49 54.3066L139.556 54.2683C139.862 54.0925 140.189 53.9632 140.516 53.8768L137.58 32.4268C136.561 32.3975 135.581 31.8647 135.035 30.9284C134.981 30.8345 134.931 30.7391 134.886 30.6406L114.759 35.8173C114.943 37.2541 114.257 38.7247 112.909 39.4949C111.112 40.5176 108.815 39.912 107.779 38.1355C106.739 36.3599 107.357 34.0883 109.154 33.0633Z" fill="white"/>
</g>
<mask id="mask1" mask-type="alpha" maskUnits="userSpaceOnUse" x="185" y="22" width="318" height="92">
<path d="M185 22.0001H502.729V113.455H185V22.0001Z" fill="white"/>
</mask>
<g mask="url(#mask1)">
<path d="M483.442 51.9026L502.729 22.8289H492.947L479.212 44.2392L465.619 22.8289H455.558L474.841 52.1098V71.1695H483.442V51.9026ZM448.199 71.1695L430.581 46.4472L447.503 22.8289H437.725L425.586 40.163L413.519 22.8289H403.458L420.452 46.5865L402.765 71.1695H412.546L425.378 52.8673L438.141 71.1695H448.199ZM378.689 51.9705H361.971L370.296 32.6356L378.689 51.9705ZM374.386 22.4825H366.481L345.117 71.1695H353.858L358.849 59.5013H381.81L386.734 71.1695H395.751L374.386 22.4825ZM303.005 71.1695H337.061V63.4349H311.536V22.8289H303.005V71.1695ZM274.28 51.9705H257.562L265.885 32.6356L274.28 51.9705ZM269.978 22.4825H262.069L240.708 71.1695H249.447L254.441 59.5013H277.401L282.325 71.1695H291.342L269.978 22.4825ZM485.248 113.088H500.218V109.693H488.999V91.8471H485.248V113.088ZM442.934 104.657H435.591L439.245 96.1562L442.934 104.657ZM441.044 91.6955H437.57L428.185 113.088H432.02L434.215 107.963H444.309L446.47 113.088H450.437L441.044 91.6955ZM390.867 95.305H397.633V91.8471H380.321V95.305H387.087V113.088H390.867V95.305ZM341.238 113.088H344.982V91.8471H341.238V113.088ZM304.988 110.149V101.226H295.905V104.47H301.359V108.454C300.709 108.932 299.945 109.325 299.063 109.616C298.177 109.913 297.226 110.052 296.208 110.052C295.114 110.052 294.12 109.865 293.238 109.478C292.355 109.098 291.592 108.565 290.949 107.887C290.31 107.209 289.823 106.4 289.472 105.473C289.125 104.546 288.955 103.536 288.955 102.444C288.955 101.406 289.136 100.438 289.486 99.5246C289.843 98.6187 290.334 97.8164 290.949 97.1309C291.571 96.4397 292.304 95.9001 293.143 95.5056C293.988 95.1119 294.898 94.9113 295.875 94.9113C296.548 94.9113 297.16 94.9669 297.719 95.0845C298.274 95.1948 298.792 95.3398 299.257 95.5338C299.726 95.7277 300.171 95.9623 300.595 96.2466C301.025 96.53 301.439 96.8408 301.848 97.1873L304.228 94.3718C303.676 93.9018 303.113 93.4932 302.537 93.1409C301.956 92.7879 301.341 92.4837 300.692 92.2417C300.039 91.9996 299.333 91.8123 298.573 91.6805C297.809 91.5496 296.961 91.4808 296.027 91.4808C294.422 91.4808 292.943 91.7775 291.592 92.366C290.236 92.9536 289.077 93.7418 288.101 94.7447C287.128 95.7476 286.371 96.9171 285.833 98.2523C285.294 99.5867 285.023 101.005 285.023 102.498C285.023 104.055 285.287 105.508 285.815 106.842C286.343 108.171 287.09 109.332 288.059 110.315C289.018 111.29 290.185 112.065 291.546 112.618C292.908 113.179 294.422 113.455 296.086 113.455C297.021 113.455 297.913 113.372 298.767 113.199C299.622 113.025 300.422 112.783 301.161 112.487C301.904 112.182 302.595 111.823 303.238 111.422C303.874 111.02 304.456 110.591 304.988 110.149ZM245.359 113.088H249.111V91.8471H245.359V113.088ZM205.512 102.498C205.512 103.549 205.339 104.518 204.981 105.397C204.622 106.275 204.126 107.036 203.486 107.672C202.845 108.309 202.07 108.807 201.156 109.16C200.239 109.513 199.225 109.693 198.11 109.693H193.903V95.2503H198.11C199.225 95.2503 200.239 95.4302 201.156 95.7965C202.07 96.1562 202.845 96.661 203.486 97.3108C204.126 97.9614 204.622 98.7223 204.981 99.6008C205.339 100.479 205.512 101.447 205.512 102.498ZM209.444 102.444C209.444 100.943 209.169 99.5453 208.624 98.2523C208.072 96.9519 207.297 95.8313 206.289 94.8831C205.282 93.9358 204.084 93.189 202.695 92.6561C201.302 92.1173 199.77 91.8471 198.11 91.8471H190.149V113.088H198.11C199.77 113.088 201.302 112.818 202.695 112.272C204.084 111.726 205.282 110.978 206.289 110.024C207.297 109.07 208.072 107.949 208.624 106.642C209.169 105.342 209.444 103.937 209.444 102.444ZM230.432 64.4709V44.1679H209.762V51.5594H222.179V60.6053C220.698 61.7093 218.952 62.5961 216.942 63.2633C214.931 63.9305 212.769 64.2637 210.457 64.2637C207.959 64.2637 205.704 63.8269 203.693 62.9525C201.682 62.0748 199.947 60.8705 198.492 59.3264C197.033 57.7856 195.914 55.9531 195.126 53.8354C194.341 51.7177 193.947 49.4161 193.947 46.9296C193.947 44.5824 194.353 42.371 195.162 40.3023C195.97 38.2302 197.082 36.4109 198.492 34.8436C199.9 33.2796 201.567 32.0463 203.486 31.1495C205.405 30.2527 207.473 29.8027 209.692 29.8027C211.219 29.8027 212.619 29.9287 213.889 30.1815C215.161 30.4376 216.33 30.7807 217.393 31.2175C218.457 31.6576 219.474 32.1988 220.445 32.8428C221.415 33.4868 222.363 34.1996 223.288 34.9829L228.699 28.5594C227.451 27.501 226.166 26.5686 224.849 25.7621C223.53 24.959 222.133 24.2794 220.653 23.7257C219.173 23.172 217.567 22.7477 215.832 22.4501C214.099 22.1493 212.167 22.0001 210.042 22.0001C206.388 22.0001 203.024 22.6673 199.947 24.0009C196.873 25.3378 194.225 27.1446 192.006 29.4239C189.787 31.7032 188.063 34.3612 186.837 37.4014C185.613 40.4382 185 43.6599 185 47.0688C185 50.6137 185.602 53.9067 186.803 56.9435C188.006 59.9803 189.704 62.6193 191.902 64.8497C194.099 67.0867 196.744 68.8322 199.844 70.1012C202.942 71.3668 206.388 71.9984 210.179 71.9984C212.307 71.9984 214.341 71.8044 216.284 71.4124C218.225 71.0203 220.04 70.4799 221.729 69.7904C223.416 69.0975 224.987 68.291 226.444 67.3718C227.901 66.4493 229.231 65.4846 230.432 64.4709Z" fill="white"/>
</g>
</svg>
