<svg xmlns="http://www.w3.org/2000/svg" width="633" height="726" viewBox="0 0 633 726" fill="none">
<path d="M211.829 377.63C211.829 377.63 39.3939 456.892 180.005 556.347C202.414 572.185 217.304 508.314 229.262 615.252C232.802 646.786 277.018 609.56 277.898 664.203C278.585 706.122 346.101 700.607 334.237 654.96C326.782 626.238 333.777 603.054 355.621 597.435C362.66 595.621 367.466 580.632 370.56 572.19C438.266 386.983 224.923 540.319 299.584 518.687C443.687 476.884 337.295 456.315 408.004 408.894C483.804 358.075 510.177 386.894 554.711 402.809C606.58 421.337 515.234 320.407 536.057 315.39C574.905 306.071 580.038 253.276 552.154 220.421C533.825 198.796 496.602 237.506 489.513 230.396C480.168 221.057 496.507 184.379 484.383 173.334" stroke="url(#paint0_linear)" stroke-opacity="0.6" stroke-miterlimit="10"/>
<path d="M214.414 377.041C214.414 377.041 97.0897 430.307 138.47 503.783C146.807 518.716 161.381 534.896 185.04 550.644C197.938 559.255 208.191 540.55 217.431 545.169C220.405 546.652 222.737 550.238 224.95 558.103C226.484 563.527 227.909 571.712 228.871 581.322C229.563 588.141 230.448 597.436 231.207 606.949C233.648 637.909 277.678 601.656 278.509 655.788C279.156 697.515 345.449 692.505 333.57 647.874C327.035 623.536 331.224 603.266 346.387 594.79C348.675 593.513 351.205 592.524 353.977 591.824C360.785 590.11 365.418 575.439 368.386 567.216C415.291 438.434 323.922 477.831 293.762 502.739C281.114 513.148 278.663 521.39 300.129 515.13C442.65 473.468 338.686 452.474 406.673 406.515C480.877 356.673 506.188 385.471 549.314 401.39C553.807 403.055 557.232 403.768 559.667 403.662C585.054 402.821 511.706 320.439 531.216 316.448C545.547 313.497 555.578 305.279 560.513 293.883C568.909 274.547 566.286 246.715 550.05 226.121C547.579 222.976 544.62 221.089 541.186 220.238C539.227 219.739 537.441 219.534 535.337 219.588C520.46 220.019 503.241 231.578 494.062 234.366C491.572 235.115 489.899 235.347 488.763 234.219C486.46 231.91 486.162 228.274 486.186 223.405C486.264 208.868 491.443 185.244 482.486 177.114" stroke="url(#paint1_linear)" stroke-opacity="0.6" stroke-miterlimit="10"/>
<path d="M217.024 376.436C217.024 376.436 101.847 428.004 143.708 499.471C152.182 513.962 166.51 530.216 190.116 544.953C202.77 552.844 212.671 533.664 222.288 537.881C225.408 539.241 227.345 542.342 229.224 550.008C230.504 555.186 231.614 563.881 231.893 572.886C232.087 579.352 232.781 589.551 233.16 598.785C234.459 629.159 278.345 593.89 279.128 647.511C279.692 689.035 344.928 684.505 332.91 640.927C326.373 617.201 330.221 597.456 344.982 589.218C347.188 587.988 349.649 587.004 352.341 586.351C358.945 584.722 363.403 570.37 366.236 562.406C411.992 436.28 322.722 475.985 294.08 499.782C281.722 509.947 279.439 517.982 300.681 511.711C441.621 470.191 339.947 448.601 405.323 404.29C477.763 355.201 502.18 384.203 543.87 400.141C548.267 401.827 551.58 402.534 553.919 402.449C578.882 401.75 506.225 321.154 526.274 317.708C540.761 315.204 551.166 307.989 555.834 297.001C563.512 279.024 562.554 252.296 547.857 231.981C545.673 228.953 543.024 227.1 539.648 226.286C537.731 225.798 536.234 225.531 534.141 225.542C519.107 225.707 502.04 235.558 492.948 238.187C490.511 238.905 489.06 239.329 487.967 238.212C485.695 235.956 485.826 232.679 485.844 227.921C485.908 213.608 489.368 189.092 480.542 181.064" stroke="url(#paint2_linear)" stroke-opacity="0.6" stroke-miterlimit="10"/>
<path d="M219.608 375.846C219.608 375.846 106.445 425.796 148.92 495.173C157.548 509.251 171.63 525.578 195.167 539.277C207.609 546.502 217.109 526.767 227.105 530.581C230.327 531.809 231.901 534.477 233.456 541.902C234.499 546.86 235.305 556.022 234.886 564.396C234.582 570.509 235.058 581.627 235.109 590.551C235.278 620.297 278.993 586.028 279.744 639.165C280.24 680.513 344.335 676.44 332.246 633.91C325.682 610.812 329.241 591.56 343.53 583.565C345.683 582.367 348.047 581.404 350.686 580.783C357.044 579.226 361.301 565.209 364.067 557.5C408.301 433.89 321.583 474.175 294.421 496.74C282.413 506.699 280.239 514.49 301.299 508.217C440.657 466.839 341.338 444.76 404.055 402.017C474.821 353.771 498.228 382.902 538.519 398.801C542.777 400.497 546.02 401.209 548.306 401.156C572.83 400.572 500.907 321.773 521.468 318.888C536.11 316.832 546.873 310.592 551.265 300.055C558.181 283.426 558.903 257.829 545.789 237.803C543.892 234.894 541.552 233.074 538.218 232.271C536.317 231.81 535.109 231.48 533.07 231.46C517.852 231.374 500.936 239.517 491.974 241.998C489.575 242.657 488.346 243.274 487.269 242.183C485.055 239.965 485.588 237.062 485.61 232.374C485.704 218.294 487.385 192.851 478.724 184.978" stroke="url(#paint3_linear)" stroke-opacity="0.6" stroke-miterlimit="10"/>
<path d="M222.206 375.214C222.206 375.214 111.067 423.502 154.129 490.807C162.869 504.459 176.736 520.913 200.199 533.505C212.429 540.064 221.572 519.785 231.93 523.169C235.298 524.275 236.507 526.51 237.682 533.657C238.443 538.386 238.957 547.972 237.887 555.794C237.085 561.554 237.355 573.549 237.066 582.205C236.062 611.313 279.665 578.081 280.368 630.706C280.824 671.863 343.766 668.291 331.565 626.798C324.973 604.328 328.233 585.612 342.087 577.8C344.159 576.65 346.47 575.719 349.012 575.118C355.139 573.662 359.222 559.963 361.89 552.456C404.832 431.441 320.389 472.147 294.713 493.548C283.011 503.29 281.015 510.832 301.825 504.564C439.618 463.354 342.652 440.786 402.694 399.584C471.759 352.198 494.209 381.425 533.091 397.329C537.237 399.019 540.369 399.725 542.573 399.719C566.647 399.293 495.427 322.237 516.585 319.935C531.383 318.327 542.531 313.046 546.634 303.003C552.832 287.733 555.149 263.244 543.659 243.519C542.05 240.728 540.019 238.941 536.755 238.134C534.881 237.657 533.962 237.264 531.976 237.212C516.558 236.848 499.82 243.268 490.988 245.601C488.6 246.218 487.636 247.038 486.559 245.947C484.361 243.755 485.353 241.264 485.38 236.646C485.461 222.79 485.422 196.454 476.893 188.683" stroke="url(#paint4_linear)" stroke-opacity="0.6" stroke-miterlimit="10"/>
<path d="M224.815 374.609C224.815 374.609 115.69 421.278 159.366 486.495C168.217 499.722 181.928 516.34 205.301 527.798C217.362 533.702 226.105 512.867 236.798 515.838C240.269 516.811 241.141 518.598 241.966 525.52C242.49 530.029 242.695 540.013 240.921 547.316C239.631 552.679 239.694 565.552 239.056 573.983C236.874 602.383 280.37 570.257 281.025 622.371C281.412 663.352 343.212 660.238 330.926 619.766C324.306 597.923 327.278 579.701 340.703 572.143C342.706 570.998 344.936 570.114 347.424 569.545C353.321 568.189 357.23 554.808 359.788 547.546C401.454 429.154 319.27 470.254 295.079 490.49C283.683 500.016 281.84 507.324 302.426 501.044C438.621 459.95 343.993 436.865 401.377 397.231C468.74 350.705 490.207 380.044 527.68 395.953C531.703 397.679 534.749 398.364 536.884 398.363C560.519 398.052 489.99 322.781 511.703 321.051C526.64 319.864 538.205 315.597 541.989 305.993C547.467 292.082 551.294 268.681 541.515 249.277C540.166 246.621 538.444 244.868 535.249 244.055C533.418 243.589 532.787 243.133 530.829 243.066C515.211 242.424 498.667 247.148 489.921 249.321C487.588 249.906 486.857 250.877 485.795 249.813C483.656 247.658 485.05 245.542 485.055 241.008C485.123 227.375 483.39 200.133 474.983 192.506" stroke="url(#paint5_linear)" stroke-opacity="0.6" stroke-miterlimit="10"/>
<path d="M227.402 374.02C227.402 374.02 120.274 419.043 164.581 482.198C173.543 495 187.07 511.798 210.354 522.122C222.277 527.424 230.573 505.954 241.633 508.564C245.249 509.417 245.758 510.771 246.217 517.44C246.503 521.73 246.368 532.058 243.932 538.853C242.14 543.794 242.012 557.57 241.023 565.776C237.675 593.426 281.052 562.449 281.659 614.052C281.99 654.814 342.637 652.2 330.281 612.776C323.633 591.561 326.29 573.848 339.269 566.517C341.192 565.419 343.368 564.567 345.76 564.02C351.411 562.737 355.161 549.701 357.61 542.683C397.956 426.903 318.101 468.391 295.385 487.506C284.323 496.8 282.604 503.89 303.008 497.61C437.622 456.656 345.348 433.083 400.084 394.975C465.731 349.281 486.215 378.733 522.32 394.656C526.231 396.377 529.181 397.082 531.247 397.086C554.432 396.933 484.59 323.379 506.899 322.231C521.977 321.466 533.942 318.185 537.422 309.048C542.181 296.496 547.433 274.16 539.476 255.084C538.398 252.519 537.001 250.826 533.865 250.051C532.05 249.611 531.735 249.078 529.788 248.968C513.985 248.075 497.619 251.075 488.961 253.089C486.639 253.632 486.157 254.779 485.126 253.769C483.003 251.641 484.83 249.952 484.866 245.472C484.937 232.089 481.453 203.902 473.193 196.403" stroke="url(#paint6_linear)" stroke-opacity="0.6" stroke-miterlimit="10"/>
<path d="M230.012 373.415C230.012 373.415 124.882 416.792 169.819 477.886C178.935 490.273 192.279 507.251 215.414 516.404C227.227 521.088 235.065 499.025 246.487 501.206C250.232 501.91 250.393 502.858 250.47 509.249C250.518 513.32 250.097 523.961 246.961 530.305C244.693 534.807 244.332 549.476 242.967 557.473C238.463 584.33 281.822 554.55 282.253 605.61C282.602 646.218 342.022 644.039 329.596 605.664C322.92 585.077 325.305 567.884 337.823 560.753C339.665 559.702 341.772 558.855 344.083 558.355C349.503 557.172 353.079 544.455 355.43 537.639C394.484 424.455 316.904 466.363 295.7 484.299C284.96 493.402 283.405 500.217 303.558 493.94C436.59 453.129 346.67 429.066 398.748 392.526C462.704 347.649 482.193 377.256 516.901 393.141C520.673 394.872 523.553 395.582 525.523 395.607C548.258 395.611 479.102 323.774 501.981 323.225C517.226 322.865 529.58 320.612 532.741 311.916C536.782 300.723 543.411 279.372 537.297 260.72C536.49 258.247 535.418 256.614 532.324 255.849C530.551 255.421 530.483 254.814 528.605 254.699C512.56 253.518 496.431 254.832 487.875 256.713C485.591 257.198 485.347 258.564 484.317 257.554C482.225 255.479 484.481 254.149 484.495 249.753C484.552 236.594 479.348 207.516 471.236 200.146" stroke="url(#paint7_linear)" stroke-opacity="0.6" stroke-miterlimit="10"/>
<path d="M232.597 372.825C232.597 372.825 129.449 414.53 175.006 473.604C184.233 485.567 199.384 498.674 220.439 510.744C232.746 512.583 239.52 492.154 251.278 493.922C255.141 494.52 254.981 495.046 254.677 501.159C254.503 505.037 253.834 515.932 249.901 521.847C247.2 525.921 248.127 541.916 244.863 549.271C244.542 575.854 282.46 546.731 282.816 597.295C283.109 637.685 341.376 636.006 328.854 598.694C322.134 578.709 324.22 562.052 336.335 555.158C338.123 554.14 340.149 553.34 342.391 552.845C347.58 551.762 350.982 539.363 353.224 532.791C390.986 422.204 315.68 464.532 295.962 481.304C285.529 490.191 284.125 496.772 304.07 490.51C435.521 449.841 347.939 425.261 397.357 390.29C459.581 346.219 478.102 375.965 511.417 391.881C515.092 393.633 517.861 394.337 519.761 394.367C542.061 394.555 473.577 324.408 497.026 324.458C512.395 324.492 525.224 323.29 528.022 315.023C531.387 305.199 542.866 283.542 535.064 266.568C534.983 264.099 533.781 262.614 530.73 261.86C528.984 261.416 529.22 260.773 527.354 260.615C511.055 259.188 495.173 258.774 486.732 260.481C484.474 260.949 484.464 262.466 483.476 261.466C481.442 259.429 484.1 258.473 484.134 254.174C484.222 241.249 477.239 211.242 469.275 204" stroke="url(#paint8_linear)" stroke-opacity="0.6" stroke-miterlimit="10"/>
<path d="M235.193 372.194C235.193 372.194 134.042 412.253 180.229 469.266C189.567 480.803 204.776 493.516 225.485 504.999C237.673 505.902 243.981 485.173 256.105 486.58C260.099 487.03 259.606 487.177 258.92 493.011C258.482 496.686 257.607 507.846 252.921 513.342C249.813 516.973 250.612 533.978 246.839 541.022C246.044 566.986 283.15 538.88 283.459 588.934C283.71 629.131 340.825 627.953 328.217 591.663C321.496 572.289 323.283 556.168 334.91 549.491C336.617 548.519 338.574 547.725 340.751 547.304C345.694 546.294 348.938 534.241 351.07 527.913C387.513 419.937 314.509 462.67 296.292 478.305C286.192 486.959 284.882 493.269 304.635 487.049C434.4 446.223 349.276 421.453 396.02 388.022C456.526 344.785 474.064 374.644 506.012 390.574C509.549 392.336 512.248 393.045 514.051 393.096C535.902 393.442 468.088 324.985 492.166 325.67C507.659 326.099 520.963 325.947 523.399 318.11C526.045 309.645 539.495 288.874 532.942 272.423C533.217 270.067 532.255 268.62 529.247 267.877C527.544 267.444 528.053 266.712 526.24 266.522C509.715 264.834 494.054 262.707 485.699 264.255C483.48 264.665 483.707 266.4 482.719 265.401C480.701 263.391 483.819 262.846 483.842 258.589C483.917 245.888 475.213 214.99 467.398 207.876" stroke="url(#paint9_linear)" stroke-opacity="0.6" stroke-miterlimit="10"/>
<path d="M237.776 371.604C237.776 371.604 138.608 409.991 185.44 464.968C194.889 476.08 210.145 488.443 230.534 499.323C242.62 499.315 248.461 478.286 260.921 479.28C265.06 479.608 264.192 479.364 263.136 484.878C262.464 488.403 262.232 500.837 255.897 504.826C253.034 508.564 253.081 526.012 248.772 532.761C247.487 558.079 283.824 531.002 284.085 580.544C284.296 620.551 340.268 619.83 327.564 584.603C320.815 565.857 322.287 550.246 333.511 543.806C335.165 542.866 337.025 542.093 339.149 541.703C343.861 540.794 346.931 529.059 348.938 522.949C384.045 417.558 313.359 460.722 296.654 475.178C286.877 483.641 285.73 489.675 305.274 483.471C433.442 442.759 350.672 417.5 394.784 385.622C453.542 343.163 470.101 373.204 500.693 389.107C504.091 390.879 506.721 391.593 508.455 391.649C529.871 392.179 462.713 325.385 487.377 326.696C502.993 327.519 516.799 328.402 518.846 321.009C520.827 313.872 536.211 294.047 530.89 278.091C531.506 275.821 530.8 274.44 527.85 273.734C526.162 273.327 526.988 272.517 525.201 272.312C508.407 270.351 493.036 266.507 484.742 267.911C482.576 268.289 483.01 270.191 482.053 269.244C480.094 267.272 483.613 267.102 483.63 262.957C483.691 250.479 473.252 218.663 465.585 211.678" stroke="url(#paint10_linear)" stroke-opacity="0.6" stroke-miterlimit="10"/>
<path d="M240.389 370.999C240.389 370.999 143.203 407.713 190.681 460.656C200.269 471.327 215.555 483.312 235.641 493.616C247.635 492.655 252.983 471.341 265.82 471.933C270.062 472.128 267.918 471.379 267.451 476.724C265.972 479.862 266.118 492.937 258.961 496.331C255.712 499.722 255.653 518.096 250.792 524.523C249.007 549.237 284.575 523.189 284.772 572.193C284.915 612.024 339.746 611.761 326.972 577.582C320.196 559.463 321.379 544.346 332.131 538.148C333.689 537.23 335.511 536.514 337.538 536.146C342.02 535.337 344.888 523.936 346.84 518.038C380.628 415.26 312.271 458.812 297.041 472.146C287.612 480.404 286.575 486.194 305.895 479.978C432.465 439.381 352.049 413.632 393.502 383.322C450.512 341.644 466.093 371.866 495.318 387.784C498.619 389.576 501.137 390.285 502.775 390.362C523.741 391.049 457.253 325.945 482.53 327.866C498.271 329.083 512.706 331.033 514.236 324.053C515.552 318.243 532.869 299.364 528.781 283.902C529.754 281.747 529.288 280.403 526.38 279.709C524.735 279.313 525.842 278.121 524.074 278.192C507.693 273.003 491.93 270.397 483.711 271.684C481.557 272.02 482.255 274.125 481.326 273.163C479.382 271.217 483.346 271.432 483.367 267.356C483.431 255.128 471.283 222.378 463.737 215.538" stroke="url(#paint11_linear)" stroke-opacity="0.6" stroke-miterlimit="10"/>
<path d="M242.973 370.409C242.973 370.409 147.726 405.441 195.877 456.332C205.576 466.578 220.935 478.196 240.659 487.887C252.535 485.989 257.432 464.402 270.605 464.58C274.992 464.653 272.399 463.449 271.652 468.565C269.865 471.489 269.889 485.031 261.938 487.815C258.276 490.874 258.095 510.147 252.698 516.278C250.439 540.373 285.196 515.343 285.345 563.836C285.447 603.475 339.109 603.685 326.239 570.57C319.419 553.053 320.319 538.498 330.636 532.485C332.14 531.598 333.866 530.904 335.839 530.567C340.075 529.831 342.785 518.775 344.627 513.122C377.081 412.929 311.041 456.912 297.296 469.083C288.174 477.123 287.273 482.653 306.4 476.479C431.4 435.981 353.3 409.802 392.121 381.044C447.34 340.134 461.969 370.522 489.87 386.466C493.033 388.268 495.481 388.982 497.049 389.064C517.554 389.951 451.775 326.479 477.612 329.04C493.487 330.609 507.417 333.361 509.581 327.086C509.373 322.498 529.481 304.669 526.627 289.703C527.914 287.65 527.703 286.372 524.892 285.657C523.274 285.245 524.669 283.99 522.944 284.072C506.414 278.324 490.82 274.287 482.689 275.415C480.573 275.693 481.52 277.974 480.58 277.055C478.694 275.146 483.075 275.763 483.075 271.772C483.126 259.767 469.257 226.126 461.844 219.387" stroke="url(#paint12_linear)" stroke-opacity="0.6" stroke-miterlimit="10"/>
<path d="M245.567 369.778C245.567 369.778 152.286 403.11 201.099 451.993C210.909 461.814 226.298 473.054 245.719 482.169C257.492 479.36 261.934 457.431 275.446 457.264C279.963 457.189 276.911 455.574 275.91 460.443C273.826 463.11 273.69 477.179 264.956 479.31C260.908 482.021 260.606 502.192 254.673 508.029C251.939 531.504 285.912 507.476 285.986 555.474C286.048 594.921 338.552 595.563 325.601 563.538C318.78 546.633 319.364 532.588 329.252 526.828C330.676 525.988 332.348 525.325 334.225 525.01C338.257 524.358 340.766 513.636 342.483 508.201C373.575 410.609 309.895 455.034 297.62 466.014C288.863 473.876 288.082 479.119 306.959 472.948C430.362 432.566 354.599 405.87 390.804 378.691C444.244 338.507 457.882 369.12 484.443 385.063C487.467 386.875 489.846 387.594 491.318 387.696C511.378 388.811 446.249 326.932 472.73 330.157C488.729 332.12 503.049 335.9 504.951 330.104C503.982 326.864 526.12 309.959 524.51 295.446C526.153 293.506 526.182 292.266 523.414 291.562C521.838 291.161 523.534 289.801 521.809 289.884C505.118 283.618 489.738 279.636 481.635 279.093C479.653 279.722 480.742 281.813 479.801 280.893C477.947 279.038 482.757 280.013 482.761 276.091C482.841 264.321 467.194 229.751 459.945 223.167" stroke="url(#paint13_linear)" stroke-opacity="0.6" stroke-miterlimit="10"/>
<path d="M248.178 369.172C248.178 369.172 156.836 400.822 206.337 447.68C216.259 457.076 231.706 467.923 250.796 476.477C262.451 472.731 266.442 450.528 280.316 449.933C284.952 449.752 281.477 447.666 280.18 452.279C277.789 454.731 277.162 467.723 267.975 470.804C263.196 472.4 263.133 494.264 256.632 499.753C253.425 522.609 286.586 499.598 286.612 547.085C286.606 586.356 337.969 587.456 324.948 556.479C318.099 540.201 318.369 526.665 327.811 521.132C329.181 520.324 330.757 519.683 332.58 519.398C336.366 518.82 338.717 508.444 340.351 503.236C370.081 408.245 308.773 453.071 297.999 462.913C289.591 470.569 288.92 475.568 307.614 469.396C429.42 429.129 356.001 401.986 389.531 376.349C441.148 336.88 453.839 367.728 479.103 383.681C482.004 385.53 484.297 386.227 485.7 386.334C505.298 387.649 440.836 327.391 467.919 331.268C484.053 333.583 498.736 338.408 500.377 333.089C498.63 331.17 522.798 315.19 522.437 301.199C524.421 299.346 524.705 298.171 521.995 297.504C520.435 297.13 522.431 295.665 520.76 295.716C503.936 288.917 488.703 283.589 480.667 282.791C478.712 283.405 480.034 285.646 479.151 284.764C477.313 282.936 482.541 284.311 482.591 280.47C482.659 268.923 465.292 233.461 458.175 226.979" stroke="url(#paint14_linear)" stroke-opacity="0.6" stroke-miterlimit="10"/>
<path d="M250.763 368.583C250.763 368.583 161.361 398.549 211.524 443.4C221.556 452.37 237.077 462.85 255.805 470.791C267.369 466.092 270.866 443.605 285.092 442.622C289.857 442.293 285.922 439.795 284.371 444.162C281.7 446.385 281.02 459.839 270.926 462.304C265.804 463.563 265.577 486.315 258.54 491.508C254.859 513.745 287.236 491.737 287.186 538.729C287.14 577.808 337.361 579.365 324.244 549.452C317.351 533.775 317.38 520.813 326.345 515.453C327.634 514.693 329.141 514.056 330.884 513.819C334.439 513.341 336.615 503.283 338.14 498.32C366.493 405.904 307.545 451.171 298.256 459.849C290.229 467.353 289.636 472.054 308.106 465.871C428.33 425.745 357.211 398.145 388.137 374.044C437.915 335.264 449.659 366.347 473.641 382.336C476.403 384.195 478.6 384.913 479.96 385.01C499.087 386.567 435.329 327.871 462.986 332.416C479.229 335.098 494.29 340.995 495.681 336.111C493.146 335.556 519.37 320.485 520.242 306.989C522.54 305.239 523.107 304.113 520.439 303.457C518.906 303.067 521.175 301.513 519.562 301.601C502.589 294.243 487.509 287.639 479.566 286.57C477.638 287.168 479.209 289.586 478.327 288.703C476.546 286.913 482.192 288.689 482.205 284.906C482.259 273.583 463.156 237.203 456.202 230.876" stroke="url(#paint15_linear)" stroke-opacity="0.6" stroke-miterlimit="10"/>
<path d="M253.376 367.978C253.376 367.978 165.913 396.261 216.764 439.087C226.892 447.605 242.486 457.719 260.91 465.083C272.371 459.474 275.402 436.687 289.963 435.291C294.858 434.813 290.49 431.888 288.658 436.024C285.664 438.006 284.989 451.961 273.963 453.825C268.524 454.731 268.095 478.43 260.506 483.301C256.324 504.934 287.916 483.928 287.819 530.409C287.732 569.296 336.811 571.311 323.57 542.478C316.676 527.414 316.364 514.976 324.926 509.854C326.162 509.126 327.588 508.536 329.277 508.331C332.601 507.953 334.603 498.213 336.004 493.468C362.952 403.642 306.433 449.346 298.588 456.85C290.941 464.2 290.437 468.562 308.672 462.409C427.299 422.399 358.491 394.298 386.811 371.734C434.693 333.605 445.521 364.976 468.222 381.002C470.872 382.855 472.972 383.594 474.236 383.712C492.906 385.538 429.794 328.367 458.096 333.575C474.473 336.609 489.897 343.55 491.027 339.144C487.731 339.938 515.957 325.807 518.09 312.79C520.744 311.153 521.551 310.066 518.926 309.421C517.435 309.041 519.977 307.398 518.391 307.47C501.258 299.596 486.325 291.646 478.476 290.306C476.591 290.914 478.379 293.456 477.513 292.6C475.764 290.863 481.838 292.998 481.871 289.311C481.928 278.237 461.089 240.94 454.268 234.715" stroke="url(#paint16_linear)" stroke-opacity="0.6" stroke-miterlimit="10"/>
<path d="M255.945 367.362C255.945 367.362 170.379 393.951 221.961 434.764C232.2 442.857 247.824 452.592 265.93 459.354C277.273 452.808 279.837 429.72 294.764 427.964C299.778 427.381 294.976 424.027 292.86 427.865C289.585 429.616 288.846 444.076 276.94 445.309C271.147 445.921 270.565 470.465 262.44 475.041C257.768 496.028 288.565 476.066 288.42 522.036C288.265 560.747 336.213 563.177 322.876 535.408C315.938 520.945 315.353 509.028 323.444 504.148C324.599 503.467 325.955 502.883 327.564 502.725C330.642 502.42 332.486 493.026 333.776 488.525C359.32 401.289 305.216 447.403 298.845 453.786C291.637 461.021 291.152 465.047 309.179 458.91C426.208 419.014 359.727 390.441 385.432 369.455C431.386 331.924 441.34 363.594 462.76 379.657C465.27 381.52 467.302 382.264 468.496 382.387C486.667 384.471 424.286 328.847 453.163 334.722C469.66 338.082 485.462 346.094 486.331 342.166C482.257 344.281 512.529 331.102 515.895 318.58C518.889 317.03 519.952 316.007 517.385 315.4C515.937 315.031 518.779 313.283 517.209 313.382C499.943 304.975 485.13 295.695 477.402 294.068C475.57 294.645 477.581 297.379 476.757 296.534C475.051 294.808 481.558 297.371 481.553 293.742C481.597 282.892 459.022 244.676 452.365 238.606" stroke="url(#paint17_linear)" stroke-opacity="0.6" stroke-miterlimit="10"/>
<path d="M258.554 366.756C258.554 366.756 174.885 391.651 227.198 430.451C237.548 438.118 253.246 447.487 271.005 453.662C282.23 446.179 284.37 422.802 299.633 420.632C304.776 419.9 299.541 416.119 297.144 419.727C293.562 421.264 292.786 436.213 279.985 436.787C273.848 437.062 273.101 462.494 264.441 466.775C259.295 487.143 289.307 468.183 289.071 513.631C288.876 552.151 335.656 555.054 322.249 528.333C315.267 514.47 314.399 503.116 322.071 498.448C323.156 497.772 324.459 497.219 325.987 497.109C328.861 496.888 330.504 487.828 331.712 483.555C355.825 398.926 304.188 445.418 299.275 450.653C292.538 457.827 292.041 461.464 309.871 455.3C425.33 415.503 361.096 386.504 384.221 367.039C428.2 330.025 437.26 362.08 457.483 378.201C459.854 380.074 461.816 380.823 462.915 380.966C480.617 383.363 418.921 329.205 448.43 335.786C465.062 339.497 481.243 348.581 481.835 345.103C476.973 348.582 509.285 336.285 513.9 324.286C517.252 322.848 518.527 321.881 516.03 321.268C514.597 320.926 517.74 319.073 516.196 319.156C498.754 310.205 484.132 299.59 476.47 297.709C474.665 298.27 476.909 301.153 476.101 300.336C474.426 298.662 481.362 301.584 481.377 298.051C481.451 287.435 457.14 248.302 450.589 242.349" stroke="url(#paint18_linear)" stroke-opacity="0.6" stroke-miterlimit="10"/>
<path d="M261.139 366.168C261.139 366.168 179.367 389.368 232.411 426.154C242.846 433.413 258.628 442.372 276.057 447.987C287.205 439.578 288.836 415.89 304.45 413.333C309.738 412.48 304.028 408.26 301.377 411.621C297.515 412.929 296.637 428.441 282.967 428.341C276.46 428.295 275.565 454.642 266.38 458.585C260.76 478.333 289.976 460.418 289.677 505.328C289.441 543.656 335.063 546.99 321.575 521.359C314.593 508.109 313.409 497.264 320.635 492.822C321.64 492.194 322.874 491.646 324.321 491.584C326.949 491.436 328.407 482.737 329.517 478.666C352.183 396.616 303.056 443.498 299.548 447.617C293.441 454.815 292.772 457.978 310.394 451.828C424.256 412.147 362.306 382.663 382.842 364.761C424.745 328.217 433.021 360.661 452.009 376.899C454.242 378.782 456.119 379.509 457.163 379.685C474.356 382.382 413.386 329.702 443.486 336.977C460.238 341.013 476.797 351.168 477.127 348.169C471.488 352.969 505.846 341.623 511.678 330.092C515.343 328.758 516.901 327.839 514.446 327.237C513.041 326.879 516.472 324.963 514.982 325.015C497.407 315.531 482.906 303.587 475.353 301.461C473.591 302.033 476.068 305.067 475.26 304.249C473.601 302.602 480.981 305.909 481.001 302.445C481.062 292.053 455.031 252.028 448.627 246.204" stroke="url(#paint19_linear)" stroke-opacity="0.6" stroke-miterlimit="10"/>
<path d="M263.752 365.562C263.752 365.562 183.876 387.069 237.636 421.815C248.166 428.621 263.994 437.23 281.104 442.242C292.134 432.895 293.298 408.907 309.263 405.964C314.654 404.977 308.538 400.314 305.591 403.419C301.405 404.485 300.479 420.53 285.941 419.755C279.064 419.388 278.031 446.607 268.294 450.228C262.2 469.357 290.605 452.46 290.258 496.859C289.954 535.011 334.446 538.76 320.85 514.236C313.824 501.586 312.357 491.304 319.122 487.063C320.073 486.466 321.21 485.939 322.604 485.908C325.028 485.845 326.269 477.454 327.286 473.654C348.462 394.172 301.06 440.972 299.801 444.483C292.923 450.374 293.495 454.351 310.881 448.233C423.145 408.666 363.442 378.756 381.454 362.344C421.148 326.167 428.746 359.119 446.538 375.415C448.632 377.309 450.484 377.871 451.388 378.237C468.382 377.959 407.853 330.016 438.517 338.002C455.404 342.39 472.326 353.589 472.395 351.068C465.994 357.216 502.381 346.795 509.474 335.743C513.496 334.522 515.293 333.642 512.908 333.035C511.545 332.688 515.25 330.683 513.802 330.745C496.078 320.702 481.713 307.455 474.254 305.058C472.546 305.598 475.256 308.782 474.464 307.991C472.863 306.382 480.661 310.089 480.659 306.71C480.706 296.542 452.939 255.599 446.684 249.903" stroke="url(#paint20_linear)" stroke-opacity="0.6" stroke-miterlimit="10"/>
<path d="M266.348 364.93C266.348 364.93 188.342 384.759 242.859 417.476C253.501 423.857 269.402 432.099 286.192 436.508C297.104 426.224 297.818 401.963 314.161 398.617C319.682 397.482 313.105 392.407 309.904 395.266C305.438 396.102 304.394 412.684 289.03 411.245C281.783 410.557 280.629 438.675 270.313 441.99C263.718 460.515 291.366 444.604 290.943 488.508C290.599 526.468 333.933 530.649 320.257 507.215C313.214 495.151 311.447 485.405 317.783 481.416C318.653 480.867 319.737 480.372 321.034 480.362C323.212 480.372 324.295 472.326 325.229 468.754C344.846 391.846 299.97 439.062 300.212 441.436C293.64 447.11 294.364 450.854 311.542 444.751C422.209 405.299 364.726 374.979 380.229 360.082C417.566 324.144 427.802 355.002 441.246 374.114C443.499 375.662 444.984 376.584 445.818 376.955C462.368 376.723 402.499 330.514 433.781 339.177C450.787 343.891 468.076 356.204 467.938 354.128C460.749 361.641 499.192 352.128 507.518 341.572C511.881 340.438 513.934 339.622 511.607 339.053C510.26 338.733 514.291 336.607 512.844 336.669C494.959 326.109 480.785 311.527 473.403 308.832C471.722 309.357 474.681 312.717 473.905 311.953C472.335 310.397 480.562 314.463 480.564 311.154C480.615 301.235 451.112 259.375 445.004 253.807" stroke="url(#paint21_linear)" stroke-opacity="0.6" stroke-miterlimit="10"/>
<path d="M268.931 364.341C268.931 364.341 192.753 382.48 248.044 413.194C258.77 419.167 274.756 426.999 291.216 430.848C302.025 419.654 302.256 395.065 318.95 391.332C324.616 390.076 317.59 384.547 314.109 387.175C309.336 387.797 308.201 404.9 291.968 402.787C284.393 401.789 283.06 430.767 272.234 433.772C265.166 451.677 292.002 436.785 291.532 480.177C291.131 517.919 333.323 522.557 319.566 500.214C312.464 488.724 310.43 479.567 316.304 475.779C317.121 475.262 318.135 474.771 319.351 474.809C321.326 474.903 322.207 467.191 323.016 463.837C341.074 389.503 298.724 437.135 300.51 438.383C294.229 443.814 295.121 447.351 312.102 441.22C421.187 401.91 368.405 373.24 378.886 357.745C419.357 328.409 423.862 353.477 435.809 372.753C437.95 374.295 439.323 375.212 440.077 375.63C456.184 375.444 397.001 330.951 428.847 340.325C445.988 345.39 463.64 358.748 463.24 357.15C455.274 365.984 495.762 357.423 505.322 347.362C510.025 346.314 512.333 345.564 510.049 345.005C508.729 344.669 513.049 342.481 511.644 342.554C493.627 331.461 479.573 315.549 472.285 312.584C470.646 313.119 473.823 316.603 473.062 315.865C471.536 314.32 480.153 318.803 480.202 315.574C480.24 305.878 449.001 263.1 443.042 257.661" stroke="url(#paint22_linear)" stroke-opacity="0.6" stroke-miterlimit="10"/>
<path d="M271.543 363.735C271.543 363.735 197.207 380.212 253.283 408.882C264.105 414.402 280.164 421.867 296.277 425.129C306.995 412.982 306.76 388.094 323.778 383.99C329.574 382.585 322.115 376.628 318.353 379.027C313.283 379.392 312.02 397.074 294.988 394.281C287 392.951 285.545 422.829 274.184 425.538C266.641 442.824 292.666 428.949 292.148 471.831C291.679 509.397 332.752 514.408 318.903 493.197C311.784 482.293 309.451 473.672 314.895 470.137C315.631 469.667 316.576 469.182 317.712 469.267C319.482 469.445 320.136 462.084 320.863 458.958C337.292 387.202 297.522 435.219 300.825 435.356C294.835 440.544 295.921 443.858 312.667 437.758C420.155 398.563 369.832 369.521 377.549 355.477C416.397 327.134 419.911 351.996 430.389 371.419C432.418 372.955 433.721 373.877 434.379 374.316C450.026 374.149 391.531 331.372 423.998 341.494C441.285 346.869 459.289 361.314 458.628 360.194C449.9 370.375 492.403 362.712 503.211 353.173C508.244 352.255 510.819 351.527 508.578 350.979C507.3 350.654 511.893 348.376 510.515 348.434C492.322 336.797 478.431 319.567 471.253 316.357C469.641 316.876 473.051 320.51 472.333 319.783C470.838 318.292 479.899 323.16 479.911 319.989C479.978 310.528 446.976 266.847 441.165 261.536" stroke="url(#paint23_linear)" stroke-opacity="0.6" stroke-miterlimit="10"/>
<path d="M274.129 363.146C274.129 363.146 201.621 377.934 258.497 404.585C269.403 409.696 285.535 416.795 301.329 419.454C311.945 406.397 311.227 381.181 328.623 376.675C334.522 375.137 326.645 368.779 322.598 370.879C317.221 371.029 315.867 389.232 298.009 385.776C289.624 384.141 288.074 414.901 276.161 417.289C268.129 433.929 293.385 421.083 292.792 463.469C292.283 500.843 332.182 506.258 318.241 486.181C311.105 475.862 308.462 467.82 313.472 464.469C314.154 464.031 315.001 463.747 316.074 463.726C317.563 464.286 318.093 456.961 318.711 454.08C333.469 384.892 296.337 433.33 301.141 432.33C295.484 437.285 296.68 440.356 313.217 434.27C419.108 395.19 371.218 365.793 376.197 353.183C413.45 325.817 415.962 350.514 424.97 370.085C426.887 371.616 428.094 372.558 428.655 373.018C443.886 372.881 386.05 331.837 419.081 342.669C436.488 348.369 454.886 363.912 453.948 363.243C444.416 374.762 488.991 368.034 501.032 358.99C506.406 358.159 509.21 357.512 507.038 356.959C505.802 356.644 510.669 354.278 509.345 354.304C491.018 342.134 477.275 323.558 470.164 320.093C468.605 320.581 472.238 324.408 471.519 323.681C470.04 322.216 479.545 327.469 479.578 324.394C479.632 315.156 444.921 270.542 439.231 265.375" stroke="url(#paint24_linear)" stroke-opacity="0.6" stroke-miterlimit="10"/>
<path d="M276.739 362.541C276.739 362.541 206.047 375.682 263.735 400.272C274.71 404.947 290.942 411.663 306.39 413.735C316.887 399.741 315.718 374.252 333.465 369.359C339.51 367.7 331.184 360.887 326.857 362.756C321.199 362.677 319.7 381.433 301.001 377.286C292.246 375.33 290.559 406.963 278.11 409.055C269.577 425.091 294.048 413.247 293.407 455.122C292.857 492.305 331.583 498.124 317.577 479.164C310.382 469.419 307.497 461.951 312.019 458.816C312.606 458.399 313.414 458.174 314.418 458.157C315.676 458.817 316.032 451.811 316.552 449.131C329.543 382.532 295.145 431.371 301.493 429.245C296.127 433.956 297.49 436.82 313.846 430.734C418.139 391.769 372.693 361.973 374.95 350.825C410.608 324.436 412.118 348.969 419.63 368.703C421.434 370.228 422.545 371.191 423.037 371.656C437.824 371.565 380.659 332.211 414.27 343.78C431.838 349.816 450.572 366.419 449.373 366.228C439.08 379.095 485.684 373.292 498.943 364.717C504.673 363.998 507.717 363.39 505.603 362.874C504.383 362.587 509.561 360.072 508.268 360.152C489.782 347.465 476.186 327.544 469.195 323.792C467.663 324.264 471.529 328.24 470.842 327.567C469.421 326.139 479.344 331.794 479.339 328.777C479.38 319.763 442.948 274.257 437.407 269.219" stroke="url(#paint25_linear)" stroke-opacity="0.6" stroke-miterlimit="10"/>
<path d="M279.308 361.925C279.308 361.925 210.432 373.42 268.932 395.949C279.991 400.214 296.323 406.548 311.452 408.017C321.831 393.086 320.195 367.297 338.293 362.016C344.467 360.209 335.682 352.985 331.1 354.608C325.135 354.314 323.519 373.607 304.021 368.781C294.869 366.52 293.044 399.024 280.059 400.821C271.052 416.238 294.712 405.412 294.049 446.761C293.432 483.767 331.012 489.975 316.941 472.132C309.713 462.946 306.518 456.056 310.637 453.159C311.17 452.773 311.882 452.569 312.805 452.6C313.833 453.36 313.988 446.688 314.425 444.237C325.521 380.193 293.985 429.466 301.834 426.203C296.759 430.671 298.29 433.328 314.422 427.23C417.133 388.407 374.104 358.228 373.639 348.541C407.675 323.146 408.21 347.498 414.252 367.38C415.945 368.899 416.943 369.856 417.381 370.353C431.71 370.281 375.247 332.67 409.448 344.934C427.136 351.295 446.222 368.986 444.788 369.256C433.733 383.471 482.367 378.593 496.859 370.513C502.93 369.881 506.229 369.337 504.158 368.833C502.965 368.529 508.432 365.953 507.166 366.016C488.531 352.77 475.087 331.572 468.174 327.523C466.685 328.005 470.784 332.132 470.124 331.443C468.734 330.069 479.086 336.082 479.101 333.161C479.144 324.397 440.977 277.973 435.568 273.037" stroke="url(#paint26_linear)" stroke-opacity="0.6" stroke-miterlimit="10"/>
<path d="M281.917 361.319C281.917 361.319 214.858 371.168 274.169 391.636C285.312 395.492 301.702 401.432 316.527 402.325C326.83 386.468 324.712 360.352 343.135 354.701C349.411 352.761 340.219 345.093 335.342 346.459C329.081 345.909 327.319 365.754 307.023 360.249C297.473 357.682 295.554 391.07 282.001 392.518C272.521 407.316 295.369 397.508 294.658 438.345C294.001 475.16 330.407 481.772 316.271 465.046C308.983 456.434 305.548 450.118 309.206 447.421C309.658 447.083 310.316 446.91 311.17 446.946C311.967 447.806 311.964 441.479 312.276 439.246C321.369 377.822 292.803 427.465 302.153 423.065C297.384 427.316 299.094 429.724 314.975 423.63C416.089 384.922 375.519 354.371 372.291 346.135C404.73 321.717 404.247 345.878 408.794 365.923C410.374 367.436 411.276 368.414 411.618 368.932C425.503 368.906 369.711 332.985 404.507 346.012C422.342 352.683 441.794 371.487 440.084 372.208C428.225 387.761 478.888 383.807 494.683 376.217C501.083 375.715 504.649 375.194 502.621 374.7C501.471 374.408 507.211 371.742 505.987 371.816C487.219 358.037 473.923 335.494 467.092 331.216C465.657 331.667 469.989 335.944 469.318 335.297C467.971 333.934 478.74 340.348 478.759 337.496C478.79 328.955 438.887 281.614 433.642 276.832" stroke="url(#paint27_linear)" stroke-opacity="0.6" stroke-miterlimit="10"/>
<path d="M284.502 360.731C284.502 360.731 219.205 368.964 279.366 387.313C290.593 390.76 307.067 396.29 321.546 396.597C331.731 379.802 329.162 353.413 347.947 347.332C354.369 345.27 344.815 338.032 339.57 338.284C332.963 338.621 331.123 357.902 310 351.733C300.064 348.819 298.024 383.105 283.935 384.259C273.98 398.436 296.044 389.63 295.259 429.973C294.534 466.611 329.778 473.585 315.549 457.992C308.203 449.955 304.499 444.228 307.696 441.731C308.095 441.425 308.672 441.3 309.43 441.356C309.996 442.317 309.792 436.324 310.032 434.277C316.953 375.429 291.511 425.459 302.394 419.975C297.943 423.967 299.793 426.184 315.466 420.105C414.999 381.538 376.845 350.605 370.879 343.804C401.707 320.336 400.238 344.36 403.315 364.552C404.783 366.059 405.59 367.058 405.862 367.581C419.303 367.6 364.209 333.354 399.585 347.118C417.566 354.098 437.37 373.99 435.398 375.188C422.778 392.089 474.551 386.15 492.499 381.965C499.081 380.421 503.061 381.094 501.118 380.622C500.01 380.34 506.023 377.585 504.827 377.643C485.898 363.348 472.75 339.458 466.013 334.91C464.604 335.345 469.186 339.799 468.514 339.152C467.199 337.842 478.413 344.641 478.409 341.874C478.47 333.568 436.804 285.324 431.691 280.644" stroke="url(#paint28_linear)" stroke-opacity="0.6" stroke-miterlimit="10"/>
<path d="M287.114 360.125C287.114 360.125 223.607 366.728 284.606 383C295.902 386.011 312.492 391.185 326.625 390.905C336.692 373.173 333.656 346.483 352.808 340.043C359.359 337.833 349.329 330.156 343.847 330.189C336.928 330.242 334.958 350.103 313.037 343.254C302.704 340.035 300.569 375.204 285.928 376.035C275.5 389.594 296.752 381.806 295.903 421.61C295.137 458.057 329.176 465.382 314.914 450.96C307.519 443.454 303.564 438.344 306.316 436.074C306.633 435.814 307.142 435.694 307.845 435.783C308.166 436.816 308.123 431.16 307.934 429.366C322.597 374.869 290.352 423.553 302.79 416.901C298.646 420.676 300.633 422.632 316.123 416.553C414.059 378.101 378.365 346.796 369.662 341.43C398.894 318.939 396.423 342.798 398.031 363.138C399.387 364.64 400.108 365.617 400.273 366.203C413.297 366.253 358.847 333.712 394.803 348.213C412.902 355.518 432.816 376.208 430.852 378.158C414.941 394.266 471.416 391.451 490.454 387.703C497.424 386.325 501.613 386.983 499.712 386.521C498.62 386.266 504.96 383.39 503.791 383.433C484.713 368.578 471.701 343.386 465.057 338.566C463.692 339.012 468.491 343.589 467.878 342.98C466.621 341.707 478.236 348.881 478.238 346.183C478.285 338.1 434.883 288.939 429.934 284.414" stroke="url(#paint29_linear)" stroke-opacity="0.6" stroke-miterlimit="10"/>
<path d="M289.71 359.493C289.71 359.493 227.981 364.508 289.803 378.677C301.183 381.278 317.858 386.043 331.66 385.203C341.651 366.545 338.106 339.544 357.636 332.701C364.29 330.358 353.795 322.2 348.075 322.014C340.817 321.799 338.761 342.25 316.041 334.722C305.295 331.171 303.038 367.239 287.889 367.759C276.959 380.714 297.427 373.928 296.53 413.222C295.696 449.493 328.531 457.169 314.262 443.901C306.808 436.97 302.612 432.433 304.902 430.363C305.166 430.135 305.594 430.063 306.201 430.172C306.291 431.306 306.075 425.968 305.776 424.418C319.291 372.577 289.161 421.595 303.116 413.832C299.263 417.364 301.417 419.114 316.699 413.049C413.038 374.713 379.761 343.025 368.335 339.12C395.945 317.622 392.5 341.301 392.595 361.778C393.839 363.274 394.464 364.272 394.559 364.863C407.124 364.931 353.388 334.091 389.923 349.33C408.169 356.944 428.449 378.748 426.225 381.175C409.869 398.984 468.189 396.843 488.312 393.461C495.627 392.239 500.04 392.909 498.209 392.443C497.144 392.172 503.773 389.233 502.646 389.286C483.408 373.915 470.57 347.361 464.02 342.27C462.681 342.7 467.73 347.454 467.117 346.845C465.875 345.599 477.908 353.174 477.93 350.572C477.964 342.712 432.869 292.644 428.025 288.237" stroke="url(#paint30_linear)" stroke-opacity="0.6" stroke-miterlimit="10"/>
<path d="M292.293 358.904C292.293 358.904 232.342 362.331 295.014 374.38C306.479 376.572 323.211 380.944 336.721 379.484C346.593 359.889 342.582 332.589 362.462 325.358C369.262 322.894 358.276 314.271 352.317 313.865C344.748 313.368 342.563 334.398 319.033 326.233C307.89 322.376 305.523 359.3 289.81 359.542C278.391 371.85 298.063 366.109 297.118 404.891C296.228 440.944 327.847 449.014 313.571 436.9C306.042 430.517 301.62 426.58 303.438 424.753C303.649 424.557 303.98 424.505 304.534 424.646C304.393 425.88 304.018 420.887 303.605 419.512C315.971 370.326 287.958 419.679 303.414 410.779C299.851 414.067 302.2 415.595 317.231 409.534C411.988 371.339 381.155 339.253 366.981 336.825C392.995 316.304 388.532 339.793 387.173 360.444C388.305 361.934 388.834 362.952 388.833 363.564C400.955 363.679 347.916 334.513 385.003 350.504C403.396 358.428 424.017 381.362 421.569 384.208C404.694 403.654 464.891 402.24 486.158 399.262C493.845 398.18 498.482 398.861 496.693 398.406C495.671 398.146 502.573 395.118 501.473 395.156C482.102 379.251 469.401 351.394 462.944 346.033C461.659 346.431 466.914 351.351 466.316 350.768C465.107 349.576 477.584 357.536 477.595 354.976C477.632 347.367 430.785 296.354 426.105 292.102" stroke="url(#paint31_linear)" stroke-opacity="0.6" stroke-miterlimit="10"/>
<path d="M294.906 358.299C294.906 358.299 236.722 360.18 300.255 370.067C311.804 371.85 328.636 375.839 341.8 373.793C351.554 353.26 347.076 325.66 367.307 318.043C374.237 315.43 362.775 306.368 356.578 305.744C348.67 304.978 346.383 326.572 322.054 317.727C310.525 313.523 308.052 351.373 291.787 351.292C279.894 362.981 298.755 358.258 297.762 396.529C296.831 432.39 327.192 440.842 312.909 429.884C305.289 424.022 300.674 420.738 302.015 419.084C302.145 418.936 302.423 418.916 302.896 419.104C302.524 420.438 301.975 415.764 301.453 414.633C312.67 368.103 286.757 417.763 303.73 407.753C300.5 410.808 302.974 412.118 317.798 406.072C410.973 368.019 382.556 335.551 365.645 334.557C390.063 315.014 384.598 338.338 381.77 359.136C382.79 360.62 383.223 361.66 383.152 362.277C394.83 362.437 342.505 334.972 380.145 351.716C398.699 359.976 419.672 383.997 416.947 387.294C399.518 408.254 461.67 407.7 484.037 405.116C492.097 404.174 496.958 404.867 495.227 404.45C494.248 404.2 501.423 401.083 500.366 401.132C480.846 384.668 468.281 355.508 461.918 349.875C460.659 350.258 466.163 355.354 465.593 354.756C464.425 353.574 477.32 361.935 477.351 359.471C477.375 352.086 428.808 300.181 424.261 296.031" stroke="url(#paint32_linear)" stroke-opacity="0.6" stroke-miterlimit="10"/>
<path d="M297.49 357.709C297.49 357.709 241.085 358.002 305.467 365.771C317.073 367.16 334.016 370.724 346.85 368.117C356.502 346.674 351.584 318.758 372.139 310.77C379.172 308.024 367.272 298.466 360.826 297.664C352.606 296.615 350.19 318.788 325.078 309.291C313.152 304.782 310.541 343.503 293.768 343.112C281.401 354.182 299.451 350.476 298.409 388.236C297.411 423.922 326.524 432.714 312.277 422.921C304.555 417.622 299.578 414.768 300.595 413.485C300.628 413.358 300.852 413.369 301.272 413.59C300.67 415.024 299.946 410.667 299.315 409.781C309.383 365.906 285.585 415.901 304.103 404.764C301.164 407.576 303.805 408.679 318.431 402.606C410.009 364.668 384.052 331.828 364.377 332.285C387.173 313.734 380.733 336.878 376.392 357.813C377.3 359.291 377.62 360.325 377.469 360.99C388.715 361.153 337.061 335.378 375.296 352.886C393.997 361.455 415.337 386.59 412.335 390.338C394.281 412.817 458.373 413.097 481.953 410.912C490.358 410.126 495.47 410.815 493.782 410.408C492.803 410.159 500.32 406.948 499.263 406.996C479.583 390.015 467.165 359.51 460.896 353.606C459.68 354 465.402 359.22 464.863 358.674C463.727 357.546 477.05 366.266 477.059 363.887C477.113 356.735 426.767 303.902 422.384 299.907" stroke="url(#paint33_linear)" stroke-opacity="0.6" stroke-miterlimit="10"/>
<path d="M300.089 357.078C300.089 357.078 245.466 355.851 310.693 361.431C322.4 362.438 339.385 365.581 351.899 362.372C361.432 339.992 356.048 311.775 376.954 303.401C384.132 300.534 371.741 290.51 365.042 289.462C356.509 288.13 353.965 310.882 328.026 300.721C315.687 295.881 312.982 335.485 295.657 334.772C282.816 345.222 300.054 342.534 298.965 379.783C297.926 415.277 325.738 424.441 311.554 415.797C303.714 411.036 298.512 408.782 299.126 407.737C299.106 407.641 299.249 407.7 299.572 407.941C298.739 409.475 297.842 405.437 297.086 404.769C306.005 363.549 284.323 413.878 304.341 401.604C301.709 404.199 304.53 405.053 318.92 399.011C408.917 361.215 385.377 327.992 362.99 329.868C384.175 312.267 376.749 335.274 370.939 356.357C371.735 357.829 371.959 358.884 371.738 359.553C382.54 359.763 331.611 335.645 370.372 353.922C389.219 362.8 410.926 389.049 407.647 393.248C388.98 417.203 455.043 418.371 479.766 416.59C488.544 415.945 493.88 416.645 492.235 416.249C491.298 416.011 499.088 412.71 498.085 412.727C478.271 395.213 466.002 363.362 459.826 357.188C458.664 357.549 464.607 362.962 464.069 362.417C462.991 361.326 476.732 370.446 476.745 368.137C476.786 361.209 424.72 307.484 420.469 303.591" stroke="url(#paint34_linear)" stroke-opacity="0.6" stroke-miterlimit="10"/>
<path d="M302.669 356.488C302.669 356.488 249.802 353.759 315.901 357.135C327.665 357.748 344.777 360.493 356.945 356.696C366.387 333.364 360.51 304.862 381.794 296.085C389.101 293.07 376.261 282.591 369.297 281.34C360.468 279.751 357.779 303.057 331.058 292.243C318.322 287.097 315.522 327.584 297.618 326.565C284.276 336.411 300.757 334.71 299.593 371.464C298.47 406.755 323.397 418.699 310.903 408.808C302.305 406.075 297.544 402.914 297.713 402.095C297.596 402.02 297.686 402.111 297.956 402.384C296.892 404.018 295.821 400.298 294.982 399.858C302.753 361.294 283.186 411.957 304.706 398.546C302.364 400.898 305.337 401.518 319.519 395.491C407.918 357.81 386.822 324.188 361.702 327.568C381.291 310.945 372.848 333.761 365.584 355.017C366.268 356.484 366.422 357.544 366.106 358.234C376.464 358.489 326.233 336.046 365.573 355.06C384.566 364.247 406.614 391.626 403.085 396.26C383.746 421.654 451.812 423.762 477.705 422.371C486.828 421.881 492.415 422.577 490.812 422.192C489.918 421.964 497.966 418.548 497.021 418.602C477.032 400.545 464.925 367.375 458.859 360.956C457.724 361.302 463.927 366.849 463.404 366.33C462.343 365.266 476.528 374.772 476.519 372.547C476.547 365.843 422.76 311.227 418.657 307.462" stroke="url(#paint35_linear)" stroke-opacity="0.6" stroke-miterlimit="10"/>
<path d="M305.284 355.883C305.284 355.883 254.2 351.635 321.128 352.795C332.976 352.999 350.173 355.335 362.021 350.935C371.361 326.692 365.001 297.864 386.636 288.7C394.046 285.552 380.784 274.603 373.555 273.149C364.414 271.277 361.596 295.161 334.049 283.684C320.9 278.206 318.006 319.576 299.566 318.262C285.75 327.489 301.419 326.806 300.207 363.048C299.06 398.174 322.748 410.597 310.211 401.738C301.543 399.622 296.526 397.008 296.233 396.389C296.063 396.346 296.072 396.484 296.245 396.778C294.924 398.527 293.732 395.095 292.757 394.915C299.379 359.006 281.913 409.977 304.965 395.482C302.941 397.575 306.054 398.004 320.013 391.965C406.83 354.426 388.151 320.422 360.294 325.236C378.26 309.606 368.842 332.241 360.082 353.662C360.654 355.122 360.712 356.203 360.298 356.914C370.214 357.215 320.707 336.43 360.588 356.239C379.728 365.736 402.143 394.228 398.337 399.314C378.353 426.131 448.379 429.169 475.443 428.165C484.911 427.831 490.749 428.524 489.232 428.16C488.353 427.959 496.701 424.438 495.783 424.476C475.661 405.886 463.69 371.413 457.702 364.697C456.609 365.053 463.046 370.75 462.523 370.232C461.493 369.221 476.122 379.112 476.118 376.957C476.149 370.502 420.611 314.942 416.656 311.305" stroke="url(#paint36_linear)" stroke-opacity="0.6" stroke-miterlimit="10"/>
<path d="M307.894 355.278C307.894 355.278 258.608 349.537 326.339 348.498C338.287 348.319 355.552 350.219 367.071 345.26C376.292 320.08 369.465 290.951 391.467 281.427C399.023 278.157 385.284 266.77 377.786 265.043C368.349 262.914 365.36 287.367 337.056 275.221C323.521 269.396 320.494 311.707 301.529 310.055C287.24 318.662 302.098 318.997 300.837 354.729C299.607 389.652 322.116 402.591 309.562 394.748C300.839 393.276 295.561 391.139 294.839 390.774C294.588 390.778 294.528 390.922 294.647 391.247C293.096 393.097 291.745 390.009 290.629 390.02C296.102 356.766 280.752 408.072 305.332 392.424C303.615 394.3 306.88 394.496 320.657 388.456C405.893 351.058 389.657 316.656 359.036 322.921C375.407 308.268 364.986 330.739 354.741 352.28C355.201 353.735 355.147 354.81 354.68 355.552C364.136 355.873 315.342 336.789 355.777 357.351C375.062 367.156 397.829 396.736 393.762 402.299C373.09 430.529 445.092 434.523 473.369 433.919C483.194 433.698 489.245 434.444 487.796 434.076C486.945 433.859 495.609 430.259 494.706 430.324C474.451 411.202 462.628 375.383 456.706 368.412C455.64 368.753 462.311 374.599 461.819 374.134C460.831 373.135 475.852 383.442 475.879 381.34C475.896 375.109 418.665 318.642 414.831 315.149" stroke="url(#paint37_linear)" stroke-opacity="0.6" stroke-miterlimit="10"/>
<path d="M310.464 354.662C310.464 354.662 262.95 347.445 331.536 344.175C343.542 343.603 360.907 345.119 372.106 339.557C381.209 313.44 373.958 284.023 396.296 274.085C403.981 270.667 389.794 258.825 382.031 256.895C372.282 254.482 369.164 279.515 340.077 266.716C326.145 260.585 323.007 303.752 303.506 301.805C288.727 309.767 302.789 311.146 301.481 346.367C300.183 381.114 321.496 394.542 308.927 387.715C300.149 386.887 294.616 385.116 293.442 385.09C293.121 385.099 292.996 385.316 293.019 385.662C291.237 387.612 289.713 384.844 288.515 385.083C292.823 354.458 279.604 406.125 305.686 389.339C304.259 390.972 307.719 390.945 321.245 384.91C404.899 347.653 391.08 312.868 357.721 320.568C372.496 306.892 361.101 329.183 349.359 350.888C349.707 352.337 349.557 353.432 348.994 354.196C358.033 354.546 309.937 337.136 350.924 358.451C370.356 368.566 393.49 399.26 389.146 405.274C367.76 434.931 441.792 439.85 471.255 439.661C481.425 439.597 487.726 440.339 486.321 439.981C485.512 439.775 494.449 436.086 493.573 436.135C473.142 416.469 461.483 379.332 455.654 372.089C454.642 372.398 461.535 378.438 461.07 377.957C460.114 377.011 475.563 387.677 475.583 385.686C475.63 379.69 416.62 322.293 412.908 318.945" stroke="url(#paint38_linear)" stroke-opacity="0.6" stroke-miterlimit="10"/>
<path d="M313.074 354.056C313.074 354.056 267.374 345.373 336.774 339.862C348.881 338.907 366.314 339.988 377.167 333.839C386.194 306.795 378.434 277.067 401.123 266.742C408.938 263.175 394.301 250.88 386.274 248.746C376.229 246.076 372.966 271.662 343.053 258.199C328.708 251.737 325.476 295.787 305.439 293.545C290.159 300.903 303.436 303.284 302.08 337.994C300.741 372.549 320.816 386.456 308.22 380.688C299.372 380.477 293.555 379.268 291.962 379.453C291.588 379.494 291.383 379.759 291.336 380.11C289.324 382.16 287.625 379.709 286.318 380.193C289.477 352.223 278.374 404.224 305.972 386.329C304.837 387.718 308.464 387.484 321.782 381.464C403.854 344.349 392.479 309.166 356.383 318.3C369.535 305.617 357.149 327.701 343.927 349.596C344.163 351.039 343.916 352.155 343.284 352.924C351.879 353.32 304.508 337.568 346.021 359.652C365.626 370.06 389.1 401.884 384.506 408.333C362.417 439.376 438.44 445.278 469.116 445.488C479.616 445.553 486.184 446.318 484.837 445.997C484.07 445.802 493.281 442.024 492.474 442.068C471.91 421.87 460.371 383.402 454.679 375.9C453.71 376.22 460.82 382.383 460.371 381.928C459.473 381.019 475.339 392.086 475.349 390.139C475.383 384.366 414.653 326.078 411.088 322.858" stroke="url(#paint39_linear)" stroke-opacity="0.6" stroke-miterlimit="10"/>
<path d="M315.659 353.467C315.659 353.467 271.773 343.319 341.987 335.566C354.151 334.217 371.711 334.899 382.218 328.163C391.127 300.183 382.9 270.154 405.955 259.469C413.889 255.797 398.814 243.004 390.506 240.64C380.165 237.714 376.742 263.825 346.062 249.736C331.304 242.942 327.966 287.918 307.377 285.354C291.623 292.092 304.089 295.492 302.685 329.69C301.279 364.07 320.158 378.466 307.53 373.688C298.627 374.12 292.522 373.405 290.511 373.801C290.056 373.889 289.781 374.159 289.67 374.584C287.427 376.734 285.554 374.602 284.122 375.304C286.132 349.989 277.129 402.298 306.245 383.292C305.442 384.448 309.195 383.997 322.288 377.965C402.753 341.008 393.805 305.399 355.003 316.022C366.544 304.289 353.172 326.236 338.464 348.251C338.588 349.688 338.229 350.799 337.516 351.615C345.668 352.057 299.022 337.964 341.087 360.8C360.838 371.518 384.68 404.455 379.798 411.398C357.022 443.854 435.02 450.711 466.936 451.306C477.808 451.51 484.6 452.287 483.296 451.977C482.545 451.809 492.055 447.926 491.276 447.954C470.535 427.212 459.187 387.409 453.562 379.652C452.619 379.956 459.978 386.296 459.545 385.868C458.663 384.986 474.973 396.438 474.977 394.602C474.997 389.052 412.531 329.847 409.115 326.755" stroke="url(#paint40_linear)" stroke-opacity="0.6" stroke-miterlimit="10"/>
<path d="M318.269 352.862C318.269 352.862 276.172 341.264 347.226 331.253C359.489 329.522 377.119 329.768 387.322 322.456C396.112 293.538 387.419 263.209 410.852 252.122C418.915 248.301 403.408 235.08 394.819 232.487C384.208 229.287 380.614 255.968 349.135 241.199C333.98 234.1 330.532 279.932 309.391 277.046C293.163 283.165 304.818 287.582 303.349 321.243C301.902 355.431 319.56 370.332 306.916 366.57C297.958 367.646 291.581 367.452 289.108 368.047C288.573 368.183 288.244 368.485 288.064 368.915C285.59 371.165 283.543 369.352 282.001 370.297C282.863 347.638 275.948 400.297 306.635 380.149C306.123 381.062 310.043 380.404 322.955 374.371C401.838 337.555 395.334 301.548 353.768 313.622C363.713 302.866 349.339 324.648 333.162 346.811C333.174 348.243 332.746 349.358 331.936 350.195C339.629 350.656 293.723 338.248 336.33 361.88C356.227 372.907 380.421 406.931 375.304 414.336C351.782 448.166 431.799 455.991 464.928 456.985C476.129 457.318 483.188 458.117 481.926 457.819C481.202 457.635 491.028 453.673 490.249 453.701C469.375 432.426 458.148 391.294 452.616 383.266C451.727 383.538 459.292 390.044 458.902 389.627C458.078 388.782 474.79 400.609 474.798 398.842C474.822 393.542 410.62 333.419 407.352 330.456" stroke="url(#paint41_linear)" stroke-opacity="0.6" stroke-miterlimit="10"/>
<path d="M320.854 352.273C320.854 352.273 280.586 339.236 352.438 326.956C364.775 324.858 382.473 324.669 392.357 316.754C401.045 286.926 391.869 256.27 415.653 244.795C423.846 240.826 407.89 227.152 399.036 224.354C388.129 220.898 384.39 248.131 352.101 232.726C336.533 225.295 332.99 272.01 311.313 268.828C294.611 274.328 305.455 279.763 303.966 312.897C302.435 346.882 318.886 362.315 306.253 359.554C297.224 361.247 290.617 361.584 287.7 362.405C287.111 362.573 286.76 362.96 286.424 363.373C284.18 366.135 281.499 364.229 279.874 365.402C279.587 345.399 274.789 398.392 306.976 377.107C306.772 377.803 310.87 376.896 323.531 370.867C400.832 334.193 396.746 297.804 352.442 311.312C360.792 301.533 345.4 323.124 327.742 345.477C327.642 346.903 327.117 348.039 326.227 348.924C333.476 349.431 288.279 338.654 331.428 363.081C351.487 374.444 376.032 409.556 370.639 417.411C346.414 452.627 428.449 461.419 462.764 462.828C474.31 463.318 481.62 464.113 480.401 463.825C479.719 463.652 489.819 459.601 489.082 459.64C468.048 437.848 456.984 395.397 451.53 387.071C450.668 387.328 458.494 393.967 458.092 393.593C457.284 392.775 474.456 405.014 474.469 403.316C474.506 398.224 408.557 337.225 405.421 334.364" stroke="url(#paint42_linear)" stroke-opacity="0.6" stroke-miterlimit="10"/>
<path d="M323.449 351.641C323.449 351.641 285.027 337.192 357.661 322.617C370.098 320.136 387.88 319.537 397.417 311.035C406.014 280.254 396.345 249.314 420.48 237.453C428.792 233.378 412.413 219.233 403.279 216.206C392.06 212.466 388.165 240.294 355.104 224.194C339.123 216.431 335.501 264.055 313.273 260.552C296.097 265.432 306.129 271.885 304.592 304.508C302.994 338.318 318.249 354.24 305.573 352.511C296.49 354.847 289.61 355.704 286.258 356.71C285.589 356.925 285.168 357.317 284.752 357.778C282.177 360.592 279.438 359.079 277.673 360.443C276.237 343.095 273.554 396.423 307.243 374C307.329 374.453 311.579 373.313 324.048 367.325C399.768 330.793 398.124 294.005 351.056 308.964C357.783 300.178 341.417 321.589 322.274 344.063C322.061 345.483 321.441 346.64 320.481 347.53C327.314 348.067 282.814 338.964 326.515 364.144C346.748 375.8 371.633 412.041 365.963 420.348C341.008 456.966 425.045 466.698 460.589 468.533C472.465 469.152 480.015 469.985 478.881 469.719C478.242 469.557 488.615 465.417 487.905 465.44C466.722 443.089 455.821 399.319 450.476 390.748C449.657 391.016 457.716 397.806 457.314 397.431C456.537 396.667 474.139 409.264 474.129 407.651C474.169 402.809 406.495 340.85 403.496 338.159" stroke="url(#paint43_linear)" stroke-opacity="0.6" stroke-miterlimit="10"/>
<path d="M326.033 351.052C326.033 351.052 289.441 335.164 362.857 318.294C375.378 315.404 393.245 314.395 402.436 305.306C410.914 273.588 400.795 242.375 425.281 230.127C433.722 225.903 416.894 211.304 407.48 208.046C395.965 204.05 391.91 232.404 358.081 215.678C341.687 207.583 337.944 256.106 315.206 252.292C297.529 256.569 306.761 263.997 305.191 296.136C303.553 329.753 317.57 346.154 304.894 345.468C295.756 348.448 288.588 349.798 284.806 351.058C284.083 351.305 283.582 351.744 283.097 352.21C280.232 355.086 277.378 353.929 275.503 355.538C272.919 340.845 272.336 394.48 307.584 370.958C307.988 371.152 312.379 369.82 324.65 363.806C398.788 327.415 399.562 290.245 349.799 306.649C354.931 298.84 337.562 320.087 316.922 342.724C316.571 344.154 315.865 345.29 314.852 346.211C321.225 346.767 277.493 339.333 321.693 365.298C342.072 377.264 367.309 414.592 361.377 423.376C335.703 461.353 421.733 472.068 458.505 474.329C470.737 475.062 478.527 475.933 477.463 475.662C476.824 475.499 487.512 471.281 486.871 471.3C465.556 448.415 454.775 403.316 449.524 394.474C448.732 394.726 457.024 401.666 456.68 401.329C455.962 400.602 473.965 413.573 473.976 412.057C474.003 407.438 404.609 344.587 401.742 341.999" stroke="url(#paint44_linear)" stroke-opacity="0.6" stroke-miterlimit="10"/>
<path d="M328.645 350.446C328.645 350.446 293.926 333.13 368.07 313.997C380.692 310.724 398.6 309.295 407.488 299.63C415.864 267.002 405.288 235.446 430.125 222.811C438.696 218.439 421.435 203.412 411.74 199.924C399.929 195.671 395.729 224.578 361.091 207.215C344.326 198.799 340.462 248.221 317.145 244.101C298.979 247.731 307.415 256.204 305.797 287.832C304.075 321.246 316.669 335.97 304.22 338.493C294.527 340.471 287.615 343.972 283.372 345.432C282.568 345.726 281.971 346.186 281.431 346.684C278.305 349.607 275.334 348.806 273.351 350.659C269.617 338.621 271.15 392.591 307.9 367.932C308.61 367.908 313.153 366.344 325.216 360.344C397.772 324.095 400.974 286.499 348.462 304.381C351.998 297.549 333.628 318.632 311.519 341.417C311.056 342.84 310.254 343.997 309.144 344.939C315.074 345.541 272.066 339.766 316.819 366.483C337.343 378.758 362.948 417.2 356.739 426.436C330.32 465.787 418.356 477.512 456.368 480.156C468.946 481.045 476.987 481.912 475.965 481.652C475.369 481.5 486.357 477.177 485.716 477.195C464.24 453.794 453.608 407.349 448.45 398.236C447.711 398.456 456.226 405.589 455.882 405.252C455.18 404.552 473.616 417.951 473.615 416.477C473.629 412.082 402.499 348.313 399.797 345.879" stroke="url(#paint45_linear)" stroke-opacity="0.6" stroke-miterlimit="10"/>
<path d="M331.257 349.841C331.257 349.841 298.383 331.112 373.31 309.684C386.005 306.044 404.024 304.19 412.593 293.923C420.85 260.357 409.808 228.501 434.996 215.479C443.686 211.002 425.96 195.493 416.027 191.786C403.919 187.277 399.575 216.736 364.138 198.693C346.96 189.945 343.423 236.118 319.148 235.835C300.28 235.636 308.133 248.337 306.467 279.454C304.678 312.693 315.946 328.054 303.611 331.445C293.771 334.156 286.663 338.061 282.001 339.732C281.128 340.031 280.45 340.539 279.857 341.068C276.457 344.08 273.356 343.608 271.247 345.679C266.364 336.296 262.385 369.137 308.264 364.804C309.29 364.703 314.002 362.75 325.814 356.754C396.763 320.664 402.408 282.669 347.159 301.986C349.057 296.12 329.711 317.023 306.148 339.981C305.573 341.4 304.674 342.577 303.495 343.524C308.982 344.172 266.699 340.055 311.993 367.567C332.691 380.136 358.636 419.708 352.15 429.394C325.012 470.104 415.04 482.812 454.28 485.883C467.188 486.9 475.495 487.79 474.516 487.541C473.962 487.4 485.208 482.961 484.61 482.99C462.985 459.03 452.515 411.265 447.425 401.898C446.728 402.129 455.46 409.385 455.133 409.075C454.488 408.412 473.326 422.185 473.346 420.807C473.363 416.662 400.497 351.975 397.927 349.643" stroke="url(#paint46_linear)" stroke-opacity="0.6" stroke-miterlimit="10"/>
<path d="M333.825 349.225C333.825 349.225 302.84 329.095 378.506 305.361C391.301 301.338 409.389 299.049 417.611 288.194C425.777 253.675 414.242 221.535 439.781 208.126C448.6 203.5 430.441 187.564 420.212 183.601C407.835 178.818 403.304 208.82 367.098 190.151C349.508 181.071 345.906 228.36 321.066 227.549C301.834 226.917 308.738 240.465 307.051 271.054C305.221 304.101 315.153 320.143 302.889 324.391C292.93 327.82 285.641 332.155 280.507 334.068C279.553 334.415 278.821 334.955 278.148 335.531C274.486 338.59 271.241 338.49 269.023 340.805C262.992 334.078 262.089 373.914 308.524 361.81C309.868 361.449 314.721 359.306 326.309 353.298C395.692 317.376 403.765 278.956 345.751 299.723C346.053 294.834 325.706 315.573 300.631 338.668C299.944 340.081 298.96 341.236 297.674 342.247C302.716 342.94 261.185 340.466 306.978 368.763C327.822 381.641 354.119 422.3 347.388 432.491C319.503 474.576 411.55 488.251 452.03 491.705C465.294 492.836 473.841 493.764 472.92 493.552C472.409 493.422 483.928 488.894 483.373 488.934C461.588 464.456 451.281 415.373 446.311 405.719C445.642 405.934 454.623 413.367 454.322 413.041C453.709 412.431 472.992 426.59 473 425.254C473.031 421.317 398.402 355.728 395.996 353.551" stroke="url(#paint47_linear)" stroke-opacity="0.6" stroke-miterlimit="10"/>
<path d="M336.438 348.62C336.438 348.62 307.325 327.062 383.746 301.048C396.641 296.643 414.798 293.917 422.69 282.502C430.753 247.073 418.736 214.606 444.668 200.822C453.617 196.047 435.025 179.683 424.515 175.49C411.858 170.477 407.166 201.005 370.135 181.672C352.132 172.26 348.454 220.71 323.043 219.299C303.405 218.224 309.43 232.614 307.695 262.692C305.798 295.563 314.447 312.254 302.254 317.359C292.207 321.559 284.663 326.26 279.11 328.384C278.103 328.763 277.275 329.323 276.548 329.931C272.613 333.079 269.236 333.309 266.909 335.868C259.713 331.769 262.007 375.797 308.905 358.709C310.566 358.089 315.561 355.755 326.967 349.747C394.768 313.966 405.258 275.164 344.534 297.349C343.24 293.438 317.552 309.847 295.347 337.255C294.341 338.496 293.467 339.838 292.111 340.853C296.722 341.55 255.904 340.777 302.249 369.827C323.282 383.025 349.877 424.802 342.895 435.429C314.266 478.888 408.33 493.531 450.039 497.411C463.633 498.671 472.447 499.622 471.568 499.421C471.057 499.291 482.892 494.684 482.363 494.708C460.445 469.698 450.26 419.285 445.383 409.36C444.74 409.559 453.955 417.142 453.685 416.869C453.088 416.286 472.815 430.83 472.817 429.606C472.85 425.919 396.486 359.412 394.212 357.337" stroke="url(#paint48_linear)" stroke-opacity="0.6" stroke-miterlimit="10"/>
<path d="M339.02 348.03C339.02 348.03 311.796 325.071 388.957 296.751C401.952 291.964 422.375 289.951 427.739 276.827C441.867 242.352 423.199 207.693 449.483 193.522C458.55 188.641 439.52 171.781 428.746 167.384C415.792 162.114 410.94 193.168 373.142 173.209C354.741 163.492 350.982 213.032 324.979 211.108C304.95 209.616 310.081 224.821 308.298 254.388C306.317 287.057 313.715 304.449 301.578 310.385C291.442 315.356 283.686 320.434 277.672 322.758C276.584 323.184 275.703 323.776 274.879 324.406C270.698 327.627 267.179 328.228 264.738 330.962C256.393 329.519 261.705 376.333 309.217 355.683C311.196 354.803 316.332 352.278 327.514 346.258C393.749 310.646 406.667 271.419 343.194 295.082C340.278 292.163 314.061 308.596 289.94 335.948C288.838 337.209 287.852 338.546 286.4 339.582C290.567 340.325 250.485 341.167 297.345 371.028C318.524 384.535 345.486 427.427 338.228 438.504C308.852 483.338 404.908 498.964 447.873 503.254C461.796 504.644 470.85 505.633 470.041 505.427C469.572 505.307 481.707 500.596 481.221 500.631C459.154 475.061 449.105 423.345 444.322 413.149C443.748 413.343 453.169 421.092 452.9 420.819C452.361 420.274 472.49 435.192 472.496 434.037C472.517 430.573 394.432 363.175 392.306 361.228" stroke="url(#paint49_linear)" stroke-opacity="0.6" stroke-miterlimit="10"/>
<path d="M341.633 347.425C341.633 347.425 316.324 323.049 394.197 292.439C407.308 287.295 427.636 284.691 432.801 271.109C446.392 235.476 427.693 200.765 454.312 186.18C463.509 181.151 444.045 163.863 432.975 159.209C419.725 153.682 414.701 185.305 376.147 164.677C357.333 154.629 353.471 205.344 326.94 202.832C306.478 200.912 310.741 216.917 308.926 246C306.877 278.493 313.035 296.544 300.927 303.326C290.73 309.053 282.692 314.512 276.249 317.09C275.107 317.548 274.129 318.16 273.252 318.822C268.824 322.116 265.147 323.062 262.596 326.041C253.103 327.253 261.244 376.103 309.544 352.614C311.83 351.518 317.143 348.744 328.091 342.755C392.76 307.31 408.063 267.647 341.869 292.772C337.357 290.83 310.585 307.303 284.505 334.587C283.318 335.827 282.209 337.2 280.687 338.241C284.41 339.03 245.08 341.514 292.481 372.171C313.834 385.972 341.12 429.966 333.601 441.521C303.506 487.715 401.554 504.323 445.747 509.039C460 510.558 469.321 511.57 468.57 511.401C468.144 511.293 480.552 506.492 480.092 506.511C457.865 480.424 447.991 427.347 443.274 416.896C442.728 417.074 452.409 424.957 452.155 424.711C451.632 424.193 472.221 439.522 472.232 438.437C472.24 435.196 392.446 366.865 390.441 365.062" stroke="url(#paint50_linear)" stroke-opacity="0.6" stroke-miterlimit="10"/>
<path d="M344.201 346.809C344.201 346.809 320.781 321.031 399.393 288.115C412.604 282.589 432.88 279.404 437.836 265.406C450.889 228.616 432.142 193.824 459.113 178.853C468.439 173.676 448.543 155.96 437.192 151.075C423.645 145.292 418.477 177.468 379.097 156.176C359.871 145.796 355.917 197.644 328.847 194.587C307.951 192.24 311.362 209.071 309.499 237.642C307.394 269.917 312.328 288.654 300.194 296.314C289.936 302.796 281.659 308.648 274.754 311.426C273.532 311.931 272.485 312.549 271.527 313.258C266.853 316.626 263.017 317.917 260.357 321.14C249.715 325.007 260.6 375.439 309.773 349.566C312.35 348.226 317.831 345.245 328.554 339.244C391.642 303.942 409.389 263.88 340.43 290.455C334.361 289.432 307.022 305.988 279.08 333.183C277.796 334.444 276.56 335.785 274.958 336.873C278.221 337.681 239.631 341.85 287.559 373.276C309.057 387.386 336.711 432.494 328.941 444.485C298.101 492.052 398.152 509.601 443.589 514.771C458.214 516.429 467.759 517.452 467.05 517.295C466.64 517.213 479.348 512.307 478.916 512.31C456.556 485.691 446.802 431.284 442.195 420.588C441.675 420.751 451.605 428.811 451.351 428.565C450.887 428.084 471.877 443.788 471.866 442.788C471.876 439.797 390.346 370.547 388.49 368.873" stroke="url(#paint51_linear)" stroke-opacity="0.6" stroke-miterlimit="10"/>
<path d="M346.815 346.204C346.815 346.204 325.325 319.035 404.592 283.791C417.903 277.883 438.088 274.176 442.884 259.661C455.415 221.741 436.601 186.773 463.97 171.494C473.399 166.185 453.081 147.999 441.465 142.911C427.622 136.871 422.294 169.573 382.146 147.655C362.507 136.943 358.461 189.924 330.852 186.322C309.508 183.52 312.083 201.204 310.155 229.238C307.983 261.336 311.715 280.675 299.556 289.213C289.263 296.434 280.678 302.684 273.343 305.715C272.067 306.252 270.939 306.917 269.912 307.631C264.981 311.115 260.998 312.709 258.239 316.134C246.449 322.656 261.771 377.483 310.167 346.423C312.95 344.637 318.683 341.652 329.224 335.65C390.719 300.532 410.894 260.045 339.198 288.055C331.479 288.041 303.477 304.7 273.7 331.791C272.331 333.03 270.972 334.407 269.3 335.501C272.12 336.355 234.282 342.166 282.735 374.36C304.406 388.764 332.385 434.975 324.354 447.443C292.753 496.359 394.81 514.918 441.503 520.497C456.458 522.285 466.269 523.331 465.63 523.168C465.247 523.071 478.244 518.102 477.854 518.116C455.318 490.954 445.743 435.254 441.241 424.245C440.775 424.376 450.911 432.602 450.689 432.409C450.256 431.981 471.675 448.044 471.685 447.14C471.708 444.357 388.416 374.205 386.708 372.659" stroke="url(#paint52_linear)" stroke-opacity="0.6" stroke-miterlimit="10"/>
<path d="M349.426 345.598C349.426 345.598 329.851 317.013 409.831 279.479C423.242 273.187 443.363 268.943 447.961 253.969C459.943 214.935 441.094 179.844 468.813 164.179C478.372 158.721 457.62 140.107 445.724 134.789C431.612 128.477 426.112 161.747 385.165 139.15C365.113 128.106 360.948 182.236 332.828 178.072C311.023 174.859 312.746 193.369 310.798 220.876C308.558 252.798 311.103 272.765 298.919 282.18C288.592 290.141 279.714 296.816 271.945 300.031C270.573 300.589 269.391 301.286 268.283 302.047C263.106 305.604 259.483 307.993 256.097 311.212C244.601 322.164 260.764 375.775 310.492 343.354C313.582 341.351 319.372 337.973 329.784 332.119C390.311 298.183 415.576 266.633 337.882 285.702C328.779 287.943 299.93 303.412 268.275 330.388C266.81 331.648 265.365 333.003 263.57 334.134C265.974 335.017 228.859 342.487 277.812 375.466C299.634 390.248 327.98 437.573 319.672 450.492C287.325 500.783 391.401 520.308 439.307 526.287C454.591 528.204 464.669 529.273 464.073 529.121C463.732 529.034 477.029 523.961 476.639 523.975C453.97 496.279 444.542 439.234 440.107 427.97C439.684 428.112 450.053 436.488 449.858 436.279C449.441 435.878 471.293 452.369 471.291 451.506C471.318 448.974 386.289 377.904 384.729 376.486" stroke="url(#paint53_linear)" stroke-opacity="0.6" stroke-miterlimit="10"/>
<path d="M352.008 345.009C352.008 345.009 334.365 315.033 415.041 275.182C428.552 268.508 448.583 263.742 453.01 248.294C464.459 208.171 445.573 172.958 473.628 156.879C483.332 151.299 462.131 132.231 449.939 126.657C435.546 120.114 429.87 153.883 388.129 130.676C367.691 119.284 363.381 174.579 334.706 169.844C312.452 166.176 313.323 185.512 311.342 212.535C309.019 244.255 310.42 264.86 298.184 275.169C287.865 283.88 278.679 290.952 270.449 294.368C269.023 294.957 267.761 295.702 266.584 296.468C261.159 300.098 257.288 302.741 253.883 306.296C241.161 319.588 259.643 374.062 310.746 340.29C314.127 338.044 320.112 334.443 330.288 328.62C389.218 294.799 416.38 260.512 336.5 283.424C325.819 286.487 296.262 302.229 262.826 329.07C261.248 330.324 259.692 331.673 257.843 332.835C259.803 333.765 223.44 342.877 272.892 376.64C294.898 391.673 323.569 440.102 314.984 453.472C281.891 505.137 387.985 525.63 437.147 532.019C452.761 534.065 463.105 535.156 462.567 535.042C462.269 534.966 475.839 529.803 475.519 529.812C452.717 501.584 443.41 443.21 439.068 431.674C438.672 431.8 449.275 440.326 449.095 440.144C448.736 439.781 470.99 456.645 471.009 455.879C471.022 453.57 384.257 381.582 382.846 380.293" stroke="url(#paint54_linear)" stroke-opacity="0.6" stroke-miterlimit="10"/>
<path d="M354.606 344.377C354.606 344.377 338.904 312.967 420.266 270.842C433.878 263.785 453.833 258.524 458.057 242.548C468.973 201.338 450.036 165.975 478.468 149.494C488.275 143.782 466.652 124.243 454.195 118.465C439.506 111.666 433.686 145.988 391.146 122.101C370.311 110.404 365.85 166.794 336.679 161.525C313.949 157.418 314.01 177.591 311.982 204.103C309.591 235.647 309.833 256.864 297.518 268.083C287.191 277.518 277.67 285.003 269.01 288.672C267.504 289.309 266.172 290.059 264.93 290.899C259.275 294.63 255.167 297.484 251.699 301.363C237.714 317.055 258.521 372.279 311.046 337.237C314.734 334.774 320.965 331.099 330.823 325.105C387.62 290.492 417.272 255.024 335.133 281.102C322.846 285.004 292.566 300.993 257.391 327.709C255.718 328.983 254.049 330.327 252.131 331.494C253.632 332.443 218.036 343.224 268.029 377.783C290.208 393.109 319.204 442.641 310.358 456.488C276.53 509.486 384.589 530.978 435.022 537.804C450.992 539.963 461.55 541.108 461.081 540.989C460.783 540.913 474.669 535.672 474.376 535.666C451.397 506.894 442.254 447.2 438.021 435.421C437.652 435.531 448.504 444.233 448.324 444.051C447.981 443.715 470.695 460.991 470.703 460.268C470.703 458.182 382.218 385.303 380.955 384.142" stroke="url(#paint55_linear)" stroke-opacity="0.6" stroke-miterlimit="10"/>
<path d="M357.189 343.788C357.189 343.788 343.418 310.988 425.477 266.546C439.189 259.106 459.069 253.35 463.107 236.873C473.478 194.617 454.5 159.063 483.299 142.221C493.236 136.361 471.207 116.379 458.442 110.386C443.457 103.33 437.476 138.178 394.169 113.665C372.921 101.637 368.325 159.149 338.658 153.345C315.453 148.8 314.704 169.81 312.628 195.811C310.154 227.152 309.279 248.992 296.885 261.12C286.535 271.252 276.721 279.162 267.616 283.058C266.055 283.726 264.643 284.523 263.332 285.369C257.431 289.173 253.106 292.335 249.614 296.48C234.327 314.629 257.481 370.519 311.456 334.19C315.477 331.495 321.833 327.602 331.494 321.581C386.725 287.136 418.397 249.938 333.901 278.772C320.01 283.513 289.007 299.748 252.05 326.327C250.292 327.58 248.499 328.961 246.485 330.149C247.542 331.144 212.698 343.567 263.19 378.91C285.516 394.546 314.879 445.191 305.772 459.517C271.198 513.889 381.275 536.348 432.937 543.6C449.237 545.889 460.061 547.057 459.635 546.948C459.379 546.883 473.523 541.526 473.272 541.53C450.161 512.226 441.164 451.187 437.026 439.136C436.725 439.241 447.768 448.083 447.647 447.939C447.362 447.639 470.478 465.29 470.479 464.678C470.482 462.842 380.288 389.03 379.13 387.987" stroke="url(#paint56_linear)" stroke-opacity="0.6" stroke-miterlimit="10"/>
<path d="M359.801 343.182C359.801 343.182 347.973 308.949 430.717 262.233C444.545 254.438 464.335 248.159 468.212 231.165C478.066 187.848 459.036 152.145 488.171 134.889C498.253 128.907 475.775 108.471 462.714 102.222C447.433 94.9088 441.307 130.309 397.189 105.16C375.529 92.7993 370.799 151.434 340.635 145.095C316.912 140.101 315.354 161.948 313.272 187.448C310.73 218.614 308.707 241.023 296.25 254.088C285.892 264.943 275.758 273.293 266.219 277.373C264.578 278.089 263.096 278.891 261.704 279.784C255.557 283.661 251.015 287.131 247.472 291.558C230.842 312.154 256.369 368.694 311.756 331.137C316.068 328.198 322.607 324.126 332.044 318.092C385.725 283.842 419.446 245.148 332.549 276.477C317.026 282.072 285.3 298.555 246.631 324.993C244.776 326.267 242.872 327.642 240.788 328.835C241.429 329.859 207.294 343.915 258.327 380.053C280.841 396.009 310.514 447.73 301.145 462.533C265.81 518.254 377.895 541.723 430.811 549.385C447.441 551.803 458.532 552.993 458.149 552.895C457.936 552.841 472.379 547.379 472.144 547.41C448.872 517.589 440.04 455.231 435.978 442.882C435.705 442.972 446.997 451.99 446.876 451.846C446.622 451.6 470.167 469.609 470.173 469.067C470.19 467.438 378.233 392.723 377.238 391.836" stroke="url(#paint57_linear)" stroke-opacity="0.6" stroke-miterlimit="10"/>
<path d="M362.384 342.593C362.384 342.593 351.675 305.471 435.928 257.937C449.997 249.998 469.571 242.985 473.246 225.463C482.571 181.127 463.485 145.205 492.97 127.563C503.156 121.448 480.271 100.568 466.929 94.0892C451.368 86.5462 445.039 122.462 400.165 96.6436C378.091 83.9515 373.227 143.708 342.567 136.835C318.368 131.402 316 154.086 313.897 179.06C311.272 210.023 308.117 233.028 295.596 247.029C285.231 258.608 274.789 267.356 264.793 271.705C263.098 272.453 261.536 273.302 260.075 274.2C253.697 278.178 248.949 281.912 245.313 286.61C227.439 309.702 255.282 366.853 312.107 328.052C316.726 324.897 323.444 320.575 332.63 314.546C384.745 280.465 420.572 240.492 331.275 274.135C314.12 280.585 281.655 297.288 241.263 323.628C239.296 324.896 237.28 326.264 235.116 327.505C235.297 328.549 201.929 344.273 253.461 381.196C276.149 397.446 306.161 450.297 296.516 465.551C260.435 522.646 374.522 547.055 428.668 555.143C445.654 557.675 456.985 558.903 456.66 558.843C456.489 558.8 471.206 553.249 470.998 553.264C447.577 522.883 438.881 459.222 434.913 446.603C434.667 446.676 446.219 455.829 446.086 455.727C445.875 455.492 469.853 473.929 469.837 473.471C469.857 472.093 376.164 396.46 375.302 395.674" stroke="url(#paint58_linear)" stroke-opacity="0.6" stroke-miterlimit="10"/>
<path d="M364.997 341.988C364.997 341.988 357.068 304.916 441.142 253.64C455.196 245.063 474.783 237.826 478.297 219.787C487.121 174.417 467.951 138.292 497.815 120.248C508.13 113.984 484.812 92.6767 471.19 85.9675C455.332 78.1677 448.859 114.636 403.175 88.1808C380.688 75.1569 375.689 136.036 344.507 128.644C319.789 122.762 316.654 146.294 314.503 170.756C311.811 201.543 307.507 225.118 294.896 240.071C284.535 252.331 273.746 261.535 263.332 266.095C261.556 266.89 259.925 267.745 258.383 268.69C251.758 272.741 246.81 276.81 243.134 281.747C223.963 307.366 254.133 365.086 312.396 325.042C317.321 321.67 324.191 317.114 333.169 311.1C383.734 277.214 421.687 236.059 329.912 271.883C311.141 279.215 277.894 296.126 235.833 322.336C233.77 323.625 231.668 324.972 229.408 326.233C229.145 327.323 196.529 344.69 248.576 382.424C271.41 398.983 301.774 452.921 291.867 468.653C255.025 527.096 371.146 552.499 426.52 561.014C443.836 563.674 455.433 564.925 455.151 564.876C454.981 564.833 470.013 559.203 469.874 559.213C446.294 528.315 437.772 463.293 433.887 450.445C433.71 450.514 445.452 459.806 445.378 459.741C445.199 459.56 469.605 478.355 469.593 477.967C469.6 476.812 374.171 400.261 373.473 399.63" stroke="url(#paint59_linear)" stroke-opacity="0.6" stroke-miterlimit="10"/>
<path d="M367.565 341.372C367.565 341.372 361.594 302.893 446.322 249.29C460.476 240.33 479.977 232.641 483.316 214.058C491.627 167.695 472.412 131.31 502.615 112.921C513.076 106.536 489.293 84.7473 475.39 77.808C459.236 69.7515 452.554 106.847 406.135 79.6379C383.225 66.3247 378.103 128.283 346.424 120.357C321.203 114.052 317.243 138.394 315.087 162.357C312.311 192.941 306.901 217.096 294.228 232.985C283.869 245.927 272.777 255.597 261.917 260.384C260.072 261.184 258.376 262.113 256.738 263.079C249.883 267.23 244.744 271.591 240.975 276.799C220.507 304.945 252.988 363.208 312.748 321.957C317.991 318.326 325.001 313.579 333.782 307.538C382.797 273.847 422.928 231.659 328.623 269.515C308.193 277.716 274.192 294.821 230.461 320.901C228.286 322.184 226.088 323.552 223.731 324.834C223.025 325.97 191.16 344.979 243.733 383.482C266.74 400.334 297.46 455.429 287.261 471.585C249.774 531.452 367.77 557.762 424.415 566.714C442.061 569.504 453.925 570.777 453.712 570.723C453.584 570.69 468.889 564.971 468.777 564.966C445.048 533.508 436.662 467.183 432.898 454.048C432.748 454.101 444.739 463.57 444.665 463.505C444.517 463.377 469.352 482.531 469.361 482.239C469.355 481.307 372.206 403.865 371.64 403.336" stroke="url(#paint60_linear)" stroke-opacity="0.6" stroke-miterlimit="10"/>
<path d="M370.176 340.767C370.176 340.767 366.19 300.866 451.561 244.977C465.815 235.635 485.23 227.493 488.377 208.34C496.187 160.942 476.904 124.381 507.443 105.579C518.006 99.0611 493.817 76.8288 479.634 69.6594C463.226 61.3569 456.368 98.9519 409.155 71.1324C385.832 57.4873 380.532 120.557 348.384 112.081C322.645 105.326 317.918 130.517 315.714 153.968C312.854 184.35 306.312 209.101 293.549 225.942C283.183 239.607 271.755 249.691 260.45 254.705C258.525 255.553 256.758 256.486 255.067 257.484C247.981 261.735 242.653 266.388 238.774 271.84C217.025 302.539 251.801 361.319 313.015 318.851C318.564 315.002 325.727 310.023 334.299 303.996C381.764 270.5 424.105 227.333 327.238 267.167C305.193 276.25 270.394 293.537 225.025 319.54C222.753 320.844 220.196 321.849 218.017 323.494C216.715 324.477 185.781 345.311 238.826 384.614C262.021 401.786 293.051 457.957 282.617 474.575C244.342 535.806 364.399 563.094 422.3 572.456C440.275 575.375 452.379 576.687 452.251 576.654C452.166 576.633 467.771 570.809 467.659 570.803C443.796 538.813 435.532 471.158 431.861 457.752C431.737 457.789 443.962 467.408 443.904 467.37C443.799 467.253 469.04 486.851 469.037 486.6C469.034 485.919 370.133 407.533 369.731 407.158" stroke="url(#paint61_linear)" stroke-opacity="0.6" stroke-miterlimit="10"/>
<path d="M372.789 340.162C372.789 340.162 370.745 298.828 456.802 240.665C471.199 230.951 490.485 222.345 493.483 202.633C500.823 154.254 481.425 117.437 512.342 98.2315C523.035 91.5655 498.412 68.9055 483.949 61.506C467.245 52.9467 460.253 91.0519 412.203 62.6113C388.494 48.6186 383.033 112.826 350.389 103.816C324.115 96.585 318.568 122.655 316.385 145.59C313.373 175.774 305.795 201.1 292.941 218.894C282.579 233.24 270.847 243.791 259.081 249.005C257.102 249.884 255.239 250.839 253.467 251.884C246.135 256.208 240.606 261.196 236.66 266.903C213.603 300.171 250.675 359.467 313.358 315.809C319.214 311.744 326.571 306.541 334.877 300.492C380.792 267.191 425.32 223.129 325.94 264.841C302.236 274.794 266.613 292.28 219.617 318.164C217.234 319.462 214.702 320.631 212.305 322.153C210.618 323.22 180.377 345.658 233.947 385.73C257.316 403.196 288.686 460.497 277.975 477.566C238.923 540.118 360.987 568.416 420.159 578.215C438.491 581.247 450.834 582.597 450.749 582.576C450.707 582.565 466.585 576.652 466.516 576.657C442.493 544.15 434.419 475.16 430.799 461.473C430.702 461.493 443.176 471.289 443.145 471.236C443.071 471.171 468.741 491.128 468.759 490.974C468.769 490.5 368.121 411.238 367.852 410.965" stroke="url(#paint62_linear)" stroke-opacity="0.6" stroke-miterlimit="10"/>
<path d="M375.371 339.572C375.371 339.572 375.402 296.906 462.012 236.367C476.509 226.271 495.709 217.212 498.516 196.93C505.343 147.559 485.873 110.497 517.141 90.9047C527.979 84.1169 502.907 61.0026 488.148 53.3463C471.147 44.5303 463.995 83.1615 415.178 54.0947C391.056 39.7702 385.445 105.073 352.32 95.555C325.528 87.875 319.214 114.793 316.967 137.19C313.888 167.198 305.172 193.051 292.201 211.813C281.827 226.813 269.765 237.847 257.568 243.314C255.509 244.241 253.593 245.228 251.767 246.305C244.188 250.702 238.501 256.035 234.472 261.97C210.161 297.777 249.586 357.626 313.693 312.697C319.84 308.388 327.364 302.98 335.461 296.945C379.858 263.893 426.584 218.894 324.639 262.515C299.292 273.365 262.855 291.007 214.233 316.771C211.753 318.09 209.172 319.36 206.643 320.78C204.586 321.957 175.087 345.9 229.092 386.83C252.634 404.59 284.328 462.993 273.356 480.54C233.543 544.44 357.603 573.791 418.042 583.957C436.703 587.119 449.313 588.491 449.27 588.48C449.228 588.47 465.422 582.478 465.38 582.467C441.208 549.401 433.27 479.108 429.759 465.176C429.732 465.192 442.397 475.127 442.397 475.127C442.366 475.074 468.453 495.431 468.449 495.362C468.462 495.138 366.105 414.942 365.957 414.814" stroke="url(#paint63_linear)" stroke-opacity="0.6" stroke-miterlimit="10"/>
<path d="M377.967 338.941C377.967 338.941 379.876 294.735 467.235 232.029C481.859 221.533 500.947 212.038 503.578 191.212C509.934 140.86 490.365 103.568 521.984 83.5894C532.925 76.6691 507.447 53.1113 492.407 45.2248C475.126 36.1787 467.825 75.2935 418.214 45.6164C393.705 30.9442 387.917 97.3587 354.285 87.3484C326.975 79.219 319.894 106.985 317.599 128.871C311.983 182.382 284.725 224.853 256.175 237.7C190.972 267.022 235.241 364.973 314.008 309.671C365.149 273.754 491.676 170.111 200.945 319.466C198.476 320.743 169.633 346.348 224.216 388.016C247.92 406.111 279.924 465.591 268.733 483.627C215.611 568.968 447.787 594.498 447.787 594.498L464.255 588.417C439.923 554.834 432.133 483.195 428.716 468.993L468.162 499.847L364.064 418.663" stroke="url(#paint64_linear)" stroke-opacity="0.6" stroke-miterlimit="10"/>
<defs>
<linearGradient id="paint0_linear" x1="296.166" y1="284.342" x2="479.864" y2="595.804" gradientUnits="userSpaceOnUse">
<stop stop-color="#41A0FF"/>
<stop offset="1" stop-color="#C5CDFC"/>
</linearGradient>
<linearGradient id="paint1_linear" x1="297.996" y1="285.925" x2="476.962" y2="589.366" gradientUnits="userSpaceOnUse">
<stop stop-color="#41A0FF"/>
<stop offset="1" stop-color="#C5CDFC"/>
</linearGradient>
<linearGradient id="paint2_linear" x1="299.877" y1="287.619" x2="474.117" y2="583.047" gradientUnits="userSpaceOnUse">
<stop stop-color="#41A0FF"/>
<stop offset="1" stop-color="#C5CDFC"/>
</linearGradient>
<linearGradient id="paint3_linear" x1="301.856" y1="289.292" x2="471.321" y2="576.623" gradientUnits="userSpaceOnUse">
<stop stop-color="#41A0FF"/>
<stop offset="1" stop-color="#C5CDFC"/>
</linearGradient>
<linearGradient id="paint4_linear" x1="303.808" y1="290.767" x2="468.552" y2="570.094" gradientUnits="userSpaceOnUse">
<stop stop-color="#41A0FF"/>
<stop offset="1" stop-color="#C5CDFC"/>
</linearGradient>
<linearGradient id="paint5_linear" x1="305.8" y1="292.288" x2="465.844" y2="563.647" gradientUnits="userSpaceOnUse">
<stop stop-color="#41A0FF"/>
<stop offset="1" stop-color="#C5CDFC"/>
</linearGradient>
<linearGradient id="paint6_linear" x1="307.887" y1="293.899" x2="463.171" y2="557.187" gradientUnits="userSpaceOnUse">
<stop stop-color="#41A0FF"/>
<stop offset="1" stop-color="#C5CDFC"/>
</linearGradient>
<linearGradient id="paint7_linear" x1="309.871" y1="295.317" x2="460.454" y2="550.633" gradientUnits="userSpaceOnUse">
<stop stop-color="#41A0FF"/>
<stop offset="1" stop-color="#C5CDFC"/>
</linearGradient>
<linearGradient id="paint8_linear" x1="311.902" y1="296.817" x2="457.773" y2="544.145" gradientUnits="userSpaceOnUse">
<stop stop-color="#41A0FF"/>
<stop offset="1" stop-color="#C5CDFC"/>
</linearGradient>
<linearGradient id="paint9_linear" x1="313.955" y1="298.376" x2="455.095" y2="537.683" gradientUnits="userSpaceOnUse">
<stop stop-color="#41A0FF"/>
<stop offset="1" stop-color="#C5CDFC"/>
</linearGradient>
<linearGradient id="paint10_linear" x1="316.039" y1="299.878" x2="452.443" y2="531.155" gradientUnits="userSpaceOnUse">
<stop stop-color="#41A0FF"/>
<stop offset="1" stop-color="#C5CDFC"/>
</linearGradient>
<linearGradient id="paint11_linear" x1="318.094" y1="301.436" x2="449.779" y2="524.711" gradientUnits="userSpaceOnUse">
<stop stop-color="#41A0FF"/>
<stop offset="1" stop-color="#C5CDFC"/>
</linearGradient>
<linearGradient id="paint12_linear" x1="320.083" y1="302.995" x2="447.035" y2="518.244" gradientUnits="userSpaceOnUse">
<stop stop-color="#41A0FF"/>
<stop offset="1" stop-color="#C5CDFC"/>
</linearGradient>
<linearGradient id="paint13_linear" x1="322.079" y1="304.479" x2="444.338" y2="511.772" gradientUnits="userSpaceOnUse">
<stop stop-color="#41A0FF"/>
<stop offset="1" stop-color="#C5CDFC"/>
</linearGradient>
<linearGradient id="paint14_linear" x1="324.119" y1="306.044" x2="441.632" y2="505.289" gradientUnits="userSpaceOnUse">
<stop stop-color="#41A0FF"/>
<stop offset="1" stop-color="#C5CDFC"/>
</linearGradient>
<linearGradient id="paint15_linear" x1="326.049" y1="307.639" x2="438.832" y2="498.866" gradientUnits="userSpaceOnUse">
<stop stop-color="#41A0FF"/>
<stop offset="1" stop-color="#C5CDFC"/>
</linearGradient>
<linearGradient id="paint16_linear" x1="327.985" y1="309.195" x2="436.089" y2="492.486" gradientUnits="userSpaceOnUse">
<stop stop-color="#41A0FF"/>
<stop offset="1" stop-color="#C5CDFC"/>
</linearGradient>
<linearGradient id="paint17_linear" x1="330.064" y1="310.738" x2="433.414" y2="485.969" gradientUnits="userSpaceOnUse">
<stop stop-color="#41A0FF"/>
<stop offset="1" stop-color="#C5CDFC"/>
</linearGradient>
<linearGradient id="paint18_linear" x1="332.194" y1="312.177" x2="430.835" y2="479.425" gradientUnits="userSpaceOnUse">
<stop stop-color="#41A0FF"/>
<stop offset="1" stop-color="#C5CDFC"/>
</linearGradient>
<linearGradient id="paint19_linear" x1="334.192" y1="313.696" x2="428.151" y2="473.006" gradientUnits="userSpaceOnUse">
<stop stop-color="#41A0FF"/>
<stop offset="1" stop-color="#C5CDFC"/>
</linearGradient>
<linearGradient id="paint20_linear" x1="336.162" y1="315.088" x2="425.426" y2="466.436" gradientUnits="userSpaceOnUse">
<stop stop-color="#41A0FF"/>
<stop offset="1" stop-color="#C5CDFC"/>
</linearGradient>
<linearGradient id="paint21_linear" x1="338.302" y1="316.739" x2="422.793" y2="459.996" gradientUnits="userSpaceOnUse">
<stop stop-color="#41A0FF"/>
<stop offset="1" stop-color="#C5CDFC"/>
</linearGradient>
<linearGradient id="paint22_linear" x1="339.493" y1="317.097" x2="420.006" y2="453.608" gradientUnits="userSpaceOnUse">
<stop stop-color="#41A0FF"/>
<stop offset="1" stop-color="#C5CDFC"/>
</linearGradient>
<linearGradient id="paint23_linear" x1="340.467" y1="317.042" x2="417.237" y2="447.207" gradientUnits="userSpaceOnUse">
<stop stop-color="#41A0FF"/>
<stop offset="1" stop-color="#C5CDFC"/>
</linearGradient>
<linearGradient id="paint24_linear" x1="341.366" y1="316.998" x2="414.411" y2="440.847" gradientUnits="userSpaceOnUse">
<stop stop-color="#41A0FF"/>
<stop offset="1" stop-color="#C5CDFC"/>
</linearGradient>
<linearGradient id="paint25_linear" x1="342.281" y1="316.932" x2="411.608" y2="434.477" gradientUnits="userSpaceOnUse">
<stop stop-color="#41A0FF"/>
<stop offset="1" stop-color="#C5CDFC"/>
</linearGradient>
<linearGradient id="paint26_linear" x1="343.108" y1="316.859" x2="408.746" y2="428.149" gradientUnits="userSpaceOnUse">
<stop stop-color="#41A0FF"/>
<stop offset="1" stop-color="#C5CDFC"/>
</linearGradient>
<linearGradient id="paint27_linear" x1="343.903" y1="316.815" x2="410.494" y2="429.721" gradientUnits="userSpaceOnUse">
<stop stop-color="#41A0FF"/>
<stop offset="1" stop-color="#C5CDFC"/>
</linearGradient>
<linearGradient id="paint28_linear" x1="344.626" y1="316.784" x2="413.147" y2="432.963" gradientUnits="userSpaceOnUse">
<stop stop-color="#41A0FF"/>
<stop offset="1" stop-color="#C5CDFC"/>
</linearGradient>
<linearGradient id="paint29_linear" x1="345.174" y1="316.835" x2="415.737" y2="436.476" gradientUnits="userSpaceOnUse">
<stop stop-color="#41A0FF"/>
<stop offset="1" stop-color="#C5CDFC"/>
</linearGradient>
<linearGradient id="paint30_linear" x1="344.957" y1="315.88" x2="418.183" y2="440.037" gradientUnits="userSpaceOnUse">
<stop stop-color="#41A0FF"/>
<stop offset="1" stop-color="#C5CDFC"/>
</linearGradient>
<linearGradient id="paint31_linear" x1="342.345" y1="310.547" x2="420.785" y2="443.544" gradientUnits="userSpaceOnUse">
<stop stop-color="#41A0FF"/>
<stop offset="1" stop-color="#C5CDFC"/>
</linearGradient>
<linearGradient id="paint32_linear" x1="339.941" y1="305.082" x2="423.64" y2="446.997" gradientUnits="userSpaceOnUse">
<stop stop-color="#41A0FF"/>
<stop offset="1" stop-color="#C5CDFC"/>
</linearGradient>
<linearGradient id="paint33_linear" x1="336.698" y1="300.19" x2="425.599" y2="450.924" gradientUnits="userSpaceOnUse">
<stop stop-color="#41A0FF"/>
<stop offset="1" stop-color="#C5CDFC"/>
</linearGradient>
<linearGradient id="paint34_linear" x1="333.259" y1="295.221" x2="427.369" y2="454.786" gradientUnits="userSpaceOnUse">
<stop stop-color="#41A0FF"/>
<stop offset="1" stop-color="#C5CDFC"/>
</linearGradient>
<linearGradient id="paint35_linear" x1="329.578" y1="290.546" x2="428.907" y2="458.961" gradientUnits="userSpaceOnUse">
<stop stop-color="#41A0FF"/>
<stop offset="1" stop-color="#C5CDFC"/>
</linearGradient>
<linearGradient id="paint36_linear" x1="325.653" y1="285.896" x2="430.248" y2="463.239" gradientUnits="userSpaceOnUse">
<stop stop-color="#41A0FF"/>
<stop offset="1" stop-color="#C5CDFC"/>
</linearGradient>
<linearGradient id="paint37_linear" x1="321.867" y1="281.27" x2="431.736" y2="467.555" gradientUnits="userSpaceOnUse">
<stop stop-color="#41A0FF"/>
<stop offset="1" stop-color="#C5CDFC"/>
</linearGradient>
<linearGradient id="paint38_linear" x1="318.008" y1="276.66" x2="433.139" y2="471.867" gradientUnits="userSpaceOnUse">
<stop stop-color="#41A0FF"/>
<stop offset="1" stop-color="#C5CDFC"/>
</linearGradient>
<linearGradient id="paint39_linear" x1="315.09" y1="271.444" x2="435.562" y2="475.707" gradientUnits="userSpaceOnUse">
<stop stop-color="#41A0FF"/>
<stop offset="1" stop-color="#C5CDFC"/>
</linearGradient>
<linearGradient id="paint40_linear" x1="315.519" y1="264.327" x2="441.26" y2="477.523" gradientUnits="userSpaceOnUse">
<stop stop-color="#41A0FF"/>
<stop offset="1" stop-color="#C5CDFC"/>
</linearGradient>
<linearGradient id="paint41_linear" x1="315.996" y1="257.154" x2="447.001" y2="479.275" gradientUnits="userSpaceOnUse">
<stop stop-color="#41A0FF"/>
<stop offset="1" stop-color="#C5CDFC"/>
</linearGradient>
<linearGradient id="paint42_linear" x1="316.371" y1="250.029" x2="452.689" y2="481.159" gradientUnits="userSpaceOnUse">
<stop stop-color="#41A0FF"/>
<stop offset="1" stop-color="#C5CDFC"/>
</linearGradient>
<linearGradient id="paint43_linear" x1="316.693" y1="242.898" x2="458.282" y2="482.964" gradientUnits="userSpaceOnUse">
<stop stop-color="#41A0FF"/>
<stop offset="1" stop-color="#C5CDFC"/>
</linearGradient>
<linearGradient id="paint44_linear" x1="316.983" y1="235.784" x2="463.902" y2="484.888" gradientUnits="userSpaceOnUse">
<stop stop-color="#41A0FF"/>
<stop offset="1" stop-color="#C5CDFC"/>
</linearGradient>
<linearGradient id="paint45_linear" x1="317.301" y1="228.739" x2="469.502" y2="486.799" gradientUnits="userSpaceOnUse">
<stop stop-color="#41A0FF"/>
<stop offset="1" stop-color="#C5CDFC"/>
</linearGradient>
<linearGradient id="paint46_linear" x1="318.191" y1="221.008" x2="475.792" y2="488.223" gradientUnits="userSpaceOnUse">
<stop stop-color="#41A0FF"/>
<stop offset="1" stop-color="#C5CDFC"/>
</linearGradient>
<linearGradient id="paint47_linear" x1="317.966" y1="214.172" x2="480.895" y2="490.421" gradientUnits="userSpaceOnUse">
<stop stop-color="#41A0FF"/>
<stop offset="1" stop-color="#C5CDFC"/>
</linearGradient>
<linearGradient id="paint48_linear" x1="318.113" y1="207.229" x2="486.307" y2="492.406" gradientUnits="userSpaceOnUse">
<stop stop-color="#41A0FF"/>
<stop offset="1" stop-color="#C5CDFC"/>
</linearGradient>
<linearGradient id="paint49_linear" x1="318.281" y1="200.282" x2="491.766" y2="494.43" gradientUnits="userSpaceOnUse">
<stop stop-color="#41A0FF"/>
<stop offset="1" stop-color="#C5CDFC"/>
</linearGradient>
<linearGradient id="paint50_linear" x1="316.896" y1="194.169" x2="495.695" y2="497.326" gradientUnits="userSpaceOnUse">
<stop stop-color="#41A0FF"/>
<stop offset="1" stop-color="#C5CDFC"/>
</linearGradient>
<linearGradient id="paint51_linear" x1="314.668" y1="188.55" x2="498.735" y2="500.639" gradientUnits="userSpaceOnUse">
<stop stop-color="#41A0FF"/>
<stop offset="1" stop-color="#C5CDFC"/>
</linearGradient>
<linearGradient id="paint52_linear" x1="312.504" y1="182.931" x2="501.852" y2="503.975" gradientUnits="userSpaceOnUse">
<stop stop-color="#41A0FF"/>
<stop offset="1" stop-color="#C5CDFC"/>
</linearGradient>
<linearGradient id="paint53_linear" x1="310.276" y1="177.347" x2="504.893" y2="507.323" gradientUnits="userSpaceOnUse">
<stop stop-color="#41A0FF"/>
<stop offset="1" stop-color="#C5CDFC"/>
</linearGradient>
<linearGradient id="paint54_linear" x1="308.047" y1="171.763" x2="507.946" y2="510.696" gradientUnits="userSpaceOnUse">
<stop stop-color="#41A0FF"/>
<stop offset="1" stop-color="#C5CDFC"/>
</linearGradient>
<linearGradient id="paint55_linear" x1="305.831" y1="166.111" x2="511.041" y2="514.049" gradientUnits="userSpaceOnUse">
<stop stop-color="#41A0FF"/>
<stop offset="1" stop-color="#C5CDFC"/>
</linearGradient>
<linearGradient id="paint56_linear" x1="303.661" y1="160.561" x2="514.14" y2="517.432" gradientUnits="userSpaceOnUse">
<stop stop-color="#41A0FF"/>
<stop offset="1" stop-color="#C5CDFC"/>
</linearGradient>
<linearGradient id="paint57_linear" x1="301.47" y1="154.952" x2="517.249" y2="520.81" gradientUnits="userSpaceOnUse">
<stop stop-color="#41A0FF"/>
<stop offset="1" stop-color="#C5CDFC"/>
</linearGradient>
<linearGradient id="paint58_linear" x1="299.229" y1="149.336" x2="520.309" y2="524.183" gradientUnits="userSpaceOnUse">
<stop stop-color="#41A0FF"/>
<stop offset="1" stop-color="#C5CDFC"/>
</linearGradient>
<linearGradient id="paint59_linear" x1="297.014" y1="143.777" x2="523.411" y2="527.639" gradientUnits="userSpaceOnUse">
<stop stop-color="#41A0FF"/>
<stop offset="1" stop-color="#C5CDFC"/>
</linearGradient>
<linearGradient id="paint60_linear" x1="294.805" y1="138.119" x2="526.482" y2="530.933" gradientUnits="userSpaceOnUse">
<stop stop-color="#41A0FF"/>
<stop offset="1" stop-color="#C5CDFC"/>
</linearGradient>
<linearGradient id="paint61_linear" x1="292.586" y1="132.522" x2="529.551" y2="534.301" gradientUnits="userSpaceOnUse">
<stop stop-color="#41A0FF"/>
<stop offset="1" stop-color="#C5CDFC"/>
</linearGradient>
<linearGradient id="paint62_linear" x1="290.406" y1="126.907" x2="532.657" y2="537.648" gradientUnits="userSpaceOnUse">
<stop stop-color="#41A0FF"/>
<stop offset="1" stop-color="#C5CDFC"/>
</linearGradient>
<linearGradient id="paint63_linear" x1="288.176" y1="121.279" x2="535.715" y2="540.985" gradientUnits="userSpaceOnUse">
<stop stop-color="#41A0FF"/>
<stop offset="1" stop-color="#C5CDFC"/>
</linearGradient>
<linearGradient id="paint64_linear" x1="285.961" y1="115.716" x2="538.818" y2="544.441" gradientUnits="userSpaceOnUse">
<stop stop-color="#41A0FF"/>
<stop offset="1" stop-color="#C5CDFC"/>
</linearGradient>
</defs>
</svg>
