<svg width="798" height="68" viewBox="0 0 798 68" fill="none" xmlns="http://www.w3.org/2000/svg">
<path d="M792.991 58.2775C790.673 58.2775 788.739 60.2112 788.739 62.8212C788.739 65.43 790.673 67.3637 792.991 67.3637C795.31 67.3637 797.244 65.43 797.244 62.8212C797.244 60.2112 795.31 58.2775 792.991 58.2775ZM639.129 67.0724H658.65V65.3337L656.526 64.85C654.592 64.3662 653.721 63.3038 653.721 60.5963V34.31H658.265C661.068 34.31 662.518 34.9863 662.71 40.8825L663.194 53.2525C663.58 64.3663 666.77 67.46 672.184 67.46C677.691 67.46 679.141 63.69 679.141 58.375V56.1512H677.11V57.7937C677.11 61.3712 676.629 63.8837 675.274 63.8837C674.019 63.8837 673.921 62.9175 673.631 58.4713L673.052 49.9675C672.279 38.5625 670.829 34.6 662.42 33.0525C670.442 30.9275 675.371 25.0312 675.371 16.6225C675.371 5.70125 666.77 0.482483 658.555 0.482483H625.599V2.22247L627.435 2.6087C630.914 3.38245 631.011 5.21874 631.011 13.0475V51.5125C631.011 60.115 628.594 64.27 623.084 64.27C618.157 64.27 615.45 61.8537 615.45 52.4787V6.76495C615.45 4.0587 616.319 3.28624 618.445 2.80249L621.055 2.22247V0.482483H600.857V2.22247L602.981 2.80249C604.915 3.38249 605.591 4.15621 605.591 6.86121V51.8025C605.591 61.95 611.488 67.5562 620.476 67.5562C629.464 67.5562 633.909 61.95 633.909 51.5125V9.5675C633.909 4.34875 634.974 2.51245 639.224 2.51245C642.608 2.51245 644.059 3.67246 644.059 6.86121V60.5963C644.059 63.3038 643.189 64.27 641.255 64.7537L639.129 65.3337V67.0724V67.0724ZM768.829 6.86121C768.829 4.15621 769.7 3.28624 771.631 2.89874L774.241 2.31873V0.482483H754.139V2.22247L756.265 2.80249C758.199 3.38249 759.068 4.15621 759.068 6.86121V60.985C759.068 63.5937 758.006 65.0437 755.008 65.0437C751.529 65.0437 751.045 63.8837 749.79 58.1825L737.42 0.289978H733.552L721.764 56.345C720.409 62.6262 719.732 64.0775 717.122 64.85L715.479 65.3337V67.0724H729.3V65.3337L727.271 64.9462C724.371 64.3662 723.599 62.8212 725.049 55.475L732.008 19.6187L739.641 57.6013C740.801 63.11 740.706 64.1737 736.549 64.9462L734.52 65.3337V67.0724H785.742V45.0375H783.906C782.94 55.185 780.911 64.7537 772.696 64.7537H768.829V6.86121V6.86121ZM738.675 49.0963V46.4875H725.628L725.242 49.0963H738.675ZM684.746 8.02124V54.2188C684.746 61.1775 684.746 64.4637 681.268 65.0437L679.528 65.3337V67.0724H693.734V65.3337C687.549 64.4637 687.549 62.3375 687.549 54.7987V10.9212L685.23 8.79498L708.909 67.0724H712.966V13.3375C712.966 5.41246 712.966 3.67245 716.834 2.6087L718.186 2.22247V0.482483H703.591V2.22247L705.235 2.6087C710.164 3.4787 710.164 5.41251 710.164 12.7575V46.39L711.131 46.1L693.155 0.482483H679.334V2.22247L680.686 2.6087C682.235 3.09245 683.104 4.83249 684.746 8.02124V8.02124ZM653.721 2.80249H657.589C661.454 2.80249 665.03 5.31501 665.03 17.88C665.03 30.7338 662.325 31.99 656.912 31.99H653.721V2.80249ZM589.356 33.15C589.356 61.08 587.036 65.0437 582.01 65.0437C576.985 65.0437 574.761 61.08 574.761 33.3425C574.761 6.47497 577.179 2.6087 582.01 2.6087C587.036 2.6087 589.356 6.47496 589.356 33.15ZM599.891 33.73C599.891 15.27 593.995 0 582.01 0C569.93 0 564.226 15.27 564.226 33.73C564.226 52.2862 570.123 67.5562 582.01 67.5562C594.285 67.5562 599.891 52.2862 599.891 33.73ZM558.526 6.86121C558.526 4.15621 559.202 3.28624 561.134 2.80249L563.26 2.22247V0.482483H543.255V2.22247L545.67 2.80249C547.602 3.28624 548.667 3.96245 548.667 6.76495V53.2525C548.667 59.7275 548.086 64.9462 543.255 64.9462C540.161 64.9462 537.843 62.5299 537.94 60.7912C538.228 57.7937 543.255 57.9887 543.641 53.155C543.931 49.6762 541.708 48.2262 539.679 47.9375C536.683 47.55 533.011 50.0625 532.912 55.0887C532.815 61.5637 537.069 67.46 544.318 67.46C552.34 67.46 558.526 62.0475 558.526 51.705V6.86121V6.86121ZM235.723 6.86121C235.723 4.15621 236.592 3.28624 238.525 2.89874L241.135 2.31873V0.482483H221.033V2.22247L223.159 2.80249C225.091 3.38249 225.961 4.15621 225.961 6.86121V60.985C225.961 63.5937 224.897 65.0437 221.901 65.0437C218.422 65.0437 217.842 63.8837 216.586 58.1825L204.215 0.289978H200.35L188.559 56.345C187.206 62.6262 186.529 64.0775 183.92 64.85L182.276 65.3337V67.0724H196.098V65.3337L194.068 64.9462C191.169 64.3662 190.395 62.8212 191.845 55.475L198.804 19.425L206.439 57.6013C207.501 63.11 207.501 64.1737 203.346 64.9462L201.316 65.3337V67.0724H252.636V45.0375H250.8C249.834 55.185 247.804 64.7537 239.589 64.7537H235.723V6.86121V6.86121ZM504.787 2.80249H506.915C512.909 2.80249 514.938 12.37 515.614 22.5187H517.449V0.482483H482.366V22.5187H484.203C484.88 12.37 486.91 2.80249 492.901 2.80249H495.028V60.5963C495.028 63.3038 494.159 64.27 492.225 64.7537L489.713 65.3337V67.0724H510.589V65.3337L507.591 64.6575C505.755 64.1737 504.787 63.5938 504.787 60.5963V2.80249V2.80249ZM460.621 33.6325L463.616 33.73C467.966 33.8263 469.221 35.47 470.094 46.005H471.929V19.1362H470.094C469.029 27.545 467.869 31.12 463.714 31.2175L460.621 31.3138V2.80255H467.29C474.732 2.80255 476.375 12.1775 477.438 22.5188H479.274V0.482544H445.931V2.22253L448.057 2.80255C450.279 3.38255 450.86 4.7363 450.86 6.9588V60.5963C450.86 63.3038 449.991 64.27 448.057 64.7538L445.931 65.3338V67.0725H480.24V45.0375H478.404C477.244 55.0888 475.987 64.7538 467.29 64.7538H460.621V33.6325V33.6325ZM424.185 33.6325L427.181 33.73C431.53 33.8263 432.786 35.47 433.656 46.005H435.492V19.1362H433.656C432.594 27.545 431.434 31.12 427.279 31.2175L424.185 31.3138V2.80255H430.854C438.296 2.80255 439.939 12.37 441.001 22.5188H442.837V0.482544H408.529V2.22253L411.621 2.80255C413.844 3.38255 414.424 4.7363 414.424 6.9588V60.5963C414.424 63.3038 413.554 64.27 411.621 64.7538L409.495 65.3338V67.0725H443.804V45.0375H441.969C440.809 55.0888 439.551 64.7538 430.854 64.7538H424.185V33.6325V33.6325ZM384.462 2.80249H387.362C391.227 2.80249 394.804 5.31501 394.804 17.88C394.804 30.54 392.099 31.99 386.686 31.99H384.462V2.80249ZM369.869 67.0724H389.393V65.3337L387.265 64.85C385.333 64.3662 384.462 63.3038 384.462 60.5963V34.31H388.039C390.841 34.31 392.291 35.47 392.485 40.8825L392.967 53.2525C393.355 64.3663 396.544 67.46 401.956 67.46C407.465 67.46 408.914 63.69 408.914 58.375V56.1512H406.885V57.7937C406.885 61.3712 406.403 63.8837 405.049 63.8837C403.793 63.8837 403.695 62.9175 403.406 58.4713L402.825 49.9675C402.053 38.2725 400.506 34.6 392.195 33.0525C400.216 30.9275 405.145 25.0312 405.145 16.6225C405.145 5.70125 396.544 0.482483 388.329 0.482483H369.869V2.22247L371.995 2.80249C373.929 3.38249 374.798 4.15621 374.798 6.86121V60.5963C374.798 63.3038 373.929 64.27 371.995 64.7537L369.869 65.3337V67.0724V67.0724ZM355.082 2.80249H357.209C363.2 2.80249 365.23 12.37 365.908 22.5187H367.742V0.482483H332.66V22.5187H334.496C335.172 12.37 337.203 2.80249 343.195 2.80249H345.321V60.5963C345.321 63.3038 344.45 64.27 342.519 64.7537L340.005 65.3337V67.0724H360.397V65.3337L357.885 64.7537C355.373 64.1737 355.082 62.2413 355.082 60.5963V2.80249V2.80249ZM332.756 49.7725C332.756 29.96 311.011 24.7412 311.011 10.3412C311.011 7.24875 312.171 2.6087 317.003 2.6087C323.961 2.6087 326.571 11.5975 327.731 22.5187H329.568V0.482483H328.408C327.924 2.60873 327.054 3.57623 325.799 3.57623C323.575 3.57623 322.415 0.0962524 317.1 0.0962524C308.885 0.0962524 303.279 6.95873 303.279 15.9462C303.279 32.28 325.025 39.1412 325.025 54.2188C325.025 61.08 321.835 64.9462 317.486 64.9462C311.011 64.9462 306.759 57.3125 305.599 45.0375H303.763V67.0724H304.923C305.889 63.8837 307.145 63.5938 308.207 63.5938C310.045 63.5938 311.977 67.46 317.582 67.46C326.185 67.46 332.756 60.0187 332.756 49.7725V49.7725ZM269.453 6.86121C269.453 4.15621 270.323 3.28624 272.255 2.89874L274.865 2.31873V0.482483H254.763V2.22247L256.889 2.80249C258.821 3.38249 259.691 4.15621 259.691 6.86121V60.5963C259.691 63.3038 258.821 64.27 256.889 64.7537L254.763 65.3337V67.0724H286.366V45.0375H284.529C283.564 55.185 281.534 64.7537 273.319 64.7537H269.453V6.86121V6.86121ZM205.471 49.0963V46.4875H192.425L192.038 49.0963H205.471ZM149.61 67.2662H153.573L162.56 19.7162H161.208L171.065 67.2662H174.545L186.336 11.2112C187.593 5.31499 188.269 3.28621 190.589 2.70496L192.425 2.22247V0.482483H178.798V2.22247L180.827 2.6087C183.726 3.1887 184.403 4.92871 183.05 12.08L175.415 49.6762H176.575L168.842 10.0512C168.069 6.28121 167.586 3.1887 170.776 2.6087L172.901 2.22247V0.482483H154.249V2.22247L155.505 2.51245C157.439 2.99495 157.729 4.15624 158.501 7.82874L161.497 22.2287L160.917 13.53L154.249 48.71H155.119L147.29 10.0512C146.42 6.08871 146.13 3.09245 149.223 2.51245L150.674 2.22247V0.482483H131.634V2.22247L133.47 2.70496C135.209 3.18871 136.176 4.05872 137.336 9.37372L149.61 67.2662V67.2662ZM98 33.6325L100.996 33.73C105.345 33.8263 106.601 35.47 107.471 46.005H109.308V19.1362H107.471C106.409 27.545 105.249 31.12 101.092 31.2175L98 31.3138V2.80255H104.669C112.11 2.80255 113.754 12.37 114.816 22.5188H116.652V0.482544H83.31V2.22253L85.4362 2.80255C87.6587 3.38255 88.2388 4.7363 88.2388 6.9588V60.5963C88.2388 63.3038 87.3687 64.27 85.4362 64.7538L83.31 65.3338V67.0725H117.62V45.0375H115.783C114.624 55.0888 113.367 64.7538 104.669 64.7538H98V33.6325V33.6325ZM37.2088 67.0724H57.0213V65.3337L54.7988 64.85C53.0588 64.4637 51.8988 63.3038 51.8988 60.5963V34.2137H66.4925V60.5963C66.4925 63.3038 65.3338 64.4637 63.5938 64.85L61.3712 65.3337V67.0724H81.1837V65.3337L79.0575 64.7537C77.125 64.27 76.2538 63.2062 76.2538 60.5012V6.86121C76.2538 4.15621 77.125 3.28624 79.0575 2.80249L81.1837 2.22247V0.482483H61.3712V2.22247L63.5938 2.80249C65.2363 3.28624 66.4925 3.96245 66.4925 6.76495V31.6037H51.8988V6.76495C51.8988 4.0587 52.9625 3.28624 54.7988 2.80249L57.0213 2.22247V0.482483H37.2088V2.22247L39.335 2.80249C41.2687 3.38249 42.1375 4.15621 42.1375 6.86121V60.5963C42.1375 63.3038 41.2687 64.27 39.335 64.7537L37.2088 65.3337V67.0724ZM22.4213 2.80249H24.5488C30.54 2.80249 32.57 12.37 33.2463 22.5187H35.0825V0.482483H0V22.5187H1.83625C2.5125 12.37 4.5425 2.80249 10.5338 2.80249H12.66V60.5963C12.66 63.3038 11.7913 64.27 9.85751 64.7537L7.345 65.3337V67.0724H28.2213V65.3337L25.225 64.6575C23.3888 64.1737 22.4213 63.5938 22.4213 60.5963V2.80249V2.80249Z" fill="black"/>
</svg>
