<svg width="414" height="48" viewBox="0 0 414 48" fill="none" xmlns="http://www.w3.org/2000/svg">
<path d="M191.639 7.39295C194.24 7.39295 196.824 7.42651 199.426 7.39295C200.13 7.37618 200.365 7.54395 200.348 8.29892C200.315 13.5837 200.332 18.8518 200.332 24.1366C200.332 24.4554 200.348 24.7742 200.365 25.0929C200.348 27.6263 200.332 30.1596 200.332 32.693C200.332 37.4074 200.348 42.1218 200.365 46.8362C197.093 46.8362 193.821 46.8362 190.548 46.8362C190.213 46.6516 189.961 46.3664 189.726 46.0644C184.776 39.9072 179.792 33.7667 174.824 27.6095C173.012 25.3614 171.25 23.0797 169.337 20.8818C169.136 21.2174 169.236 21.5529 169.236 21.8549C169.236 29.7402 169.236 37.6087 169.22 45.494C169.22 45.947 169.32 46.4335 168.985 46.8362C165.998 46.8362 163.027 46.8362 160.04 46.8362C160.057 45.7289 160.074 44.6216 160.074 43.5143C160.074 31.8038 160.074 20.0933 160.057 8.38281C160.057 7.64461 160.191 7.39295 160.997 7.40973C163.648 7.47684 166.316 7.42651 168.968 7.42651C169.354 7.42651 169.622 7.47684 169.908 7.84594C174.757 13.9193 179.641 19.9591 184.524 25.9989C186.739 28.7504 188.988 31.4683 191.22 34.2029C191.723 34.0855 191.488 33.6829 191.488 33.4312C191.505 29.2369 191.505 25.0258 191.505 20.8315C191.505 16.654 191.505 12.4932 191.505 8.3157C191.505 8.01371 191.387 7.67817 191.639 7.39295Z" fill="white"/>
<path d="M405.169 7.34546C408.028 7.34546 410.887 7.34546 413.746 7.34546C413.746 20.2891 413.746 33.216 413.763 46.1597C413.763 46.7648 413.646 46.8825 413.04 46.8825C410.047 46.8489 407.07 46.8657 404.076 46.8657C403.168 46.2942 402.613 45.3528 401.957 44.5459C395.651 36.7461 389.327 28.9463 383.02 21.1464C382.903 20.9952 382.819 20.7934 382.583 20.7094C382.449 21.012 382.516 21.3314 382.516 21.6507C382.516 29.6019 382.516 37.5698 382.516 45.5209C382.516 45.9748 382.617 46.4623 382.28 46.8657C379.354 46.8657 376.428 46.8657 373.501 46.8657C373.501 34.0229 373.501 21.1801 373.485 8.33725C373.485 7.59761 373.619 7.34546 374.426 7.36227C377 7.42951 379.573 7.42951 382.146 7.36227C382.835 7.34546 383.222 7.61442 383.592 8.0851C385.56 10.5225 387.527 12.96 389.495 15.4142C391.833 18.3056 394.154 21.2137 396.475 24.105C399.149 27.4334 401.839 30.7617 404.53 34.0733C404.581 34.1405 404.665 34.1742 404.732 34.2246C405.27 34.1405 405.001 33.7203 405.018 33.4681C405.035 31.0643 405.035 28.6773 405.035 26.2735C405.035 20.2723 405.035 14.288 405.035 8.28682C405.052 7.96743 404.934 7.63123 405.169 7.34546Z" fill="white"/>
<path d="M128.812 38.5279C130.153 38.6454 131.511 38.6286 132.853 38.5447C133.138 38.4104 133.473 38.595 133.742 38.4104C137.984 38.0076 141.321 35.5906 141.622 31.0756C141.807 30.7399 141.622 30.3539 141.756 30.0014C141.773 26.6445 141.79 23.2876 141.79 19.9307C141.79 16.0367 141.807 12.1595 141.773 8.26553C141.773 7.59415 141.907 7.37595 142.628 7.39274C145.378 7.4263 148.111 7.39274 150.861 7.39274C151.079 7.57736 150.979 7.82913 150.979 8.04733C150.979 16.557 150.979 25.0835 150.979 33.5933C150.979 33.7443 150.979 33.8786 150.928 34.0297C150.392 38.6118 147.944 41.868 143.953 44.0668C141.321 45.5102 138.52 46.3327 135.552 46.6683C135.435 46.6851 135.334 46.7019 135.301 46.8362C132.266 46.8362 129.231 46.8362 126.196 46.8362C125.106 46.4334 123.949 46.383 122.842 46.1145C119.506 45.2752 116.42 43.9325 114.023 41.3812C111.994 39.2161 110.786 36.648 110.786 33.61C110.786 25.1339 110.786 16.6745 110.77 8.19839C110.77 7.59415 110.904 7.40952 111.541 7.40952C114.056 7.44309 116.555 7.45987 119.07 7.40952C119.791 7.39273 119.908 7.6445 119.908 8.2991C119.891 15.0464 119.891 21.7938 119.891 28.5411C119.891 28.86 119.908 29.1789 119.925 29.4979C120.076 29.9678 119.858 30.4546 120.059 30.9077C120.176 34.9696 122.574 37.3026 126.397 38.2425C126.9 38.36 127.403 38.4943 127.94 38.4272C128.191 38.595 128.527 38.4272 128.812 38.5279Z" fill="white"/>
<path d="M258.438 24.7474C258.572 22.0954 259.328 19.6112 260.589 17.3117C261.748 15.1968 263.26 13.384 265.243 11.907C268.721 9.3221 272.653 8.19752 276.854 7.72754C277.341 7.67719 277.828 7.59326 278.315 7.52612C279.004 7.37506 279.727 7.61005 280.432 7.39185C280.886 7.39185 281.357 7.39185 281.81 7.39185C282.499 7.61005 283.222 7.37506 283.927 7.52612C288.061 7.89539 292.026 8.95283 295.756 10.7488C295.941 10.8327 296.109 10.9334 296.328 10.9167C296.546 11.0174 296.479 11.2188 296.479 11.3698C296.479 14.1393 296.479 16.9256 296.479 19.6951C296.479 19.863 296.529 20.0476 296.361 20.1819C295.236 19.5441 294.127 18.8727 292.984 18.2684C290.598 17.0263 288.044 16.2039 285.389 15.801C284.818 15.7171 284.213 15.4989 283.608 15.6164C282.18 15.4821 280.769 15.4821 279.34 15.6164C275.862 15.7507 272.67 16.6739 270.133 19.1748C268.368 20.9204 267.511 23.1192 267.427 25.6034C267.276 26.6608 267.293 27.7351 267.427 28.7925C267.545 32.653 269.981 36.2282 274.115 37.7052C276.198 38.4606 278.349 38.8634 280.567 38.7795C281.172 38.9138 281.777 38.9138 282.398 38.7795C282.919 38.7627 283.44 38.7459 283.944 38.7291C284.23 38.6116 284.566 38.7795 284.852 38.5948C287.221 38.4606 289.439 37.7052 291.606 36.7989C293.286 36.1107 294.732 35.0029 296.361 34.214C296.563 34.3986 296.479 34.6504 296.479 34.8686C296.479 37.4535 296.479 40.0383 296.479 42.6232C296.479 42.9253 296.58 43.2778 296.227 43.496C293.707 44.5702 291.186 45.6445 288.464 46.1984C287.473 46.3998 286.481 46.618 285.507 46.8362C282.516 46.8362 279.542 46.8362 276.551 46.8362C275.425 46.5844 274.3 46.3662 273.191 46.0977C270.2 45.3591 267.36 44.2513 264.924 42.3043C261.731 39.7698 259.816 36.4296 258.858 32.5187C258.623 31.5788 258.488 30.622 258.438 29.6485C258.287 29.1114 258.505 28.5575 258.303 28.0204C258.303 27.4665 258.303 26.9294 258.303 26.3755C258.505 25.8384 258.287 25.2845 258.438 24.7474Z" fill="white"/>
<path d="M354.591 46.8194C354.591 34.0015 354.591 21.1836 354.574 8.36576C354.574 7.61078 354.725 7.3759 355.515 7.39267C358.121 7.44301 360.726 7.40945 363.332 7.39267C363.551 7.61078 363.45 7.89599 363.45 8.14765C363.45 20.8145 363.45 33.4814 363.45 46.1483C363.45 46.3832 363.5 46.6181 363.366 46.8362C360.441 46.8194 357.516 46.8194 354.591 46.8194Z" fill="white"/>
<path d="M363.372 46.8362C363.391 46.5508 363.41 46.2487 363.41 45.9634C363.41 33.4587 363.41 20.954 363.41 8.43251C363.41 8.08002 363.353 7.74433 363.334 7.39185C363.771 7.67719 363.562 8.09681 363.562 8.44929C363.581 21.2393 363.581 34.0462 363.581 46.8362C363.486 46.8362 363.429 46.8362 363.372 46.8362Z" fill="white"/>
<path d="M83.5804 32.4118L83.5619 32.4165H83.5433C83.4089 32.1384 83.4089 31.8649 83.5433 31.5868C83.5572 31.5868 83.5711 31.5868 83.585 31.5914C83.5804 31.8603 83.5804 32.1384 83.5804 32.4118Z" fill="white"/>
<path d="M83.5387 13.9133C83.5526 13.9133 83.5665 13.9133 83.5804 13.9133C83.5804 14.1868 83.5804 14.4603 83.5804 14.7384L83.5618 14.743H83.5433C83.4042 14.4649 83.4042 14.1868 83.5387 13.9133Z" fill="white"/>
<path d="M233.738 46.836C234.071 46.5737 234.437 46.6611 234.804 46.6786C234.787 46.7311 234.787 46.7836 234.787 46.836C234.437 46.836 234.088 46.836 233.738 46.836Z" fill="white"/>
<path d="M36.071 46.8733C35.9922 46.8779 35.9134 46.8872 35.8346 46.8918C34.9447 46.4329 34.013 46.0668 33.1046 45.6496C31.6955 45.01 30.2772 44.3842 28.8635 43.7585C27.2876 43.0586 25.7116 42.3494 24.1357 41.6496C22.6108 40.9728 21.0859 40.2961 19.5609 39.6148C17.9989 38.9149 16.4369 38.2242 14.8749 37.529C13.3175 36.8384 11.7694 36.1385 10.212 35.4478C8.68708 34.7711 7.15751 34.099 5.63721 33.4131C4.23742 32.7873 2.83764 32.1662 1.43785 31.5405C1.0485 31.3644 0.659158 31.1882 0.265178 31.0214C0.172477 30.9797 0.0566009 30.9657 0.0148854 30.8499C0.0102503 30.7618 0.00561523 30.6737 0.00561523 30.5857C0.00561523 27.3411 0.00561523 24.0966 0.00561523 20.8474C0.00561523 20.7593 0.0102503 20.6713 0.0148854 20.5832C0.130762 20.4998 0.232733 20.5647 0.334704 20.611C1.82719 21.2785 3.32895 21.9413 4.82144 22.6087C6.53178 23.3735 8.23748 24.1383 9.95245 24.8938C10.2398 25.019 10.5226 25.158 10.8192 25.2739C10.8841 25.2971 10.9351 25.3295 10.9304 25.4129C10.9304 27.9437 10.9304 30.4698 10.9304 32.9959C10.9304 33.0747 10.9119 33.1581 10.9536 33.2323C10.9768 33.9044 11.2456 34.4791 11.6442 35.0029C12.1402 35.6564 12.7984 36.0643 13.5956 36.2497C13.6976 36.2729 13.7995 36.2775 13.9015 36.2775C13.9942 36.3285 14.1008 36.2775 14.1982 36.3146C14.2723 36.3192 14.3418 36.3239 14.416 36.3239C20.5528 36.3239 26.685 36.3239 32.8218 36.3239C32.896 36.3239 32.9655 36.3146 33.0397 36.3146C33.1185 36.2822 33.2112 36.3285 33.29 36.2822C33.7766 36.2543 34.1799 36.0226 34.5878 35.7908C35.1579 36.1431 35.7929 36.3656 36.4001 36.6437C37.8231 37.288 39.2599 37.9137 40.6875 38.558C41.9251 39.1142 43.1626 39.6611 44.4002 40.2081C44.5485 40.2729 44.7525 40.2915 44.8081 40.4954C44.4095 41.1536 43.9506 41.7701 43.4407 42.3494C42.574 43.3367 41.5867 44.1942 40.4928 44.9173C39.144 45.8072 37.6933 46.4607 36.122 46.8362C36.0942 46.8501 36.0849 46.864 36.071 46.8733Z" fill="white"/>
<path d="M83.5387 13.9132C83.5387 14.1913 83.5387 14.4648 83.5387 14.7429C83.446 15.4938 83.191 16.1705 82.658 16.7267C82.3521 16.6757 82.0879 16.5135 81.8052 16.3883C79.9326 15.5587 78.0554 14.7336 76.1875 13.8947C74.0553 12.9352 71.9139 11.9943 69.7772 11.0395C67.6404 10.0847 65.5037 9.13911 63.3669 8.18429C61.5175 7.35925 59.6681 6.53421 57.8187 5.7138C55.682 4.76362 53.5452 3.80416 51.4085 2.85861C49.7769 2.14017 48.1546 1.4032 46.5231 0.684766C46.5092 0.680131 46.4999 0.666226 46.486 0.652321C47.172 0.411298 47.8858 0.286151 48.5996 0.170274C48.734 0.147099 48.8684 0.128559 49.0029 0.110019C49.0817 0.0729383 49.1744 0.123924 49.2485 0.0729383C52.748 -0.0383031 56.2521 0.049763 59.7516 0.0219526C59.8489 0.0219526 59.9462 0.0265877 60.0436 0.0312228C62.1201 0.958234 64.2012 1.87598 66.2777 2.80299C68.2754 3.69292 70.2731 4.58285 72.2662 5.46815C74.1156 6.28855 75.9604 7.12286 77.8144 7.94327C79.3764 8.63389 80.9384 9.33842 82.5004 10.029C82.6209 10.0847 82.7693 10.1078 82.8434 10.2423C83.1447 11.0441 83.3162 11.8784 83.4274 12.722C83.4831 13.1114 83.5016 13.51 83.5387 13.9132Z" fill="white"/>
<path d="M69.3415 47.179C69.2627 47.1837 69.1792 47.1883 69.1004 47.1883C68.9892 47.23 68.8687 47.1698 68.7621 47.2254C68.5859 47.23 68.4098 47.2346 68.229 47.2346C68.141 47.2578 68.0529 47.2486 67.9648 47.2486C65.4063 47.2486 62.8431 47.2486 60.2846 47.2486C59.9508 47.0771 59.6171 46.9102 59.2741 46.7572C57.726 46.0759 56.1779 45.3899 54.6344 44.6946C53.0817 43.9994 51.5289 43.3134 49.9762 42.6181C49.6286 42.4652 49.2856 42.3122 48.9379 42.1546C48.8499 42.1175 48.7479 42.0944 48.7155 41.9878C48.975 41.4964 49.2439 41.0144 49.4849 40.5185C50.0272 39.3968 50.4165 38.2148 50.6993 37.0004C50.7363 36.8336 50.8012 36.6667 50.8059 36.4952C50.8105 36.3515 50.8661 36.3191 50.9959 36.3191C52.0759 36.3237 53.1605 36.3284 54.2404 36.3284C55.1814 36.7084 56.1037 37.1441 57.0307 37.552C58.412 38.1638 59.7886 38.771 61.1652 39.3921C62.5789 40.0271 63.9926 40.6529 65.4109 41.2832C66.9961 41.9878 68.5767 42.6969 70.1619 43.4015C71.608 44.0411 73.0541 44.6854 74.4956 45.3296C74.5883 45.3714 74.732 45.3945 74.6718 45.5614C73.5269 46.164 72.3172 46.595 71.0518 46.8731C70.5698 46.9797 70.0738 47.0492 69.5871 47.1327C69.5037 47.179 69.4156 47.1234 69.3415 47.179Z" fill="white"/>
<path d="M36.3074 13.7233C36.3399 12.8982 36.4372 12.0778 36.6272 11.2759C36.7756 10.6502 36.9285 10.0245 37.1649 9.41729C37.3457 8.94915 37.5496 8.49028 37.7443 8.02677C37.8555 7.76721 38.0224 7.53545 38.1614 7.28979C38.611 7.42421 39.0236 7.64669 39.45 7.83673C41.1789 8.60615 42.9077 9.37557 44.6366 10.145C45.8139 10.6688 46.9959 11.1832 48.1685 11.7209C48.2473 11.758 48.3678 11.7673 48.3261 11.9109C47.7467 12.4996 47.3389 13.1717 47.2508 14.0106C47.223 14.1126 47.2415 14.2146 47.2369 14.3165C47.2369 16.991 47.2369 19.6608 47.2369 22.3352C47.1581 22.5067 47.0329 22.414 46.9356 22.3676C46.347 22.1081 45.7537 21.8485 45.165 21.5843C42.8846 20.56 40.5995 19.5495 38.319 18.5344C37.7721 18.2934 37.2298 18.0478 36.6875 17.8021C36.4094 17.677 36.3908 17.6909 36.3908 17.9875C36.3908 20.8798 36.3862 23.7767 36.3908 26.669C36.3908 26.7107 36.3908 26.7478 36.3908 26.7895C36.4094 28.0549 36.3955 29.3202 36.4001 30.5856C36.4001 31.216 36.4094 31.8417 36.3955 32.4721C36.3677 32.6436 36.4789 32.8475 36.2889 32.9819C36.2935 26.757 36.2935 20.5368 36.2981 14.3119C36.2981 14.247 36.2889 14.1821 36.2842 14.1219C36.3213 13.9967 36.275 13.8577 36.3074 13.7233Z" fill="white"/>
<path d="M46.4907 0.647742C46.7317 0.629202 46.9171 0.786794 47.121 0.87486C48.2474 1.36618 49.369 1.88067 50.4907 2.38125C51.8627 2.99308 53.2439 3.59564 54.6159 4.20747C55.5939 4.64316 56.5673 5.08813 57.5453 5.52382C58.7782 6.07076 60.0204 6.61306 61.2533 7.16463C62.2313 7.60033 63.2047 8.04529 64.1827 8.48099C65.4156 9.02793 66.6578 9.57023 67.8907 10.1218C68.8687 10.5575 69.8421 11.0025 70.8201 11.4382C72.053 11.9851 73.2952 12.5274 74.5281 13.0743C75.4969 13.5054 76.4656 13.9457 77.4343 14.3814C78.6672 14.9284 79.9094 15.466 81.1377 16.0269C81.6476 16.2586 82.1806 16.4487 82.6673 16.736C82.1157 17.3664 81.4066 17.7001 80.5815 17.8067C80.5259 17.8299 80.4703 17.8206 80.4147 17.8206C78.5421 17.8206 76.6695 17.8206 74.797 17.8206C74.7413 17.8206 74.6857 17.8253 74.6301 17.8067C73.0217 17.6908 71.8213 16.3745 71.6637 14.8913C71.6219 14.7151 71.6868 14.5297 71.6266 14.3536C71.5895 13.5703 71.3392 12.8658 70.8479 12.2493C70.3705 11.6467 69.7726 11.2481 69.0309 11.0581C68.8965 11.021 68.7575 11.0025 68.6184 10.97C68.5443 10.9237 68.4608 10.9468 68.382 10.9468C66.1989 10.9468 64.0158 10.9468 61.8373 10.9468C61.4758 10.8124 61.1328 10.6363 60.7805 10.4787C59.2093 9.78344 57.638 9.09282 56.076 8.38829C54.5232 7.69303 52.9705 7.00241 51.4177 6.31178C49.7167 5.55627 48.0202 4.79148 46.3145 4.0406C45.2531 3.57246 44.1917 3.09969 43.1349 2.62228C43.0097 2.56666 42.8243 2.54812 42.8151 2.34417C43.9182 1.59793 45.1187 1.07417 46.3794 0.661647C46.4072 0.643107 46.449 0.647742 46.4907 0.647742Z" fill="white"/>
<path d="M74.6672 45.5707C74.6625 45.4826 74.6023 45.4502 74.5328 45.4177C73.4713 44.9496 72.4145 44.4861 71.3531 44.0179C70.4215 43.6054 69.4898 43.1836 68.5535 42.7665C67.4226 42.2612 66.2916 41.7607 65.156 41.2601C64.3773 40.9124 63.5987 40.5648 62.82 40.2172C61.6751 39.7073 60.5256 39.1975 59.3807 38.6876C58.4398 38.2705 57.5036 37.844 56.5626 37.4269C55.9091 37.1349 55.2509 36.8521 54.5974 36.5601C54.4676 36.4999 54.3193 36.4674 54.2312 36.3423C54.3285 36.3376 54.4259 36.333 54.5186 36.333C58.8941 36.333 63.2696 36.333 67.6451 36.333C67.7424 36.333 67.8397 36.3284 67.9324 36.3237C68.0251 36.282 68.1317 36.3423 68.2244 36.2866C68.5582 36.2866 68.8455 36.1291 69.1422 36.0085C70.4493 36.625 71.7749 37.1905 73.0912 37.7791C74.6533 38.479 76.2153 39.1697 77.7727 39.8649C78.5096 40.194 79.2466 40.5185 79.9836 40.8475C80.0809 40.8939 80.2014 40.931 80.1829 41.0839C79.9511 41.4408 79.6545 41.7467 79.3671 42.0573C78.0137 43.4942 76.4702 44.6715 74.7043 45.5568C74.6996 45.5614 74.6857 45.566 74.6672 45.5707Z" fill="white"/>
<path d="M42.8058 2.33496C43.0561 2.59452 43.4084 2.66405 43.7189 2.80774C44.5208 3.18318 45.3366 3.52617 46.1431 3.88771C47.2833 4.39293 48.4235 4.89815 49.5591 5.40337C50.4768 5.81125 51.3946 6.22377 52.3123 6.63166C53.4294 7.12761 54.5464 7.61893 55.6635 8.11951C56.4792 8.48105 57.2904 8.85185 58.1061 9.21802C59.2093 9.70934 60.3124 10.1914 61.4156 10.6873C61.5315 10.7383 61.689 10.7522 61.7354 10.9098C61.6427 10.9608 61.5454 10.933 61.4527 10.933C57.8466 10.933 54.2451 10.933 50.6391 10.9376C50.5464 10.9376 50.4444 10.9145 50.3517 10.9608C49.6611 11.0164 49.0678 11.2992 48.5394 11.7349C48.4652 11.7951 48.3911 11.8554 48.3169 11.9156C48.1408 11.7117 47.8766 11.6653 47.6495 11.5587C46.8615 11.1926 46.0643 10.8542 45.267 10.5019C44.1407 10.006 43.0144 9.5054 41.8927 9.00481C40.924 8.57375 39.9553 8.13805 38.9865 7.69772C38.7038 7.56794 38.3979 7.48915 38.1476 7.28984C38.4211 6.72436 38.7826 6.21914 39.158 5.71855C39.6493 5.06037 40.1916 4.43928 40.7988 3.88307C41.4338 3.31296 42.0827 2.77529 42.8058 2.33496Z" fill="white"/>
<path d="M83.5387 31.5868C83.5387 31.8649 83.5387 32.1384 83.5387 32.4165C83.534 32.5741 83.5294 32.727 83.5247 32.8846C83.4784 32.982 83.5294 33.0886 83.4877 33.1859C83.3532 34.4281 83.0705 35.6379 82.6487 36.8105C82.6395 36.8337 82.6209 36.8476 82.607 36.8661C82.3938 36.6576 82.1018 36.5834 81.8422 36.4675C80.1133 35.6981 78.3891 34.9194 76.6556 34.1546C75.1214 33.4779 73.5964 32.7919 72.0669 32.1106C71.8166 31.9993 71.8166 32.004 71.6312 32.2172C71.5802 31.2392 71.8027 30.3353 72.4099 29.5567C72.9614 28.8521 73.6706 28.3747 74.5652 28.2079C74.6811 28.1847 74.7969 28.1661 74.9174 28.1476C74.9499 28.143 74.9082 28.143 74.9406 28.143C76.7066 28.1291 78.4725 28.1244 80.2385 28.143C81.1655 28.2774 81.9581 28.6575 82.5885 29.3666C83.0705 29.9136 83.3764 30.5393 83.4877 31.2624C83.5016 31.3643 83.5201 31.4756 83.5387 31.5868Z" fill="white"/>
<path d="M36.3306 32.5091C36.3259 31.0722 36.3259 29.64 36.3213 28.2031C36.3213 27.7211 36.3259 27.2344 36.3306 26.7523C36.4511 26.7014 36.553 26.7709 36.6504 26.8126C37.6516 27.2437 38.6388 27.6979 39.6307 28.1382C41.1557 28.8149 42.676 29.4963 44.2009 30.1684C45.165 30.5948 46.1244 31.0398 47.0932 31.4523C47.1581 31.4801 47.2322 31.5033 47.2322 31.596C47.2229 31.9807 47.2461 32.3608 47.2183 32.7455C47.2137 32.9216 47.209 33.0977 47.2044 33.2692C47.1534 33.3805 47.209 33.5056 47.1673 33.6169C47.1627 33.6957 47.1581 33.7745 47.1534 33.8532C47.1071 33.932 47.1534 34.0247 47.1163 34.1035C46.968 35.0769 46.7826 36.041 46.4767 36.9773C46.4674 37.0051 46.4489 37.0283 46.4304 37.0561C44.8405 36.333 43.2414 35.6285 41.6423 34.9193C40.2426 34.2982 38.8428 33.6817 37.4476 33.0467C37.0814 32.8752 36.6782 32.7501 36.3306 32.5091Z" fill="white"/>
<path d="M71.6312 32.2126C71.7054 32.1291 71.6451 32.0225 71.6868 31.9113C71.8537 31.9067 71.9974 32.004 72.1457 32.0689C73.6243 32.7224 75.0982 33.376 76.5722 34.0388C77.8422 34.6043 79.1075 35.179 80.3775 35.7445C81.0218 36.0319 81.6754 36.3053 82.315 36.602C82.4309 36.6576 82.6209 36.6576 82.6116 36.8662C82.1389 38.1362 81.4853 39.3088 80.7205 40.4166C80.5583 40.6484 80.3729 40.8616 80.1968 41.0841C80.0438 40.8477 79.7657 40.8152 79.5386 40.7133C78.5467 40.2544 77.5455 39.8187 76.549 39.3784C75.4458 38.8917 74.3473 38.405 73.2442 37.9183C72.3033 37.5012 71.367 37.0794 70.4307 36.6576C70.0645 36.4954 69.6984 36.3239 69.3368 36.157C69.2673 36.1246 69.1746 36.1107 69.1607 36.0133C69.8699 35.6332 70.4307 35.0956 70.8571 34.4189C71.2418 33.807 71.506 33.1489 71.5802 32.4211C71.5802 32.347 71.6127 32.2821 71.6312 32.2126Z" fill="white"/>
<path d="M36.3306 32.5092C36.7199 32.6111 37.0722 32.8151 37.4384 32.9727C38.7408 33.5428 40.0386 34.1268 41.3411 34.7062C42.282 35.1233 43.2183 35.5498 44.1592 35.9669C44.8498 36.2728 45.5405 36.5787 46.2311 36.8847C46.3145 36.9217 46.4258 36.931 46.4397 37.0561C46.2357 37.7839 45.9252 38.4698 45.5868 39.1419C45.3504 39.6101 45.1233 40.0828 44.7989 40.4954C44.4002 40.2173 43.9321 40.0782 43.4964 39.8743C42.7038 39.5035 41.8927 39.1605 41.0908 38.8082C39.9413 38.2983 38.7964 37.7931 37.6516 37.2786C36.6968 36.8522 35.7419 36.4211 34.7871 35.9947C34.6944 35.953 34.5785 35.9298 34.5739 35.7908C35.2784 35.2809 35.7929 34.632 36.0849 33.807C36.1776 33.5381 36.1915 33.2554 36.2842 32.9866C36.363 32.8336 36.2935 32.6667 36.3306 32.5092Z" fill="white"/>
<path d="M48.7155 41.9971C49.8187 42.4838 50.9218 42.9704 52.0203 43.4618C52.8222 43.8186 53.6194 44.1802 54.4166 44.5371C55.5383 45.0377 56.6646 45.5336 57.7863 46.0342C58.5279 46.3633 59.2695 46.6924 60.0111 47.0261C60.1038 47.0678 60.1826 47.1188 60.1919 47.2347C60.127 47.281 60.0529 47.2579 59.9787 47.2579C56.4514 47.2579 52.9195 47.2579 49.3922 47.2579C49.3273 47.2579 49.2624 47.2671 49.2022 47.244C49.1188 47.2393 49.04 47.23 48.9565 47.2254C48.8128 47.193 48.6738 47.2161 48.5301 47.2115C48.1408 47.1698 47.7468 47.1559 47.3621 47.0817C46.6344 46.9427 45.9206 46.7619 45.2253 46.5023C44.9936 46.4143 44.9843 46.405 45.1836 46.2521C45.5637 45.9647 45.8881 45.6124 46.2033 45.2694C47.0423 44.3609 47.8209 43.4061 48.4791 42.354C48.5579 42.2288 48.6367 42.1129 48.7155 41.9971Z" fill="white"/>
<path d="M49.2021 47.2418C52.7711 47.2418 56.3355 47.2418 59.9045 47.2418C60.0018 47.2418 60.0992 47.2336 60.1919 47.2255C60.2892 47.2336 60.3865 47.2418 60.4792 47.2418C63.061 47.2418 65.6427 47.2418 68.2244 47.2499C68.1456 47.3639 68.0529 47.3151 67.9695 47.3151C61.8002 47.3151 55.6263 47.3151 49.4571 47.3151C49.3736 47.3151 49.2763 47.3639 49.2021 47.2418Z" fill="white"/>
<path d="M47.2277 32.7456C47.223 32.3423 47.2184 31.9391 47.2138 31.5358C47.1303 31.4431 47.1396 31.3272 47.1396 31.216C47.1396 28.3794 47.1396 25.5427 47.1396 22.706C47.1396 22.5948 47.135 22.4789 47.2138 22.3862C47.2184 22.363 47.223 22.3399 47.223 22.3167C47.223 19.633 47.223 16.9493 47.2184 14.261C47.223 14.2471 47.2369 14.2378 47.2555 14.2332C47.2601 14.3398 47.2647 14.4417 47.2647 14.5483C47.2647 20.5229 47.2647 26.4929 47.2647 32.4675C47.2601 32.5602 47.2925 32.6621 47.2277 32.7456Z" fill="white"/>
<path d="M50.361 11.0053C50.4815 10.8872 50.6159 10.9326 50.741 10.9326C54.31 10.9326 57.8837 10.9326 61.4527 10.9326C61.55 10.9326 61.6473 10.9235 61.74 10.9144C62.2406 10.9235 62.7366 10.9326 63.2372 10.9326C64.9197 10.9326 66.6022 10.9326 68.2847 10.9326C68.396 10.9326 68.5118 10.8872 68.6138 11.0144C62.528 11.0053 56.4422 11.0053 50.361 11.0053Z" fill="white"/>
<path d="M405.142 7.39185C404.972 7.7438 405.049 8.12928 405.049 8.51476C405.049 16.8612 405.049 25.2244 405.049 33.5708C405.049 33.8054 405.111 34.0568 405.034 34.2579C404.957 34.4758 404.833 34.325 404.771 34.1909C405.096 33.8892 404.941 33.487 404.957 33.1183C404.972 24.8724 404.957 16.6098 404.972 8.36392C404.957 8.02872 404.818 7.64324 405.142 7.39185Z" fill="white"/>
<path d="M74.6255 17.7994C76.6093 17.7994 78.5931 17.7994 80.5769 17.7994C80.5074 17.9394 80.4239 17.8794 80.3451 17.8794C78.5143 17.8794 76.6881 17.8794 74.8572 17.8794C74.7784 17.8794 74.6904 17.9294 74.6255 17.7994Z" fill="white"/>
<path d="M80.2339 28.185C78.4587 28.185 76.6881 28.195 74.9128 28.195C74.9731 28.065 75.0473 28.115 75.1214 28.115C76.7576 28.115 78.3938 28.115 80.0253 28.115C80.0948 28.105 80.1736 28.065 80.2339 28.185Z" fill="white"/>
<path d="M296.172 43.4988C296.242 43.3643 296.364 43.2466 296.364 43.1121C296.346 40.1355 296.468 37.1589 296.311 34.1824C296.643 34.3842 296.521 34.7037 296.521 34.9728C296.521 37.5625 296.521 40.1355 296.521 42.7253C296.521 43.0112 296.66 43.3979 296.172 43.4988Z" fill="white"/>
<path d="M296.304 20.1845C296.402 17.0945 296.48 14.0045 296.265 10.9144C296.597 11.032 296.539 11.2839 296.539 11.519C296.539 14.2396 296.539 16.9434 296.539 19.6639C296.539 19.8655 296.558 20.0838 296.304 20.1845Z" fill="white"/>
<path d="M346.557 29.3156C346.557 27.9152 346.557 26.5149 346.557 25.0977C346.798 26.498 346.798 27.8983 346.557 29.3156Z" fill="white"/>
<path d="M279.254 15.6399C280.696 15.3989 282.122 15.3989 283.565 15.6399C282.139 15.6399 280.696 15.6399 279.254 15.6399Z" fill="white"/>
<path d="M252.512 28.9448C252.512 27.7916 252.512 26.6217 252.512 25.4685C252.753 26.6217 252.753 27.7916 252.512 28.9448Z" fill="white"/>
<path d="M267.386 28.8057C267.145 27.7453 267.145 26.668 267.386 25.6075C267.386 26.668 267.386 27.7453 267.386 28.8057Z" fill="white"/>
<path d="M283.889 7.51797C283.178 7.49943 282.468 7.55505 281.757 7.36965C282.468 7.44381 283.195 7.22133 283.889 7.51797Z" fill="white"/>
<path d="M280.459 7.38031C279.75 7.56571 279.007 7.49155 278.281 7.52863C278.99 7.19491 279.733 7.43593 280.459 7.38031Z" fill="white"/>
<path d="M229.752 7.3913C229.093 7.42838 228.434 7.484 227.759 7.52109C228.417 7.2059 229.093 7.44692 229.752 7.3913Z" fill="white"/>
<path d="M71.632 14.3444C71.732 14.5205 71.682 14.7013 71.712 14.882C71.532 14.7059 71.662 14.5205 71.632 14.3444Z" fill="white"/>
<path d="M282.313 38.8082C281.716 38.9565 281.119 38.9565 280.505 38.8082C281.119 38.8082 281.716 38.8082 282.313 38.8082Z" fill="white"/>
<path d="M48.53 47.2442C48.6737 47.1652 48.8174 47.1257 48.9565 47.2738C48.8128 47.264 48.6691 47.2541 48.53 47.2442Z" fill="white"/>
<path d="M258.296 28.0178C258.351 28.553 258.387 29.1049 258.443 29.6401C258.112 29.1216 258.332 28.553 258.296 28.0178Z" fill="white"/>
<path d="M258.436 24.7269C258.381 25.2621 258.344 25.814 258.288 26.3492C258.344 25.7973 258.121 25.2454 258.436 24.7269Z" fill="white"/>
<path d="M68.7574 47.2717C68.8687 47.1717 68.9846 47.1917 69.0958 47.1917C68.9938 47.3517 68.8733 47.2417 68.7574 47.2717Z" fill="white"/>
<path d="M47.1806 33.6216C47.1706 33.5057 47.1706 33.3852 47.2606 33.2739C47.2306 33.3898 47.3406 33.5103 47.1806 33.6216Z" fill="white"/>
<path d="M302.422 24.4025C302.422 24.831 302.435 25.2596 302.31 25.6539C302.352 25.2425 302.199 24.7968 302.422 24.4025Z" fill="white"/>
<path d="M302.31 28.713C302.435 29.1245 302.422 29.553 302.422 29.9645C302.199 29.5873 302.352 29.1416 302.31 28.713Z" fill="white"/>
<path d="M83.4955 33.1858C83.4855 33.0838 83.4855 32.9819 83.5755 32.8845C83.5555 32.9819 83.6555 33.0885 83.4955 33.1858Z" fill="white"/>
<path d="M68.2337 36.2934C68.141 36.4024 68.039 36.3826 67.9417 36.3727C68.0298 36.2141 68.1364 36.3132 68.2337 36.2934Z" fill="white"/>
<path d="M69.3415 47.2272C69.4157 47.1372 69.4991 47.1372 69.5825 47.1472C69.5084 47.2872 69.4203 47.2072 69.3415 47.2272Z" fill="white"/>
<path d="M208.405 24.2634C208.442 24.5677 208.405 24.8559 208.275 25.1441C208.294 24.8399 208.164 24.5356 208.405 24.2634Z" fill="white"/>
<path d="M208.279 29.2693C208.409 29.5575 208.427 29.8457 208.409 30.1499C208.168 29.8777 208.297 29.5735 208.279 29.2693Z" fill="white"/>
<path d="M47.1285 34.1036C47.1185 34.0155 47.1285 33.9321 47.2085 33.8533C47.1985 33.9367 47.2785 34.0294 47.1285 34.1036Z" fill="white"/>
<path d="M252.342 30.8915C252.324 30.5767 252.324 30.2618 252.491 29.9645C252.454 30.2793 252.602 30.6116 252.342 30.8915Z" fill="white"/>
<path d="M284.77 38.6118C284.492 38.7787 284.199 38.7787 283.889 38.7601C284.166 38.482 284.476 38.6303 284.77 38.6118Z" fill="white"/>
<path d="M47.3074 14.2331C47.2774 14.2424 47.2574 14.2516 47.2274 14.2609C47.2374 14.1775 47.1574 14.0894 47.2974 14.0106C47.2974 14.0894 47.3074 14.1589 47.3074 14.2331Z" fill="white"/>
<path d="M252.491 24.4024C252.324 24.105 252.324 23.7902 252.342 23.4753C252.602 23.7552 252.454 24.105 252.491 24.4024Z" fill="white"/>
<path d="M0.0102539 30.8638C1.09949 31.3458 2.18873 31.8232 3.27797 32.3053C4.69166 32.931 6.10072 33.5521 7.51441 34.1825C8.60829 34.6692 9.70216 35.1651 10.796 35.6518C12.3441 36.3424 13.9015 37.0238 15.4496 37.7144C16.5435 38.2011 17.6374 38.697 18.7313 39.1837C20.1403 39.8094 21.554 40.4305 22.9677 41.0609C24.094 41.5615 25.2111 42.0713 26.3374 42.5719C27.7094 43.1838 29.0906 43.7863 30.4626 44.3935C31.4406 44.8292 32.4139 45.2742 33.3919 45.7099C34.1382 46.0436 34.8891 46.3773 35.6399 46.7157C35.7234 46.7527 35.8346 46.7667 35.8439 46.8918C35.4406 47.0077 35.0281 47.0818 34.611 47.1282C34.3746 47.156 34.1336 47.1792 33.8972 47.2023C33.772 47.207 33.6422 47.1838 33.5217 47.2163C33.4244 47.2255 33.327 47.2302 33.2251 47.2394C33.1463 47.2626 33.0629 47.2487 32.9841 47.2487C26.7545 47.2487 20.525 47.2487 14.2955 47.2487C14.2167 47.2487 14.1333 47.258 14.0545 47.2348C13.8644 47.2302 13.6744 47.2255 13.4844 47.2209C13.387 47.1745 13.2804 47.2209 13.1831 47.1884C12.4647 47.1606 11.7555 47.0355 11.0602 46.8733C10.1008 46.6461 9.16913 46.3217 8.27456 45.9138C7.33364 45.4827 6.45298 44.9543 5.63258 44.3286C5.22933 44.0227 4.85389 43.689 4.47845 43.346C4.17717 43.0725 3.9037 42.7712 3.63023 42.4746C3.06012 41.8628 2.56881 41.1814 2.12384 40.4722C1.63716 39.6889 1.22464 38.8639 0.90482 38.0018C0.631352 37.2509 0.394964 36.4815 0.265182 35.6842C0.204926 35.3181 0.130765 34.9565 0.102955 34.5904C0.0658746 34.5116 0.112225 34.4189 0.0658746 34.3401C0.0612395 34.2474 0.0566045 34.15 0.0519694 34.0573C0.019524 33.9461 0.0705097 33.8209 0.019524 33.7097C0.0102539 32.7595 0.0102539 31.8093 0.0102539 30.8638Z" fill="white"/>
<path d="M15.3941 8.24924C15.3292 8.65249 15.2457 9.04647 15.065 9.41727C14.5829 10.4231 13.7811 11.0256 12.7196 11.2945C11.8158 11.5216 11.2457 12.0685 10.9815 12.9585C10.9444 13.0743 10.9351 13.1902 10.9398 13.3107C10.9073 13.3895 10.9212 13.4683 10.9212 13.5471C10.9212 14.6873 10.9212 15.8322 10.9212 16.9724C10.8934 17.1671 10.7683 17.0697 10.6895 17.0373C10.416 16.9353 10.1564 16.8102 9.89224 16.6897C7.46347 15.6051 5.03006 14.5205 2.60129 13.4405C1.82724 13.0975 1.05319 12.7499 0.279131 12.4115C0.1957 12.3744 0.116904 12.342 0.065918 12.2632C0.0890933 11.6236 0.218875 10.9978 0.357927 10.3767C0.538694 9.56096 0.793622 8.773 1.13198 8.01748C1.55377 7.0812 2.06363 6.1959 2.67546 5.36159C3.21776 4.62462 3.86667 3.99425 4.5063 3.35461C5.1274 3.60027 5.73459 3.88765 6.34642 4.16111C7.93161 4.86101 9.5168 5.57017 11.0974 6.27934C12.4693 6.89116 13.8413 7.49836 15.2087 8.10555C15.2828 8.13799 15.3616 8.16117 15.3941 8.24924Z" fill="white"/>
<path d="M0.0612323 12.2678C0.784301 12.583 1.50737 12.8936 2.2258 13.2134C3.35212 13.7093 4.47844 14.2099 5.60013 14.7105C6.39272 15.0628 7.18532 15.4243 7.97791 15.7766C8.94664 16.2076 9.92 16.634 10.8887 17.0651C10.9304 17.1207 10.9119 17.1903 10.9119 17.2505C10.9119 19.8879 10.9119 22.5206 10.9119 25.1579C10.9119 25.2228 10.9304 25.2877 10.8887 25.3433C10.6477 25.3619 10.4623 25.2043 10.263 25.1162C9.16449 24.6388 8.07525 24.1382 6.98137 23.6515C5.43326 22.9609 3.88052 22.2795 2.33241 21.5889C1.67887 21.2969 1.02532 21.0003 0.376416 20.7083C0.26054 20.6573 0.144663 20.597 0.0102467 20.5924C0.00561162 19.6978 0.000976562 18.8033 0.000976562 17.9041C0.000976562 16.1844 0.000976562 14.4695 0.000976562 12.7499C0.0612323 12.6247 -0.0036585 12.4857 0.038057 12.3605C0.0519622 12.3327 0.0565973 12.3003 0.0612323 12.2678Z" fill="white"/>
<path d="M82.8481 10.2331C81.8469 9.7881 80.8504 9.34313 79.8492 8.9028C78.6163 8.35586 77.3787 7.81356 76.1411 7.26662C75.191 6.84483 74.25 6.41841 73.2998 5.99662C72.1828 5.50067 71.0658 5.00935 69.9487 4.50877C69.1422 4.14723 68.3357 3.78106 67.5292 3.42416C66.4214 2.92821 65.309 2.44153 64.1966 1.95021C63.4225 1.60722 62.6531 1.26423 61.8837 0.916596C61.3414 0.670938 60.7991 0.420645 60.2568 0.184257C60.1734 0.147176 60.0946 0.114731 60.0482 0.0312998C60.7806 0.0266647 61.5175 0.0220297 62.2499 0.0220297C64.4608 0.0220297 66.6717 -0.0382261 68.8826 0.0405699C72.4841 0.174987 75.6637 1.4728 78.417 3.79033C80.4193 5.47286 81.8932 7.53546 82.7832 10.0059C82.8064 10.0801 82.8249 10.1543 82.8481 10.2331Z" fill="white"/>
<path d="M15.394 8.24924C14.2724 7.75329 13.146 7.2527 12.0244 6.75675C10.6153 6.13102 9.20624 5.50992 7.79718 4.88419C6.76819 4.42995 5.74385 3.97108 4.71486 3.51221C4.63607 3.47513 4.54337 3.45196 4.50629 3.35925C5.02541 2.87721 5.59089 2.44615 6.18881 2.06607C7.19926 1.4218 8.28386 0.925849 9.43335 0.582854C10.1703 0.365007 10.9166 0.22132 11.6721 0.105443C11.7555 0.0776331 11.8436 0.114714 11.927 0.072998C12.0475 0.072998 12.1727 0.072998 12.2932 0.072998C12.3859 0.128619 12.4925 0.068363 12.5898 0.110079C13.35 0.2584 14.0128 0.582855 14.5319 1.16687C14.9769 1.66746 15.255 2.24684 15.357 2.91429C15.4172 3.29436 15.3987 3.6698 15.3987 4.04524C15.4033 5.4404 15.394 6.84482 15.394 8.24924Z" fill="white"/>
<path d="M10.8981 25.3434C10.9072 25.2553 10.9163 25.1673 10.9163 25.0792C10.9163 22.4975 10.9163 19.9111 10.9163 17.3294C10.9163 17.2413 10.9072 17.1533 10.8981 17.0652C10.9072 15.9064 10.9072 14.7523 10.9253 13.5935C10.9253 13.5008 10.8708 13.3989 10.989 13.3108C10.989 13.3571 10.9981 13.4081 10.9981 13.4545C10.9981 20.0502 10.9981 26.6459 10.9981 33.2415C10.889 33.121 10.9253 32.9866 10.9253 32.8615C10.9253 30.4512 10.9253 28.041 10.9253 25.6354C10.9163 25.5334 10.8981 25.4361 10.8981 25.3434Z" fill="white"/>
<path d="M14.0499 47.2445C20.335 47.2445 26.6201 47.2445 32.9053 47.2347C33.0119 47.2347 33.1139 47.2445 33.2205 47.2445C33.1417 47.3807 33.049 47.3223 32.9655 47.3223C26.7453 47.3223 20.525 47.3223 14.3094 47.3223C14.2167 47.3223 14.124 47.3807 14.0499 47.2445Z" fill="white"/>
<path d="M191.651 7.34546C191.636 7.69854 191.59 8.0348 191.59 8.38788C191.59 16.7777 191.59 25.1843 191.59 33.5741C191.59 33.8095 191.651 34.0617 191.574 34.2635C191.45 34.5998 191.373 34.2803 191.281 34.1962C191.574 33.9104 191.45 33.5405 191.45 33.2043C191.45 24.9321 191.45 16.66 191.466 8.38788C191.45 8.05162 191.281 7.63128 191.651 7.34546Z" fill="white"/>
<path d="M150.946 33.9971C150.946 25.5089 150.93 17.004 150.93 8.51577C150.93 8.14672 150.88 7.7609 150.863 7.39185C151.18 7.59315 151.08 7.91187 151.08 8.18027C151.08 16.5343 151.08 24.905 151.08 33.259C151.08 33.4938 151.146 33.779 150.946 33.9971Z" fill="white"/>
<path d="M36.3529 13.7233C36.3431 13.8577 36.4213 13.9967 36.2845 14.1312C36.304 13.9921 36.1965 13.853 36.3529 13.7233Z" fill="white"/>
<path d="M33.5125 47.2691C33.6376 47.1291 33.7627 47.1591 33.8879 47.2391C33.7627 47.2491 33.6376 47.2591 33.5125 47.2691Z" fill="white"/>
<path d="M0.093449 12.3652C0.103449 12.495 0.103449 12.6294 0.013449 12.7546C0.043449 12.6248 -0.076551 12.4904 0.093449 12.3652Z" fill="white"/>
<path d="M120.015 30.9378C119.792 30.476 119.866 29.9799 119.866 29.501C120.182 29.9628 119.959 30.4589 120.015 30.9378Z" fill="white"/>
<path d="M0.0162944 33.7096C0.0962944 33.8208 0.0962944 33.9367 0.0862944 34.0572C-0.0637056 33.946 0.0362944 33.8255 0.0162944 33.7096Z" fill="white"/>
<path d="M13.1785 47.2006C13.2804 47.1806 13.3824 47.1906 13.4797 47.2706C13.3778 47.2506 13.2712 47.3406 13.1785 47.2006Z" fill="white"/>
<path d="M12.5899 0.156229C12.4879 0.166229 12.3905 0.156229 12.2932 0.0762292C12.3952 0.0962292 12.5018 -0.00377077 12.5899 0.156229Z" fill="white"/>
<path d="M141.762 30.0109C141.781 30.3933 141.799 30.7756 141.614 31.1233C141.651 30.7583 141.484 30.3585 141.762 30.0109Z" fill="white"/>
<path d="M14.1889 36.3723C14.0869 36.3823 13.985 36.4023 13.8923 36.2923C13.9896 36.3123 14.0962 36.2223 14.1889 36.3723Z" fill="white"/>
<path d="M11.927 0.0792497C11.8436 0.14925 11.7602 0.15925 11.6721 0.14925C11.7509 0.00924974 11.8436 0.0892497 11.927 0.0792497Z" fill="white"/>
<path d="M49.2531 0.0759766C49.1743 0.165977 49.0909 0.165977 49.0074 0.155977C49.0816 0.00597657 49.1697 0.0859766 49.2531 0.0759766Z" fill="white"/>
<path d="M33.2761 36.2939C33.1973 36.3939 33.1139 36.3839 33.0258 36.3639C33.1046 36.2339 33.1927 36.3039 33.2761 36.2939Z" fill="white"/>
<path d="M0.064502 34.34C0.144502 34.4188 0.154502 34.5022 0.144502 34.5903C-0.00549804 34.5115 0.074502 34.4234 0.064502 34.34Z" fill="white"/>
<path d="M128.846 38.5573C128.525 38.5943 128.205 38.5943 127.919 38.4275C128.222 38.446 128.561 38.3162 128.846 38.5573Z" fill="white"/>
<path d="M133.76 38.4214C133.477 38.6068 133.178 38.5883 132.879 38.5697C133.145 38.3101 133.46 38.4399 133.76 38.4214Z" fill="white"/>
<path fill-rule="evenodd" clip-rule="evenodd" d="M327.384 7.52638L327.412 7.52863L327.411 7.52791C327.543 7.53513 327.679 7.53902 327.815 7.54291C327.962 7.54711 328.109 7.5513 328.251 7.55969C328.323 7.60761 328.396 7.63273 328.469 7.64499C328.699 7.71566 328.936 7.71222 329.174 7.69824L329.172 7.69675C331.599 8.14915 333.992 8.63605 336.252 9.67458C340.915 11.8063 344.052 15.2975 345.612 20.1819C346.115 21.7764 346.333 23.438 346.551 25.0996L346.551 25.0998C346.618 26.493 346.618 27.8861 346.551 29.296C346.182 32.6194 345.427 35.8253 343.515 38.6452C340.915 42.5057 337.225 44.8052 332.763 45.9466C331.736 46.2101 330.689 46.4322 329.645 46.6535L329.645 46.6536C329.359 46.7142 329.073 46.7748 328.788 46.8362H320.032C319.366 46.5861 318.667 46.4719 317.964 46.357H317.964L317.964 46.3569L317.964 46.3569C317.535 46.2867 317.104 46.2163 316.678 46.1144C313.105 45.2248 309.901 43.6806 307.301 41.0286C305.02 38.6955 303.628 35.8757 302.873 32.7034C302.655 31.8138 302.555 30.9074 302.471 30.001C302.4 29.8123 302.41 29.6162 302.42 29.4214C302.432 29.2003 302.444 28.9809 302.337 28.7757V25.637C302.444 25.4315 302.432 25.207 302.42 24.9838C302.41 24.7875 302.4 24.5923 302.471 24.4117C302.672 21.5582 303.527 18.9062 304.953 16.4389C305.926 14.7604 307.201 13.3337 308.727 12.1084C312.132 9.37246 316.074 8.19752 320.318 7.74433C320.804 7.69398 321.29 7.61007 321.777 7.52615L321.777 7.52612L321.786 7.52413C321.947 7.52043 322.11 7.52019 322.272 7.51994C322.61 7.51944 322.948 7.51894 323.282 7.48751C323.486 7.47962 323.689 7.4543 323.89 7.39185H325.249C325.615 7.49659 325.986 7.48331 326.357 7.47005L326.357 7.47005C326.407 7.46825 326.457 7.46646 326.507 7.46496C326.799 7.48399 327.09 7.50349 327.379 7.526L327.379 7.52612L327.384 7.52638ZM317.816 37.7211C320.002 38.6118 322.289 38.8638 324.861 38.8638C324.964 38.8602 325.07 38.8568 325.179 38.8533C326.076 38.8243 327.14 38.7899 328.19 38.595C332.091 37.8892 335.268 36.1583 336.832 32.2933C337.757 29.9743 337.925 27.5377 337.589 25.0507C337.017 20.8496 334.831 17.8752 330.796 16.4973C326.576 15.0689 322.272 15.1193 318.069 16.5981C314.672 17.7912 312.571 20.2447 311.713 23.74C311.125 26.0926 311.142 28.4788 311.747 30.8482C312.604 34.1586 314.639 36.444 317.816 37.7211Z" fill="white"/>
<path fill-rule="evenodd" clip-rule="evenodd" d="M232.409 7.46704C232.666 7.48511 232.924 7.50269 233.182 7.51721L233.165 7.50952C233.517 7.52625 233.852 7.54297 234.204 7.55981C234.239 7.58435 234.276 7.60229 234.314 7.61548C234.342 7.62512 234.37 7.63208 234.399 7.63708C234.483 7.66504 234.568 7.68262 234.654 7.69312C234.807 7.71179 234.962 7.70789 235.117 7.69897C235.231 7.72302 235.346 7.7467 235.46 7.77026C235.654 7.81006 235.847 7.84949 236.04 7.88879C237.805 8.24805 239.561 8.60547 241.256 9.28931C247.032 11.6403 250.659 15.7878 251.952 21.9169C252.069 22.4542 252.203 22.9749 252.321 23.5121C252.383 23.6443 252.377 23.7838 252.371 23.9238C252.363 24.0861 252.356 24.2489 252.455 24.4021C252.472 24.7548 252.489 25.1074 252.506 25.4432C252.573 26.6018 252.573 27.7773 252.506 28.9359C252.489 29.2886 252.472 29.6412 252.455 29.9771C252.356 30.1212 252.363 30.2845 252.371 30.4491C252.377 30.5914 252.383 30.7347 252.321 30.8671C251.868 33.1003 251.313 35.2833 250.205 37.3152C248.677 40.153 246.511 42.3191 243.741 43.8976C240.954 45.4928 237.931 46.3492 234.758 46.6851C234.736 46.697 234.714 46.7072 234.692 46.7157C234.671 46.7235 234.651 46.7301 234.63 46.7355C234.504 46.7676 234.373 46.7585 234.241 46.7494C234.05 46.7362 233.857 46.723 233.683 46.8362H225.959L225.936 46.8307C224.852 46.5807 223.769 46.3307 222.685 46.0973C219.663 45.4592 216.875 44.2334 214.508 42.252C212.527 40.5896 210.931 38.5746 209.89 36.1229C209.068 34.1919 208.564 32.2272 208.362 30.145C208.317 30.0085 208.319 29.8687 208.322 29.7284C208.325 29.5581 208.328 29.3872 208.245 29.2214V25.1241C208.351 24.9598 208.352 24.7843 208.352 24.6073C208.353 24.4768 208.353 24.3456 208.396 24.2174C208.48 21.9337 209.202 19.8011 210.125 17.7524C210.797 16.2581 211.805 14.9314 212.93 13.6888C216.321 9.96106 220.737 8.51697 225.489 7.76123C226.228 7.64368 226.984 7.59338 227.739 7.5094C228.044 7.4469 228.352 7.45703 228.66 7.46716C229.015 7.47888 229.37 7.4906 229.72 7.39185H231.215C231.562 7.50134 231.918 7.48682 232.274 7.47229L232.353 7.46912L232.409 7.46704ZM235.95 16.1758C234.167 15.6377 232.333 15.52 230.298 15.5032L230.193 15.5067C229.206 15.5393 228.053 15.5774 226.9 15.7722C222.509 16.5288 219.179 18.6475 217.799 23.0865C217.008 25.6423 217.008 28.2654 217.681 30.8717C218.607 34.4196 220.844 36.7399 224.276 37.9001C228.111 39.1948 231.997 39.1948 235.866 38.1859C238.574 37.4629 240.811 35.9496 242.224 33.4275C243.402 31.3257 243.688 29.0221 243.654 26.6512C243.57 21.3378 240.862 17.6387 235.95 16.1758Z" fill="white"/>
<path d="M47.2137 22.3862C47.2183 22.4418 47.2229 22.4974 47.2229 22.553C47.2229 25.4917 47.2229 28.4303 47.2229 31.3689C47.2229 31.4245 47.2183 31.4802 47.2137 31.5358C46.9031 31.4941 46.6436 31.3226 46.3655 31.2021C44.7988 30.5114 43.2368 29.8023 41.6701 29.107C40.1869 28.4442 38.7037 27.7814 37.2159 27.1232C36.9238 26.9934 36.6226 26.8729 36.3259 26.7478C36.3213 26.0201 36.3167 25.297 36.3167 24.5693C36.3167 22.3259 36.3167 20.0872 36.3167 17.8438C36.3167 17.575 36.3306 17.5657 36.5855 17.677C38.0038 18.312 39.4175 18.947 40.8358 19.582C42.4674 20.3097 44.0943 21.0374 45.7258 21.7605C46.1569 21.9551 46.5926 22.1452 47.0236 22.3398C47.0885 22.3676 47.1441 22.3908 47.2137 22.3862Z" fill="white"/>
</svg>
