<svg width="200" height="36" viewBox="0 0 200 36" fill="none" xmlns="http://www.w3.org/2000/svg">
<path d="M21.6724 0L18.8013 1.59599V15.1548L20.3692 16.0276V5.70162L25.7515 8.69456L25.7567 8.69215L26.8017 9.27239L27.6742 8.79046V7.97546L20.3692 3.91898V2.50724L21.6724 1.78298L29.2376 5.99036V9.73506L25.6059 11.7432L25.4833 11.6837C25.2622 11.5772 25.0332 11.5229 24.8031 11.5229C23.9389 11.5229 23.2355 12.2206 23.2355 13.0779C23.2355 13.9352 23.9389 14.6334 24.8031 14.6334C25.6049 14.6334 26.2716 14.0328 26.3537 13.2367L26.3676 13.1027L30.0329 11.076L33.4321 12.9666V21.3311L30.0291 23.2217L16.1984 15.5278V1.59702L13.3272 0L4.19477 5.0791V9.71409L0 12.044V22.2317L4.19477 24.5647V29.2079L13.3272 34.287L16.1984 32.6904V19.1023L14.6304 18.2306V28.5858L8.19828 25.0146L7.32544 25.4966V26.3119L14.6304 30.3687V31.7791L13.3272 32.5041L5.76236 28.2967V24.5513L9.39406 22.5442L9.51603 22.6033C9.73814 22.7099 9.96649 22.7642 10.1962 22.7642C11.0607 22.7642 11.7641 22.0667 11.7641 21.2091C11.7641 20.3511 11.0607 19.654 10.1962 19.654C9.3951 19.654 8.72912 20.2542 8.64596 21.0506L8.6328 21.1844L4.96678 23.2114L1.56758 21.3205V12.9559L4.97094 11.0657L18.8013 18.7586V32.6904L21.6724 34.287L30.8052 29.2079V24.5729L35 22.2434V12.0553L30.8052 9.72303V5.0791L21.6724 0ZM5.76236 5.99036L13.3272 1.78298L14.6304 2.50758V3.91829L5.76236 8.84306V5.99036ZM6.5756 10.175L14.6304 5.70093V14.6554L6.5756 10.175ZM20.3692 19.631L28.4247 24.1123L20.3692 28.5865V19.631ZM20.3692 31.7791V30.3691L29.2376 25.4436V28.2967L21.6724 32.5041L20.3692 31.7791Z" fill="white"/>
<path fill-rule="evenodd" clip-rule="evenodd" d="M140.656 24.8914C141.757 24.8914 142.655 24.5587 143.35 23.892C144.044 23.2257 144.392 22.4056 144.392 21.4314C144.392 20.4575 144.044 19.6377 143.35 18.9707C142.655 18.3047 141.757 17.9713 140.656 17.9713H135.153V24.8914H140.656ZM135.153 14.511H140.263C141.154 14.511 141.901 14.2228 142.504 13.646C143.107 13.0693 143.409 12.3967 143.409 11.6273C143.409 10.8586 143.107 10.186 142.504 9.60927C141.901 9.0322 141.154 8.74401 140.263 8.74401H135.153V14.511ZM145.178 16.0491C145.911 16.3821 146.567 16.8175 147.143 17.356C147.641 17.8172 148.093 18.4326 148.5 19.2013C148.906 19.9704 149.109 20.9063 149.109 22.0081C149.109 22.9309 148.913 23.8089 148.52 24.6415C148.126 25.4747 147.569 26.2055 146.849 26.8329C146.128 27.4613 145.276 27.9674 144.293 28.3518C143.31 28.7361 142.229 28.9285 141.049 28.9285H130.434V4.70725H140.656C141.731 4.70725 142.727 4.88685 143.645 5.24571C144.562 5.60492 145.355 6.09133 146.023 6.70632C146.691 7.32166 147.209 8.03318 147.576 8.83984C147.943 9.64754 148.126 10.5125 148.126 11.4353C148.126 12.2561 147.969 12.9607 147.655 13.5499C147.34 14.14 146.999 14.6137 146.632 14.9725C146.187 15.4086 145.702 15.7671 145.178 16.0491ZM75.6652 18.2547L72.342 28.7675H68.4326L62.5688 11.1823H67.0648L70.583 22.4594L74.2967 11.1823H77.0333L80.7471 22.4594L84.2656 11.1823H88.7612L82.8971 28.7675H78.988L75.6652 18.2547ZM90.5201 28.7676V11.1824H95.0158V28.7676H90.5201ZM168.921 19.975C168.921 21.2236 168.68 22.3902 168.198 23.4726C167.715 24.5561 167.064 25.5055 166.243 26.3207C165.422 27.1367 164.471 27.7803 163.389 28.2512C162.308 28.7231 161.155 28.9586 159.93 28.9586C158.704 28.9586 157.551 28.7231 156.47 28.2512C155.388 27.7803 154.437 27.1367 153.616 26.3207C152.795 25.5055 152.143 24.5561 151.662 23.4726C151.179 22.3902 150.938 21.2236 150.938 19.975C150.938 18.726 151.179 17.5602 151.662 16.477C152.143 15.3942 152.795 14.4449 153.616 13.6289C154.437 12.8136 155.388 12.17 156.47 11.6981C157.551 11.2268 158.704 10.9907 159.93 10.9907C161.155 10.9907 162.308 11.2268 163.389 11.6981C164.471 12.17 165.422 12.8136 166.243 13.6289C167.064 14.4449 167.715 15.3942 168.198 16.477C168.68 17.5602 168.921 18.726 168.921 19.975ZM155.434 19.975C155.434 21.4273 155.864 22.5873 156.724 23.4536C157.584 24.3203 158.652 24.7533 159.93 24.7533C161.206 24.7533 162.275 24.3203 163.135 23.4536C163.995 22.5873 164.426 21.4273 164.426 19.975C164.426 18.522 163.995 17.363 163.135 16.496C162.275 15.6297 161.206 15.1964 159.93 15.1964C158.652 15.1964 157.584 15.6297 156.724 16.496C155.864 17.363 155.434 18.522 155.434 19.975ZM179.665 10.9909C179.873 10.9909 180.055 11.0043 180.212 11.0291C180.368 11.055 180.511 11.0805 180.641 11.1053C180.772 11.1312 180.902 11.1567 181.033 11.1825V15.7695C180.902 15.7447 180.759 15.7188 180.603 15.6933C180.472 15.6678 180.309 15.6426 180.114 15.6168C179.919 15.5916 179.703 15.5789 179.469 15.5789C178.374 15.5789 177.481 15.9291 176.791 16.6299C176.1 17.3311 175.755 18.2546 175.755 19.4008V28.7674H171.259V11.1825H174.582L175.364 13.0937C175.677 12.7111 176.054 12.367 176.498 12.0613C176.862 11.7813 177.312 11.5328 177.847 11.3156C178.38 11.0995 178.986 10.9909 179.665 10.9909ZM60.4192 9.09856C60.6934 9.75182 60.8662 10.4478 60.948 11.1824H56.4054C56.2637 10.5547 55.9754 10.0304 55.5326 9.61462C54.8808 9.00341 53.9688 8.6973 52.796 8.6973C51.6232 8.6973 50.7105 8.9779 50.0594 9.53809C49.408 10.099 49.0822 10.7109 49.0822 11.3734C49.0822 12.087 49.3949 12.6348 50.0203 13.0171C50.6457 13.3997 51.4279 13.7434 52.3659 14.0492C53.304 14.3553 54.3266 14.6742 55.4346 15.0048C56.5422 15.3368 57.5652 15.7828 58.5033 16.343C59.442 16.9039 60.2235 17.6368 60.8493 18.5413C61.4746 19.4462 61.7873 20.6249 61.7873 22.0776C61.7873 22.9439 61.5723 23.7853 61.1426 24.6003C60.7121 25.4166 60.1065 26.1484 59.3246 26.7989C58.5427 27.4481 57.5976 27.971 56.49 28.3664C55.3821 28.7615 54.1511 28.9583 52.796 28.9583C51.4141 28.9583 50.1831 28.7677 49.102 28.385C48.0201 28.0027 47.1014 27.4619 46.3456 26.7603C45.5895 26.0598 45.0096 25.2311 44.6063 24.2752C44.2016 23.32 44 22.2685 44 21.1216H48.6909C48.6909 22.192 49.0558 23.0655 49.7859 23.7405C50.5149 24.4158 51.5188 24.7533 52.796 24.7533C54.1772 24.7533 55.2062 24.4669 55.8844 23.8932C56.5619 23.32 56.9011 22.6508 56.9011 21.8862C56.9011 21.1471 56.588 20.5739 55.9623 20.1657C55.3369 19.7586 54.5551 19.3956 53.6167 19.0764C52.6786 18.7582 51.6556 18.4455 50.5484 18.1401C49.4397 17.834 48.4174 17.4134 47.4793 16.8784C46.5413 16.343 45.7591 15.6491 45.1337 14.7945C44.508 13.9409 44.1956 12.8133 44.1956 11.4113C44.1956 10.494 44.3973 9.61462 44.8016 8.77383C45.2053 7.93235 45.7788 7.20014 46.5216 6.5755C47.2647 5.9512 48.1632 5.44755 49.2194 5.06525C50.2745 4.68329 51.4667 4.49196 52.796 4.49196C54.021 4.49196 55.135 4.68329 56.1382 5.06525C57.1415 5.44755 58.0083 5.98326 58.738 6.67099C59.4677 7.35906 60.0282 8.16883 60.4192 9.09856ZM126.974 21.0644C127.429 21.7142 127.658 22.5622 127.658 23.6064C127.658 24.3203 127.502 25.0018 127.189 25.6517C126.876 26.3015 126.433 26.8692 125.86 27.3529C125.286 27.8376 124.589 28.2261 123.768 28.5191C122.947 28.8118 122.029 28.9583 121.012 28.9583C118.667 28.9583 116.888 28.4367 115.676 27.3915C114.992 26.8013 114.478 26.0977 114.121 25.2883L117.885 23.2248C117.989 23.8112 118.276 24.3076 118.745 24.7154C119.214 25.1228 119.839 25.3266 120.621 25.3266C121.403 25.3266 122.022 25.1297 122.478 24.7343C122.934 24.3393 123.162 23.9001 123.162 23.4154C123.162 23.0079 122.934 22.6891 122.478 22.4595C122.022 22.2302 121.455 22.0199 120.778 21.8293C120.1 21.6376 119.363 21.4408 118.569 21.2364C117.773 21.0326 117.038 20.7334 116.36 20.338C115.682 19.943 115.115 19.4338 114.66 18.8088C114.203 18.1845 113.976 17.363 113.976 16.343C113.976 15.6294 114.125 14.9479 114.425 14.2977C114.724 13.6479 115.161 13.0812 115.735 12.5968C116.308 12.1125 116.986 11.7236 117.768 11.431C118.55 11.1379 119.435 10.9907 120.426 10.9907C122.589 10.9907 124.25 11.5013 125.41 12.5203C126.016 13.0529 126.489 13.6569 126.835 14.3287L123.162 16.3426C123.058 15.9607 122.777 15.5784 122.322 15.1964C121.866 14.8138 121.298 14.6224 120.621 14.6224C119.943 14.6224 119.416 14.7886 119.038 15.1199C118.66 15.4512 118.471 15.859 118.471 16.343C118.471 16.7508 118.699 17.0693 119.155 17.2989C119.611 17.5278 120.178 17.7384 120.856 17.9298C121.533 18.1207 122.269 18.3252 123.065 18.5413C123.859 18.7581 124.596 19.0705 125.273 19.4779C125.951 19.8857 126.517 20.4142 126.974 21.0644ZM111.141 21.0644C111.597 21.7142 111.825 22.5622 111.825 23.6064C111.825 24.3203 111.669 25.0018 111.356 25.6517C111.044 26.3015 110.6 26.8692 110.027 27.3529C109.453 27.8376 108.757 28.2261 107.936 28.5191C107.115 28.8118 106.196 28.9583 105.18 28.9583C102.834 28.9583 101.055 28.4367 99.8432 27.3915C99.1593 26.8013 98.645 26.0977 98.2886 25.2883L102.052 23.2248C102.156 23.8112 102.443 24.3076 102.912 24.7154C103.381 25.1228 104.007 25.3266 104.789 25.3266C105.57 25.3266 106.189 25.1297 106.645 24.7343C107.101 24.3393 107.33 23.9001 107.33 23.4154C107.33 23.0079 107.101 22.6891 106.645 22.4595C106.189 22.2302 105.622 22.0199 104.945 21.8293C104.267 21.6376 103.531 21.4408 102.736 21.2364C101.941 21.0326 101.205 20.7334 100.528 20.338C99.8495 19.943 99.2823 19.4338 98.8269 18.8088C98.3704 18.1845 98.143 17.363 98.143 16.343C98.143 15.6294 98.2925 14.9479 98.5921 14.2977C98.8917 13.6479 99.3285 13.0812 99.902 12.5968C100.475 12.1125 101.153 11.7236 101.935 11.431C102.717 11.1379 103.602 10.9907 104.593 10.9907C106.756 10.9907 108.417 11.5013 109.578 12.5203C110.183 13.0529 110.656 13.6569 111.002 14.3287L107.33 16.3426C107.225 15.9607 106.945 15.5784 106.49 15.1964C106.033 14.8138 105.466 14.6224 104.789 14.6224C104.111 14.6224 103.583 14.7886 103.205 15.1199C102.827 15.4512 102.639 15.859 102.639 16.343C102.639 16.7508 102.866 17.0693 103.323 17.2989C103.778 17.5278 104.345 17.7384 105.023 17.9298C105.7 18.1207 106.437 18.3252 107.232 18.5413C108.027 18.7581 108.763 19.0705 109.441 19.4779C110.118 19.8857 110.685 20.4142 111.141 21.0644ZM196.677 11.1823H200V27.6207C200 29.9145 199.25 31.7619 197.752 33.1639C196.253 34.5652 194.136 35.2667 191.399 35.2667C189.731 35.2667 188.382 34.973 187.353 34.3873C186.323 33.8006 185.509 33.138 184.91 32.3989C184.681 32.1149 184.479 31.8129 184.288 31.5026L187.881 29.5325C188.063 29.8631 188.311 30.1561 188.624 30.4116C188.91 30.6146 189.275 30.8063 189.718 30.9849C190.161 31.1627 190.721 31.2524 191.399 31.2524C192.676 31.2524 193.68 30.9145 194.409 30.2396C195.139 29.5642 195.504 28.691 195.504 27.6207V26.2824C195.139 26.6399 194.722 26.9584 194.253 27.238C193.836 27.4935 193.341 27.7162 192.768 27.9075C192.194 28.0988 191.542 28.1943 190.813 28.1943C189.692 28.1943 188.63 27.9778 187.627 27.5441C186.623 27.1112 185.75 26.512 185.007 25.7474C184.265 24.9828 183.678 24.0782 183.248 23.033C182.818 21.9882 182.604 20.8419 182.604 19.5927C182.604 18.3444 182.818 17.1975 183.248 16.1519C183.678 15.1071 184.265 14.2018 185.007 13.4375C185.75 12.6733 186.623 12.0745 187.627 11.6408C188.63 11.2078 189.692 10.991 190.813 10.991C191.595 10.991 192.299 11.093 192.924 11.2968C193.549 11.5012 194.083 11.7174 194.527 11.9466C195.021 12.2279 195.478 12.5454 195.895 12.9022L196.677 11.1823ZM92.7678 8.88817C92.0899 8.88817 91.4973 8.63962 90.989 8.14287C90.481 7.64577 90.2268 7.06663 90.2268 6.40372C90.2268 5.74115 90.481 5.16063 90.989 4.66388C91.4973 4.16713 92.0899 3.91858 92.7678 3.91858C93.4453 3.91858 94.0382 4.16713 94.5466 4.66388C95.0549 5.16063 95.3091 5.74115 95.3091 6.40372C95.3091 7.06663 95.0549 7.64577 94.5466 8.14287C94.0382 8.63962 93.4453 8.88817 92.7678 8.88817ZM195.348 21.3128C195.582 20.7778 195.7 20.2039 195.7 19.5927C195.7 18.9804 195.582 18.4071 195.348 17.8725C195.113 17.3371 194.8 16.8724 194.409 16.4767C194.018 16.0819 193.562 15.7696 193.041 15.5404C192.52 15.3108 191.972 15.1963 191.399 15.1963C190.8 15.1963 190.24 15.3108 189.718 15.5404C189.197 15.7696 188.741 16.0819 188.35 16.4767C187.959 16.8724 187.653 17.3371 187.431 17.8725C187.21 18.4071 187.099 18.9804 187.099 19.5927C187.099 20.2039 187.21 20.7778 187.431 21.3128C187.653 21.8482 187.959 22.3129 188.35 22.7083C188.741 23.1034 189.197 23.4157 189.718 23.6449C190.24 23.8745 190.8 23.989 191.399 23.989C191.972 23.989 192.52 23.8745 193.041 23.6449C193.562 23.4157 194.018 23.1034 194.409 22.7083C194.8 22.3129 195.113 21.8482 195.348 21.3128Z" fill="white"/>
</svg>
