<svg width="348" height="50" viewBox="0 0 348 50" fill="none" xmlns="http://www.w3.org/2000/svg">
<path d="M97.9971 17.1646H88.8257V40.9668H83.221V17.1646H74.0498V12.2692H98.1667L97.9971 17.1646Z" fill="white"/>
<path d="M109.376 24.5914C107.678 24.5914 106.319 24.9291 104.96 25.6043C103.602 26.2795 102.752 27.1236 102.073 28.3052V41.1347H96.6382V19.8648H101.564V24.4226C101.903 23.7474 102.413 23.0722 102.922 22.3969C103.432 21.8905 103.941 21.3841 104.621 20.8776C105.13 20.3712 105.809 20.0336 106.489 19.8648C107.168 19.696 107.678 19.5272 108.187 19.5272H108.867C109.036 19.5272 109.206 19.5272 109.376 19.5272V24.5914ZM119.397 37.4209C120.246 37.4209 121.265 37.2521 121.944 36.9145C122.793 36.5769 123.473 36.2393 123.812 35.564C124.492 35.0576 124.662 34.5512 124.662 34.0448V31.6814C123.982 31.3438 123.303 31.175 122.623 31.175C121.944 31.0062 121.095 31.0062 120.416 31.0062C119.057 31.0062 117.868 31.3438 117.019 32.0191C116.17 32.6943 115.66 33.5383 115.66 34.3824C115.66 35.2264 116 36.0705 116.679 36.7457C117.528 37.2521 118.377 37.4209 119.397 37.4209ZM117.868 41.4724C116.849 41.4724 115.83 41.3036 114.981 40.9659C114.131 40.6283 113.282 40.1219 112.603 39.6155C111.924 38.9402 111.414 38.265 111.075 37.4209C110.735 36.5769 110.565 35.7328 110.565 34.72C110.565 33.7071 110.735 32.8631 111.244 32.0191C111.754 31.175 112.263 30.4998 113.112 29.8245C113.962 29.1493 114.811 28.8117 116 28.4741C117.189 28.1364 118.377 27.9676 119.736 27.9676C120.755 27.9676 121.604 27.9676 122.454 28.1364C123.303 28.3053 124.152 28.4741 124.831 28.8117V27.63C124.831 26.2795 124.492 25.0979 123.643 24.4226C122.793 23.7474 121.604 23.241 120.076 23.241C118.887 23.241 117.868 23.4098 116.679 23.9162C115.49 24.4226 114.301 24.9291 113.282 25.7731L111.584 22.3969C114.301 20.54 117.358 19.696 120.416 19.696C123.473 19.696 125.85 20.3712 127.549 21.8905C129.247 23.4098 130.096 25.6043 130.096 28.4741V35.0576C130.096 35.564 130.266 36.0705 130.436 36.2393C130.606 36.4081 130.945 36.5769 131.455 36.5769V41.1347C130.606 41.3036 129.926 41.4724 129.077 41.4724C128.058 41.4724 127.209 41.3035 126.7 40.7971C126.19 40.2907 125.85 39.6155 125.681 38.9402V37.5898C124.831 38.7714 123.643 39.7843 122.284 40.4595C120.925 41.1347 119.397 41.4724 117.868 41.4724ZM145.722 36.7457C146.231 36.7457 146.741 36.5769 147.25 36.4081C147.759 36.2393 148.269 35.9017 148.779 35.7328C149.288 35.3952 149.628 35.0576 149.968 34.5512C150.307 34.2136 150.647 33.7071 150.817 33.2007V28.1364C150.647 27.4612 150.307 26.9548 149.968 26.4483C149.118 25.4355 148.269 24.7603 147.08 24.2538C146.571 24.085 146.061 23.9162 145.382 23.9162C144.533 23.9162 143.853 24.085 143.174 24.4226C142.495 24.7603 141.815 25.2667 141.476 25.9419C140.966 26.6172 140.626 27.2924 140.287 27.9676C139.947 28.8117 139.947 29.4869 139.947 30.331C139.947 31.175 140.117 32.019 140.457 32.8631C140.796 33.5383 141.136 34.2136 141.645 34.8888C142.155 35.3952 142.834 35.9017 143.514 36.2393C144.023 36.7457 144.872 36.7457 145.722 36.7457ZM144.363 41.4724C143.004 41.4724 141.645 41.1347 140.287 40.6283C139.098 40.1219 137.909 39.2778 137.06 38.265C136.211 37.2521 135.361 36.0705 135.022 34.72C134.512 33.3695 134.172 31.8502 134.342 30.331C134.342 28.8117 134.512 27.2924 135.022 26.1107C135.531 24.7603 136.211 23.5786 137.06 22.5657C137.909 21.5529 138.928 20.7088 140.117 20.2024C141.306 19.696 142.664 19.3583 144.023 19.3583C145.552 19.3583 147.08 19.696 148.269 20.54C149.458 21.2153 150.477 22.2281 151.156 23.5786V11.4243H156.251V34.8888C156.251 35.3952 156.421 35.9017 156.591 36.0705C156.761 36.2393 157.101 36.4081 157.61 36.4081V40.9659C156.591 41.1347 155.912 41.3035 155.232 41.3035C154.213 41.3035 153.534 41.1347 152.855 40.6283C152.175 40.1219 151.836 39.4466 151.836 38.7714L151.666 37.4209C150.986 38.7714 149.798 39.7843 148.439 40.4595C147.25 41.1347 145.722 41.4724 144.363 41.4724ZM177.142 28.6429C176.972 27.1236 176.462 25.7731 175.443 24.7603C174.424 23.7474 173.065 23.241 171.707 23.241C170.348 23.241 168.989 23.7474 167.97 24.7603C167.461 25.2667 167.121 25.7731 166.782 26.4483C166.442 27.1236 166.272 27.7988 166.272 28.6429H177.142ZM171.537 41.4724C169.838 41.4724 168.31 41.1347 166.951 40.6283C165.593 40.1219 164.404 39.2778 163.385 38.265C162.366 37.2521 161.686 36.0705 161.177 34.72C160.667 33.3695 160.328 32.0191 160.328 30.4998C160.328 28.9805 160.667 27.63 161.177 26.2795C161.686 24.9291 162.366 23.7474 163.385 22.7345C164.404 21.7217 165.593 20.8776 166.951 20.3712C168.31 19.696 169.838 19.5272 171.707 19.5272C173.405 19.5272 174.934 19.8648 176.292 20.3712C177.651 20.8776 178.84 21.7217 179.859 22.7345C180.878 23.7474 181.557 24.9291 182.067 26.2795C182.576 27.63 182.746 28.9805 182.746 30.331C182.746 30.6686 182.746 31.0062 182.746 31.3438C182.746 31.6814 182.746 31.8502 182.576 32.1879H166.102C166.102 33.0319 166.442 33.7071 166.782 34.3824C167.461 35.564 168.48 36.5769 169.838 37.0833C170.518 37.2521 171.197 37.4209 171.877 37.4209C172.896 37.4209 174.084 37.0833 174.934 36.5769C175.953 36.0705 176.632 35.3952 176.972 34.5512L181.727 35.9017C180.878 37.5898 179.689 38.7714 177.991 39.9531C175.953 40.9659 173.915 41.4724 171.537 41.4724ZM184.784 26.4483C184.784 24.7603 185.124 22.9034 185.803 21.2153C186.483 19.5272 187.332 18.0079 188.521 16.6574C189.71 15.3069 191.238 14.1253 192.937 13.45C194.635 12.606 196.673 12.2684 198.881 12.2684C201.598 12.2684 203.806 12.7748 205.844 13.9565C207.712 15.1381 209.241 16.6574 210.26 18.5143L206.014 21.5529C205.675 20.8776 205.165 20.0336 204.655 19.5272C204.146 19.0207 203.636 18.5143 202.957 18.1767C202.278 17.8391 201.768 17.6703 200.919 17.5014C200.24 17.3326 199.56 17.3326 198.881 17.3326C197.522 17.3326 196.164 17.6703 195.144 18.1767C194.125 18.6831 193.276 19.5272 192.597 20.3712C191.918 21.2153 191.408 22.3969 191.068 23.4098C190.729 24.5914 190.559 25.6043 190.559 26.786C190.559 28.1364 190.729 29.3181 191.238 30.4998C191.578 31.6814 192.257 32.6943 192.937 33.5383C193.616 34.3824 194.635 35.2264 195.654 35.7328C196.673 36.2393 197.862 36.5769 199.051 36.5769C199.73 36.5769 200.41 36.5769 201.089 36.4081C202.448 36.0705 203.806 35.3952 204.825 34.2136C205.335 33.7071 205.844 33.0319 206.184 32.1879L210.77 34.8888C210.26 35.9017 209.581 36.9145 208.732 37.7586C207.882 38.6026 206.863 39.2778 205.844 39.7843C204.825 40.2907 203.636 40.7971 202.448 41.1347C201.259 41.4724 200.07 41.6412 198.881 41.6412C196.843 41.6412 194.975 41.1347 193.276 40.2907C191.578 39.4466 190.049 38.265 188.861 36.9145C187.672 35.564 186.652 33.8759 185.973 32.1879C185.294 30.1621 184.784 28.3053 184.784 26.4483ZM218.243 30.4998C218.243 31.5126 218.412 32.3567 218.751 33.0319C219.091 33.8759 219.431 34.5512 219.941 35.0576C220.961 36.2393 222.32 36.9145 223.847 36.9145C225.375 36.9145 226.905 36.2393 227.753 35.0576C228.264 34.5512 228.603 33.8759 228.943 33.0319C229.283 32.1879 229.452 31.3438 229.452 30.4998C229.452 29.6557 229.283 28.8117 228.943 27.9676C228.603 27.2924 228.264 26.6172 227.753 25.9419C226.734 24.7603 225.375 24.085 223.847 24.085C222.999 24.085 222.32 24.2538 221.64 24.5914C220.961 24.9291 220.45 25.4355 219.941 25.9419C219.431 26.6172 219.091 27.2924 218.751 27.9676C218.412 28.8117 218.243 29.6557 218.243 30.4998ZM223.847 41.4724C222.149 41.4724 220.621 41.1347 219.091 40.6283C217.732 40.1219 216.544 39.2778 215.525 38.265C214.506 37.2521 213.826 36.0705 213.318 34.72C212.807 33.3695 212.467 32.0191 212.467 30.4998C212.467 28.9805 212.807 27.63 213.318 26.2795C213.826 24.9291 214.506 23.7474 215.525 22.7345C216.544 21.7217 217.732 20.8776 219.091 20.3712C220.45 19.696 221.98 19.5272 223.847 19.5272C225.546 19.5272 227.074 19.8648 228.433 20.3712C229.791 20.8776 230.979 21.7217 231.999 22.7345C233.018 23.7474 233.697 24.9291 234.208 26.2795C234.716 27.63 235.056 28.9805 235.056 30.4998C235.056 31.8502 234.716 33.3695 234.208 34.72C233.697 36.0705 233.018 37.2521 231.999 38.265C230.979 39.2778 229.791 40.1219 228.433 40.6283C227.074 41.1347 225.546 41.4724 223.847 41.4724ZM258.493 40.9659H253.06V28.9805C253.06 27.2924 252.72 26.1107 252.209 25.2667C251.53 24.4226 250.852 24.085 249.662 24.085C249.154 24.085 248.643 24.2538 247.964 24.4226C247.455 24.5914 246.776 24.9291 246.436 25.2667C245.925 25.6043 245.417 26.1107 245.077 26.6172C244.737 27.1236 244.398 27.7988 244.229 28.4741V40.7971H238.793V19.8648H243.718V23.7474C244.566 22.3969 245.586 21.3841 247.115 20.54C248.643 19.696 250.342 19.3583 252.209 19.3583C253.568 19.3583 254.587 19.5272 255.438 20.0336C256.286 20.54 256.965 21.2153 257.305 21.8905C257.816 22.7345 258.153 23.5786 258.324 24.5914C258.493 25.6043 258.664 26.6172 258.664 27.63L258.493 40.9659ZM283.12 40.9659H277.687V28.9805C277.687 27.2924 277.347 26.1107 276.836 25.2667C276.157 24.4226 275.477 24.085 274.29 24.085C273.779 24.085 273.27 24.2538 272.591 24.4226C272.08 24.5914 271.403 24.9291 271.063 25.2667C270.553 25.6043 270.044 26.1107 269.704 26.6172C269.365 27.1236 269.025 27.7988 268.854 28.4741V40.7971H263.249V19.8648H268.174V23.7474C269.025 22.3969 270.044 21.3841 271.572 20.54C273.099 19.696 274.798 19.3583 276.668 19.3583C278.027 19.3583 279.046 19.5272 279.894 20.0336C280.742 20.54 281.422 21.2153 281.761 21.8905C282.272 22.7345 282.612 23.5786 282.781 24.5914C282.952 25.6043 283.12 26.6172 283.12 27.63V40.9659ZM303.331 28.6429C303.162 27.1236 302.652 25.7731 301.632 24.7603C300.613 23.7474 299.256 23.241 297.897 23.241C296.539 23.241 295.18 23.7474 294.16 24.7603C293.65 25.2667 293.31 25.7731 292.97 26.4483C292.633 27.1236 292.462 27.7988 292.462 28.6429H303.331ZM297.727 41.4724C296.028 41.4724 294.5 41.1347 293.141 40.6283C291.782 40.1219 290.594 39.2778 289.575 38.265C288.556 37.2521 287.877 36.0705 287.366 34.72C286.857 33.3695 286.518 32.0191 286.518 30.4998C286.518 28.9805 286.857 27.63 287.366 26.2795C287.877 24.9291 288.556 23.7474 289.575 22.7345C290.594 21.7217 291.782 20.8776 293.141 20.3712C294.5 19.696 296.028 19.5272 297.897 19.5272C299.596 19.5272 301.124 19.8648 302.483 20.3712C303.842 20.8776 305.03 21.7217 306.049 22.7345C307.068 23.7474 307.747 24.9291 308.256 26.2795C308.767 27.63 308.935 28.9805 308.935 30.331C308.935 30.6686 308.935 31.0062 308.935 31.3438C308.935 31.6814 308.936 31.8502 308.767 32.1879H292.293C292.293 33.0319 292.633 33.7071 292.97 34.3824C293.65 35.564 294.669 36.5769 296.028 37.0833C296.707 37.2521 297.387 37.4209 298.066 37.4209C299.085 37.4209 300.273 37.0833 301.124 36.5769C302.143 36.0705 302.822 35.3952 303.162 34.5512L307.916 35.9017C307.068 37.5898 305.88 38.7714 304.181 39.9531C302.143 40.9659 300.105 41.4724 297.727 41.4724ZM310.805 30.4998C310.805 28.9805 311.145 27.63 311.653 26.2795C312.164 24.9291 312.843 23.7474 313.86 22.7345C314.88 21.7217 316.07 20.8776 317.429 20.3712C318.788 19.696 320.315 19.5272 322.183 19.5272C324.561 19.5272 326.43 20.0336 328.127 21.0465C329.826 22.0593 331.016 23.4098 331.864 24.9291L326.599 26.6172C326.091 25.9419 325.58 25.2667 324.732 24.7603C323.881 24.4226 323.033 24.085 322.183 24.085C321.335 24.085 320.655 24.2538 319.976 24.5914C319.296 24.9291 318.788 25.2667 318.277 25.9419C317.768 26.4483 317.429 27.2924 317.089 27.9676C316.749 28.8117 316.578 29.6557 316.578 30.4998C316.578 31.3438 316.749 32.1879 317.089 33.0319C317.429 33.8759 317.768 34.5512 318.277 35.0576C318.788 35.564 319.296 36.0705 319.976 36.4081C320.655 36.7457 321.335 36.9145 322.183 36.9145C323.202 36.9145 324.052 36.7457 324.901 36.2393C325.751 35.7328 326.26 35.2264 326.599 34.3824L331.864 36.0705C331.185 37.7586 329.997 38.9402 328.298 40.1219C326.599 41.1347 324.561 41.6412 322.183 41.6412C320.486 41.6412 318.956 41.3035 317.429 40.7971C316.07 40.2907 314.88 39.4466 313.86 38.4338C312.843 37.4209 312.164 36.2393 311.653 34.8888C311.145 33.3695 310.805 31.8502 310.805 30.4998ZM348 39.9531C347.321 40.2907 346.301 40.6283 345.282 40.9659C344.263 41.3036 343.073 41.4724 341.885 41.4724C341.205 41.4724 340.357 41.3036 339.678 41.1347C338.998 40.9659 338.488 40.6283 337.979 40.2907C337.468 39.7843 337.129 39.2778 336.789 38.6026C336.449 37.9274 336.28 37.0833 336.28 36.2393V24.085H333.394V19.8648H336.28V12.9436H341.714V19.8648H346.13V24.085H341.714V34.3824C341.714 35.0576 341.885 35.7328 342.225 35.9017C342.564 36.2393 343.073 36.4081 343.752 36.4081C344.263 36.4081 344.942 36.2393 345.451 36.0705C345.962 35.9017 346.47 35.7329 346.81 35.564L348 39.9531Z" fill="white"/>
<path d="M47.3849 11.4254L32.0995 20.7099C29.2122 22.5668 27.3439 25.7741 27.3439 29.1503V46.8753C27.3439 49.0698 29.7218 50.4203 31.5899 49.2386L35.4961 46.8753C38.0439 45.356 39.5724 42.6551 39.5724 39.7853V35.7339C39.5724 32.3577 41.2707 29.1503 44.3278 27.4622L48.0642 25.2677C50.4421 23.7484 51.9706 21.2163 51.9706 18.3466V13.7888C51.6309 11.5942 49.2532 10.2438 47.3849 11.4254ZM4.92532 11.9319L19.3616 20.7099C22.4187 22.5668 24.287 25.943 24.287 29.4879V46.2001C24.287 48.7322 21.5696 50.2515 19.3616 48.901L16.4743 47.2129C13.9268 45.6936 12.2284 42.8239 12.2284 39.7853V36.2403C12.2284 32.6953 10.3602 29.3191 7.30306 27.4622L4.07613 25.4365C1.52855 23.9172 0 21.0475 0 18.1778V14.6328C0 12.1007 2.7174 10.5814 4.92532 11.9319Z" fill="white"/>
<path d="M46.2166 3.71381C47.4056 4.38905 47.915 6.07714 47.2357 7.2588C47.0659 7.59642 46.7262 7.93404 46.2166 8.27166L28.7233 18.4002C26.5155 19.5818 23.7979 19.5818 21.7599 18.4002L4.43639 8.10285C2.738 7.08999 2.738 4.55786 4.43639 3.545L8.68234 1.18166C11.3998 -0.168809 14.4569 -0.168809 17.0044 1.18166L20.7409 3.20736C23.6282 4.89545 27.1947 4.89545 30.2519 3.20736L34.1581 1.01285C36.5358 -0.337618 39.423 -0.337618 41.9706 1.01285C41.8009 1.18166 46.2166 3.71381 46.2166 3.71381Z" fill="white"/>
</svg>
