<!-- by TradingView --><svg width="56" height="56" xmlns="http://www.w3.org/2000/svg"><path fill="url(#paint0_linear)" d="M0 0h56v56H0z"/><path d="M41.88 39.327L31.561 13.95a2.81 2.81 0 00-.988-1.398A2.748 2.748 0 0028.968 12h-.907a2.747 2.747 0 00-1.6.555 2.81 2.81 0 00-.984 1.395l-4.488 11.059L18.236 25c-3 0-3 4 0 4h1.174l-4.28 10.327a2.26 2.26 0 00-.129.72c-.02.518.161 1.024.504 1.41a1.775 1.775 0 001.37.54 1.838 1.838 0 001.066-.36c.322-.245.574-.573.73-.95L23.395 29h2.306c3.038 0 3.038-4 .023-4l-.81.009 3.6-9.15 9.815 24.828c.155.377.407.705.73.95.31.228.681.354 1.065.36a1.753 1.753 0 001.38-.54c.34-.387.517-.893.494-1.41a1.721 1.721 0 00-.119-.72z" fill="#fff"/><defs><linearGradient id="paint0_linear" x1="58.5" y1="-2.5" x2="-1.5" y2="57.5" gradientUnits="userSpaceOnUse"><stop stop-color="#B14992"/><stop offset=".24" stop-color="#925C9A"/><stop offset=".492" stop-color="#647BA6"/><stop offset=".671" stop-color="#3896B1"/><stop offset=".956" stop-color="#00ABBB"/></linearGradient></defs></svg>